<svg xmlns="http://www.w3.org/2000/svg" xmlns:xlink="http://www.w3.org/1999/xlink" width="31.47754669189453" height="32" viewBox="0 0 31.47754669189453 32" fill="none">
<path d="M28.9144 11.9543C28.7345 10.72 28.2848 9.53143 27.6103 8.38855C26.8908 7.24571 26.0364 6.42283 25.0921 5.87427C22.484 4.50284 20.1906 4.91428 18.167 7.10855C17.5824 7.79427 17.0428 8.57143 16.6381 9.48571C16.1435 10.5828 15.8737 11.5886 15.8287 12.5028C15.8287 12.64 15.7837 12.7314 15.6938 12.7314C15.5139 12.7314 15.424 12.64 15.334 12.5028C15.1092 11.9543 15.0193 11.3143 15.0642 10.6743C15.0642 9.85143 15.2441 9.11999 15.6038 8.38855C16.4583 6.83427 16.4133 5.41716 15.424 4.13716C14.5246 2.90286 13.2655 2.4 11.7366 2.58286C10.4775 2.76572 9.30834 3.22284 8.22913 3.90856C7.05997 4.64 6.25053 5.46284 5.7559 6.46855C4.40686 9.11999 4.81158 11.4971 6.97003 13.5086C7.64455 14.1028 8.40899 14.6514 9.30834 15.1086C10.3426 15.6114 11.3319 15.84 12.2762 15.9314C12.4111 15.9314 12.5011 15.9771 12.5011 16.1143C12.5011 16.2514 12.4111 16.3428 12.2762 16.3885C10.8373 16.8914 9.48823 16.8 8.2741 16.1143L8.22913 16.1143C6.70022 15.2457 5.30622 15.3371 4.04711 16.2971C2.83299 17.2571 2.33834 18.4914 2.56318 20.0457C2.74305 21.28 3.19273 22.4685 3.86726 23.6114C4.58672 24.8 5.44113 25.6228 6.43042 26.1257C9.03854 27.5428 11.3319 27.1314 13.3105 24.9371C13.9401 24.2971 14.4347 23.4743 14.8844 22.56C15.379 21.5086 15.6488 20.5028 15.6938 19.5428C15.6938 19.4057 15.7388 19.3143 15.8737 19.3143C16.0086 19.3143 16.0985 19.4057 16.1435 19.5428C16.6381 21.0057 16.5482 22.3771 15.8737 23.6571C15.0193 25.2114 15.1092 26.6285 16.0535 27.9086C16.9979 29.1428 18.212 29.6457 19.7409 29.4628C20.955 29.28 22.1242 28.8228 23.2484 28.1371C24.4176 27.4057 25.227 26.5371 25.7216 25.5771C27.1156 22.9257 26.7109 20.5943 24.5525 18.5371C23.9229 17.9428 23.1135 17.3943 22.2141 16.9371C21.1799 16.4343 20.1906 16.2057 19.2463 16.1143C19.1113 16.1143 19.0214 16.0686 19.0214 15.9771C19.0214 15.84 19.1113 15.7028 19.2463 15.6571C19.8308 15.4286 20.4154 15.3371 21.045 15.3371C21.8544 15.3371 22.5739 15.5657 23.2484 15.9314C24.7773 16.8 26.1713 16.7543 27.4754 15.7486C28.5996 14.7428 29.0942 13.5086 28.9144 11.9543ZM24.6424 6.65143C25.4968 7.10855 26.2163 7.83999 26.8458 8.84571C27.4754 9.85143 27.8801 10.9486 28.015 12.0457C28.1949 13.2343 27.7902 14.24 26.8908 14.9714C25.9015 15.7028 24.8223 15.7486 23.6531 15.0628C22.8437 14.6057 21.9443 14.3771 21 14.3771C20.2805 14.3771 19.561 14.5143 18.8865 14.7428C18.3019 14.9714 18.0321 15.3828 18.0771 15.9314C18.0771 16.5714 18.4368 16.9371 19.2013 16.9371C20.0557 16.9828 20.9101 17.2114 21.8094 17.6686C22.6638 18.08 23.3383 18.5371 23.9229 19.0857C25.7666 20.7771 26.0814 22.7885 24.9122 25.0285C24.4625 25.8514 23.788 26.6285 22.7538 27.2228C21.7645 27.8628 20.7302 28.2743 19.606 28.4114C18.4368 28.5943 17.4476 28.1829 16.773 27.2686C16.0535 26.2628 16.0086 25.1657 16.6381 23.9771L16.6381 24.0229C17.4925 22.5143 17.5824 20.9143 16.9979 19.1314C16.773 18.5371 16.4133 18.2628 15.8287 18.3085C15.1992 18.3085 14.8394 18.6743 14.8394 19.4514C14.7944 20.32 14.5696 21.1886 14.1199 22.1029C13.7152 22.9714 13.2655 23.6571 12.7259 24.2514C11.0621 26.1257 9.08351 26.4457 6.88008 25.2571C6.07067 24.8 5.30622 24.1143 4.72164 23.0628C4.09209 22.0571 3.68737 21.0057 3.55248 19.8628C3.37259 18.6743 3.77731 17.6686 4.67667 16.9371C5.66595 16.2057 6.74519 16.16 7.91435 16.8C9.39828 17.6686 10.9722 17.76 12.636 17.1657C13.2206 16.9371 13.4904 16.5714 13.4454 15.9771C13.4454 15.3371 13.0856 14.9714 12.3212 14.9714C11.5118 14.9257 10.6124 14.6971 9.71306 14.2857C8.90365 13.8743 8.18415 13.4171 7.5546 12.8228C5.7559 11.1314 5.39616 9.16571 6.5653 6.87999C7.015 6.05714 7.68952 5.32572 8.72376 4.68572C9.71306 4.04572 10.7923 3.68 11.8715 3.49716C13.0407 3.31428 13.985 3.72572 14.7045 4.68572C15.424 5.69143 15.469 6.78855 14.7944 7.97714C14.3447 8.79999 14.1199 9.71427 14.1199 10.6743C14.1199 11.4514 14.2099 12.1828 14.4797 12.8686C14.7045 13.4628 15.1092 13.7371 15.6938 13.6914C16.3233 13.6914 16.6831 13.3257 16.6831 12.5486C16.7281 11.7257 16.9529 10.8114 17.4026 9.89714C17.8073 9.07427 18.257 8.34283 18.7516 7.70283C20.5054 5.82855 22.439 5.50856 24.6424 6.65143ZM17.4476 16.0228C17.4476 15.52 17.2677 15.1086 16.9529 14.7428C16.5931 14.3771 16.1884 14.1943 15.7388 14.24C15.2441 14.24 14.8394 14.4228 14.4797 14.7428C14.1199 15.1086 13.985 15.52 13.9401 16.0228C13.9401 16.5257 14.1199 16.9371 14.4797 17.3028C14.8394 17.6228 15.2441 17.8057 15.7388 17.8057C16.1885 17.8057 16.5931 17.6228 16.9079 17.3028L16.9529 17.3028C17.3126 16.8914 17.4476 16.48 17.4476 16.0228ZM16.3233 15.3828C16.5032 15.5657 16.5931 15.7486 16.5482 16.0228C16.5482 16.2514 16.4583 16.4343 16.3233 16.6171C16.1435 16.7543 15.9636 16.8457 15.7388 16.8457C15.5139 16.8457 15.2891 16.7543 15.1092 16.6171C14.9743 16.4343 14.8844 16.2514 14.8844 16.0228C14.8844 15.7943 14.9743 15.5657 15.1092 15.3828C15.2891 15.2 15.469 15.1086 15.7388 15.1543C15.9636 15.1543 16.1435 15.2 16.3233 15.3828Z"   fill="#00BFFF" >
</path>
</svg>
