<svg xmlns="http://www.w3.org/2000/svg" xmlns:xlink="http://www.w3.org/1999/xlink" width="36.97265625" height="15.60546875" viewBox="0 0 36.97265625 15.60546875" fill="none">
<g >
<path     fill="#000000"  d="M15.8008 15Q15.4297 15 15.0391 14.9023Q14.1211 14.7461 13.4375 14.4922Q12.9688 14.2969 12.2266 13.418Q11.7969 12.8711 11.6211 12.168Q11.1914 10.1953 11.1914 7.96875L11.2109 6.17188Q11.1719 5.03906 11.1719 4.14062L11.1523 2.87109L11.0742 2.46094Q10.2148 2.67578 9.43359 2.96875Q8.22266 3.45703 7.53906 3.82812Q7.40234 3.88672 7.28516 3.96484Q6.30859 4.51172 5.56641 4.80469Q5.21484 5 4.80469 5Q4.41406 4.96094 4.04297 4.84375Q3.67188 4.72656 3.35938 4.375Q3.67188 4.12109 4.02344 4.12109L4.12109 4.12109Q5.05859 4.10156 5.89844 3.67188L7.73438 2.87109Q7.96875 2.75391 8.18359 2.62695Q8.39844 2.5 9.84375 1.79688L10.8789 1.36719Q11.2305 1.21094 11.582 1.21094Q11.7773 1.21094 11.9922 1.25Q12.207 1.28906 12.3438 1.46484Q12.4805 1.64062 12.7148 1.82617Q12.9492 2.01172 13.0664 2.1875Q13.1836 2.36328 13.1836 2.53906Q13.1836 2.69531 13.1055 2.85156Q12.793 3.41797 12.5977 4.02344L12.3242 4.74609L12.2852 4.88281Q11.9141 6.58203 11.9141 8.57422Q11.9141 9.53125 12.0312 10.4688L12.0312 10.5078Q12.1289 11.6406 12.6172 12.6758Q12.9883 13.3398 13.6914 13.457Q14.0234 13.5156 14.3359 13.5156Q14.9023 13.5156 15.4883 13.3105Q16.0742 13.1055 16.1328 13.0859Q16.5039 12.9883 16.6016 12.5391Q16.7383 11.7773 16.7383 11.0352Q16.7383 10.2734 16.6016 9.51172L16.3867 8.08594L16.4258 8.06641Q16.6211 8.47656 16.7578 8.84766Q17.2461 10.0195 17.2949 10.1855Q17.3438 10.3516 17.4023 10.4883Q17.6953 11.1328 17.7734 11.8555Q17.7734 12.0117 17.8711 12.5977L17.9688 13.4766Q18.0078 13.6133 18.0664 13.7305Q18.0078 14.0039 17.8906 14.2578Q17.7344 14.5898 17.3145 14.7656Q16.8945 14.9414 16.5625 14.9414L16.5039 14.9414L16.2891 14.9609Q16.0547 15 15.8008 15ZM10.1367 12.8516L10.0977 12.8516Q10.0391 12.8516 9.94141 12.8125Q9.14062 12.4609 8.69141 11.6602Q8.37891 11.0352 7.42188 10.293Q7.28516 10.4297 7.14844 10.4883Q6.875 10.6641 6.79688 10.8008Q6.36719 11.0547 5.97656 11.3477Q5.15625 11.9922 4.16016 12.2656L3.96484 12.3438Q3.94531 12.3242 3.93555 12.3047Q3.92578 12.2852 3.90625 12.2852L4.21875 11.9141Q4.57031 11.5039 4.94141 11.1133Q5.82031 10.2539 6.54297 9.17969Q6.21094 8.78906 5.79102 8.52539Q5.37109 8.26172 4.96094 8.00781Q5.46875 7.79297 5.97656 7.79297Q6.52344 7.79297 7.07031 8.04688Q7.32422 7.8125 7.40234 7.48047L7.51953 7.1875Q7.71484 6.77734 7.83203 6.34766Q7.85156 6.30859 7.85156 6.25Q7.92969 5.97656 7.92969 5.70312Q7.92969 5.46875 7.68555 5.38086Q7.44141 5.29297 7.28516 5.17578Q7.53906 4.90234 7.82227 4.83398Q8.10547 4.76562 8.33984 4.66797Q8.35938 4.66797 8.35938 4.64844Q8.51562 4.58984 8.65234 4.58984Q9.04297 4.58984 9.41406 5.13672Q9.58984 5.39062 9.78516 5.625Q10.0391 5.91797 10.0391 6.21094Q10.0391 6.50391 9.86328 6.875Q9.57031 7.44141 8.41797 9.16016Q9.57031 9.98047 10.0391 10.7422Q10.6445 11.6406 10.6445 11.9922Q10.6445 12.1875 10.5273 12.4707Q10.4102 12.7539 10.1367 12.8516ZM0.742188 14.0625L0.703125 14.0625Q0.449219 14.0625 0.0390625 13.4375Q0 13.3984 0 13.3203Q0 13.0273 0.214844 12.5Q0.292969 12.2852 0.292969 12.0898Q0.292969 11.8359 0.175781 11.6016Q0.136719 11.5234 0.126953 11.4355Q0.117188 11.3477 0.0976562 11.2695Q0.742188 11.7578 0.820312 12.6758L1.01562 12.3047Q1.79688 10.7617 2.40234 8.41797L2.42188 8.37891Q2.75391 7.34375 2.75391 6.64062Q2.75391 5.99609 2.50977 5.40039Q2.26562 4.80469 2.16797 3.98438Q2.12891 3.69141 2.12891 3.41797Q2.12891 2.94922 2.24609 2.59766L2.34375 3.02734Q2.48047 3.69141 2.91016 4.17969Q3.59375 5.03906 4.23828 5.9375Q4.53125 6.36719 4.53125 6.89453L4.51172 7.1875Q4.33594 8.28125 3.86719 9.23828Q3.73047 9.55078 3.61328 9.87305Q3.49609 10.1953 3.33984 10.5469Q2.51953 12.4414 1.48438 13.5742Q1.17188 13.9258 0.742188 14.0625ZM20.1562 15.6055Q20.2344 15.5859 20.3418 15.5762Q20.4492 15.5664 20.5859 15.5273Q22.1484 15.0391 22.3828 14.8828Q23.8672 13.7891 24.8633 12.4023Q25.0195 12.1875 25.4102 11.543Q25.7227 11.1133 25.918 10.625L26.2695 10L26.3086 9.86328Q26.3672 9.53125 26.5234 9.25781L26.6211 9.04297L26.8555 9.12109Q27.2461 9.31641 27.6367 9.31641Q28.3594 9.31641 29.0234 8.98438L29.375 8.84766L29.5703 8.78906L29.5703 9.53125L29.4727 10.3711Q29.4727 10.7227 29.1992 10.8984Q28.9844 10.9961 28.7891 11.1328L28.2617 11.4258Q28.0469 11.5234 27.8711 11.6406Q27.6953 11.7578 27.4414 11.7578Q27.4805 11.7188 27.5 11.6406Q27.5195 11.5625 27.6562 11.4941Q27.793 11.4258 27.8516 11.3477Q28.125 11.0352 28.2129 10.8984Q28.3008 10.7617 28.3008 10.6836Q28.2812 10.6055 28.1641 10.5273Q27.8906 10.3711 27.7539 10.0977Q27.6562 10 27.5684 9.9707Q27.4805 9.94141 27.3047 9.94141Q27.0117 10.0391 26.8945 10.0391Q26.875 10.0391 26.8652 10.0586Q26.8555 10.0781 26.8555 10.0977Q26.8164 10.1953 26.6992 10.1953Q26.6602 10.1953 26.6406 10.2051Q26.6211 10.2148 26.5234 10.5078Q26.6406 10.6055 26.7383 10.752Q26.8359 10.8984 27.0312 10.9961Q27.0898 11.0352 27.1094 11.0938Q27.1094 11.1914 27.041 11.2891Q26.9727 11.3867 26.8848 11.5234Q26.7969 11.6602 26.6797 11.7773Q26.2891 12.3047 25.8008 12.7344Q25.6055 12.9297 25.3809 13.0273Q25.1562 13.125 25.0391 13.3398Q25 13.418 25 13.5156Q25 13.6914 25.2344 13.8477Q25.332 13.9648 25.4297 14.0039Q25.5469 14.1602 25.7227 14.1602Q26.3477 14.082 26.875 13.7695Q26.9531 13.7305 26.9922 13.6816Q27.0312 13.6328 27.0703 13.6133L27.4805 13.3008Q27.7539 13.1445 27.9492 12.9004Q28.1445 12.6562 28.3984 12.4609L28.5156 12.3633Q28.8672 12.0508 29.082 11.7773L29.2578 11.6211L29.2969 11.6602L29.2578 11.7773Q29.2188 11.9141 29.2188 12.1289Q29.2188 12.3438 29.1211 12.6367Q29.082 12.7734 28.9453 12.8125L28.8867 12.8516Q28.8086 12.7539 28.7598 12.666Q28.7109 12.5781 28.6523 12.5195Q28.75 12.9492 28.9258 13.5547Q28.9844 13.75 29.1406 13.8867Q29.5898 14.2773 29.7656 14.4727Q29.7852 14.4922 29.8242 14.4922Q30.0391 14.4531 30.1367 14.1992Q30.1562 14.1211 30.2148 14.0625Q30.0586 13.6523 30.0586 13.2617L30.0781 12.8516L30.0586 12.5586L30.0977 11.9336Q30.1172 11.6406 30.1562 11.3965Q30.1953 11.1523 30.2051 10.918Q30.2148 10.6836 30.4004 10.498Q30.5859 10.3125 30.7617 10.1172L30.9375 9.94141L30.8984 9.92188L30.2734 10.2734Q30.3125 9.70703 30.4492 9.18945Q30.5859 8.67188 30.957 8.24219L30.332 7.55859Q30.2734 7.48047 30.2148 7.48047L30.1758 7.5Q29.9023 7.55859 29.6484 7.65625Q29.2383 7.79297 27.9492 8.4375Q27.5977 8.57422 27.2266 8.57422L26.8359 8.61328L26.8555 8.51562L26.8945 8.14453L26.9141 8.10547Q27.0117 8.04688 27.0508 7.93945Q27.0898 7.83203 27.0898 7.67578Q27.1484 7.44141 27.2559 7.40234Q27.3633 7.36328 27.4023 7.29492Q27.4414 7.22656 27.4414 7.12891L27.4219 6.99219L27.7734 7.34375Q27.9297 7.26562 28.0078 7.26562L28.1055 7.28516Q28.2031 7.28516 28.3398 7.1875Q28.3984 7.16797 28.457 7.13867Q28.5156 7.10938 28.5938 7.05078Q28.8672 6.875 29.1504 6.76758Q29.4336 6.66016 29.7266 6.54297Q30.0195 6.42578 30.332 6.30859Q30.5859 6.17188 30.8984 6.13281Q30.957 6.13281 31.0059 6.10352Q31.0547 6.07422 31.1133 6.05469Q31.3867 5.91797 31.6797 5.83984L33.2031 5.52734Q33.7109 5.42969 33.9258 5.17578Q33.8867 5.15625 33.8574 5.10742Q33.8281 5.05859 33.7695 5.01953Q33.5547 4.88281 33.418 4.66797Q33.3594 4.55078 33.2227 4.55078Q32.8125 4.55078 32.7148 4.53125Q33.0859 4.16016 33.3008 3.86719Q33.6133 3.37891 34.1211 3.10547Q34.1797 3.10547 34.1797 3.04688L34.1992 3.04688L34.2578 2.94922Q34.5898 2.5 34.5898 2.40234Q34.5898 2.30469 34.4727 2.20703Q34.1211 1.95312 33.8867 1.58203Q33.8086 1.46484 33.6914 1.46484Q33.5742 1.46484 33.4375 1.60156L32.9297 2.10938Q32.832 2.20703 32.7539 2.20703Q32.3828 2.20703 32.1289 2.28516L31.8359 2.36328Q31.4648 2.42188 31.1133 2.51953Q30.4688 2.67578 29.4141 2.83203Q28.8086 2.91016 28.1445 3.02734L27.6367 3.125Q27.4414 3.125 27.3633 3.00781Q27.4805 2.91016 27.5977 2.85156Q27.4219 2.89062 27.2656 2.95898Q27.1094 3.02734 26.9824 3.05664Q26.8555 3.08594 26.6406 3.08594L26.543 3.28125Q26.4453 3.39844 26.4453 3.45703Q26.4453 3.51562 26.5234 3.59375L26.9336 4.02344Q27.2656 4.41406 27.7148 4.41406Q28.3984 4.41406 28.9844 4.14062L29.8242 3.80859Q30.1367 3.75 30.4199 3.60352Q30.7031 3.45703 30.9961 3.38867Q31.2891 3.32031 31.543 3.19336Q31.7969 3.06641 32.1094 3.02734L32.3828 2.96875Q32.4023 3.02734 32.4023 3.10547Q32.4023 3.18359 32.3633 3.28125Q32.2461 3.47656 32.1582 3.68164Q32.0703 3.88672 31.9824 4.10156Q31.8945 4.31641 31.7969 4.54102Q31.6992 4.76562 31.4844 4.90234Q30.5469 5.39062 29.5312 5.68359Q28.7695 5.9375 27.9297 5.99609Q27.9883 6.01562 28.0566 6.02539Q28.125 6.03516 28.1836 6.07422Q28.1055 6.17188 27.9883 6.21094Q27.8711 6.25 27.7441 6.28906Q27.6172 6.32812 27.4805 6.38672Q27.4023 6.25 27.4023 6.17188Q27.4023 6.13281 27.4316 6.09375Q27.4609 6.05469 27.7148 6.05469Q27.8711 6.05469 27.9492 5.97656L27.6562 5.97656Q27.3438 5.97656 27.1875 5.68359Q27.1094 5.54688 26.9727 5.44922L26.9336 5.41016Q26.7578 5.29297 26.6211 5.09766Q26.5625 5 26.4844 5Q26.4258 5 26.3477 5.07812Q26.1914 5.23438 26.1914 5.42969Q26.1914 5.50781 26.2109 5.57617Q26.2305 5.64453 26.2695 5.74219Q26.3086 5.83984 26.3086 5.95703Q26.2695 6.71875 25.8008 7.71484L25.7227 7.92969L25.2148 9.08203Q25.1172 9.27734 25.0977 9.375Q25.0391 9.62891 24.9023 9.86328L24.8438 9.98047Q24.7656 10.1562 24.668 10.3418Q24.5703 10.5273 24.4531 10.7422L24.3555 10.957Q24.2383 11.2695 23.9258 11.7383L23.6328 12.1289Q23.3008 12.7148 22.8125 13.2031Q22.5781 13.3789 22.373 13.6523Q22.168 13.9258 21.9727 14.0234Q21.6602 14.3359 21.4453 14.4922L20.5664 15.1953Q20.293 15.4297 20.1562 15.6055ZM35.918 15.5859L36.1133 15.4102Q36.2891 15.3125 36.3867 15.0391Q36.582 14.4336 36.582 13.8086Q36.582 13.2227 36.5137 12.8027Q36.4453 12.3828 36.4062 11.9727Q36.4062 11.7578 36.3672 11.5625Q36.3281 11.1914 36.3281 10.8398L36.2695 10.0195Q36.2695 9.80469 36.1914 9.72656L36.1914 9.64844Q36.1914 9.58984 36.2109 9.56055Q36.2305 9.53125 36.2305 9.47266Q36.1914 9.43359 36.1914 9.14062L36.2109 8.55469L36.1719 8.18359Q36.1719 7.75391 36.6992 7.32422Q36.875 7.16797 36.9141 6.97266Q36.9727 6.85547 36.9727 6.73828L36.25 5.87891Q36.1719 5.80078 36.1133 5.80078L35.9961 5.82031L35.8984 5.80078Q35.8008 5.80078 35.6641 5.87891Q35.6055 5.9375 35.5078 5.95703Q35.4102 5.97656 35.332 6.04492Q35.2539 6.11328 35.1367 6.13281Q35.0195 6.15234 34.9219 6.21094Q34.6875 6.42578 34.4727 6.42578Q34.1211 6.5625 33.75 6.64062Q33.2227 6.73828 32.7344 6.93359L32.5 6.95312L32.4023 6.95312Q32.3047 6.95312 32.2266 6.97266L32.0312 6.97266Q31.6992 6.97266 31.4258 7.14844L31.5625 7.34375Q31.7383 7.51953 31.9141 7.71484Q32.0898 7.91016 32.3633 7.91016Q32.8711 7.91016 33.1348 7.85156Q33.3984 7.79297 33.623 7.76367Q33.8477 7.73438 34.0234 7.69531Q34.1992 7.65625 34.8242 7.48047L34.9023 7.48047Q35.0977 7.48047 35.127 7.70508Q35.1562 7.92969 35.1562 8.20312Q35.1562 9.19922 35.0781 9.82422Q35.0586 9.82422 35.0293 9.85352Q35 9.88281 34.9805 9.89258Q34.9609 9.90234 34.1406 10.3125L33.6133 10.6641L32.7734 11.1719Q32.7148 11.1914 32.666 11.2109Q32.6172 11.2305 32.5977 11.2402Q32.5781 11.25 32.5391 11.25L32.4805 11.25Q32.3047 11.25 32.0703 11.4258L31.2891 12.0508Q31.1914 12.1289 31.0645 12.207Q30.9375 12.2852 30.8105 12.4023Q30.6836 12.5195 30.6445 12.7344L30.7812 12.8516Q30.9961 13.0664 31.2305 13.2617Q31.2891 13.3594 31.543 13.3594Q31.7578 13.3594 32.041 13.252Q32.3242 13.1445 32.5391 12.8906L32.793 12.6953L32.9297 12.8516L33.1641 13.1445L34.6875 14.6289Q34.9805 14.9219 35.3125 15.1953Q35.4492 15.3125 35.918 15.5859ZM34.7461 13.418Q34.3164 13.418 33.2812 12.7539Q33.1445 12.6758 33.0078 12.5586Q33.5547 12.1484 34.1016 11.5625Q34.6484 10.918 34.8438 10.7227Q34.8633 10.6836 35.0195 10.5859L35.0391 12.1875L35.0586 12.4023Q35 12.5391 35 12.6758L35.0195 12.8125Q35.0195 13.418 34.7461 13.418ZM31.3672 2.03125Q31.543 2.03125 31.6797 1.85547L31.9141 1.50391Q31.8555 1.19141 31.6211 0.976562Q31.25 0.644531 30.957 0.234375Q30.8984 0.136719 30.8496 0.0878906Q30.8008 0.0390625 30.7617 0.0195312Q30.7227 0 30.6836 0Q30.0781 0 29.8438 0.0390625L29.6875 0.0390625Q29.5117 0.078125 29.3164 0.078125L29.1797 0.0976562Q28.8477 0.117188 28.6523 0.351562L28.6719 0.390625Q28.6914 0.390625 28.7305 0.371094Q28.7695 0.351562 28.8281 0.332031Q28.8867 0.3125 28.9648 0.3125Q29.4141 0.3125 29.8633 0.820312Q29.9219 0.878906 29.9609 0.917969Q30 0.957031 30.0391 0.976562Q30.3125 1.25 30.3711 1.60156Q30.3906 1.77734 30.5664 1.83594L30.7227 1.875Q31.2305 2.03125 31.3672 2.03125ZM33.8477 10.0391Q33.9258 10.0391 34.0039 10.0098Q34.082 9.98047 34.1602 9.98047Q34.3359 9.94141 34.3359 9.72656Q34.3359 9.66797 34.4141 9.51172L34.3555 9.45312Q34.0625 9.21875 33.8867 8.88672Q33.8867 8.82812 33.8086 8.82812L33.7695 8.84766Q33.7109 8.86719 33.6523 8.86719Q33.4375 8.90625 33.2617 9.00391Q32.7344 9.35547 32.1289 9.47266L32.0898 9.47266Q31.9141 9.47266 31.8359 9.64844Q31.875 9.66797 31.9336 9.73633Q31.9922 9.80469 32.0898 9.89258Q32.1875 9.98047 32.2656 9.98047Q32.4609 9.98047 32.6367 10Q32.8125 10.0195 32.9883 10.0195Q33.2227 10.0195 33.4766 9.98047Q33.5742 9.98047 33.6328 10.0098Q33.6914 10.0391 33.75 10.0391L33.8477 10.0391Z">
</path>
</g>
</svg>
