<svg xmlns="http://www.w3.org/2000/svg" xmlns:xlink="http://www.w3.org/1999/xlink" width="37.32421875" height="42.4609375" viewBox="0 0 37.32421875 42.4609375" fill="none">
<g >
<path     fill="#000000"  d="M0.625 14.2969Q0.351562 14.2969 0.214844 14.1016Q0.0976562 13.9844 0.0195312 13.9453Q0.117188 13.7305 0.371094 13.7207Q0.625 13.7109 0.898438 13.4766L0.976562 13.4375Q1.79688 12.8125 1.99219 12.6465Q2.1875 12.4805 2.42188 12.3438Q2.71484 12.1484 2.94922 11.9141L3.30078 11.6016Q3.59375 11.3867 3.84766 11.1133L4.16016 10.8008Q4.39453 10.6055 4.76562 10.1758L4.90234 10Q5.01953 9.98047 5.06836 9.91211Q5.11719 9.84375 5.16602 9.75586Q5.21484 9.66797 5.27344 9.58984Q5.41016 9.47266 5.50781 9.33594Q5.83984 9.00391 6.13281 8.63281L6.36719 8.33984Q6.54297 8.125 6.81641 8.02734Q7.26562 7.91016 7.71484 7.89062Q7.75391 7.89062 7.75391 7.87109Q7.89062 7.77344 8.04688 7.73438Q8.22266 7.63672 8.38867 7.53906Q8.55469 7.44141 8.76953 7.36328L8.84766 7.30469L8.84766 7.28516L8.82812 7.24609Q8.78906 7.26562 8.73047 7.26562L7.92969 7.44141Q7.63672 7.53906 7.57812 7.57812L7.22656 7.67578Q6.77734 7.8125 6.74805 7.83203Q6.71875 7.85156 6.69922 7.86133Q6.67969 7.87109 6.66016 7.89062L6.62109 7.91016L6.5625 7.91016Q6.34766 7.91016 6.13281 8.02734Q6.01562 8.08594 5.87891 8.125Q5.58594 8.20312 5.3125 8.33984Q5.23438 8.35938 5.17578 8.39844L4.82422 8.53516Q4.41406 8.67188 4.0625 8.88672Q4.04297 8.94531 3.94531 8.94531L3.82812 8.92578Q3.75 8.92578 3.69141 8.97461Q3.63281 9.02344 3.58398 9.04297Q3.53516 9.0625 3.49609 9.08203L3.04688 9.25781Q2.96875 9.27734 2.91016 9.31641Q2.77344 9.39453 2.61719 9.39453L2.55859 9.45312Q2.5 9.51172 2.16797 9.64844Q2.14844 9.66797 2.03125 9.66797Q1.95312 9.74609 1.75781 9.74609L1.67969 9.74609Q1.60156 9.74609 1.54297 9.76562L1.46484 9.72656Q0.878906 9.35547 0.449219 8.84766Q0.390625 8.78906 0.390625 8.73047L0.390625 8.49609L0.78125 8.33984Q0.898438 8.28125 0.957031 8.28125L1.28906 8.32031Q1.54297 8.32031 1.79688 8.37891Q1.95312 8.41797 2.08984 8.41797Q2.32422 8.41797 2.53906 8.32031Q2.59766 8.28125 2.65625 8.28125Q2.98828 8.24219 3.28125 8.125L3.61328 8.00781Q4.74609 7.61719 5.87891 7.26562L6.32812 7.12891Q6.40625 7.10938 6.45508 7.08008Q6.50391 7.05078 6.5625 7.03125L6.11328 6.67969L5.97656 6.48438Q5.80078 6.21094 5.27344 5.83984Q5.21484 5.80078 5.15625 5.75195Q5.09766 5.70312 5.01953 5.70312Q4.92188 5.70312 4.60938 5.89844L3.76953 6.52344Q3.67188 6.62109 3.65234 6.66016Q3.57422 6.83594 3.45703 6.83594L3.35938 6.81641Q3.28125 6.81641 3.26172 6.86523Q3.24219 6.91406 3.22266 6.91406L3.14453 6.89453Q2.98828 6.85547 2.75391 6.66016L2.71484 6.64062L2.48047 6.42578Q2.26562 6.28906 2.26562 6.13281Q2.26562 6.05469 2.38281 5.91797Q2.5 5.78125 2.61719 5.66406L2.79297 5.48828Q3.02734 5.03906 3.20312 4.58984Q3.33984 4.31641 3.33984 4.00391L3.32031 3.73047Q3.32031 3.65234 3.4375 3.61328Q3.4375 3.63281 3.45703 3.64258Q3.47656 3.65234 3.49609 3.65234Q3.73047 3.96484 3.82812 4.375Q3.88672 4.55078 4.00391 4.66797Q4.23828 4.90234 4.39453 4.90234Q4.47266 4.90234 6.15234 4.10156Q6.42578 3.98438 6.54297 3.73047L6.5625 3.71094Q6.58203 3.69141 6.58203 3.65234L6.58203 3.51562Q6.58203 3.16406 6.66016 2.83203Q6.69922 2.65625 6.69922 2.44141Q6.69922 2.22656 6.71875 2.08984Q6.73828 1.83594 6.73828 1.54297Q6.73828 0.898438 6.28906 0.839844Q6.17188 0.839844 6.04492 0.810547Q5.91797 0.78125 5.76172 0.78125Q5.60547 0.78125 5.45898 0.830078Q5.3125 0.878906 5.20508 0.917969Q5.09766 0.957031 5 0.996094L5.03906 0.976562Q5.3125 0.703125 5.625 0.546875Q5.87891 0.449219 6.09375 0.292969Q6.38672 0.0390625 6.77734 0.0195312Q7.07031 0.0195312 7.24609 0L7.30469 0Q7.44141 0 7.61719 0.175781Q8.37891 0.996094 8.37891 1.19141L8.35938 1.32812L8.20312 1.91406Q8.16406 1.99219 8.0957 2.08008Q8.02734 2.16797 8.00781 2.26562Q7.77344 3.04688 7.73438 4.02344Q7.69531 4.23828 7.61719 5.44922L7.61719 5.72266L7.91016 5.52734Q8.88672 4.72656 9.82422 3.82812Q10.293 3.41797 10.293 3.24219Q10.293 3.125 10.1758 3.04688Q9.94141 2.87109 9.66797 2.87109L8.73047 2.98828L8.90625 2.91016L9.35547 2.75391Q9.76562 2.63672 10.1562 2.48047Q10.5469 2.32422 10.918 2.32422Q11.1523 2.32422 11.3086 2.53906L11.4844 2.77344L11.5039 2.77344Q11.7773 3.125 11.8945 3.20312Q12.0898 3.39844 12.1094 3.51562Q12.1094 3.59375 12.0898 3.61328Q12.0117 3.71094 11.9531 3.83789Q11.8945 3.96484 11.7285 4.10156Q11.5625 4.23828 10.918 4.62891Q10.7812 4.62891 10.5664 4.78516Q10.5078 4.86328 10.4102 4.90234Q9.88281 5.21484 9.58984 5.3125Q9.39453 5.37109 9.20898 5.48828Q9.02344 5.60547 8.78906 5.66406Q8.73047 5.66406 8.69141 5.70312Q8.65234 5.74219 8.61328 5.76172L7.69531 6.25Q7.57812 6.28906 7.57812 6.40625L7.5 6.71875L7.57812 6.71875Q7.73438 6.71875 7.92969 6.62109Q8.125 6.62109 8.76953 6.36719Q8.96484 6.28906 9.16016 6.26953Q9.43359 6.25 9.66797 6.13281Q9.70703 6.11328 9.83398 6.11328Q9.96094 6.11328 10.2734 5.99609Q10.918 5.78125 11.0938 5.78125Q11.1914 5.78125 11.3184 5.9668Q11.4453 6.15234 11.6016 6.26953Q11.8555 6.46484 11.8555 6.71875L11.8555 6.79688Q11.6016 7.01172 11.2891 7.12891Q10.8984 7.32422 10.8594 7.32422Q10.8203 7.32422 10.5273 7.38281Q9.29688 7.71484 8.08594 8.20312Q7.98828 8.24219 7.87109 8.26172Q7.59766 8.39844 7.50977 8.68164Q7.42188 8.96484 6.66016 9.76562L6.07422 10.4297Q6.01562 10.4883 5.97656 10.5078Q5.9375 10.5273 5.91797 10.5469L5.89844 10.5469Q5.80078 10.7227 5.66406 10.8008Q5.52734 10.8789 5.44922 10.9766Q5.37109 11.0742 5.27344 11.1523L5.25391 11.1523Q5.21484 11.2109 5.15625 11.25Q4.94141 11.3867 4.78516 11.5625Q4.55078 11.7773 4.29688 11.9727Q4.04297 12.168 3.78906 12.4023Q3.16406 12.8906 2.91992 13.0469Q2.67578 13.2031 2.44141 13.3789Q2.20703 13.5547 1.96289 13.6816Q1.71875 13.8086 1.50391 13.9648Q1.17188 14.1797 0.78125 14.2773L0.625 14.2969ZM3.69141 5.35156L3.71094 5.33203Q3.75 5.3125 3.79883 5.2832Q3.84766 5.25391 3.90625 5.23438Q4.12109 5.13672 4.12109 5.03906Q4.12109 4.96094 3.96484 4.82422Q3.94531 4.80469 3.94531 4.79492Q3.94531 4.78516 3.92578 4.78516Q3.84766 4.72656 3.78906 4.72656Q3.71094 4.74609 3.68164 4.87305Q3.65234 5 3.61328 5.17578L3.59375 5.33203Q3.63281 5.33203 3.65234 5.35156L3.69141 5.35156ZM6.23047 5.99609Q6.38672 5.99609 6.40625 5.76172L6.42578 5.29297Q6.42578 5 6.46484 4.70703L6.46484 4.6875Q6.46484 4.55078 6.28906 4.49219L5.27344 5.37109Q5.29297 5.48828 5.29297 5.50781Q5.29297 5.52734 5.37109 5.60547L5.42969 5.625Q6.11328 5.99609 6.23047 5.99609ZM14.1797 15.1562Q14.0039 15.1562 13.8281 15.0977Q13.6523 15.0977 13.5742 15.0684Q13.4961 15.0391 13.3789 15.0391Q13.2812 15.0391 13.2129 15.0781Q13.1445 15.1172 13.1055 15.1172Q13.0469 15.1172 13.0078 15.0977Q12.7148 14.9805 12.4121 14.9805Q12.1094 14.9805 11.1133 14.8047L9.94141 14.6094Q9.16016 14.5312 8.63281 13.9648Q8.4375 13.75 8.20312 13.5938Q7.91016 13.3594 7.91016 13.0273L7.89062 12.6172L7.92969 12.0117Q7.92969 11.6602 8.04688 11.2891Q8.125 11.0352 8.16406 10.7812Q8.18359 10.6055 8.22266 10.4199Q8.26172 10.2344 8.33008 10.0293Q8.39844 9.82422 8.39844 9.74609Q8.45703 9.58984 8.45703 9.45312Q8.45703 9.14062 7.53906 9.14062L7.53906 9.10156L8.08594 8.88672L8.76953 8.65234Q8.88672 8.65234 8.96484 8.76953Q9.12109 8.98438 9.31641 9.16016L9.47266 9.29688Q9.70703 9.49219 9.70703 9.70703L9.66797 9.90234Q9.58984 10.1562 9.52148 10.4297Q9.45312 10.7031 9.375 10.8008Q9.25781 10.9961 9.16016 11.2109L9.14062 11.2891Q9.02344 11.5234 8.92578 11.7773L8.86719 11.9727Q8.65234 12.4609 8.65234 12.9883Q8.69141 13.3984 9.10156 13.5547Q9.43359 13.6914 9.88281 13.6914L10.5859 13.7109L11.3672 13.6523L11.8359 13.5938Q12.168 13.5742 12.4805 13.5352Q12.6562 13.4961 12.8516 13.4766Q13.2422 13.457 13.6133 13.3203L13.6328 13.3008Q13.8672 13.2812 14.0527 13.1934Q14.2383 13.1055 14.4141 13.0664Q14.6875 13.0078 14.8242 12.6367Q14.8438 12.5586 14.8828 12.5Q14.9219 12.4414 14.9609 12.4023L15.0195 12.207Q15.1367 11.7383 15.1367 11.2402Q15.1367 10.7422 15.2344 10.3906L15.2344 10.293Q15.1953 10.0977 15.1953 9.90234Q15.1953 9.60938 15.2539 9.36523Q15.3125 9.12109 15.332 8.90625Q15.332 8.76953 15.3906 8.63281Q15.4102 8.69141 15.4102 8.76953Q15.4883 9.08203 15.5664 9.55078Q15.7617 10.6055 15.9766 11.4844Q16.0742 11.9141 16.1133 12.3633L16.1719 12.7344Q16.25 13.2812 16.2695 13.8281Q16.2695 14.2383 15.957 14.5508Q15.6445 14.8633 15.2344 15Q14.9609 15.0977 14.707 15.0977L14.6289 15.0977Q14.5508 15.0977 14.4336 15.127Q14.3164 15.1562 14.1797 15.1562ZM24.8242 11.2305Q24.9609 11.2305 25 11.0742Q25 11.0547 25.0293 11.0352Q25.0586 11.0156 25.0879 11.0156Q25.1172 11.0156 25.1367 11.0059Q25.1562 10.9961 25.2148 10.9375L25.2734 10.7617Q25.5078 10.2539 25.5078 9.27734L25.5859 8.51562L25.5469 8.08594L25.5664 7.91016Q25.5859 7.75391 25.6055 7.59766Q25.625 7.44141 25.6836 7.32422Q25.7227 7.30469 25.7422 7.26562Q25.9766 6.97266 26.2891 6.79688Q26.7188 6.58203 27.1094 6.32812Q27.7734 5.87891 28.418 5.09766L28.5742 4.94141L29.0625 4.33594L29.1992 4.25781Q29.1992 4.33594 29.2285 4.44336Q29.2578 4.55078 29.2773 4.6875Q29.2969 4.94141 29.4922 5.09766Q29.7852 5.33203 30.0391 5.625Q30.2539 5.83984 30.4688 5.83984Q30.5273 5.83984 30.5859 5.82031Q30.6445 5.80078 30.7129 5.77148Q30.7812 5.74219 30.8594 5.72266L31.0352 5.74219Q31.0938 5.74219 31.123 5.71289Q31.1523 5.68359 31.2207 5.64453Q31.2891 5.60547 31.4453 5.44922Q31.7383 5.19531 31.9336 4.86328Q32.0508 4.60938 32.1777 4.41406Q32.3047 4.21875 32.4023 4.04297Q32.4219 4.04297 32.4219 4.02344Q32.5586 3.80859 32.5977 3.57422Q32.6172 3.47656 32.7734 3.24219L32.793 3.16406Q32.793 3.10547 32.793 3.07617Q32.793 3.04688 32.8125 3.02734Q32.832 3.00781 32.832 2.98828L32.8516 2.98828Q32.8906 2.91016 32.8906 2.85156L32.8906 2.77344Q32.8906 2.69531 32.9297 2.60742Q32.9688 2.51953 32.9785 2.48047Q32.9883 2.44141 32.998 2.40234Q33.0078 2.36328 33.0273 2.34375L33.0469 2.14844Q33.1055 1.85547 33.1445 1.80664Q33.1836 1.75781 33.1836 1.73828L33.1836 1.17188Q33.1055 1.05469 33.0078 0.957031Q32.793 0.703125 32.5977 0.429688Q32.4609 0.234375 32.2656 0.195312Q32.0703 0.15625 31.875 0.15625Q31.6016 0.175781 31.3281 0.273438L31.2109 0.292969Q30.4297 0.507812 30.1367 0.703125Q29.9805 0.800781 29.8047 0.859375Q29.4922 0.957031 28.7891 1.30859L27.8125 1.73828L27.7344 1.75781Q27.4805 1.85547 27.4219 1.85547L27.168 1.83594Q26.9141 1.83594 26.6992 1.91406L26.6797 2.01172Q26.6797 2.1875 26.8359 2.28516Q26.9141 2.34375 26.9727 2.40234Q27.0312 2.46094 27.2266 2.69531L27.3047 2.79297Q27.3438 2.77344 27.3926 2.75391Q27.4414 2.73438 27.4805 2.73438Q27.9102 2.69531 28.2812 2.5L28.7891 2.28516L29.1797 2.14844Q29.2578 2.14844 29.2578 2.28516Q29.2188 2.34375 29.1309 2.41211Q29.043 2.48047 28.9941 2.55859Q28.9453 2.63672 28.9453 2.73438L28.9453 2.8125Q28.9453 2.83203 28.8672 2.91016L28.7891 2.98828Q28.6914 3.08594 28.418 3.49609Q28.3008 3.73047 28.0957 3.89648Q27.8906 4.0625 27.7734 4.31641Q27.7734 4.33594 27.7637 4.3457Q27.7539 4.35547 27.7344 4.35547Q27.0703 5.01953 26.6992 5.56641Q26.6211 5.70312 26.5234 5.82031Q26.1523 6.21094 25.918 6.67969Q25.8398 6.85547 25.6445 6.85547L25.625 6.26953Q25.625 6.07422 25.6445 5.89844Q25.6445 5.33203 25.6641 5.07812L25.6641 4.31641Q25.6641 3.69141 25.8594 2.91016L25.918 2.63672L25.7227 2.40234Q25.5273 2.12891 25.293 1.88477Q25.0586 1.64062 24.8438 1.64062Q24.6875 1.64062 24.5312 1.75781Q24.043 2.10938 23.4961 2.30469L23.0273 2.5Q22.7148 2.55859 22.6562 2.79297Q22.6562 2.83203 22.5977 2.83203Q22.2266 2.94922 21.9922 3.22266Q21.8555 3.37891 21.6797 3.49609L21.6211 3.57422Q21.4648 3.76953 21.2891 3.76953L21.1719 3.75Q20.957 3.67188 20.7227 3.67188Q20.6445 3.67188 20.5664 3.70117Q20.4883 3.73047 20.4102 3.73047Q20.332 3.73047 20.2539 3.76953Q20.1758 3.80859 20.0977 3.87695Q20.0195 3.94531 19.8828 3.96484Q19.8633 3.98438 19.8535 4.02344Q19.8438 4.0625 19.834 4.12109Q19.8242 4.17969 19.8047 4.23828Q20.0391 4.12109 20.2344 4.12109Q20.4688 4.12109 20.6836 4.25781Q20.7422 4.31641 20.8008 4.36523Q20.8594 4.41406 20.8789 4.47266Q21.1719 5.33203 21.1719 5.85938Q21.1719 6.17188 21.0938 6.50391Q21.0547 6.67969 21.0352 6.875Q20.9766 7.26562 20.8887 7.64648Q20.8008 8.02734 20.7617 8.39844Q20.6641 8.88672 20.6641 8.98438Q20.6641 9.17969 20.7812 9.35547Q20.6836 9.45312 20.5859 9.51172Q20.4102 9.62891 20.2734 9.76562Q20.1367 9.90234 20.0977 10.1367L20.1562 10.1758Q20.3125 10.293 20.4102 10.3906Q20.5078 10.4883 20.6055 10.5664Q20.7422 10.7031 20.918 10.7031Q21.25 10.7031 21.7188 10.4297L21.8555 10.3516Q22.4414 10.0391 22.9883 9.62891L23.2617 9.45312Q23.5938 9.27734 23.8281 8.96484Q23.8672 8.92578 23.9453 8.92578L23.9453 9.31641Q23.8867 9.55078 23.8867 9.78516Q23.8867 10.2344 24.1211 10.6641L24.375 11.0742Q24.4922 11.2305 24.7656 11.2305L24.8242 11.2305ZM30.1367 5Q30.1172 5 30.0195 4.99023Q29.9219 4.98047 29.8047 4.76562Q29.6094 4.27734 29.6094 3.94531Q29.6094 3.49609 29.9219 3.14453Q30.1953 2.77344 30.3516 2.36328L30.4688 2.05078Q30.6641 1.50391 31.2305 1.50391L31.3281 1.50391Q31.3672 1.50391 31.3867 1.52344L31.5039 1.52344Q31.7188 1.52344 31.7188 1.89453Q31.7188 2.14844 31.5039 2.8125Q31.0938 3.76953 30.9961 3.96484L30.957 4.04297Q30.918 4.21875 30.8398 4.35547L30.4297 4.84375Q30.3125 5 30.1367 5ZM22.3438 6.05469L22.3633 5.80078Q22.3633 5.17578 22.0508 4.64844Q22.0312 4.62891 22.0312 4.51172L22.0312 4.0625L22.3047 3.90625Q23.3594 3.18359 23.9258 3.18359Q24.043 3.18359 24.1602 3.19336Q24.2773 3.20312 24.3457 3.30078Q24.4141 3.39844 24.4141 3.45703Q24.4141 3.55469 24.3945 3.57422Q24.3945 3.96484 24.3359 4.23828Q24.3164 4.43359 24.3066 4.64844Q24.2969 4.86328 24.2773 4.92188Q24.2188 4.82422 24.1895 4.79492Q24.1602 4.76562 24.1309 4.75586Q24.1016 4.74609 24.0625 4.74609Q23.75 4.74609 23.4375 5.07812Q23.3008 5.19531 22.9492 5.54688Q22.7539 5.74219 22.5391 5.91797L22.3438 6.05469ZM22.2852 8.92578L22.3438 8.06641Q22.3633 7.87109 22.5195 7.71484Q23.7891 6.36719 23.877 6.21094Q23.9648 6.05469 24.1211 6.05469L24.1992 6.05469L24.2383 6.26953L24.1602 6.69922Q24.1602 7.16797 24.1016 7.63672Q24.1016 7.67578 24.0625 7.73438Q24.0234 7.79297 23.2617 8.32031L22.2852 8.92578ZM22.3438 7.69531L22.4609 6.75781L22.793 6.50391Q22.8125 6.48438 22.8516 6.44531Q22.8906 6.40625 22.9688 6.40625Q23.2227 6.38672 23.3008 6.23047Q23.3008 6.21094 23.3301 6.21094Q23.3594 6.21094 23.3984 6.21094Q23.5156 6.21094 23.5156 6.38672Q23.5156 6.40625 23.4863 6.43555Q23.457 6.46484 23.4375 6.48438Q23.1055 6.97266 22.6562 7.38281L22.3438 7.69531ZM29.4531 10.1953Q29.6289 10.1953 29.8438 10.1074Q30.0586 10.0195 30.2637 9.9707Q30.4688 9.92188 30.6445 9.86328Q31.0742 9.70703 31.5234 9.70703L31.7969 9.72656Q32.3828 9.72656 32.8711 9.33594L32.7148 9.16016Q32.5 8.98438 32.4219 8.71094L32.4023 8.59375Q32.4023 8.47656 32.793 8.14453L32.8711 8.08594Q32.9883 7.94922 33.1348 7.89062Q33.2812 7.83203 33.3594 7.71484Q33.5352 7.53906 33.6523 7.30469L33.6914 7.26562Q33.7695 7.12891 33.7695 7.03125Q33.7695 6.91406 33.6328 6.77734L33.4766 6.60156Q33.2227 6.28906 32.9492 5.99609Q32.832 5.87891 32.7344 5.87891Q32.2461 5.87891 31.8164 6.07422L31.5625 6.19141L31.2305 6.30859Q30.8594 6.40625 30.4883 6.58203L29.9805 6.77734Q29.5312 6.91406 29.1211 7.12891Q28.5352 7.42188 28.418 7.42188Q28.3789 7.42188 28.3105 7.40234Q28.2422 7.38281 28.125 7.1875Q27.793 6.73828 27.4805 6.50391Q27.4023 6.38672 27.3242 6.38672Q27.2656 6.38672 27.1582 6.49414Q27.0508 6.60156 27.0508 6.81641Q27.0508 6.91406 27.1484 7.02148Q27.2461 7.12891 27.2656 7.24609L27.2656 7.69531Q27.2656 8.10547 27.3242 8.63281L27.3242 8.65234Q27.3242 8.86719 27.4219 9.04297Q27.8125 9.64844 28.4375 10.0195Q28.5156 10.0781 28.6523 10.0781Q28.6914 10.0781 28.7305 10.0586Q28.7695 10.0391 28.7891 10.0391Q28.8281 10.0391 28.9258 10.0781L28.9844 10.0977Q29.3164 10.1953 29.4531 10.1953ZM29.5312 9.27734Q29.4336 9.27734 29.3945 9.14062Q29.3555 9.00391 29.2578 9.00391L29.1992 9.00391Q29.082 8.76953 28.9453 8.61328L29.0039 8.14453Q29.1016 7.79297 30.0391 7.46094L30.293 7.36328Q30.5469 7.1875 30.8789 7.16797Q30.9375 7.16797 30.9961 7.12891Q31.1523 7.05078 31.3477 7.03125Q31.5234 7.03125 31.7383 7.12891Q30.8594 8.45703 29.5312 9.27734ZM25.6641 14.2773Q25.8398 14.2773 26.2109 14.043L26.3281 13.9844L26.6211 13.418Q26.7188 13.3203 26.7773 13.1445Q27.0312 12.6367 27.6758 12.168L27.8906 12.0117Q27.9297 11.9727 27.9883 11.9727L28.3398 11.9727Q28.5352 12.2461 28.5547 12.5391Q28.5742 12.6562 28.6328 12.793Q28.8281 13.2812 29.2676 13.6523Q29.707 14.0234 30.1953 14.1602Q30.2148 13.9844 30.2246 13.8965Q30.2344 13.8086 30.3906 13.7305Q30.3516 13.6523 30.3516 13.5938Q30.3516 13.4766 30.4297 13.3789L30.4492 13.3008Q30.4492 13.2422 30.4297 13.2031Q30.2539 12.8516 29.2773 11.8359L29.0039 11.543Q28.7891 11.3281 28.5156 11.3281L28.3789 11.3477Q27.4805 11.4648 26.543 12.0703Q26.25 12.2852 25.918 12.4414Q25.7812 12.5391 25.625 12.5391Q25.3711 12.5391 25 12.2461L24.6875 12.0312Q24.4141 11.8945 24.1016 11.875L23.9844 11.8555Q23.4766 11.8555 23.125 12.0703L23.0078 12.1094Q23.125 12.1289 23.3398 12.1289Q23.7305 12.168 23.9062 12.5781L24.1406 12.9883Q24.2773 13.125 24.3945 13.2812Q24.6289 13.5742 24.8828 13.8477Q25.0586 14.0039 25.2539 14.1016Q25.3711 14.1602 25.459 14.2188Q25.5469 14.2773 25.625 14.2773L25.6641 14.2773ZM35.3125 14.707Q35.3711 14.707 35.4297 14.6582Q35.4883 14.6094 35.5371 14.5898Q35.5859 14.5703 35.625 14.5312Q35.918 14.3359 35.9375 13.9648Q35.8984 13.3984 35.6445 12.9102Q35.293 12.0508 34.5508 11.4844L34.375 11.3672Q33.75 10.8984 33.1836 10.8984Q32.7539 10.8984 32.3828 11.1914Q32.1289 11.3867 31.8555 11.5039L31.8359 11.5039L31.6406 11.6211Q31.9531 11.6211 32.2266 11.5625L32.3047 11.543Q32.4414 11.543 32.5 11.6113Q32.5586 11.6797 32.6172 11.7383Q33.0078 12.1289 33.418 12.8711Q33.457 12.9492 33.5254 13.0566Q33.5938 13.1641 33.5938 13.3008Q33.5938 13.418 33.5156 13.5547L33.3203 13.8086Q33.2422 13.9062 33.1055 13.9551Q32.9688 14.0039 32.8516 14.1406L32.6953 14.2578Q32.832 14.2578 32.9492 14.2969Q33.6523 14.375 33.7891 14.4141Q34.4531 14.4922 35.0977 14.6875L35.2148 14.707L35.3125 14.707ZM20.6836 14.5117Q20.7227 14.4531 20.8008 14.4336L21.0352 14.4727L21.0156 14.375Q21.0156 14.1797 21.2305 14.1211Q21.3477 14.082 21.3867 13.9453Q21.582 13.5156 21.6602 13.0078L21.6602 12.9883Q21.582 12.9883 21.5234 13.0078L21.2891 13.0078Q21.2305 13.0273 21.1328 13.0469Q21.0352 13.0664 20.918 13.0664Q20.6836 13.0664 20.6055 12.9297L20.5859 12.9102Q20.4102 12.5195 20.2734 12.1289Q20.1953 11.875 19.9609 11.8359Q19.8242 11.9336 19.7461 12.0117Q19.668 12.0898 19.6289 12.2266Q19.4531 13.1836 19.4531 13.3203Q19.4531 13.4961 19.5703 13.6133L20.3711 14.4141Q20.5078 14.5117 20.6836 14.5117ZM15.1562 40.332Q15.5273 40.2734 15.8789 39.9707Q16.2305 39.668 16.3477 39.3164Q16.4453 38.9258 16.4453 38.5156L16.4258 38.2422Q16.4062 37.4805 15.8789 36.9727Q15.6641 36.8164 15.4102 36.5332Q15.1562 36.25 14.8242 36.25Q14.6289 36.25 14.4238 36.3281Q14.2188 36.4062 14.1992 36.6211L14.1992 36.7773Q14.1992 37.1875 14.1113 37.2559Q14.0234 37.3242 13.8477 37.3438Q12.8125 37.4805 12.0703 37.7344Q11.7188 37.8516 11.543 37.8516L11.3477 37.832L11.4844 36.3867L11.6797 36.3281Q12.1289 36.1719 12.4023 36.1719Q12.6172 36.1719 12.8516 36.2695L13.0078 36.2891Q13.2422 36.2891 13.7109 35.8203Q13.6133 35.6055 13.6133 35.4688Q13.6133 35.4492 13.623 35.3711Q13.6328 35.293 13.7891 35.1953Q13.8477 35.1367 13.9258 35.0977Q14.1211 34.9609 14.2969 34.8047L14.3359 34.7852Q14.707 34.4727 15 34.1211Q15.4492 33.5938 15.4492 32.7148L15.4297 32.4414Q15.3906 31.7578 14.7266 31.5625Q14.5703 31.4844 14.3945 31.4648L14.2773 31.4844Q13.6914 31.6016 13.1836 31.9336Q12.8711 32.1094 12.5391 32.2559Q12.207 32.4023 11.8555 32.5977L11.543 32.7539Q11.4844 32.6953 11.1914 32.3047Q11.0156 32.1094 10.7617 32.1094Q10.5664 32.1094 10.4199 32.2461Q10.2734 32.3828 10.2734 32.6562L10.3125 33.0078Q10.3125 33.1055 10.2539 33.1934Q10.1953 33.2812 9.96094 33.3594L9.51172 33.5547L9.17969 33.75Q8.78906 34.043 8.37891 34.043Q8.00781 34.043 7.71484 33.7305L7.30469 33.3008L7.10938 33.125Q6.81641 33.3398 6.81641 33.4375Q6.81641 33.5352 6.89453 33.6523Q6.99219 33.9648 7.01172 34.2773Q7.01172 34.5117 7.06055 34.7168Q7.10938 34.9219 7.10938 35.0781Q7.10938 35.4883 6.99219 36.4258L6.99219 36.4844Q6.99219 36.9922 7.59766 37.2266L7.63672 37.2461Q7.79297 37.3047 7.92969 37.3047Q8.55469 37.3047 8.55469 36.5234Q8.55469 36.1133 8.51562 35.7422L8.49609 35.1562Q8.49609 34.9219 8.69141 34.9219Q9.00391 34.9219 9.31641 34.6484L10.1172 34.1406Q10.0586 34.5312 10.0391 34.9219Q10.0391 35.4492 9.92188 35.9375Q9.70703 35.9961 9.12109 36.2109Q9.0625 36.25 8.98438 36.2695Q9.23828 36.9141 9.70703 36.9141L9.92188 36.8945L9.82422 37.6172Q9.80469 37.8711 9.57031 37.9883Q9.23828 38.1836 8.86719 38.2227Q8.37891 38.2812 7.59766 38.6523Q6.89453 39.0234 6.13281 39.1797Q6.05469 39.3359 6.05469 39.4727Q6.05469 39.6289 6.21094 39.7852Q6.48438 40.0781 6.81641 40.0781Q7.05078 40.0781 7.28516 39.9805L7.34375 39.9609Q7.96875 39.7461 8.63281 39.6094Q10.0391 39.375 11.5039 38.9844Q12.5977 38.6914 13.7109 38.6328L13.8281 38.6328Q14.3164 38.6328 14.5117 39.082Q14.5117 39.1211 14.5312 39.1602Q14.5508 39.1992 14.5703 39.2383Q15 40.0977 15.1562 40.332ZM11.582 34.9219Q11.6797 34.0625 11.6992 33.8672Q11.7188 33.6719 11.748 33.4961Q11.7773 33.3203 11.8555 33.2812Q12.3047 33.0664 12.7734 32.9102L12.8125 32.8906L12.9102 32.9297Q12.832 33.3398 12.4219 33.9746Q12.0117 34.6094 11.582 34.9219ZM7.96875 38.7305Q8.16406 38.457 8.63281 38.3594Q8.88672 38.3008 9.14062 38.3008Q9.35547 38.3008 9.55078 38.3398Q9.16016 38.4766 8.75977 38.5352Q8.35938 38.5938 7.96875 38.7305ZM3.69141 40.5664Q3.88672 40.5664 4.08203 40.5273Q4.62891 40.4102 4.93164 39.9902Q5.23438 39.5703 5.35156 39.043Q5.46875 38.5156 5.68359 37.9883Q6.09375 36.9922 6.19141 35.918L6.21094 35.7227Q6.21094 35.4883 6.12305 35.2344Q6.03516 34.9805 5.70312 34.7852Q5.48828 34.6289 5.33203 34.375L5.3125 34.375Q5.17578 34.1602 4.94141 34.1602Q4.84375 34.1602 4.25781 34.2969L2.55859 34.7461Q2.48047 34.7461 2.45117 34.7266Q2.42188 34.707 2.40234 34.707L2.40234 34.5898L2.48047 34.4336Q2.94922 33.8086 3.24219 33.0664L3.28125 33.0078Q3.41797 32.6562 3.76953 32.6562L4.17969 32.6758Q5.37109 32.4219 5.83984 32.0898Q6.05469 31.9727 6.05469 31.8359Q6.05469 31.6992 5.85938 31.543Q5.66406 31.3867 5.49805 31.1816Q5.33203 30.9766 5.25391 30.957Q5.15625 30.957 4.96094 31.0547Q4.57031 31.2891 4.14062 31.4062Q3.22266 31.6211 2.89062 31.6211Q1.21094 31.875 0.859375 31.875Q0.273438 31.875 0.234375 31.2109L0.195312 31.1914Q0.0195312 31.3672 0.0195312 31.543Q0.0195312 31.6992 0.175781 31.8555Q0.332031 32.0117 0.371094 32.0898Q0.546875 32.3438 0.791016 32.4414Q1.03516 32.5391 1.30859 32.5781Q1.38672 32.5781 1.44531 32.5977Q1.62109 32.6172 1.79688 32.6172Q1.97266 32.6172 2.12891 32.6367Q2.1875 32.6562 2.46094 32.832L2.14844 33.1836Q1.60156 33.8672 1.12305 34.3555Q0.644531 34.8438 0.273438 35.3516Q0 35.6836 0 35.8398Q0 35.9961 0.332031 36.2695Q0.410156 36.3281 0.46875 36.4062Q0.722656 36.7578 1.05469 36.7578Q1.28906 36.7578 2.16797 36.25Q4.16016 35.1953 4.43359 35.1953Q4.53125 35.1953 4.53125 35.3906Q4.53125 35.7812 3.82812 37.6367L3.53516 38.418Q3.45703 38.6328 3.39844 38.6816Q3.33984 38.7305 3.24219 38.7305Q3.06641 38.7305 2.57812 38.6133L2.26562 38.5352Q2.08984 38.4961 1.89453 38.4961Q1.75781 38.4961 1.61133 38.5547Q1.46484 38.6133 1.32812 38.6133Q1.09375 38.6133 0.878906 38.4766Q0.566406 38.3398 0.390625 38.2031L0.332031 38.2812Q0.390625 38.3789 0.46875 38.457L0.78125 38.8672Q0.976562 39.0039 1.07422 39.1602Q1.52344 39.6875 2.14844 39.9414L2.26562 40Q2.5 40.0977 2.69531 40.2344Q3.16406 40.5664 3.69141 40.5664ZM8.65234 31.8359Q8.67188 31.8359 8.73047 31.7969Q8.78906 31.7578 8.78906 31.7188L8.78906 31.6797Q8.78906 31.6211 8.79883 31.6016Q8.80859 31.582 8.96484 31.5039Q8.96484 31.4844 9.01367 31.4453Q9.0625 31.4062 9.11133 31.3477Q9.16016 31.2891 9.16016 31.0742Q9.19922 31.0742 9.23828 31.084Q9.27734 31.0938 9.31641 31.1328Q9.82422 31.7773 10.0781 31.7773Q10.3906 31.7773 11.1133 31.4648Q11.6016 31.2695 12.1094 31.1133Q12.4609 30.9961 12.7344 30.7227Q12.793 30.6641 12.793 30.6055L12.793 30.5859Q12.793 30.2539 13.0273 29.9219L13.1445 29.7461Q13.3398 29.4336 13.6719 29.1016Q13.9453 28.75 14.0625 28.3398L14.1797 28.0273L14.1797 27.9297Q14.1797 27.8711 13.8867 27.0312Q13.6914 26.6016 13.2031 26.543L12.9297 26.5234Q12.168 26.5234 11.543 26.9141Q10.7227 27.3438 9.92188 27.8711L9.02344 28.457Q8.84766 28.5742 8.71094 28.5742Q8.49609 28.5742 8.35938 28.2812L8.33984 28.2422Q8.30078 28.125 8.22266 28.0469Q7.51953 27.3828 7.32422 27.3828Q7.08984 27.3828 7.08984 27.7148Q7.08984 27.8516 7.16797 27.9883Q7.46094 28.5742 7.46094 29.1797Q7.46094 29.4531 7.39258 29.7363Q7.32422 30.0195 7.32422 30.293Q7.32422 30.9961 7.87109 31.582Q7.98828 31.6992 8.125 31.7383Q8.26172 31.7773 8.38867 31.7871Q8.51562 31.7969 8.65234 31.8359ZM9.375 30.9375L9.33594 30.9375Q9.25781 30.9375 9.21875 30.8691Q9.17969 30.8008 9.16016 30.7227Q9.08203 30.4297 9.0625 30.4297Q8.88672 29.8242 8.88672 29.6875Q8.88672 29.5117 9.08203 29.375L9.98047 28.7695L11.6016 27.5195L11.6211 27.5195Q11.6797 27.4609 11.7578 27.4414Q11.875 27.4414 11.9043 27.4805Q11.9336 27.5195 11.9336 27.5781L11.9141 27.6562L11.7188 28.0664Q11.4844 28.6328 11.1719 29.1797Q10.6445 30.2344 9.76562 30.6836Q9.74609 30.7031 9.67773 30.7324Q9.60938 30.7617 9.53125 30.8496Q9.45312 30.9375 9.375 30.9375ZM4.14062 30.8398Q4.51172 30.8398 5.01953 30.6055Q5.76172 30.2539 5.97656 29.8633Q6.07422 29.7266 6.19141 29.6094Q6.30859 29.4922 6.34766 29.3555Q6.44531 29.0039 6.44531 28.7109Q6.44531 28.6133 6.40625 28.5352Q5.82031 27.3438 5.37109 27.3438Q5.25391 27.3438 5.12695 27.4023Q5 27.4609 4.87305 27.4805Q4.74609 27.5 4.66797 27.5391L3.39844 27.9102Q3.04688 27.9883 2.73438 28.1445Q1.97266 28.5352 1.36719 28.9648Q1.5625 29.2773 1.85547 29.2773Q2.01172 29.2773 2.20703 29.1797L2.61719 29.043Q2.91016 28.9453 3.20312 28.9062Q3.39844 28.9062 4.27734 28.7109Q4.23828 29.1992 4.17969 29.668Q4.08203 30.2539 4.08203 30.8398L4.14062 30.8398ZM34.5508 42.4609Q33.4961 42.4609 32.6953 41.7383Q32.0703 41.2305 31.4258 40.7812Q30.9375 40.4688 30.3906 39.9609Q29.7656 39.3945 29.4922 39.1992L29.1602 39.4141Q28.3203 40.0586 27.9102 40.1172L27.5391 40.2344Q27.2266 40.3711 26.875 40.3906Q26.6992 40.4102 26.5234 40.4883L26.3477 40.5273L26.25 40.5664Q26.0547 40.5078 25.8398 40.4688Q25.5078 40.4297 25.2148 40.3125Q24.9219 40.1953 24.707 39.8828Q24.5898 39.7266 24.4336 39.5898Q24.043 39.3359 24.043 38.9844Q24.043 38.8867 24.0723 38.8086Q24.1016 38.7305 24.1406 38.6914Q24.1797 38.6523 24.1992 38.6426Q24.2188 38.6328 24.2383 38.6328L24.2969 38.7305L24.3945 38.9648Q24.8047 39.668 25.7422 39.668L25.9766 39.6484Q27.2656 39.4531 28.2617 38.6133Q28.4375 38.4766 28.6328 38.2812L27.9297 37.5781Q27.793 37.4609 27.6562 37.4609Q27.4219 37.4609 26.9922 37.7539Q26.5625 38.0469 26.0547 38.2031L25.8789 38.1445Q25.957 37.832 26.2305 37.7051Q26.5039 37.5781 26.7578 37.4414Q27.4414 36.9922 27.8516 36.9922Q28.2031 36.9922 28.5547 37.207Q28.75 37.3242 28.9648 37.4219L29.1602 37.5195Q29.5898 36.7969 29.8242 35.9961Q29.8438 35.918 29.8828 35.8594Q29.7852 35.7812 29.6875 35.7812Q29.6094 35.7812 29.5312 35.8203Q28.9844 36.0547 28.418 36.2695Q26.7773 36.875 25.957 37.2852Q25.8398 37.3438 25.7227 37.3438Q25.5273 37.3438 25.2344 37.0898L24.9609 36.8359Q24.8047 36.6992 24.8047 36.5625Q24.8047 36.4062 24.9707 36.2305Q25.1367 36.0547 25.4492 36.0547L25.7227 36.0547Q26.1523 36.0547 26.543 35.8984L26.5625 35.8984Q26.6016 35.8594 26.6602 35.8594Q27.3828 35.8203 28.0469 35.625L28.5547 35.4883Q29.082 35.3516 29.5508 35.1562L29.7852 35.0781Q30.1953 34.9219 30.3125 34.6875Q30.3125 34.6484 30.3418 34.6191Q30.3711 34.5898 30.3906 34.5898L30.7031 34.4531Q30.9961 34.2969 31.2891 34.2969Q31.4258 34.2969 31.5918 34.3359Q31.7578 34.375 31.8555 34.5703L32.0312 34.8047Q32.207 34.9805 32.207 35.1953Q32.207 35.3711 32.0312 35.5664Q31.6992 35.9375 31.5234 36.3672L31.4258 36.582Q31.1328 37.1094 30.918 37.6367L30.8398 37.7539Q30.5273 38.1055 30.4102 38.2617L31.0352 38.6328Q32.0312 39.2578 32.5977 39.4141Q32.6367 39.4141 32.6562 39.4336Q32.9492 39.6289 33.2617 39.6973Q33.5742 39.7656 33.8281 39.9219L33.8867 39.9219Q34.1016 39.9219 34.2773 40.0391L34.4922 40.1172Q35.2344 40.3711 35.8008 40.8594Q36.2891 41.1914 36.7383 41.582Q36.9727 41.7578 37.1484 41.9336L37.3242 42.0898L36.9531 42.168Q35.9961 42.3242 35.6543 42.3535Q35.3125 42.3828 34.9414 42.4414L34.5508 42.4609ZM18.6719 41.3672Q18.3594 41.1914 18.2422 41.0352Q18.125 40.8789 18.0664 40.5273Q18.8281 39.6289 19.1211 39.1992Q19.4727 38.5742 20.0195 38.3203Q20.0586 38.4961 20.0781 38.6133Q20.0977 38.7305 20.1367 38.8477Q20.3516 38.6914 20.4492 38.4766L21.6016 36.7773Q21.8555 36.4453 22.0312 36.0742Q22.3047 35.4102 22.6367 34.7852Q23.0859 33.9453 23.418 33.0664Q23.4961 32.7539 23.4961 32.6367Q23.4961 32.5195 23.457 32.3828Q23.0859 32.2461 22.6953 32.2461Q22.4023 32.2461 22.0898 32.3242Q22.3438 32.0898 22.6172 32.0117Q22.8906 31.9336 23.1836 31.8945Q23.3789 31.8945 23.457 31.875Q23.5352 31.8555 23.5938 31.8555Q23.9648 31.8555 24.2188 32.207Q24.5703 32.7148 25.1367 32.7148Q25.3125 32.7148 25.5078 32.6562Q26.2891 32.3633 26.543 32.3047Q26.543 32.1094 26.4941 31.9531Q26.4453 31.7969 26.377 31.6797Q26.3086 31.5625 26.2598 31.4453Q26.2109 31.3281 25.8789 31.3086L26.0352 31.582Q25.9766 31.582 25.9375 31.5625Q25.6055 31.3672 25.6055 31.1719Q25.6055 31.0547 25.7422 30.957Q26.1133 30.7031 26.4258 30.7031Q26.6797 30.7031 26.8359 30.957Q27.0703 31.25 27.3633 31.5234L27.5781 31.7578Q28.75 31.5039 29.8047 31.1523L29.8242 30.9375Q29.8438 30.7422 29.8828 30.5664L29.8828 30.4688Q29.8828 30.1758 29.6289 30.1758L29.4727 30.1953Q29.1797 30.2734 29.1016 30.3418Q29.0234 30.4102 28.9844 30.6641Q28.9258 30.5078 28.9258 30.3906Q28.9258 30.0781 29.2578 29.9219Q29.668 29.7852 30.1172 29.7266Q30.1953 29.6875 30.2734 29.6875Q30.4492 29.6875 30.5762 29.8438Q30.7031 30 30.8789 30.1367L30.8984 30.1367Q31.0156 30.2344 31.0938 30.3125Q31.1719 30.3906 31.2109 30.6836L31.4258 30.6445Q32.207 30.5273 32.3242 30.5273Q32.6562 30.5273 32.8125 30.8594Q32.8906 31.0156 33.0762 31.1426Q33.2617 31.2695 33.2617 31.4453Q33.2617 31.5234 33.2422 31.582Q32.9883 31.7773 32.8125 31.8848Q32.6367 31.9922 32.1875 31.9922Q31.9531 31.9922 31.7188 31.9531L31.6602 31.9531Q31.5625 31.9531 31.1133 32.1484L30.957 32.207L30.6445 32.9688L30.6445 33.0078Q30.7031 33.1445 30.8984 33.3594Q31.0156 33.4961 31.0156 33.5938Q31.0156 33.8672 30.4883 33.9258L30.4297 33.9258Q30.2148 33.9258 30.1172 34.082Q30.0391 34.1602 29.9414 34.1602Q29.8828 34.1602 29.8438 34.1406Q29.668 34.0625 29.4922 34.0625Q29.3164 34.0625 29.043 34.1797L28.8867 34.2383Q28.0664 34.5312 27.2852 34.9023Q27.207 34.9023 26.8457 35.1367Q26.4844 35.3711 26.3867 35.3711Q26.2891 35.3711 26.1328 35.1953L25.8203 34.8828L25.8008 34.8438L25.8008 34.668Q25.8008 34.5898 26.0156 34.375Q26.1719 34.2578 26.2305 34.0625Q26.2891 33.8672 26.3867 33.6914L26.4648 33.4961L26.3086 33.4766Q26.1719 33.4961 26.0352 33.5254Q25.8984 33.5547 25.7227 33.5547Q25.4883 33.5547 25.293 33.3789Q25.1562 33.2617 24.9805 33.1836L24.8242 33.0859L24.6289 33.4766Q23.7891 35.3516 22.3633 37.3047Q22.0898 37.6562 21.8555 38.0273Q21.4453 38.6719 20.8984 39.2383Q19.1016 41.1523 18.8086 41.2891L18.6719 41.3672ZM27.9492 33.5547Q28.2812 33.3984 28.6523 33.3008Q28.8867 33.2422 29.1016 33.1445Q29.4531 33.0469 29.5117 33.0469L29.6094 32.4219L29.4727 32.4609Q29.1992 32.5 29.1602 32.5195Q28.0859 32.793 27.832 32.9297Q27.6953 33.0273 27.6953 33.3398Q27.6953 33.5547 27.9102 33.5547L27.9492 33.5547ZM23.418 31.1914Q23.3789 31.1914 23.3203 31.1621Q23.2617 31.1328 22.5586 30.5078Q22.5 30.4492 22.5 30.332Q22.5 30.1562 22.6172 30.0586Q22.8516 29.8438 23.1641 29.8242Q23.2812 29.8242 23.3984 29.7949Q23.5156 29.7656 23.5938 29.7656Q23.6914 29.7656 23.7988 29.8047Q23.9062 29.8438 24.0234 29.8438Q24.2578 29.8438 24.4629 29.7852Q24.668 29.7266 24.8828 29.6289L25.293 29.4922Q25.6055 29.375 25.9375 29.2773Q26.4453 29.082 27.1484 28.8867L27.3242 28.7891Q27.0117 28.2422 27.0117 27.6172L27.0117 27.3242L27.0312 26.9531Q27.0312 26.6602 26.7578 26.543Q26.6797 26.5039 26.5332 26.4551Q26.3867 26.4062 26.2305 26.3281L26.3672 26.25Q26.6016 26.0547 27.0898 26.0547Q27.1875 26.0547 27.4121 26.0938Q27.6367 26.1328 27.9102 26.4648Q28.125 26.7188 28.3594 26.9336Q28.3984 26.9922 28.457 27.0312Q28.9062 27.4609 28.9258 28.0859Q28.9258 28.1641 29.0039 28.2422L29.7266 28.0664Q31.2891 27.6758 31.3672 27.6758Q31.6406 27.6367 31.7773 27.6367Q31.8945 27.6562 31.9824 27.7441Q32.0703 27.832 32.2266 28.0664Q32.3242 28.2031 32.4414 28.3203Q32.6562 28.5352 32.6562 28.6719Q32.6562 28.8281 32.4609 28.9258Q32.4023 28.9453 32.3438 28.9941Q32.2852 29.043 32.2363 29.0625Q32.1875 29.082 32.1484 29.1016Q32.0508 29.1797 31.9336 29.1992Q31.4453 29.1992 30.957 29.1602Q30.918 29.1602 30.8398 29.082Q30.7617 28.9062 30.5859 28.9062L29.5703 29.0234Q29.3555 29.082 29.1113 29.1797Q28.8672 29.2773 28.5742 29.375Q26.7969 30 25.2539 30.6445Q24.6875 30.8789 24.1016 31.0938Q23.8477 31.1719 23.5938 31.1719Q23.4961 31.1719 23.418 31.1914Z">
</path>
</g>
</svg>
