<svg xmlns="http://www.w3.org/2000/svg" xmlns:xlink="http://www.w3.org/1999/xlink" width="38.49609375" height="42.91015625" viewBox="0 0 38.49609375 42.91015625" fill="none">
<g >
<path     fill="#000000"  d="M11.4453 14.9414L11.3477 14.9414Q11.0547 14.9414 10.918 14.668Q10.7227 14.2773 10.5664 13.8477Q10.5469 13.8086 10.5469 13.75Q10.5469 13.6133 10.5664 13.5156L10.7422 12.8516Q11.0938 11.4648 11.0938 10.625L11.0742 10.2344L11.0742 9.53125L10.918 9.6875Q10.7422 9.98047 10.4688 10.1758L10.1953 10.4297Q9.78516 10.8789 9.35547 11.3086L8.78906 11.8164Q8.30078 12.2852 7.75391 12.6758Q7.59766 12.793 7.48047 12.793L7.42188 12.793Q7.38281 12.793 7.26562 12.8516Q7.01172 13.0273 6.79688 13.0273Q6.50391 13.0273 6.23047 12.7344Q6.11328 12.5781 5.85938 12.4219Q5.91797 11.9922 6.36719 11.543L6.44531 12.168L6.60156 12.0898L6.91406 11.7773Q8.32031 10.4688 9.31641 9.31641L9.64844 8.92578L9.98047 8.55469Q10.1562 8.33984 10.3125 8.10547L10.5469 7.79297Q10.625 7.71484 10.8008 7.59766L10.7227 7.5Q10.5859 7.28516 9.94141 7.28516Q9.74609 7.30469 9.53125 7.40234L9.53125 7.42188L9.41406 7.48047Q9.27734 7.55859 9.12109 7.59766Q9.16016 7.55859 9.19922 7.5293Q9.23828 7.5 9.53125 7.30469Q9.88281 7.03125 10.332 6.99219L10.3516 6.97266Q10.4883 6.875 10.625 6.875Q10.8789 6.875 11.1523 7.01172Q11.6406 6.58203 11.8555 5.87891Q11.6992 5.87891 11.3086 5.83984Q11.1523 5.68359 11.1523 5.52734Q11.1523 5.39062 11.4062 5.25391L11.6406 5.11719Q11.8945 4.96094 12.168 4.96094L12.3438 4.98047Q12.5195 4.98047 12.6465 5.22461Q12.7734 5.46875 13.0469 5.64453Q13.3203 5.82031 13.3203 6.15234L13.3203 6.30859Q13.3203 6.50391 13.2422 6.68945Q13.1641 6.875 13.0566 7.05078Q12.9492 7.22656 12.8711 7.38281Q12.793 7.53906 12.6758 7.67578Q12.5586 7.8125 12.4805 8.00781Q12.4219 8.125 12.2656 8.20312L12.4023 8.69141L12.6758 9.80469Q12.6953 9.94141 12.6953 10.1758L12.6758 10.2148Q12.7539 10.4297 12.7539 10.6445L12.7539 10.7422Q12.7539 10.8984 12.7734 11.0352Q12.793 11.1719 12.793 11.2891L12.7734 11.5234Q12.7734 12.1484 12.6367 12.627Q12.5 13.1055 12.4414 13.6133Q12.4219 13.8086 12.1875 14.4922Q12.1484 14.8828 11.7383 14.8828Q11.6602 14.8828 11.543 14.9219Q11.5039 14.9414 11.4453 14.9414ZM0.996094 13.5156Q0.839844 13.5156 0.644531 13.3398L0.15625 12.8516L0.117188 12.793Q0 12.6758 0 12.5781Q0 12.4609 0.214844 12.3633Q0.214844 12.3438 0.253906 12.3438Q0.292969 12.3438 0.3125 12.2754Q0.332031 12.207 0.527344 12.0898Q0.585938 12.0703 0.625 12.0312Q0.917969 11.8359 1.19141 11.5625L1.36719 11.4062Q2.38281 10.5664 3.06641 9.88281Q3.16406 9.78516 3.20312 9.70703Q3.26172 9.45312 3.33984 8.90625Q3.26172 8.96484 3.18359 8.98438L2.89062 9.14062Q2.16797 9.58984 1.34766 9.84375Q1.25 9.88281 1.17188 9.88281Q1.05469 9.88281 0.917969 9.7168Q0.78125 9.55078 0.654297 9.44336Q0.527344 9.33594 0.527344 9.27734Q0.527344 9.23828 0.605469 9.10156Q0.761719 8.86719 1.03516 8.73047Q1.50391 8.49609 1.95312 8.24219L2.32422 8.04688Q3.69141 7.34375 3.76953 7.20703L3.98438 6.71875Q3.96484 6.71875 3.96484 6.67969Q3.82812 6.38672 3.67188 6.38672Q3.41797 6.34766 3.22266 6.09375L4.0625 5.46875L4.14062 5.68359L4.25781 5.64453Q4.31641 5.64453 4.375 5.69336Q4.43359 5.74219 4.48242 5.80078Q4.53125 5.85938 4.55078 5.89844Q4.80469 6.19141 5.11719 6.36719Q5.19531 6.40625 5.27344 6.40625L5.41016 6.38672L5.58594 6.38672L5.70312 6.52344Q5.95703 6.93359 6.32812 7.24609Q6.50391 7.38281 6.50391 7.51953Q6.50391 7.67578 6.30859 7.85156Q6.17188 7.96875 6.05469 8.10547Q5.76172 8.39844 5.70312 8.4375Q5.07812 8.84766 5.07812 9.25781Q5.01953 9.375 5.01953 9.76562Q5.01953 9.90234 5.03906 10Q5.05859 10.0977 5.05859 10.1562L7.5 8.61328Q7.51953 8.61328 7.51953 8.63281L7.53906 8.63281L7.48047 8.73047L7.16797 9.10156Q5.87891 10.625 5.42969 11.0742L5.23438 11.2695Q5.13672 11.4062 5 11.5039Q4.92188 11.543 4.84375 11.8164Q4.60938 11.9727 4.45312 12.1289Q4.375 12.207 4.29688 12.207Q4.23828 12.207 4.18945 12.168Q4.14062 12.1289 4.10156 12.1289Q4.04297 12.1289 3.94531 12.1875L3.92578 12.1875Q3.69141 12.3047 3.47656 12.4414Q3.02734 12.6953 2.53906 12.9102L2.26562 13.0469Q1.97266 13.2227 1.64062 13.2812Q1.42578 13.3008 1.23047 13.4375Q1.11328 13.5156 0.996094 13.5156ZM1.79688 12.0117Q1.93359 12.0117 2.12891 11.8555L2.24609 11.7969Q2.87109 11.582 3.24219 11.3086Q3.125 11.2305 3.10547 11.1133Q3.08594 10.9961 3.08594 10.8398Q3.08594 10.6836 3.06641 10.5859L2.83203 10.7812Q2.10938 11.3281 1.54297 12.0117L1.79688 12.0117ZM7.73438 5.60547L7.55859 5.60547L7.48047 5.56641Q7.44141 5.46875 7.38281 5.45898Q7.32422 5.44922 7.26562 5.44922L7.20703 5.44922Q7.10938 5.44922 6.97266 5.3125L6.5625 4.88281Q6.42578 4.74609 6.42578 4.6875Q6.42578 4.53125 6.55273 4.45312Q6.67969 4.375 6.875 4.375Q7.05078 4.375 7.2168 4.47266Q7.38281 4.57031 7.51953 4.57031Q7.69531 4.57031 7.92969 4.49219Q8.04688 4.49219 9.04297 4.12109L10.6055 3.55469L12.168 3.04688Q12.3633 2.94922 12.5977 2.88086Q12.832 2.8125 13.0762 2.71484Q13.3203 2.61719 13.5547 2.55859Q13.6914 2.53906 13.8281 2.48047Q14.6289 2.20703 15.4688 2.08984Q15.5273 2.07031 15.6348 2.07031Q15.7422 2.07031 15.8203 2.07031Q16.1328 2.07031 16.2891 2.34375Q16.4844 2.69531 16.7969 2.89062L16.875 2.96875Q17.0703 3.06641 17.0703 3.26172Q17.0703 3.4375 16.875 3.51562Q16.4844 3.67188 16.0449 3.73047Q15.6055 3.78906 15.1367 3.86719L14.7266 3.94531Q14.4727 3.69141 14.2773 3.69141Q14.2188 3.69141 14.1113 3.7207Q14.0039 3.75 13.8672 3.76953Q13.6523 3.78906 13.4375 3.90625L13.2422 3.90625Q13.1641 3.90625 13.0273 3.96484Q12.7734 4.00391 12.5879 4.08203Q12.4023 4.16016 12.2461 4.21875Q11.875 4.31641 11.5234 4.45312L11.4453 4.47266Q11.0938 4.53125 10.7617 4.6875L10.4492 4.82422L9.84375 5L9.17969 5.21484Q9.12109 5.23438 8.98438 5.37109L8.86719 5.35156Q8.69141 5.35156 8.53516 5.44922Q8.16406 5.60547 7.73438 5.60547ZM2.51953 5.11719Q1.95312 5.11719 1.54297 4.58984L1.38672 4.41406Q1.34766 4.39453 1.32812 4.36523Q1.30859 4.33594 1.29883 4.32617Q1.28906 4.31641 1.26953 4.31641Q1.09375 4.16016 1.09375 4.02344Q1.09375 3.86719 1.34766 3.73047L1.46484 3.78906Q1.66016 3.86719 1.77734 4.00391Q1.89453 4.14062 2.16797 4.14062Q2.40234 4.14062 3.125 3.90625L3.65234 3.73047Q3.73047 3.73047 3.76953 3.69141Q3.94531 3.55469 4.14062 3.4375L4.31641 3.32031Q5.64453 2.44141 5.9375 2.44141Q6.19141 2.44141 6.33789 2.74414Q6.48438 3.04688 6.73828 3.22266Q6.875 3.32031 6.89453 3.41797Q6.89453 3.51562 6.81641 3.67188Q6.67969 3.90625 6.40625 4.02344Q5.89844 4.27734 5.42969 4.58984Q5.21484 4.74609 4.96094 4.74609L4.70703 4.72656L4.58984 4.74609Q3.71094 4.98047 2.83203 5.07812L2.51953 5.11719ZM18.125 12.1094Q18.0273 12.1094 17.8906 12.0508L17.4023 11.8945Q17.0898 11.8164 16.875 11.5625Q16.582 11.2109 16.1133 10.7422Q15.5078 10.1562 14.7461 9.80469Q14.5312 9.70703 14.2773 9.6875L14.0625 9.64844Q14.0625 9.49219 14.2578 9.39453Q14.7461 9.21875 15.2539 9.21875L15.6445 9.23828L15.7422 9.25781L16.5039 9.31641Q16.582 9.31641 16.6016 9.33594Q16.8164 9.49219 17.0703 9.58984Q17.4219 9.6875 17.7539 10.0977Q18.0664 10.4102 18.3984 10.9961Q18.4961 11.1523 18.584 11.2793Q18.6719 11.4062 18.6719 11.5039Q18.6719 11.6211 18.5938 11.6895Q18.5156 11.7578 18.4961 11.8164Q18.4766 11.875 18.4375 11.8945Q18.3008 12.1094 18.125 12.1094ZM33.6719 16.1719L34.3359 16.1133Q34.9023 16.0352 35.4688 16.0352L35.5859 16.0352Q35.8789 16.0938 36.1719 16.1133L36.7383 16.1133L36.9531 16.1328Q37.168 16.1328 37.2266 15.9961Q37.3438 15.7422 37.6367 15.7031Q37.8125 15.6836 37.8223 15.4883Q37.832 15.293 37.8516 15.1562Q37.8711 15.1367 37.8809 15.1172Q37.8906 15.0977 37.9102 15.0879Q37.9297 15.0781 37.9492 15.0586L37.9492 15Q37.8906 14.9414 37.8516 14.8242Q37.8516 14.6875 37.832 14.5703Q37.793 14.082 37.3047 12.8516Q37.2656 12.6562 36.9141 11.7969L36.5625 10.8398L36.5039 10.8594L36.3672 12.8711Q36.2891 13.9844 36.1621 14.2188Q36.0352 14.4531 35.2734 14.6875Q34.7852 14.8242 34.0625 14.9219Q33.8281 14.9609 33.6133 15.0195Q33.3984 15.0781 33.2031 15.0781Q32.5391 15.0781 32.5 14.6875Q32.5 14.5312 32.5195 14.4141Q32.8125 12.9492 32.8125 12.832Q32.8125 12.7148 32.7148 12.5977Q32.6172 12.4805 32.4805 12.3438Q32.4219 12.3047 32.3828 12.2559Q32.3438 12.207 32.2754 12.1582Q32.207 12.1094 32.168 12.0312Q31.9922 11.6797 31.6211 11.6797Q31.25 11.6797 30.9961 11.8555Q30.8594 11.9922 30.8594 12.168Q30.8594 12.2656 30.8984 12.3633Q30.957 12.168 31.2305 12.168Q31.5039 12.4219 31.5039 12.8711Q31.5039 13.0273 31.4648 13.1836Q31.3477 13.6523 31.3086 14.1016L31.2891 14.375Q31.2891 14.7656 31.6211 15.0977Q32.3438 15.8203 32.4023 15.8203Q32.7539 16.1719 33.4961 16.1719L33.6719 16.1719ZM21.4844 12.7344L21.7188 12.6953Q21.9922 12.6953 22.1875 12.5586L22.2461 12.5195L22.5 12.4219Q22.6562 12.3242 22.793 12.3242Q23.1055 12.0508 23.457 11.875Q23.6914 11.7188 23.7891 11.6113Q23.8867 11.5039 24.0137 11.4551Q24.1406 11.4062 24.2188 11.3086Q24.3164 11.2695 24.4141 11.1523L24.5898 10.9961Q24.7656 10.8594 24.9219 10.7031Q25.7812 9.78516 26.5039 8.78906L26.6211 8.61328L26.543 8.61328L24.9805 9.41406Q24.7852 9.53125 24.5117 9.62891L24.3945 9.64844Q24.3945 9.60938 24.375 9.58984L24.3945 9.35547Q24.4336 9.0625 24.6094 8.18359Q24.6484 7.96875 24.6875 7.92969L24.7852 7.8125Q24.8828 7.65625 25.0195 7.53906L25.9961 6.81641Q26.2695 6.54297 26.2695 6.26953L25.918 5.97656Q25.8984 5.97656 25.8984 5.95703Q25.7617 5.85938 25.6836 5.72266Q25.5273 5.48828 25.2734 5.35156Q25.0977 5.25391 25.0977 5.09766Q25.0977 5 25.127 4.87305Q25.1562 4.74609 25.1562 4.62891L25.1562 4.41406Q25.1562 4.27734 25.1953 4.14062L25.2148 4.0625Q25.1953 4.02344 25.1367 3.96484Q25.0781 3.90625 25.0781 3.84766Q25.0781 3.65234 24.8926 3.48633Q24.707 3.32031 24.5312 3.125L24.3555 2.94922Q24.2969 2.83203 24.0625 2.83203Q23.8086 2.83203 23.6133 3.125Q23.5742 3.18359 23.5156 3.22266Q23.2031 3.75 23.2031 4.0625Q23.2031 4.43359 23.3594 4.78516L23.5742 5.29297L23.6133 5.48828L23.5938 5.54688Q23.5352 5.76172 23.5352 5.95703Q23.5352 6.09375 23.5547 6.20117Q23.5742 6.30859 23.5742 6.40625Q23.5742 6.48438 23.5449 6.62109Q23.5156 6.75781 23.3398 6.88477Q23.1641 7.01172 22.9492 7.10938Q22.8125 7.16797 22.7051 7.20703Q22.5977 7.24609 22.5391 7.28516Q22.4219 7.40234 22.2949 7.40234Q22.168 7.40234 22.0898 7.44141Q21.8945 7.55859 21.6797 7.63672Q21.3672 7.73438 21.1133 7.96875L20.9961 7.98828Q20.7227 7.98828 20.4883 8.18359Q20.3906 8.06641 20.2734 8.06641Q20.1758 8.06641 20.0781 8.14453Q19.8633 8.30078 19.8633 8.45703Q19.8633 8.61328 20.0391 8.76953Q20.0391 8.78906 20.0781 8.81836Q20.1172 8.84766 20.1562 8.90625Q20.293 9.19922 20.5078 9.24805Q20.7227 9.29688 20.918 9.29688Q21.3477 9.29688 21.8555 9.02344Q22.1484 8.86719 22.3242 8.86719Q22.3438 8.84766 22.373 8.84766Q22.4023 8.84766 22.4512 8.7793Q22.5 8.71094 22.6758 8.71094Q22.8711 8.65234 22.9297 8.53516L22.9688 8.53516L23.2617 8.47656L23.3398 8.47656Q23.4375 8.61328 23.4375 8.76953Q23.4375 8.90625 23.4082 9.00391Q23.3789 9.10156 23.3789 9.19922Q23.3789 9.25781 23.418 9.33594L23.418 9.35547Q23.418 9.39453 23.3984 9.41406Q23.3594 9.57031 23.3594 9.72656Q23.3594 9.90234 23.418 10.0781Q23.3008 10.2539 23.1641 10.3125L22.9492 10.4297L22.5977 10.6445Q22.3047 10.8203 21.9922 10.9766Q21.4062 11.2695 20.8398 11.582Q20.625 11.7188 20.625 11.875Q20.625 12.0117 20.8203 12.168L21.0156 12.3242Q21.0547 12.4805 21.25 12.5781Q21.3672 12.6367 21.4453 12.7148Q21.4453 12.7344 21.4844 12.7344ZM23.5352 4.53125L23.457 4.51172L23.457 4.23828Q23.457 4.16016 23.4766 4.04297Q23.4961 3.92578 23.6719 3.80859L23.6914 4.10156Q23.6914 4.53125 23.5352 4.53125ZM25.3125 16.0547Q25.4492 16.0547 25.5859 15.957L25.8008 15.8594Q26.0742 15.7617 26.1328 15.7227Q26.2891 15.5664 26.5039 15.4688Q26.7188 15.3711 26.8555 15.2441Q26.9922 15.1172 27.1094 15.0391Q27.4609 14.8047 28.1445 14.1211Q28.3398 13.9453 28.5547 13.7598Q28.7695 13.5742 28.9844 13.3594Q29.4141 12.9883 29.668 12.4805Q29.6875 12.4805 29.6875 12.4609L29.9023 12.0312Q30.1562 11.6797 30.5664 11.4844L30.8398 11.3672Q31.1523 11.2695 31.4062 11.0547Q31.4453 11.0156 31.4844 11.0156Q31.6797 11.0156 32.0508 10.8398Q32.3047 10.7422 32.4609 10.4492L32.5 10.4297Q32.5391 10.332 32.6172 10.2539Q32.7539 10.0977 32.8125 9.88281Q32.8711 9.66797 33.0371 9.46289Q33.2031 9.25781 33.3203 9.0332Q33.4375 8.80859 33.75 8.41797Q33.8477 8.33984 33.9258 8.24219Q34.082 8.00781 34.082 7.83203Q34.082 7.69531 33.9648 7.55859Q33.5352 7.14844 32.9492 6.42578L32.793 6.48438L32.3047 6.64062Q32.168 7.22656 31.4648 7.34375L31.1523 7.42188Q30.8594 7.55859 30.5469 7.65625Q30.3125 7.75391 30.0488 7.85156Q29.7852 7.94922 29.4922 8.08594Q28.8086 8.33984 28.7695 8.4375L28.7695 8.45703Q28.7695 8.53516 28.8672 8.69141Q29.5703 8.24219 30.3711 7.98828L30.4492 7.96875Q30.8594 7.83203 31.2695 7.73438Q31.3281 7.73438 31.416 7.70508Q31.5039 7.67578 31.6211 7.65625Q31.7773 7.65625 31.875 7.69531L31.8945 7.8125Q31.8945 7.94922 31.8164 8.07617Q31.7383 8.20312 31.7188 8.33984L31.3867 8.32031Q30.9961 8.32031 30.5664 8.53516Q30.4102 8.61328 30.2344 8.67188Q30.1367 8.69141 30.0488 8.75Q29.9609 8.80859 29.8633 8.82812Q29.6484 8.86719 29.4629 8.97461Q29.2773 9.08203 29.1016 9.13086Q28.9258 9.17969 28.7891 9.27734L28.6719 9.375Q28.418 9.08203 28.3789 8.73047Q28.3594 8.53516 28.2422 8.37891Q28.0469 8.125 27.8125 7.92969Q27.793 7.92969 27.7539 7.93945Q27.7148 7.94922 27.6855 7.96875Q27.6562 7.98828 27.6562 8.00781Q27.5586 8.14453 27.5391 8.30078Q27.5391 8.84766 27.5781 8.92578L27.5977 9.35547Q27.6367 9.70703 27.6562 10.0391Q27.6758 10.3711 27.9297 10.5469Q28.0469 10.625 28.125 10.7227Q28.3594 11.0156 28.75 11.1133Q28.5938 11.2109 28.3008 11.3281Q27.793 11.5234 27.6953 11.5234Q27.5977 11.5234 27.5195 11.4258L27.5781 11.2891Q27.3438 11.3867 27.3438 11.5039L27.3633 11.582Q27.5 11.7773 27.6562 11.8945Q27.9102 12.0312 28.3594 12.0312Q28.5742 12.0312 28.8086 11.9336Q28.8672 11.8945 28.9453 11.875Q29.1211 11.8164 29.3164 11.7383Q29.5117 11.6602 29.707 11.6016L29.7461 11.582Q29.7656 11.582 29.7852 11.6016Q29.8047 11.6211 29.8438 11.6211L29.8242 11.6602Q29.7852 11.7773 29.6191 11.9141Q29.4531 12.0508 29.3555 12.1582Q29.2578 12.2656 29.1602 12.3438Q28.9648 12.4609 28.8672 12.6758Q28.6328 12.7539 28.4961 12.9297L28.2812 13.125Q28.2227 13.1641 28.1934 13.2031Q28.1641 13.2422 27.8125 13.4766Q27.4609 13.7109 27.207 13.9258Q26.7383 14.2969 26.0547 14.7266Q25.9766 14.8047 25.8789 14.8438L25.6641 14.8438L25.625 14.8242Q25.5664 14.8242 25.4492 14.9023L25.4297 14.9023Q25.3516 14.9414 25.2734 15.0195Q25.2539 15.0195 25.0977 15.1367Q24.6875 15.3906 24.6875 15.5273Q24.6875 15.6055 24.8145 15.7129Q24.9414 15.8203 25.0586 15.9375Q25.1758 16.0547 25.3125 16.0547ZM28.9844 10.9766L28.9648 10.9375Q29.0625 10.7812 29.0625 10.5859Q29.0625 10.4688 29.0234 10.3516Q28.8672 9.94141 28.8281 9.66797L28.9062 9.64844Q28.9844 9.66797 29.0625 9.6875Q29.1406 9.70703 29.2383 9.70703Q29.3359 9.70703 29.4141 9.66797L29.6484 9.66797Q30.0391 9.66797 30.3711 9.53125Q30.5469 9.47266 30.6641 9.46289Q30.7812 9.45312 30.9277 9.375Q31.0742 9.29688 31.2695 9.29688L31.3867 9.31641L31.3477 9.43359Q31.3086 9.6875 31.2109 9.86328Q31.1133 10.0391 31.1133 10.1953L31.1133 10.4297Q31.0156 10.332 30.9961 10.3223Q30.9766 10.3125 30.9277 10.2832Q30.8789 10.2539 30.7617 10.2539Q30.3906 10.2539 30.0781 10.4883Q29.9414 10.5859 29.7656 10.625Q29.5898 10.6641 29.1797 10.8984L28.9844 10.9766ZM25.3906 8.4375Q25.4297 8.41797 25.5176 8.4082Q25.6055 8.39844 26.4844 7.99805Q27.3633 7.59766 28.2227 7.22656L28.3203 7.1875Q28.6523 7.03125 29.0039 6.91406L29.4531 6.77734Q30.0781 6.5625 30.7227 6.42578L30.9766 6.36719Q31.2695 6.28906 31.582 6.28906Q31.6211 6.28906 31.6699 6.25Q31.7188 6.21094 31.8164 6.21094Q31.8555 6.21094 31.875 6.23047Q32.0508 6.21094 32.207 6.17188Q32.5195 6.11328 32.8125 6.09375Q33.1836 6.07422 33.5547 6.01562Q33.8281 5.9375 34.082 5.9375Q34.1992 5.89844 34.3359 5.89844Q34.5117 5.89844 34.707 5.97656Q35.0781 6.11328 35.6445 6.11328Q35.7031 6.13281 35.7812 6.13281L36.2305 6.15234L36.4648 5.72266Q36.3672 5.56641 36.25 5.44922Q36.0156 5.15625 35.8398 4.89258Q35.6641 4.62891 35.332 4.62891Q35.1562 4.62891 35.1172 4.66797Q35.0586 4.66797 34.5605 4.84375Q34.0625 5.01953 33.5156 5.17578Q32.3633 5.48828 32.0703 5.54688Q31.582 5.64453 31.0938 5.80078L30.6836 5.91797L30.6445 5.85938L30.7031 5.82031Q30.8594 5.72266 30.9082 5.72266Q30.957 5.72266 30.9961 5.70312Q31.6211 5.39062 31.7969 5.33203Q31.875 5.33203 31.9336 5.29297Q32.5391 4.92188 33.0078 4.39453Q33.1445 4.25781 33.1445 4.0625Q33.1445 3.86719 32.9492 3.70117Q32.7539 3.53516 32.5977 3.30078Q32.5 3.125 32.3438 3.125L31.0352 3.4375Q30.5859 3.53516 30.2344 3.82812Q29.8438 4.10156 29.4727 4.43359Q29.3945 4.51172 29.2969 4.51172Q29.2773 4.51172 29.1797 4.50195Q29.082 4.49219 29.082 4.23828Q29.082 4.04297 29.2773 3.90625L29.4336 3.78906L29.4141 3.75L29.375 3.76953Q29.1211 3.84766 28.916 3.97461Q28.7109 4.10156 28.6133 4.39453L28.6133 4.41406Q28.5938 4.45312 28.584 4.50195Q28.5742 4.55078 28.5352 4.57031Q28.418 4.72656 28.3691 4.90234Q28.3203 5.07812 28.3203 5.13672Q28.3203 5.25391 28.418 5.33203Q28.5156 5.41016 28.623 5.51758Q28.7305 5.625 28.8477 5.73242Q28.9648 5.83984 29.1016 5.83984Q29.1797 5.83984 29.2773 5.80078Q29.6875 5.66406 29.8438 5.25391L29.9219 5.09766L30.0391 4.94141Q30.1953 4.6875 30.3711 4.45312Q30.7812 3.80859 31.5234 3.78906Q31.5234 3.80859 31.543 3.80859Q31.6016 3.90625 31.6211 3.98438Q31.6211 4.02344 31.5625 4.10156Q31.4648 4.31641 31.25 4.57031Q30.8203 5.19531 29.6289 6.07422Q29.5117 6.15234 29.375 6.21094Q28.3594 6.64062 28.125 6.71875L26.2695 7.48047Q25.8594 7.61719 25.4492 7.79297L25.0195 8.02734L25.3906 8.4375ZM28.4961 3.49609Q28.5938 3.49609 28.6914 3.45703Q30.5859 3.00781 30.752 2.99805Q30.918 2.98828 31.0547 2.93945Q31.1914 2.89062 31.3281 2.89062Q31.4648 2.89062 31.6016 2.85156Q31.7383 2.8125 31.8945 2.8125Q31.9727 2.8125 32.0703 2.83203Q32.168 2.85156 32.2656 2.85156Q32.6367 2.85156 32.8711 2.53906L32.7539 2.40234Q32.5391 2.14844 32.3047 1.91406Q32.1484 1.875 32.1484 1.71875Q32.0898 1.36719 31.8262 1.12305Q31.5625 0.878906 31.3477 0.566406Q31.2305 0.410156 31.123 0.283203Q31.0156 0.15625 30.8789 0.136719L30.4492 0.078125Q30.0195 0 29.1992 0Q29.0234 0 29.0234 0.234375Q29.0234 0.273438 29.0625 0.341797Q29.1016 0.410156 29.1602 0.419922Q29.2188 0.429688 29.2383 0.429688Q29.7656 0.605469 30.2734 1.01562Q30.8203 1.5625 30.957 1.93359L31.0156 2.07031L30.8398 2.10938Q30.5273 2.14844 29.1797 2.51953L29.0234 2.55859Q28.8281 2.63672 28.5547 2.63672L28.3789 2.63672L28.7695 2.30469Q28.1055 2.38281 27.6758 2.89062L27.8125 3.00781Q27.9492 3.125 28.0664 3.26172Q28.2422 3.49609 28.4961 3.49609ZM17.9297 40.6445Q17.9883 40.6445 18.0273 40.625Q18.0664 40.6055 18.1348 40.5859Q18.2031 40.5664 18.3203 40.5078L18.3008 40.4102Q18.3008 40.2734 18.4277 40.2246Q18.5547 40.1758 18.6133 40.0781L18.1445 39.5508Q17.793 39.1992 17.4805 38.8086Q17.2656 38.4961 16.8555 38.4961L16.4648 38.5156Q15.8398 38.5938 15.293 38.5938L14.4336 38.5938Q12.6367 38.6719 12.2656 38.6719Q12.0703 38.6719 12.0703 38.5938Q12.0703 38.5547 12.1191 38.457Q12.168 38.3594 12.1875 38.2227Q12.2461 37.9492 12.3633 37.8516Q12.3633 37.6953 12.4219 37.6562Q12.5586 37.5586 12.6562 37.5586Q14.7852 36.7578 15.2148 36.7383Q15.2734 36.7383 15.3125 36.7188Q15.3516 36.6992 15.3711 36.6992L15.6641 36.6211L16.3281 36.4844Q16.9141 36.3867 17.4023 36.0352Q17.6367 35.8594 17.6367 35.6445Q17.6367 35.5273 17.5586 35.4102L17.2852 35.0586Q16.9727 34.6094 16.6211 34.2188Q16.4258 33.9844 16.1914 33.9844Q16.0742 33.9844 15.918 34.043Q15.6836 34.1602 15.1953 34.248Q14.707 34.3359 14.2383 34.4336Q14.082 34.4922 13.2422 34.5898Q13.0859 34.5898 12.9492 34.6094L12.8906 34.4922Q12.8711 34.2383 12.7441 34.0723Q12.6172 33.9062 12.4121 33.7793Q12.207 33.6523 12.0898 33.4375L11.9922 33.3008Q11.8359 33.1445 11.5039 33.1445Q11.0352 33.1445 10.8594 33.7305L10.8398 33.8086Q10.9766 33.6328 11.0938 33.6328Q11.2109 33.6328 11.2988 33.877Q11.3867 34.1211 11.4062 34.3945Q11.4062 34.6875 11.3281 34.9805Q11.2891 35.1562 11.2598 35.3418Q11.2305 35.5273 11.1914 35.7129Q11.1523 35.8984 11.1133 36.0547Q11.0156 36.4062 10.9961 36.9531Q10.9766 37.1484 10.918 37.3633Q10.8594 37.5781 10.8398 37.8125Q10.8398 38.3203 10.7227 38.8477L9.41406 39.0039L9.45312 38.8672Q9.47266 38.6914 9.52148 38.5156Q9.57031 38.3398 9.60938 38.1836L9.60938 37.8906Q9.60938 37.6367 9.6875 37.4023Q9.76562 37.168 9.79492 36.9336Q9.82422 36.6992 9.90234 36.5039L9.90234 36.4648Q9.98047 36.2695 9.98047 36.1719Q9.98047 36.1133 9.96094 36.0449Q9.94141 35.9766 9.94141 35.8984Q9.94141 35.7617 9.98047 35.6445Q10.0195 35.4492 10.0195 35.3125Q10.0195 34.7656 9.60938 34.375L9.51172 34.2969Q9.29688 34.1211 9.12109 33.8672Q9.08203 33.8086 9.0332 33.7793Q8.98438 33.75 8.96484 33.75Q8.65234 33.8281 8.53516 34.0625L8.37891 34.5898Q8.39844 34.5703 8.42773 34.5703Q8.45703 34.5703 8.52539 34.5605Q8.59375 34.5508 8.67188 34.5117Q8.75 34.707 8.75 34.8828Q8.75 35.3125 8.71094 35.5469L8.71094 35.7422Q8.71094 36.0352 8.60352 36.5723Q8.49609 37.1094 8.41797 37.6562L8.28125 38.5547L8.26172 38.7305Q8.26172 38.9453 8.35938 39.1211L8.18359 39.1211Q7.75391 39.1211 7.59766 39.2188L7.5 39.2578Q7.40234 39.1797 7.34375 39.1797Q7.26562 39.1992 7.14844 39.3164Q7.03125 39.4336 6.62109 39.4531Q6.5625 39.4531 6.5625 39.4336L6.54297 39.4336Q6.52344 39.3555 6.48438 39.3555Q6.44531 39.3555 6.41602 39.3652Q6.38672 39.375 6.36719 39.3945Q6.11328 39.4531 5.87891 39.5312L4.10156 39.9805Q3.90625 40.0195 3.90625 40.1953L4.31641 40.5664L4.60938 40.5664Q4.88281 40.5664 5.46875 40.4297L5.625 40.4102L7.57812 40Q8.125 39.9023 8.39844 39.9023L9.21875 39.8047Q9.51172 39.8047 9.66797 39.834Q9.82422 39.8633 10 39.8633Q10.5273 39.8438 11.25 39.8438Q11.6797 39.8633 12.0801 39.8633Q12.4805 39.8633 13.1641 39.9609Q13.6133 40.0195 14.0625 40.0195Q14.3359 40.0195 14.3555 40.0391Q14.375 40.0586 14.4336 40.0879Q14.4922 40.1172 14.5508 40.1172L14.7852 40.0977Q15.1367 40.0977 15.4492 40.2734Q15.6445 40.3711 15.8398 40.3906Q16.1133 40.4688 16.4062 40.4688Q16.543 40.4883 16.709 40.5176Q16.875 40.5469 17.1875 40.5469Q17.5977 40.5469 17.832 40.6445L17.9297 40.6445ZM12.6953 36.7188L12.6562 36.6797Q12.793 36.1328 12.8906 35.5859Q12.9688 35.3516 12.9883 35.1953Q12.9883 35.0586 12.9492 34.9414L12.9297 34.8633Q12.9297 34.7461 13.0859 34.7461Q13.6914 34.7461 14.2773 35.1562Q14.375 35.2539 14.375 35.332Q14.375 35.4297 14.2578 35.5273L13.3594 36.1914Q13.1641 36.3672 12.9395 36.5332Q12.7148 36.6992 12.6953 36.7188ZM9.78516 33.1445L9.90234 33.125Q10.0391 33.1055 10.1855 33.0469Q10.332 32.9883 10.5371 32.9102Q10.7422 32.832 10.9863 32.7441Q11.2305 32.6562 11.4844 32.5781L12.3047 32.2852Q12.2852 32.3438 12.2461 32.3828L12.0898 32.7539Q12.4609 32.6172 12.6758 32.3828Q12.9102 32.1875 13.125 31.9727Q13.9648 31.2695 14.3848 30.3027Q14.8047 29.3359 14.9609 28.75Q15.1562 28.2031 15.1562 28.1445Q15.1562 28.0078 14.9609 27.8711Q14.6875 27.6953 14.5312 27.4023L14.4336 27.2656Q14.4141 27.2656 14.4141 27.2461Q14.2383 27.0312 13.9844 27.0312L13.6719 27.0508L13.4375 27.0312Q13.2031 27.0312 12.9785 27.1094Q12.7539 27.1875 12.4902 27.2559Q12.2266 27.3242 11.9922 27.4121Q11.7578 27.5 11.5234 27.5488Q11.2891 27.5977 11.0742 27.6758L10.4688 27.8711Q10.0195 28.0078 9.58984 28.2031L8.57422 28.6523Q8.49609 28.6914 8.45703 28.8281L8.45703 29.0039Q8.4375 29.082 8.4375 29.1602Q8.4375 29.2383 8.33984 29.3359L7.79297 28.8477Q7.69531 28.75 7.59766 28.75Q7.48047 28.75 7.34375 28.9062Q7.63672 29.2969 7.63672 29.7656L7.67578 30.7422L7.67578 31.1719L7.69531 31.3086L7.67578 31.4258Q7.61719 31.543 7.61719 31.6406Q7.61719 31.7969 7.8125 31.9922Q8.06641 32.2461 8.31055 32.5293Q8.55469 32.8125 8.94531 32.9297L8.94531 32.9492Q9.08203 32.9492 9.14062 32.9102Q9.19922 32.8711 9.31641 32.7734L9.53125 32.9883Q9.62891 33.1445 9.78516 33.1445ZM9.43359 30.3906Q9.21875 29.8438 9.21875 29.2383L9.78516 28.9844L10.3711 28.7305Q10.5859 28.6328 10.8301 28.5352Q11.0742 28.4375 11.3867 28.3594Q11.6992 28.2812 12.002 28.1543Q12.3047 28.0273 12.5977 28.0273L12.9688 28.0469Q13.3008 28.0469 13.4766 28.3398Q13.5547 28.4961 13.5547 28.6523Q13.5547 28.75 13.5254 28.8574Q13.4961 28.9648 13.4668 29.0723Q13.4375 29.1797 13.3984 29.2969Q13.3594 29.4141 13.3203 29.5215Q13.2812 29.6289 13.2422 29.707Q13.0859 29.6484 12.9395 29.4141Q12.793 29.1797 12.7148 29.1797L12.5195 29.1992Q12.2656 29.1992 12.0117 29.3945Q11.9531 29.4336 11.8555 29.4531L11.7969 29.4727Q11.6797 29.4727 11.3672 29.6484Q10.8984 29.8828 10.6152 29.9512Q10.332 30.0195 10.1367 30.1367Q9.94141 30.2539 9.76562 30.293Q9.58984 30.332 9.43359 30.3906ZM9.60938 32.3828Q9.64844 32.1875 9.64844 32.0312Q9.64844 31.7578 9.58008 31.5137Q9.51172 31.2695 9.45312 30.957Q9.45312 30.8398 9.41406 30.7227Q9.47266 30.7617 9.52148 30.791Q9.57031 30.8203 9.58984 30.8594Q9.70703 31.0352 9.88281 31.0352L10.2734 30.9375L10.9766 30.7227Q11.6406 30.5273 11.9531 30.4102L11.9727 30.5469Q11.9727 30.6445 11.8945 30.7227Q11.3281 31.2695 10.6641 31.7188L9.60938 32.3828ZM12.5977 31.2695Q12.5391 31.2305 12.4707 31.2305Q12.4023 31.2305 12.3535 31.1914Q12.3047 31.1523 12.3047 31.0547L12.1289 31.0547L12.3047 30.918Q12.5 30.7031 12.8516 30.5664L12.5977 31.2695ZM1.05469 41.4844L1.26953 41.3867Q1.73828 41.1523 1.77734 41.0449Q1.81641 40.9375 1.875 40.8984Q2.14844 40.7422 2.30469 40.4883Q2.46094 40.2344 2.71484 40.0781Q2.71484 39.9219 2.89062 39.7461Q2.96875 39.668 3.02734 39.5703Q3.14453 39.3555 3.29102 39.1602Q3.4375 38.9648 3.56445 38.7305Q3.69141 38.4961 3.86719 38.2812Q4.21875 37.8125 5.80078 34.7266L6.58203 33.2422Q6.50391 33.2422 6.48438 33.2812L4.10156 35.9961L3.82812 36.3477Q3.51562 36.6797 3.24219 37.0703Q2.92969 37.5195 2.55859 37.9395Q2.1875 38.3594 1.81641 38.8379Q1.44531 39.3164 1.35742 39.3848Q1.26953 39.4531 1.11328 39.4531L1.46484 38.2031Q1.13281 38.75 0.859375 39.3164Q0.566406 39.9609 0.0585938 40.5273Q0.390625 40.957 0.820312 41.2891L1.05469 41.4844ZM5.83984 29.8633Q6.05469 29.8633 6.21094 29.5898Q6.36719 29.3164 6.36719 29.1406Q6.36719 29.043 6.28906 28.9648L5.48828 27.8906Q5.21484 27.4609 4.6875 27.4609L4.02344 27.4805Q3.63281 27.4805 3.22266 27.4414Q2.79297 27.4414 2.30469 27.7344L2.30469 27.7734Q2.30469 28.0469 2.51953 28.2031Q2.61719 28.2812 2.73438 28.3984Q2.85156 28.5156 3.02734 28.6133Q3.47656 28.8086 3.94531 28.9258Q3.94531 28.9453 3.97461 28.9453Q4.00391 28.9453 4.02344 28.9648Q4.375 29.2383 4.78516 29.4336L5.01953 29.5703Q5.27344 29.7266 5.56641 29.7852Q5.60547 29.7852 5.63477 29.7949Q5.66406 29.8047 5.71289 29.834Q5.76172 29.8633 5.83984 29.8633ZM1.95312 34.668Q2.08984 34.668 2.20703 34.5312Q2.34375 34.5312 2.4707 34.4824Q2.59766 34.4336 2.66602 34.4141Q2.73438 34.3945 2.85156 34.3945Q2.92969 34.4141 3.01758 34.4238Q3.10547 34.4336 3.26172 34.4336Q3.49609 34.4336 3.63281 34.3066Q3.76953 34.1797 3.92578 33.9453L4.0625 33.7305Q3.96484 33.6719 3.85742 33.584Q3.75 33.4961 3.63281 33.3984Q3.32031 33.1641 3.08594 32.793Q2.98828 32.5781 2.71484 32.5781L2.42188 32.5977Q2.34375 32.6172 2.26562 32.6758Q2.10938 32.7734 1.89453 32.7734Q1.875 32.793 1.83594 32.793Q1.66016 32.832 0.722656 33.5938Q0.625 33.6914 0.625 33.8477Q0.625 34.0039 1.17188 34.4727Q1.30859 34.6094 1.34766 34.6094Q1.58203 34.6094 1.69922 34.6387Q1.81641 34.668 1.95312 34.668ZM6.54297 38.2227Q6.5625 38.2227 6.5625 38.2031L6.81641 38.0859L6.875 38.0859Q7.08984 37.9688 7.24609 37.793Q7.32422 37.7539 7.34375 37.7051Q7.36328 37.6562 7.79297 36.5039Q7.71484 36.543 7.63672 36.543Q7.5 36.543 7.40234 36.4355Q7.30469 36.3281 7.23633 36.3086Q7.16797 36.2891 7.16797 36.1523Q7.24609 36.0742 7.24609 35.9961Q7.24609 35.9375 7.1875 35.8789L7.1875 35.8594Q7.1875 35.7227 7.48047 35.5078Q7.67578 35.3516 7.89062 35.2148Q7.61719 35.293 7.38281 35.4688Q7.32422 35.4883 7.25586 35.5469Q7.1875 35.6055 7.09961 35.6543Q7.01172 35.7031 6.91406 35.7422Q6.13281 36.0938 5.52734 36.6992Q5.37109 36.875 5.37109 37.0508Q5.37109 37.207 5.50781 37.3633L5.97656 37.7734Q5.97656 37.793 5.99609 37.793L6.54297 38.2227ZM1.5625 37.8711L1.67969 37.6172Q1.875 37.2852 1.93359 36.9336Q1.62109 37.3438 1.5625 37.8711ZM35.7227 42.9102Q34.668 42.9102 33.8672 42.1875Q33.2422 41.6797 32.5977 41.2305Q32.1094 40.918 31.5625 40.4102Q30.9375 39.8438 30.6641 39.6484L30.332 39.8633Q29.4922 40.5078 29.082 40.5664L28.7109 40.6836Q28.3984 40.8203 28.0469 40.8398Q27.8711 40.8594 27.6953 40.9375L27.5195 40.9766L27.4219 41.0156Q27.2266 40.957 27.0117 40.918Q26.6797 40.8789 26.3867 40.7617Q26.0938 40.6445 25.8789 40.332Q25.7617 40.1758 25.6055 40.0391Q25.2148 39.7852 25.2148 39.4336Q25.2148 39.3359 25.2441 39.2578Q25.2734 39.1797 25.3125 39.1406Q25.3516 39.1016 25.3711 39.0918Q25.3906 39.082 25.4102 39.082L25.4688 39.1797L25.5664 39.4141Q25.9766 40.1172 26.9141 40.1172L27.1484 40.0977Q28.4375 39.9023 29.4336 39.0625Q29.6094 38.9258 29.8047 38.7305L29.1016 38.0273Q28.9648 37.9102 28.8281 37.9102Q28.5938 37.9102 28.1641 38.2031Q27.7344 38.4961 27.2266 38.6523L27.0508 38.5938Q27.1289 38.2812 27.4023 38.1543Q27.6758 38.0273 27.9297 37.8906Q28.6133 37.4414 29.0234 37.4414Q29.375 37.4414 29.7266 37.6562Q29.9219 37.7734 30.1367 37.8711L30.332 37.9688Q30.7617 37.2461 30.9961 36.4453Q31.0156 36.3672 31.0547 36.3086Q30.957 36.2305 30.8594 36.2305Q30.7812 36.2305 30.7031 36.2695Q30.1562 36.5039 29.5898 36.7188Q27.9492 37.3242 27.1289 37.7344Q27.0117 37.793 26.8945 37.793Q26.6992 37.793 26.4062 37.5391L26.1328 37.2852Q25.9766 37.1484 25.9766 37.0117Q25.9766 36.8555 26.1426 36.6797Q26.3086 36.5039 26.6211 36.5039L26.8945 36.5039Q27.3242 36.5039 27.7148 36.3477L27.7344 36.3477Q27.7734 36.3086 27.832 36.3086Q28.5547 36.2695 29.2188 36.0742L29.7266 35.9375Q30.2539 35.8008 30.7227 35.6055L30.957 35.5273Q31.3672 35.3711 31.4844 35.1367Q31.4844 35.0977 31.5137 35.0684Q31.543 35.0391 31.5625 35.0391L31.875 34.9023Q32.168 34.7461 32.4609 34.7461Q32.5977 34.7461 32.7637 34.7852Q32.9297 34.8242 33.0273 35.0195L33.2031 35.2539Q33.3789 35.4297 33.3789 35.6445Q33.3789 35.8203 33.2031 36.0156Q32.8711 36.3867 32.6953 36.8164L32.5977 37.0312Q32.3047 37.5586 32.0898 38.0859L32.0117 38.2031Q31.6992 38.5547 31.582 38.7109L32.207 39.082Q33.2031 39.707 33.7695 39.8633Q33.8086 39.8633 33.8281 39.8828Q34.1211 40.0781 34.4336 40.1465Q34.7461 40.2148 35 40.3711L35.0586 40.3711Q35.2734 40.3711 35.4492 40.4883L35.6641 40.5664Q36.4062 40.8203 36.9727 41.3086Q37.4609 41.6406 37.9102 42.0312Q38.1445 42.207 38.3203 42.3828L38.4961 42.5391L38.125 42.6172Q37.168 42.7734 36.8262 42.8027Q36.4844 42.832 36.1133 42.8906L35.7227 42.9102ZM19.8438 41.8164Q19.5312 41.6406 19.4141 41.4844Q19.2969 41.3281 19.2383 40.9766Q20 40.0781 20.293 39.6484Q20.6445 39.0234 21.1914 38.7695Q21.2305 38.9453 21.25 39.0625Q21.2695 39.1797 21.3086 39.2969Q21.5234 39.1406 21.6211 38.9258L22.7734 37.2266Q23.0273 36.8945 23.2031 36.5234Q23.4766 35.8594 23.8086 35.2344Q24.2578 34.3945 24.5898 33.5156Q24.668 33.2031 24.668 33.0859Q24.668 32.9688 24.6289 32.832Q24.2578 32.6953 23.8672 32.6953Q23.5742 32.6953 23.2617 32.7734Q23.5156 32.5391 23.7891 32.4609Q24.0625 32.3828 24.3555 32.3438Q24.5508 32.3438 24.6289 32.3242Q24.707 32.3047 24.7656 32.3047Q25.1367 32.3047 25.3906 32.6562Q25.7422 33.1641 26.3086 33.1641Q26.4844 33.1641 26.6797 33.1055Q27.4609 32.8125 27.7148 32.7539Q27.7148 32.5586 27.666 32.4023Q27.6172 32.2461 27.5488 32.1289Q27.4805 32.0117 27.4316 31.8945Q27.3828 31.7773 27.0508 31.7578L27.207 32.0312Q27.1484 32.0312 27.1094 32.0117Q26.7773 31.8164 26.7773 31.6211Q26.7773 31.5039 26.9141 31.4062Q27.2852 31.1523 27.5977 31.1523Q27.8516 31.1523 28.0078 31.4062Q28.2422 31.6992 28.5352 31.9727L28.75 32.207Q29.9219 31.9531 30.9766 31.6016L30.9961 31.3867Q31.0156 31.1914 31.0547 31.0156L31.0547 30.918Q31.0547 30.625 30.8008 30.625L30.6445 30.6445Q30.3516 30.7227 30.2734 30.791Q30.1953 30.8594 30.1562 31.1133Q30.0977 30.957 30.0977 30.8398Q30.0977 30.5273 30.4297 30.3711Q30.8398 30.2344 31.2891 30.1758Q31.3672 30.1367 31.4453 30.1367Q31.6211 30.1367 31.748 30.293Q31.875 30.4492 32.0508 30.5859L32.0703 30.5859Q32.1875 30.6836 32.2656 30.7617Q32.3438 30.8398 32.3828 31.1328L32.5977 31.0938Q33.3789 30.9766 33.4961 30.9766Q33.8281 30.9766 33.9844 31.3086Q34.0625 31.4648 34.248 31.5918Q34.4336 31.7188 34.4336 31.8945Q34.4336 31.9727 34.4141 32.0312Q34.1602 32.2266 33.9844 32.334Q33.8086 32.4414 33.3594 32.4414Q33.125 32.4414 32.8906 32.4023L32.832 32.4023Q32.7344 32.4023 32.2852 32.5977L32.1289 32.6562L31.8164 33.418L31.8164 33.457Q31.875 33.5938 32.0703 33.8086Q32.1875 33.9453 32.1875 34.043Q32.1875 34.3164 31.6602 34.375L31.6016 34.375Q31.3867 34.375 31.2891 34.5312Q31.2109 34.6094 31.1133 34.6094Q31.0547 34.6094 31.0156 34.5898Q30.8398 34.5117 30.6641 34.5117Q30.4883 34.5117 30.2148 34.6289L30.0586 34.6875Q29.2383 34.9805 28.457 35.3516Q28.3789 35.3516 28.0176 35.5859Q27.6562 35.8203 27.5586 35.8203Q27.4609 35.8203 27.3047 35.6445L26.9922 35.332L26.9727 35.293L26.9727 35.1172Q26.9727 35.0391 27.1875 34.8242Q27.3438 34.707 27.4023 34.5117Q27.4609 34.3164 27.5586 34.1406L27.6367 33.9453L27.4805 33.9258Q27.3438 33.9453 27.207 33.9746Q27.0703 34.0039 26.8945 34.0039Q26.6602 34.0039 26.4648 33.8281Q26.3281 33.7109 26.1523 33.6328L25.9961 33.5352L25.8008 33.9258Q24.9609 35.8008 23.5352 37.7539Q23.2617 38.1055 23.0273 38.4766Q22.6172 39.1211 22.0703 39.6875Q20.2734 41.6016 19.9805 41.7383L19.8438 41.8164ZM29.1211 34.0039Q29.4531 33.8477 29.8242 33.75Q30.0586 33.6914 30.2734 33.5938Q30.625 33.4961 30.6836 33.4961L30.7812 32.8711L30.6445 32.9102Q30.3711 32.9492 30.332 32.9688Q29.2578 33.2422 29.0039 33.3789Q28.8672 33.4766 28.8672 33.7891Q28.8672 34.0039 29.082 34.0039L29.1211 34.0039ZM24.5898 31.6406Q24.5508 31.6406 24.4922 31.6113Q24.4336 31.582 23.7305 30.957Q23.6719 30.8984 23.6719 30.7812Q23.6719 30.6055 23.7891 30.5078Q24.0234 30.293 24.3359 30.2734Q24.4531 30.2734 24.5703 30.2441Q24.6875 30.2148 24.7656 30.2148Q24.8633 30.2148 24.9707 30.2539Q25.0781 30.293 25.1953 30.293Q25.4297 30.293 25.6348 30.2344Q25.8398 30.1758 26.0547 30.0781L26.4648 29.9414Q26.7773 29.8242 27.1094 29.7266Q27.6172 29.5312 28.3203 29.3359L28.4961 29.2383Q28.1836 28.6914 28.1836 28.0664L28.1836 27.7734L28.2031 27.4023Q28.2031 27.1094 27.9297 26.9922Q27.8516 26.9531 27.7051 26.9043Q27.5586 26.8555 27.4023 26.7773L27.5391 26.6992Q27.7734 26.5039 28.2617 26.5039Q28.3594 26.5039 28.584 26.543Q28.8086 26.582 29.082 26.9141Q29.2969 27.168 29.5312 27.3828Q29.5703 27.4414 29.6289 27.4805Q30.0781 27.9102 30.0977 28.5352Q30.0977 28.6133 30.1758 28.6914L30.8984 28.5156Q32.4609 28.125 32.5391 28.125Q32.8125 28.0859 32.9492 28.0859Q33.0664 28.1055 33.1543 28.1934Q33.2422 28.2812 33.3984 28.5156Q33.4961 28.6523 33.6133 28.7695Q33.8281 28.9844 33.8281 29.1211Q33.8281 29.2773 33.6328 29.375Q33.5742 29.3945 33.5156 29.4434Q33.457 29.4922 33.4082 29.5117Q33.3594 29.5312 33.3203 29.5508Q33.2227 29.6289 33.1055 29.6484Q32.6172 29.6484 32.1289 29.6094Q32.0898 29.6094 32.0117 29.5312Q31.9336 29.3555 31.7578 29.3555L30.7422 29.4727Q30.5273 29.5312 30.2832 29.6289Q30.0391 29.7266 29.7461 29.8242Q27.9688 30.4492 26.4258 31.0938Q25.8594 31.3281 25.2734 31.543Q25.0195 31.6211 24.7656 31.6211Q24.668 31.6211 24.5898 31.6406Z">
</path>
</g>
</svg>
