<svg xmlns="http://www.w3.org/2000/svg" xmlns:xlink="http://www.w3.org/1999/xlink" width="32" height="32" viewBox="0 0 32 32" fill="none">
<path d="M18.2023 16.3388L19.4447 16.3388C19.4481 16.3388 19.4515 16.3389 19.4549 16.3391C19.4582 16.3392 19.4616 16.3395 19.465 16.3398C19.4684 16.3401 19.4717 16.3406 19.4751 16.3411C19.4784 16.3416 19.4818 16.3422 19.4851 16.3428C19.4884 16.3435 19.4917 16.3442 19.495 16.345C19.4983 16.3458 19.5016 16.3467 19.5048 16.3477C19.508 16.3487 19.5112 16.3498 19.5145 16.3509C19.5177 16.3521 19.5208 16.3533 19.5239 16.3546C19.5271 16.3559 19.5302 16.3572 19.5332 16.3587C19.5363 16.3601 19.5393 16.3617 19.5423 16.3633C19.5453 16.3649 19.5482 16.3665 19.5512 16.3683C19.5541 16.37 19.5569 16.3718 19.5597 16.3737C19.5626 16.3756 19.5653 16.3775 19.568 16.3796C19.5707 16.3816 19.5734 16.3837 19.5761 16.3858C19.5787 16.388 19.5812 16.3902 19.5837 16.3925C19.5863 16.3947 19.5887 16.3971 19.5911 16.3995C19.5935 16.4019 19.5958 16.4043 19.5981 16.4068C19.6004 16.4093 19.6026 16.4119 19.6047 16.4145C19.6069 16.4171 19.609 16.4198 19.611 16.4225C19.613 16.4252 19.615 16.428 19.6169 16.4308C19.6187 16.4337 19.6206 16.4365 19.6223 16.4394C19.624 16.4423 19.6257 16.4453 19.6273 16.4483C19.6289 16.4512 19.6304 16.4543 19.6319 16.4573C19.6333 16.4604 19.6347 16.4635 19.636 16.4667C19.6373 16.4698 19.6385 16.4729 19.6397 16.4761C19.6408 16.4793 19.6419 16.4825 19.6428 16.4858C19.6438 16.489 19.6447 16.4923 19.6456 16.4956C19.6464 16.4988 19.6471 16.5022 19.6478 16.5055C19.6484 16.5088 19.649 16.5121 19.6495 16.5155C19.65 16.5188 19.6504 16.5222 19.6508 16.5256C19.6511 16.529 19.6513 16.5323 19.6515 16.5357C19.6516 16.5391 19.6517 16.5425 19.6517 16.5459L19.6517 22.7577C19.6517 22.761 19.6516 22.7644 19.6515 22.7678C19.6513 22.7712 19.6511 22.7746 19.6508 22.7779C19.6504 22.7813 19.65 22.7847 19.6495 22.788C19.649 22.7914 19.6484 22.7947 19.6478 22.798C19.6471 22.8014 19.6464 22.8047 19.6456 22.808C19.6447 22.8112 19.6438 22.8145 19.6428 22.8177C19.6419 22.821 19.6408 22.8242 19.6397 22.8274C19.6385 22.8306 19.6373 22.8337 19.636 22.8369C19.6347 22.84 19.6333 22.8431 19.6319 22.8462C19.6304 22.8492 19.6289 22.8523 19.6273 22.8552C19.6257 22.8582 19.624 22.8612 19.6223 22.8641C19.6206 22.867 19.6187 22.8699 19.6169 22.8727C19.615 22.8755 19.613 22.8783 19.611 22.881C19.609 22.8837 19.6069 22.8864 19.6047 22.889C19.6026 22.8916 19.6004 22.8942 19.5981 22.8967C19.5958 22.8992 19.5935 22.9016 19.5911 22.9041C19.5887 22.9065 19.5863 22.9088 19.5837 22.9111C19.5812 22.9133 19.5787 22.9155 19.5761 22.9177C19.5734 22.9198 19.5708 22.9219 19.5681 22.924C19.5653 22.926 19.5626 22.9279 19.5597 22.9298C19.5569 22.9317 19.5541 22.9335 19.5512 22.9352C19.5482 22.937 19.5453 22.9387 19.5423 22.9402C19.5393 22.9418 19.5363 22.9434 19.5332 22.9448C19.5302 22.9463 19.5271 22.9477 19.5239 22.9489C19.5208 22.9502 19.5177 22.9514 19.5145 22.9526C19.5113 22.9537 19.5081 22.9548 19.5048 22.9558C19.5016 22.9567 19.4983 22.9577 19.495 22.9585C19.4917 22.9593 19.4884 22.9601 19.4851 22.9607C19.4818 22.9614 19.4784 22.962 19.4751 22.9625C19.4717 22.963 19.4684 22.9634 19.465 22.9637C19.4616 22.964 19.4582 22.9643 19.4549 22.9645C19.4515 22.9646 19.4481 22.9647 19.4447 22.9647L18.2023 22.9647C18.199 22.9647 18.1956 22.9646 18.1922 22.9645C18.1888 22.9643 18.1854 22.9641 18.1821 22.9637C18.1787 22.9634 18.1753 22.963 18.172 22.9625C18.1686 22.962 18.1653 22.9614 18.162 22.9607C18.1586 22.9601 18.1553 22.9593 18.152 22.9585C18.1487 22.9577 18.1455 22.9567 18.1422 22.9558C18.139 22.9548 18.1358 22.9537 18.1326 22.9526C18.1294 22.9514 18.1262 22.9502 18.1231 22.9489C18.12 22.9477 18.1169 22.9463 18.1138 22.9448C18.1107 22.9434 18.1077 22.9418 18.1047 22.9402C18.1017 22.9387 18.0988 22.937 18.0959 22.9352C18.093 22.9335 18.0901 22.9317 18.0873 22.9298C18.0845 22.9279 18.0817 22.926 18.079 22.924C18.0763 22.9219 18.0736 22.9199 18.071 22.9177C18.0684 22.9156 18.0658 22.9133 18.0633 22.9111C18.0608 22.9088 18.0583 22.9065 18.0559 22.9041C18.0535 22.9016 18.0512 22.8992 18.0489 22.8967C18.0466 22.8942 18.0444 22.8916 18.0423 22.889C18.0401 22.8864 18.0381 22.8837 18.036 22.881C18.034 22.8783 18.0321 22.8755 18.0302 22.8727C18.0283 22.8699 18.0265 22.867 18.0247 22.8641C18.023 22.8612 18.0213 22.8582 18.0197 22.8552C18.0182 22.8523 18.0166 22.8492 18.0152 22.8462C18.0137 22.8431 18.0123 22.84 18.0111 22.8369C18.0097 22.8337 18.0085 22.8306 18.0074 22.8274C18.0062 22.8242 18.0052 22.821 18.0042 22.8177C18.0032 22.8145 18.0023 22.8112 18.0015 22.808C18.0007 22.8047 17.9999 22.8014 17.9993 22.798C17.9986 22.7947 17.998 22.7914 17.9975 22.788C17.997 22.7847 17.9966 22.7813 17.9963 22.7779C17.9959 22.7746 17.9957 22.7712 17.9955 22.7678C17.9954 22.7644 17.9953 22.761 17.9953 22.7577L17.9953 16.5459C17.9953 16.5425 17.9954 16.5391 17.9955 16.5357C17.9957 16.5323 17.9959 16.529 17.9963 16.5256C17.9966 16.5222 17.997 16.5188 17.9975 16.5155C17.998 16.5121 17.9986 16.5088 17.9993 16.5055C17.9999 16.5022 18.0007 16.4988 18.0015 16.4956C18.0023 16.4923 18.0032 16.489 18.0042 16.4858C18.0052 16.4825 18.0062 16.4793 18.0074 16.4761C18.0086 16.4729 18.0098 16.4698 18.0111 16.4667C18.0123 16.4635 18.0137 16.4604 18.0152 16.4573C18.0166 16.4543 18.0182 16.4512 18.0197 16.4483C18.0213 16.4453 18.023 16.4423 18.0247 16.4394C18.0265 16.4365 18.0283 16.4337 18.0302 16.4308C18.0321 16.428 18.034 16.4252 18.036 16.4225C18.0381 16.4198 18.0401 16.4172 18.0423 16.4145C18.0444 16.4119 18.0466 16.4093 18.0489 16.4068C18.0512 16.4043 18.0535 16.4019 18.0559 16.3995C18.0583 16.3971 18.0608 16.3947 18.0633 16.3925C18.0658 16.3902 18.0684 16.388 18.071 16.3858C18.0736 16.3837 18.0763 16.3816 18.079 16.3796C18.0817 16.3775 18.0845 16.3756 18.0873 16.3737C18.0901 16.3718 18.093 16.37 18.0959 16.3683C18.0988 16.3665 18.1017 16.3649 18.1047 16.3633C18.1077 16.3617 18.1107 16.3601 18.1138 16.3587C18.1169 16.3572 18.12 16.3559 18.1231 16.3546C18.1262 16.3533 18.1294 16.3521 18.1326 16.3509C18.1358 16.3498 18.139 16.3487 18.1422 16.3477C18.1455 16.3467 18.1487 16.3458 18.152 16.345C18.1553 16.3442 18.1586 16.3435 18.162 16.3428C18.1653 16.3422 18.1686 16.3416 18.172 16.3411C18.1753 16.3406 18.1787 16.3401 18.1821 16.3398C18.1854 16.3395 18.1888 16.3392 18.1922 16.3391C18.1956 16.3389 18.199 16.3388 18.2023 16.3388ZM21.3543 6.94118L22.2061 7.43246C22.2091 7.43417 22.212 7.43594 22.2148 7.43778C22.2176 7.43961 22.2204 7.44152 22.2232 7.44349C22.226 7.44549 22.2287 7.44755 22.2313 7.44965C22.234 7.45175 22.2366 7.45393 22.2391 7.45618C22.2417 7.45841 22.2442 7.46071 22.2466 7.46309C22.249 7.46544 22.2514 7.46786 22.2537 7.47034C22.2561 7.47282 22.2583 7.47536 22.2605 7.47796C22.2627 7.48055 22.2648 7.48318 22.2669 7.48587C22.2689 7.48858 22.2709 7.49133 22.2728 7.49412C22.2748 7.49691 22.2766 7.49974 22.2784 7.50262C22.2802 7.50552 22.2819 7.50844 22.2836 7.5114C22.2852 7.51438 22.2868 7.51739 22.2883 7.52043C22.2898 7.52347 22.2912 7.52656 22.2925 7.52968C22.2939 7.53278 22.2952 7.53593 22.2963 7.53912C22.2975 7.54228 22.2987 7.54548 22.2997 7.54871C22.3007 7.55196 22.3017 7.55522 22.3025 7.55849C22.3034 7.56177 22.3042 7.56507 22.3049 7.5684C22.3056 7.57171 22.3062 7.57505 22.3068 7.5784C22.3073 7.58173 22.3078 7.58509 22.3082 7.58846C22.3086 7.59184 22.3088 7.59522 22.3091 7.59862C22.3093 7.60199 22.3094 7.60538 22.3094 7.60878C22.3095 7.61217 22.3095 7.61557 22.3093 7.61896C22.3092 7.62236 22.309 7.62574 22.3087 7.62912C22.3085 7.63249 22.3081 7.63587 22.3076 7.63924C22.3072 7.6426 22.3067 7.64594 22.306 7.64928C22.3054 7.65261 22.3047 7.65593 22.3039 7.65924C22.3032 7.66253 22.3023 7.66582 22.3013 7.66909C22.3004 7.67234 22.2994 7.67557 22.2983 7.67878C22.2972 7.68198 22.296 7.68517 22.2947 7.68834C22.2935 7.69148 22.2922 7.6946 22.2907 7.69768C22.2893 7.70077 22.2879 7.70382 22.2863 7.70684C22.2847 7.70986 22.2831 7.71283 22.2814 7.71574L21.2461 9.50871C21.2444 9.51162 21.2426 9.51449 21.2408 9.51734C21.239 9.52018 21.2371 9.52296 21.2351 9.52571C21.2331 9.52843 21.2311 9.53112 21.229 9.53378C21.2268 9.53643 21.2247 9.53899 21.2224 9.54152C21.2202 9.54406 21.2179 9.54656 21.2156 9.54896C21.2132 9.5514 21.2108 9.55378 21.2083 9.55606C21.2058 9.55837 21.2033 9.56062 21.2007 9.56278C21.1981 9.56496 21.1955 9.56709 21.1928 9.56915C21.1901 9.57118 21.1874 9.57318 21.1846 9.57509C21.1818 9.57699 21.179 9.57887 21.1761 9.58065C21.1732 9.58243 21.1703 9.58412 21.1674 9.58578C21.1644 9.5874 21.1614 9.58896 21.1584 9.59046C21.1554 9.59193 21.1523 9.59334 21.1492 9.59468C21.1461 9.59603 21.1429 9.59731 21.1398 9.59849C21.1366 9.59965 21.1334 9.60077 21.1302 9.60181C21.127 9.60284 21.1237 9.60378 21.1205 9.60465C21.1172 9.60553 21.1139 9.60631 21.1106 9.60703C21.1073 9.60774 21.104 9.60837 21.1007 9.6089C21.0973 9.60946 21.094 9.60993 21.0906 9.61031C21.0873 9.61068 21.0839 9.61099 21.0805 9.61121C21.0772 9.61143 21.0738 9.61156 21.0704 9.61162C21.067 9.61168 21.0637 9.61165 21.0603 9.61153C21.0569 9.61143 21.0535 9.61124 21.0501 9.61096C21.0468 9.61068 21.0434 9.61031 21.0401 9.60987C21.0367 9.60943 21.0334 9.6089 21.0301 9.60831C21.0267 9.60771 21.0234 9.60703 21.0201 9.60624C21.0168 9.60546 21.0136 9.60462 21.0103 9.60371C21.0071 9.60278 21.0038 9.60178 21.0007 9.60068C20.9974 9.59959 20.9943 9.59843 20.9911 9.59718C20.988 9.59596 20.9849 9.59465 20.9818 9.59324C20.9787 9.59184 20.9757 9.59037 20.9727 9.58884C20.9697 9.58731 20.9667 9.58568 20.9638 9.58399L20.112 9.09271C20.1091 9.09099 20.1062 9.08924 20.1033 9.08743C20.1005 9.08559 20.0977 9.08368 20.0949 9.08171C20.0922 9.07974 20.0895 9.07771 20.0868 9.07562C20.0842 9.07353 20.0816 9.07134 20.079 9.06912C20.0765 9.0669 20.074 9.06459 20.0716 9.06224C20.0691 9.0599 20.0667 9.05749 20.0644 9.05503C20.0621 9.05256 20.0599 9.05006 20.0577 9.04746C20.0555 9.04487 20.0534 9.04224 20.0513 9.03959C20.0492 9.0369 20.0472 9.03415 20.0453 9.03137C20.0434 9.02859 20.0415 9.02578 20.0397 9.0229C20.0379 9.02003 20.0362 9.01712 20.0346 9.01418C20.0329 9.01121 20.0313 9.00821 20.0298 9.00518C20.0283 9.00215 20.0269 8.99909 20.0256 8.99599C20.0242 8.9929 20.023 8.98974 20.0217 8.98659C20.0206 8.98343 20.0194 8.98024 20.0184 8.97703C20.0174 8.97381 20.0164 8.97056 20.0155 8.96728C20.0146 8.96403 20.0138 8.96074 20.0131 8.95743C20.0124 8.95412 20.0117 8.95081 20.0112 8.94746C20.0106 8.94412 20.0102 8.94077 20.0097 8.93743C20.0093 8.93406 20.0091 8.93068 20.0088 8.92731C20.0086 8.92393 20.0084 8.92056 20.0084 8.91718C20.0083 8.91378 20.0083 8.9104 20.0084 8.90703C20.0085 8.90365 20.0087 8.90028 20.009 8.8969C20.0093 8.89353 20.0096 8.89015 20.0101 8.88681C20.0105 8.88346 20.011 8.88012 20.0116 8.87678C20.0122 8.87343 20.0129 8.87012 20.0136 8.86684C20.0144 8.86356 20.0152 8.86028 20.0162 8.85699C20.0171 8.85374 20.0181 8.85052 20.0191 8.84731C20.0202 8.84409 20.0214 8.84093 20.0226 8.83778C20.0238 8.83462 20.0252 8.83153 20.0266 8.82843C20.0279 8.82534 20.0294 8.82231 20.0309 8.81927C20.0325 8.81624 20.0341 8.81328 20.0358 8.81034L21.0711 7.0174C21.0727 7.01448 21.0745 7.0116 21.0763 7.00874C21.0782 7.00589 21.0801 7.00309 21.082 7.00034C21.084 6.99759 21.0861 6.99489 21.0882 6.99224C21.0902 6.9896 21.0924 6.98699 21.0946 6.98443C21.0968 6.98189 21.0992 6.9794 21.1015 6.97696C21.1038 6.97455 21.1062 6.97217 21.1087 6.96984C21.1112 6.96753 21.1137 6.96528 21.1163 6.96309C21.1189 6.9609 21.1215 6.95878 21.1242 6.95671C21.1269 6.95465 21.1296 6.95265 21.1324 6.95071C21.1352 6.9488 21.138 6.94694 21.1408 6.94515C21.1437 6.94336 21.1466 6.94164 21.1496 6.93999C21.1526 6.93833 21.1555 6.93674 21.1586 6.93524C21.1616 6.93374 21.1647 6.93232 21.1678 6.93096C21.1709 6.92963 21.174 6.92836 21.1772 6.92715C21.1803 6.92596 21.1835 6.92485 21.1867 6.92381C21.19 6.92277 21.1932 6.9218 21.1965 6.9209C21.1997 6.92003 21.203 6.91922 21.2063 6.91849C21.2096 6.91778 21.2129 6.91715 21.2163 6.91659C21.2196 6.91603 21.223 6.91555 21.2263 6.91515C21.2297 6.91478 21.2331 6.91447 21.2364 6.91424C21.2398 6.91402 21.2432 6.91387 21.2466 6.91381C21.25 6.91372 21.2533 6.91373 21.2567 6.91384C21.2601 6.91394 21.2635 6.91413 21.2669 6.9144C21.2702 6.91467 21.2736 6.91503 21.277 6.91546C21.2803 6.9159 21.2836 6.91641 21.287 6.91699C21.2903 6.9176 21.2936 6.91828 21.2969 6.91903C21.3002 6.9198 21.3035 6.92064 21.3067 6.92156C21.31 6.92247 21.3132 6.92347 21.3164 6.92456C21.3197 6.92564 21.3228 6.9268 21.326 6.92803C21.3291 6.92925 21.3322 6.93057 21.3353 6.93196C21.3384 6.93334 21.3415 6.9348 21.3445 6.93634C21.3475 6.93788 21.3505 6.93949 21.3534 6.94118L21.3543 6.94118ZM9.78446 7.43246L10.6362 6.94118C10.6392 6.93949 10.6421 6.93788 10.6451 6.93634C10.6482 6.9348 10.6512 6.93333 10.6543 6.93193C10.6573 6.93053 10.6604 6.92921 10.6636 6.92796C10.6667 6.92673 10.6699 6.92558 10.6731 6.92449C10.6763 6.92341 10.6796 6.9224 10.6828 6.92146C10.6861 6.92055 10.6893 6.9197 10.6926 6.91893C10.6959 6.91816 10.6992 6.91747 10.7025 6.91687C10.7059 6.91627 10.7092 6.91574 10.7126 6.91531C10.7159 6.91485 10.7192 6.91448 10.7226 6.91421C10.726 6.91394 10.7294 6.91374 10.7327 6.91362C10.7361 6.91352 10.7395 6.91349 10.7429 6.91356C10.7462 6.9136 10.7496 6.91373 10.753 6.91396C10.7564 6.91417 10.7597 6.91447 10.7631 6.91487C10.7665 6.91524 10.7698 6.9157 10.7732 6.91624C10.7765 6.91681 10.7798 6.91744 10.7831 6.91815C10.7864 6.91886 10.7897 6.91965 10.793 6.92053C10.7962 6.92138 10.7995 6.92233 10.8027 6.92337C10.8059 6.92439 10.8091 6.92549 10.8122 6.92668C10.8154 6.92787 10.8186 6.92913 10.8217 6.93046C10.8247 6.93182 10.8278 6.93323 10.8309 6.93471C10.8339 6.93621 10.8369 6.93778 10.8398 6.9394C10.8428 6.94105 10.8457 6.94275 10.8486 6.94453C10.8515 6.94632 10.8543 6.94817 10.8571 6.95009C10.8599 6.952 10.8626 6.95398 10.8653 6.95603C10.868 6.95809 10.8706 6.9602 10.8732 6.96237C10.8758 6.96456 10.8783 6.9668 10.8808 6.96909C10.8832 6.9714 10.8857 6.97377 10.888 6.97618C10.8904 6.97862 10.8927 6.9811 10.8949 6.98362C10.8971 6.98616 10.8993 6.98875 10.9014 6.9914C10.9035 6.99405 10.9056 6.99673 10.9076 6.99946C10.9095 7.00221 10.9114 7.005 10.9133 7.00784C10.9151 7.01067 10.9169 7.01355 10.9186 7.01646L11.9539 8.81034C11.9556 8.81328 11.9572 8.81624 11.9587 8.81924C11.9602 8.82228 11.9617 8.82531 11.9631 8.82837C11.9645 8.83146 11.9658 8.83456 11.9671 8.83771C11.9683 8.84087 11.9695 8.84403 11.9706 8.84724C11.9717 8.85043 11.9727 8.85365 11.9736 8.8569C11.9745 8.86015 11.9753 8.86343 11.9761 8.86671C11.9769 8.86999 11.9776 8.87331 11.9782 8.87665C11.9788 8.87996 11.9793 8.88331 11.9797 8.88665C11.9802 8.88999 11.9806 8.89337 11.9808 8.89674C11.9811 8.90012 11.9813 8.90349 11.9814 8.90687C11.9815 8.91024 11.9816 8.91362 11.9815 8.91699C11.9815 8.92037 11.9813 8.92374 11.9811 8.92712C11.9809 8.93049 11.9806 8.93387 11.9802 8.93721C11.9798 8.94056 11.9793 8.9439 11.9788 8.94724C11.9782 8.95059 11.9776 8.95393 11.9769 8.95721C11.9762 8.96053 11.9754 8.96381 11.9745 8.96706C11.9737 8.97034 11.9727 8.97359 11.9717 8.97681C11.9706 8.98003 11.9696 8.98321 11.9684 8.98637C11.9672 8.98952 11.9659 8.99268 11.9646 8.99578C11.9632 8.99887 11.9618 9.00196 11.9603 9.00499C11.9588 9.00803 11.9573 9.01099 11.9557 9.01396C11.954 9.01693 11.9523 9.01984 11.9505 9.02271C11.9487 9.02559 11.9469 9.02843 11.945 9.03121C11.9431 9.03399 11.9411 9.03671 11.939 9.0394C11.937 9.04209 11.9348 9.04471 11.9327 9.04731C11.9305 9.0499 11.9282 9.05243 11.9259 9.0549C11.9237 9.05737 11.9213 9.05978 11.9189 9.06212C11.9164 9.06449 11.914 9.06681 11.9114 9.06903C11.9089 9.07124 11.9063 9.07343 11.9037 9.07553C11.901 9.07765 11.8983 9.07968 11.8956 9.08165C11.8928 9.08362 11.8901 9.08556 11.8872 9.0874C11.8844 9.08924 11.8815 9.09099 11.8786 9.09271L11.0268 9.58493C11.0239 9.58662 11.0209 9.58824 11.0179 9.58978C11.0149 9.59131 11.0119 9.59278 11.0088 9.59418C11.0057 9.59559 11.0026 9.5969 10.9995 9.59812C10.9963 9.59937 10.9932 9.60052 10.9899 9.60162C10.9867 9.60271 10.9835 9.60371 10.9802 9.60465C10.977 9.60556 10.9737 9.6064 10.9704 9.60718C10.9671 9.60796 10.9638 9.60865 10.9605 9.60924C10.9572 9.60984 10.9538 9.61037 10.9505 9.61081C10.9472 9.61124 10.9438 9.61162 10.9404 9.6119C10.9371 9.61218 10.9337 9.61237 10.9303 9.61246C10.9269 9.61259 10.9236 9.61262 10.9202 9.61256C10.9168 9.61249 10.9134 9.61237 10.9101 9.61215C10.9067 9.61193 10.9033 9.61162 10.9 9.61124C10.8966 9.61087 10.8932 9.6104 10.8899 9.60984C10.8866 9.60931 10.8832 9.60868 10.88 9.60796C10.8766 9.60724 10.8734 9.60646 10.8701 9.60559C10.8668 9.60471 10.8636 9.60378 10.8604 9.60274C10.8572 9.60171 10.8539 9.60062 10.8508 9.59943C10.8476 9.59824 10.8445 9.59696 10.8414 9.59562C10.8383 9.59428 10.8352 9.59287 10.8322 9.5914C10.8292 9.5899 10.8262 9.58834 10.8232 9.58671C10.8202 9.58506 10.8173 9.58337 10.8145 9.58159C10.8116 9.57981 10.8087 9.57793 10.806 9.57603C10.8032 9.57412 10.8004 9.57212 10.7978 9.57009C10.7951 9.56803 10.7925 9.5659 10.7899 9.56374C10.7873 9.56156 10.7847 9.55931 10.7823 9.55699C10.7798 9.55471 10.7774 9.55234 10.775 9.5499C10.7727 9.54749 10.7704 9.54499 10.7682 9.54246C10.7659 9.53993 10.7637 9.53737 10.7616 9.53471C10.7595 9.53206 10.7575 9.52937 10.7555 9.52665C10.7535 9.5239 10.7516 9.52112 10.7498 9.51828C10.7479 9.51543 10.7462 9.51256 10.7445 9.50965L9.70918 7.71574C9.70749 7.71283 9.70587 7.70987 9.70434 7.70687C9.70281 7.70385 9.70134 7.7008 9.69993 7.69771C9.69853 7.69465 9.69721 7.69155 9.69596 7.6884C9.69474 7.68525 9.69359 7.68208 9.69249 7.67887C9.6914 7.67566 9.6904 7.67243 9.68946 7.66918C9.68856 7.66593 9.68771 7.66266 9.68693 7.65937C9.68615 7.65608 9.68546 7.65278 9.68487 7.64946C9.68427 7.64613 9.68374 7.64278 9.68331 7.63943C9.68284 7.6361 9.68249 7.63274 9.68221 7.62937C9.68193 7.62599 9.68174 7.62262 9.68162 7.61924C9.68153 7.61587 9.68149 7.61249 9.68156 7.60912C9.68159 7.60574 9.68174 7.60237 9.68196 7.59899C9.68218 7.59562 9.68246 7.59225 9.68287 7.5889C9.68324 7.58553 9.68371 7.58217 9.68424 7.57884C9.68481 7.5755 9.68543 7.57219 9.68615 7.5689C9.68687 7.56559 9.68765 7.5623 9.68853 7.55903C9.68937 7.55575 9.69034 7.55252 9.69137 7.54931C9.6924 7.54608 9.69349 7.54289 9.69468 7.53974C9.69587 7.53658 9.69712 7.53344 9.69846 7.53034C9.69981 7.52723 9.70124 7.52416 9.70271 7.52112C9.70421 7.5181 9.70578 7.51511 9.7074 7.51215C9.70906 7.50919 9.71074 7.50628 9.71253 7.5034C9.71431 7.50053 9.71618 7.49769 9.71809 7.4949C9.71999 7.49213 9.72199 7.4894 9.72403 7.48671C9.72609 7.48403 9.72821 7.48139 9.73037 7.47881C9.73256 7.47622 9.73481 7.47369 9.73709 7.47121C9.7394 7.46873 9.74178 7.46632 9.74418 7.46396C9.74662 7.46161 9.74909 7.45932 9.75162 7.45709C9.75415 7.45486 9.75674 7.45268 9.7594 7.45056C9.76206 7.44845 9.76474 7.44641 9.76746 7.44443C9.77021 7.44245 9.77299 7.44055 9.77584 7.43871C9.77868 7.43688 9.78156 7.43511 9.78446 7.4334L9.78446 7.43246ZM25.7854 11.0033L26.2767 11.8551C26.2784 11.858 26.28 11.8609 26.2816 11.864C26.2831 11.867 26.2846 11.87 26.2859 11.8731C26.2873 11.8762 26.2887 11.8793 26.2899 11.8824C26.2911 11.8856 26.2923 11.8887 26.2934 11.8919C26.2945 11.8952 26.2955 11.8984 26.2964 11.9016C26.2973 11.9049 26.2982 11.9081 26.299 11.9114C26.2997 11.9147 26.3004 11.918 26.301 11.9213C26.3016 11.9247 26.3021 11.928 26.3026 11.9314C26.303 11.9347 26.3034 11.9381 26.3036 11.9414C26.3039 11.9448 26.3041 11.9482 26.3042 11.9516C26.3043 11.9549 26.3044 11.9583 26.3043 11.9617C26.3043 11.9651 26.3041 11.9685 26.3039 11.9718C26.3037 11.9752 26.3034 11.9786 26.303 11.9819C26.3026 11.9853 26.3022 11.9886 26.3016 11.992C26.3011 11.9953 26.3005 11.9986 26.2997 12.0019C26.299 12.0052 26.2982 12.0085 26.2974 12.0118C26.2965 12.0151 26.2956 12.0183 26.2945 12.0215C26.2935 12.0247 26.2924 12.0279 26.2912 12.0311C26.29 12.0342 26.2887 12.0374 26.2874 12.0405C26.2861 12.0436 26.2847 12.0466 26.2831 12.0497C26.2817 12.0527 26.2801 12.0557 26.2785 12.0587C26.2768 12.0617 26.2751 12.0646 26.2733 12.0674C26.2716 12.0703 26.2697 12.0731 26.2678 12.0759C26.2659 12.0787 26.2639 12.0814 26.2618 12.0841C26.2598 12.0868 26.2577 12.0894 26.2555 12.092C26.2533 12.0946 26.2511 12.0971 26.2488 12.0996C26.2465 12.1021 26.2441 12.1045 26.2417 12.1068C26.2393 12.1092 26.2368 12.1115 26.2342 12.1137C26.2317 12.116 26.2291 12.1182 26.2265 12.1202C26.2238 12.1223 26.2211 12.1244 26.2184 12.1264C26.2157 12.1283 26.2129 12.1302 26.21 12.1321C26.2072 12.1339 26.2043 12.1357 26.2014 12.1374L24.4085 13.1727C24.4056 13.1744 24.4026 13.176 24.3996 13.1776C24.3966 13.1791 24.3935 13.1806 24.3904 13.182C24.3873 13.1833 24.3842 13.1847 24.3811 13.1859C24.3779 13.1871 24.3748 13.1883 24.3716 13.1894C24.3684 13.1905 24.3652 13.1915 24.3619 13.1924C24.3587 13.1933 24.3554 13.1942 24.3521 13.1949C24.3488 13.1957 24.3455 13.1964 24.3421 13.197C24.3388 13.1976 24.3355 13.1981 24.3321 13.1986C24.3288 13.199 24.3254 13.1994 24.3221 13.1996C24.3187 13.1999 24.3153 13.2001 24.312 13.2002C24.3086 13.2003 24.3052 13.2004 24.3018 13.2003C24.2984 13.2003 24.2951 13.2002 24.2917 13.1999C24.2883 13.1997 24.2849 13.1994 24.2816 13.199C24.2782 13.1986 24.2749 13.1982 24.2716 13.1976C24.2682 13.1971 24.2649 13.1965 24.2616 13.1957C24.2583 13.195 24.255 13.1942 24.2517 13.1934C24.2485 13.1925 24.2452 13.1916 24.242 13.1905C24.2388 13.1895 24.2356 13.1884 24.2324 13.1872C24.2293 13.186 24.2261 13.1847 24.223 13.1834C24.2199 13.1821 24.2169 13.1807 24.2138 13.1791C24.2108 13.1777 24.2078 13.1761 24.2048 13.1745C24.2019 13.1728 24.199 13.1711 24.1961 13.1693C24.1932 13.1676 24.1904 13.1657 24.1876 13.1638C24.1848 13.1619 24.1821 13.1599 24.1794 13.1578C24.1767 13.1558 24.1741 13.1537 24.1715 13.1515C24.1689 13.1493 24.1664 13.1471 24.1639 13.1448C24.1615 13.1425 24.159 13.1401 24.1567 13.1377C24.1543 13.1353 24.152 13.1328 24.1498 13.1302C24.1476 13.1277 24.1454 13.1251 24.1433 13.1225C24.1412 13.1198 24.1391 13.1172 24.1371 13.1144C24.1352 13.1117 24.1333 13.1089 24.1314 13.106C24.1296 13.1032 24.1278 13.1003 24.1261 13.0974L23.6339 12.2447C23.6322 12.2418 23.6306 12.2388 23.629 12.2358C23.6275 12.2328 23.626 12.2297 23.6246 12.2267C23.6232 12.2236 23.6219 12.2205 23.6207 12.2173C23.6194 12.2142 23.6183 12.211 23.6172 12.2078C23.6161 12.2046 23.6151 12.2014 23.6142 12.1982C23.6132 12.1949 23.6124 12.1916 23.6116 12.1883C23.6109 12.1851 23.6102 12.1817 23.6096 12.1784C23.609 12.1751 23.6084 12.1717 23.608 12.1684C23.6076 12.1651 23.6072 12.1617 23.6069 12.1583C23.6066 12.1549 23.6064 12.1516 23.6063 12.1482C23.6062 12.1448 23.6062 12.1414 23.6062 12.1381C23.6063 12.1347 23.6064 12.1313 23.6066 12.1279C23.6069 12.1246 23.6072 12.1212 23.6076 12.1178C23.608 12.1145 23.6084 12.1111 23.609 12.1078C23.6095 12.1044 23.6101 12.1011 23.6108 12.0978C23.6116 12.0945 23.6123 12.0912 23.6132 12.088C23.6141 12.0847 23.615 12.0815 23.6161 12.0782C23.6171 12.075 23.6182 12.0718 23.6194 12.0687C23.6206 12.0655 23.6218 12.0624 23.6232 12.0593C23.6245 12.0562 23.6259 12.0531 23.6274 12.0501C23.6289 12.047 23.6305 12.0441 23.6321 12.0411C23.6337 12.0381 23.6355 12.0352 23.6372 12.0323C23.639 12.0295 23.6409 12.0266 23.6428 12.0238C23.6447 12.0211 23.6467 12.0183 23.6487 12.0156C23.6508 12.013 23.6529 12.0103 23.6551 12.0077C23.6572 12.0051 23.6595 12.0026 23.6618 12.0002C23.6641 11.9977 23.6665 11.9953 23.6689 11.9929C23.6713 11.9906 23.6738 11.9882 23.6763 11.986C23.6789 11.9838 23.6815 11.9816 23.6841 11.9795C23.6867 11.9774 23.6894 11.9753 23.6922 11.9734C23.6949 11.9714 23.6977 11.9695 23.7005 11.9677C23.7034 11.9658 23.7062 11.9641 23.7092 11.9623L25.5021 10.9271C25.5051 10.9253 25.508 10.9237 25.511 10.9221C25.5141 10.9206 25.5171 10.9191 25.5202 10.9177C25.5233 10.9163 25.5264 10.915 25.5296 10.9137C25.5327 10.9124 25.5359 10.9113 25.5391 10.9102C25.5423 10.9091 25.5455 10.9081 25.5488 10.9071C25.5521 10.9062 25.5553 10.9053 25.5586 10.9045C25.5619 10.9037 25.5652 10.9031 25.5686 10.9024C25.5719 10.9018 25.5753 10.9013 25.5786 10.9008C25.582 10.9004 25.5854 10.9 25.5887 10.8997C25.5921 10.8995 25.5955 10.8992 25.5989 10.8991C25.6023 10.899 25.6057 10.899 25.6091 10.899C25.6125 10.8991 25.6159 10.8992 25.6193 10.8994C25.6227 10.8996 25.626 10.8999 25.6294 10.9003C25.6328 10.9007 25.6362 10.9011 25.6395 10.9017C25.6428 10.9022 25.6462 10.9028 25.6495 10.9036C25.6528 10.9043 25.6561 10.9051 25.6594 10.9059C25.6627 10.9068 25.6659 10.9078 25.6691 10.9088C25.6724 10.9098 25.6756 10.9109 25.6787 10.9121C25.6819 10.9133 25.6851 10.9146 25.6882 10.9159C25.6913 10.9173 25.6944 10.9187 25.6974 10.9202C25.7005 10.9217 25.7035 10.9232 25.7065 10.9249C25.7094 10.9266 25.7124 10.9282 25.7152 10.93C25.7181 10.9318 25.721 10.9337 25.7238 10.9356C25.7266 10.9375 25.7293 10.9395 25.732 10.9416C25.7347 10.9437 25.7373 10.9458 25.7399 10.948C25.7425 10.9502 25.7451 10.9524 25.7475 10.9547C25.75 10.9571 25.7524 10.9594 25.7548 10.9619C25.7572 10.9643 25.7595 10.9668 25.7617 10.9693C25.7639 10.9719 25.7661 10.9745 25.7682 10.9771C25.7703 10.9798 25.7724 10.9825 25.7744 10.9852C25.7763 10.988 25.7782 10.9908 25.7801 10.9937C25.7819 10.9965 25.7837 10.9994 25.7854 11.0023L25.7854 11.0033ZM5.72328 11.8551L6.21459 11.0033C6.21628 11.0004 6.21803 10.9975 6.21987 10.9946C6.2217 10.9918 6.2236 10.989 6.22556 10.9862C6.22753 10.9835 6.22957 10.9808 6.23165 10.9781C6.23375 10.9755 6.23592 10.9729 6.23815 10.9703C6.24038 10.9678 6.24267 10.9653 6.24503 10.9629C6.24738 10.9604 6.24978 10.9581 6.25224 10.9557C6.25472 10.9534 6.25724 10.9512 6.25981 10.949C6.26239 10.9468 6.26503 10.9447 6.26771 10.9426C6.2704 10.9405 6.27313 10.9385 6.2759 10.9366C6.27867 10.9347 6.28149 10.9328 6.28437 10.931C6.28724 10.9292 6.29016 10.9275 6.29312 10.9259C6.29608 10.9242 6.29907 10.9227 6.30209 10.9212C6.30513 10.9197 6.3082 10.9182 6.31131 10.9169C6.31439 10.9155 6.31752 10.9142 6.32068 10.913C6.32385 10.9118 6.32705 10.9107 6.33028 10.9097C6.33348 10.9087 6.33672 10.9077 6.33999 10.9068C6.34327 10.9059 6.34656 10.9051 6.34987 10.9044C6.35316 10.9037 6.35647 10.903 6.35981 10.9025C6.36316 10.9019 6.36652 10.9015 6.36987 10.9011C6.37322 10.9007 6.37659 10.9003 6.37996 10.9001C6.38334 10.8999 6.38672 10.8997 6.39012 10.8997C6.39349 10.8996 6.39687 10.8997 6.40024 10.8997C6.40364 10.8998 6.40703 10.9 6.4104 10.9003C6.41375 10.9006 6.41711 10.9009 6.42046 10.9013C6.42384 10.9018 6.42718 10.9023 6.43049 10.9029C6.43383 10.9035 6.43714 10.9042 6.44043 10.9049C6.44374 10.9057 6.44703 10.9065 6.45028 10.9074C6.45353 10.9083 6.45675 10.9093 6.45996 10.9104C6.46317 10.9115 6.46635 10.9127 6.46949 10.9139C6.47266 10.9151 6.47578 10.9164 6.47887 10.9178C6.48195 10.9192 6.48499 10.9207 6.48799 10.9222C6.49102 10.9237 6.49399 10.9254 6.49693 10.9271L8.29081 11.9623C8.29374 11.9641 8.29663 11.9658 8.29946 11.9677C8.3023 11.9695 8.30508 11.9714 8.30781 11.9734C8.31056 11.9753 8.31325 11.9774 8.3159 11.9795C8.31853 11.9816 8.32111 11.9838 8.32365 11.986C8.32619 11.9882 8.32867 11.9906 8.33109 11.9929C8.3335 11.9953 8.33587 11.9977 8.33818 12.0002C8.34049 12.0026 8.34274 12.0051 8.3449 12.0077C8.34709 12.0103 8.3492 12.013 8.35124 12.0156C8.35331 12.0183 8.3553 12.0211 8.35721 12.0238C8.35913 12.0266 8.36097 12.0295 8.36274 12.0323C8.36454 12.0352 8.36624 12.0381 8.36787 12.0411C8.36952 12.0441 8.37108 12.047 8.37256 12.0501C8.37406 12.0531 8.37547 12.0562 8.37681 12.0593C8.37814 12.0624 8.3794 12.0655 8.38059 12.0687C8.38177 12.0718 8.38289 12.075 8.38393 12.0782C8.38495 12.0815 8.3859 12.0847 8.38678 12.088C8.38765 12.0912 8.38844 12.0945 8.38915 12.0978C8.38986 12.1011 8.39048 12.1044 8.39103 12.1078C8.39157 12.1111 8.39203 12.1145 8.39243 12.1178C8.39281 12.1212 8.39311 12.1246 8.39334 12.1279C8.39355 12.1313 8.39368 12.1347 8.39374 12.1381C8.39378 12.1414 8.39375 12.1448 8.39365 12.1482C8.39355 12.1516 8.39335 12.1549 8.39306 12.1583C8.39278 12.1617 8.39243 12.1651 8.39199 12.1684C8.39156 12.1717 8.39103 12.1751 8.3904 12.1784C8.3898 12.1817 8.38912 12.1851 8.38837 12.1883C8.3876 12.1916 8.38674 12.1949 8.38581 12.1982C8.38489 12.2014 8.38389 12.2046 8.38281 12.2078C8.38172 12.211 8.38056 12.2142 8.37931 12.2173C8.37808 12.2205 8.37677 12.2236 8.37537 12.2267C8.37398 12.2297 8.3725 12.2328 8.37096 12.2358C8.36942 12.2388 8.36781 12.2418 8.36612 12.2447L7.87481 13.0974C7.87312 13.1003 7.87135 13.1032 7.86949 13.106C7.86766 13.1089 7.86575 13.1117 7.86378 13.1144C7.8618 13.1172 7.85975 13.1198 7.85765 13.1225C7.85555 13.1251 7.85338 13.1277 7.85115 13.1302C7.8489 13.1328 7.8466 13.1353 7.84424 13.1377C7.84189 13.1401 7.83947 13.1425 7.83699 13.1448C7.83453 13.1471 7.83202 13.1493 7.82943 13.1515C7.82685 13.1537 7.82421 13.1558 7.82153 13.1578C7.81884 13.1599 7.8161 13.1619 7.81331 13.1638C7.81053 13.1657 7.80771 13.1676 7.80484 13.1693C7.80196 13.1711 7.79905 13.1728 7.79609 13.1745C7.79313 13.1761 7.79013 13.1777 7.78709 13.1791C7.78407 13.1807 7.781 13.1821 7.7779 13.1834C7.7748 13.1847 7.77166 13.186 7.76849 13.1872C7.76533 13.1884 7.76214 13.1895 7.75893 13.1905C7.7557 13.1915 7.75245 13.1925 7.74918 13.1934C7.74593 13.1942 7.74265 13.195 7.73934 13.1957C7.73603 13.1965 7.7327 13.1971 7.72937 13.1976C7.72603 13.1982 7.72269 13.1986 7.71934 13.199C7.71598 13.1994 7.71262 13.1997 7.70924 13.1999C7.70587 13.2001 7.70249 13.2003 7.69912 13.2003C7.69574 13.2004 7.69236 13.2003 7.68896 13.2002C7.68559 13.2001 7.68222 13.1999 7.67887 13.1996C7.67549 13.1994 7.67213 13.199 7.66878 13.1986C7.66542 13.1981 7.66209 13.1976 7.65878 13.197C7.65544 13.1964 7.65213 13.1957 7.64884 13.1949C7.64555 13.1942 7.64228 13.1933 7.63903 13.1924C7.63578 13.1915 7.63255 13.1905 7.62934 13.1894C7.62615 13.1883 7.62298 13.1871 7.61984 13.1859C7.61669 13.1847 7.61358 13.1833 7.61049 13.1819C7.60741 13.1806 7.60437 13.1791 7.60137 13.1776C7.59837 13.176 7.5954 13.1744 7.59246 13.1727L5.79859 12.1374C5.79567 12.1357 5.7928 12.1339 5.78996 12.1321C5.78711 12.1302 5.78432 12.1283 5.78159 12.1264C5.77884 12.1244 5.77615 12.1223 5.77353 12.1202C5.77088 12.1182 5.76829 12.116 5.76574 12.1137C5.7632 12.1115 5.76072 12.1092 5.75831 12.1068C5.75589 12.1045 5.75353 12.1021 5.75121 12.0996C5.74892 12.0971 5.74668 12.0946 5.74449 12.092C5.74231 12.0894 5.74019 12.0868 5.73815 12.0841C5.73609 12.0814 5.7341 12.0787 5.73218 12.0759C5.73027 12.0731 5.72842 12.0703 5.72665 12.0674C5.72488 12.0646 5.72317 12.0617 5.72153 12.0587C5.71988 12.0557 5.71832 12.0527 5.71684 12.0497C5.71534 12.0466 5.71392 12.0436 5.71259 12.0405C5.71125 12.0374 5.70999 12.0342 5.70881 12.0311C5.70762 12.0279 5.70652 12.0247 5.70549 12.0215C5.70445 12.0183 5.70349 12.0151 5.70262 12.0118C5.70177 12.0085 5.70097 12.0052 5.70024 12.0019C5.69954 11.9986 5.69891 11.9953 5.69837 11.992C5.69783 11.9886 5.69736 11.9853 5.69696 11.9819C5.69659 11.9786 5.6963 11.9752 5.69609 11.9718C5.69586 11.9685 5.69571 11.9651 5.69565 11.9617C5.69561 11.9583 5.69564 11.9549 5.69574 11.9516C5.69587 11.9482 5.69607 11.9448 5.69634 11.9414C5.69661 11.9381 5.69696 11.9347 5.6974 11.9314C5.69786 11.928 5.69839 11.9247 5.69899 11.9213C5.6996 11.918 5.70029 11.9147 5.70106 11.9114C5.70181 11.9081 5.70265 11.9049 5.70359 11.9016C5.7045 11.8984 5.7055 11.8952 5.70659 11.8919C5.70769 11.8887 5.70886 11.8856 5.71009 11.8824C5.71134 11.8793 5.71266 11.8762 5.71406 11.8731C5.71543 11.87 5.71689 11.867 5.71843 11.864C5.71997 11.8609 5.72159 11.858 5.72328 11.8551ZM15.5087 5.64706L16.4913 5.64706C16.4947 5.64706 16.4981 5.64714 16.5015 5.64731C16.5048 5.64747 16.5082 5.64772 16.5116 5.64806C16.515 5.64839 16.5183 5.64881 16.5217 5.64931C16.525 5.64979 16.5284 5.65036 16.5317 5.65103C16.535 5.65169 16.5383 5.65243 16.5416 5.65324C16.5449 5.65408 16.5481 5.65498 16.5514 5.65596C16.5546 5.65694 16.5578 5.658 16.5611 5.65915C16.5642 5.6603 16.5674 5.66152 16.5705 5.66281C16.5737 5.6641 16.5767 5.66547 16.5798 5.66693C16.5829 5.66839 16.5859 5.66991 16.5889 5.67149C16.5919 5.6731 16.5948 5.67478 16.5977 5.67653C16.6007 5.67825 16.6035 5.68007 16.6063 5.68196C16.6091 5.68384 16.6119 5.68579 16.6146 5.68781C16.6173 5.68983 16.62 5.69191 16.6227 5.69406C16.6253 5.6962 16.6278 5.69841 16.6303 5.70068C16.6329 5.70297 16.6353 5.70532 16.6377 5.70771C16.6401 5.71011 16.6424 5.71256 16.6447 5.71506C16.647 5.71758 16.6492 5.72014 16.6513 5.72274C16.6535 5.72537 16.6556 5.72805 16.6576 5.73078C16.6596 5.73348 16.6616 5.73625 16.6635 5.73909C16.6653 5.7419 16.6672 5.74475 16.6689 5.74765C16.6706 5.75057 16.6723 5.75352 16.6739 5.75649C16.6755 5.75949 16.677 5.76253 16.6785 5.76559C16.6799 5.76865 16.6813 5.77174 16.6826 5.77487C16.6839 5.77799 16.6851 5.78116 16.6862 5.78437C16.6874 5.78756 16.6885 5.79077 16.6894 5.79399C16.6904 5.79724 16.6913 5.80052 16.6922 5.80381C16.693 5.8071 16.6937 5.8104 16.6944 5.81371C16.695 5.81705 16.6956 5.82039 16.6961 5.82374C16.6966 5.82708 16.697 5.83043 16.6973 5.83381C16.6977 5.83718 16.6979 5.84057 16.6981 5.84396C16.6982 5.84734 16.6983 5.85072 16.6983 5.85412L16.6983 7.92471C16.6983 7.92809 16.6982 7.93147 16.6981 7.93487C16.6979 7.93824 16.6977 7.94162 16.6973 7.94499C16.697 7.94837 16.6966 7.95173 16.6961 7.95509C16.6956 7.95844 16.695 7.96178 16.6944 7.96509C16.6937 7.96842 16.693 7.97174 16.6922 7.97503C16.6913 7.9783 16.6904 7.98156 16.6894 7.98481C16.6885 7.98806 16.6874 7.99128 16.6862 7.99446C16.6851 7.99765 16.6839 8.00081 16.6826 8.00393C16.6813 8.00706 16.6799 8.01016 16.6785 8.01324C16.677 8.01631 16.6755 8.01933 16.6739 8.02231C16.6723 8.02528 16.6706 8.02823 16.6689 8.03115C16.6672 8.03405 16.6653 8.03691 16.6635 8.03974C16.6616 8.04256 16.6596 8.04533 16.6576 8.04806C16.6556 8.05077 16.6535 8.05343 16.6513 8.05606C16.6492 8.05868 16.647 8.06124 16.6447 8.06374C16.6424 8.06627 16.6401 8.06872 16.6377 8.07112C16.6353 8.07352 16.6329 8.07585 16.6303 8.07812C16.6278 8.08039 16.6253 8.0826 16.6227 8.08474C16.62 8.08691 16.6173 8.089 16.6146 8.09103C16.6119 8.09303 16.6091 8.09497 16.6063 8.09687C16.6035 8.09874 16.6007 8.10056 16.5977 8.10231C16.5948 8.10404 16.5919 8.1057 16.5889 8.10731C16.5859 8.10891 16.5829 8.11043 16.5798 8.11187C16.5767 8.11333 16.5737 8.1147 16.5705 8.11599C16.5674 8.11728 16.5642 8.1185 16.5611 8.11965C16.5578 8.1208 16.5546 8.12186 16.5514 8.12284C16.5481 8.12382 16.5449 8.12472 16.5416 8.12556C16.5383 8.12637 16.535 8.12711 16.5317 8.12778C16.5283 8.12844 16.525 8.12903 16.5217 8.12953C16.5183 8.13003 16.515 8.13044 16.5116 8.13078C16.5082 8.13111 16.5048 8.13135 16.5015 8.13149C16.4981 8.13166 16.4947 8.13174 16.4913 8.13174L15.5087 8.13174C15.5053 8.13174 15.5019 8.13166 15.4986 8.13149C15.4952 8.13135 15.4918 8.13111 15.4884 8.13078C15.485 8.13044 15.4817 8.13003 15.4783 8.12953C15.475 8.12903 15.4717 8.12844 15.4683 8.12778C15.465 8.12711 15.4617 8.12637 15.4584 8.12556C15.4551 8.12472 15.4518 8.12382 15.4486 8.12284C15.4454 8.12186 15.4422 8.1208 15.439 8.11965C15.4357 8.1185 15.4326 8.11728 15.4295 8.11599C15.4263 8.1147 15.4232 8.11333 15.4202 8.11187C15.4171 8.11043 15.4141 8.10891 15.4111 8.10731C15.4081 8.1057 15.4052 8.10404 15.4022 8.10231C15.3993 8.10056 15.3965 8.09874 15.3937 8.09687C15.3908 8.09497 15.3881 8.09303 15.3854 8.09103C15.3827 8.089 15.38 8.08692 15.3773 8.08478C15.3747 8.08261 15.3722 8.08039 15.3696 8.07812C15.3671 8.07585 15.3647 8.07352 15.3623 8.07112C15.3599 8.06872 15.3576 8.06627 15.3553 8.06374C15.353 8.06124 15.3508 8.05868 15.3486 8.05606C15.3465 8.05343 15.3444 8.05077 15.3424 8.04806C15.3404 8.04533 15.3384 8.04256 15.3365 8.03974C15.3347 8.03693 15.3328 8.03407 15.3311 8.03115C15.3294 8.02825 15.3277 8.02531 15.3261 8.02231C15.3245 8.01933 15.323 8.01631 15.3215 8.01324C15.3201 8.01018 15.3187 8.00708 15.3174 8.00393C15.3161 8.00081 15.3149 7.99765 15.3137 7.99446C15.3126 7.99128 15.3115 7.98806 15.3106 7.98481C15.3096 7.98156 15.3087 7.9783 15.3078 7.97503C15.307 7.97174 15.3063 7.96842 15.3056 7.96509C15.305 7.96178 15.3044 7.95844 15.3039 7.95509C15.3034 7.95173 15.303 7.94837 15.3027 7.94499C15.3023 7.94162 15.3021 7.93824 15.3019 7.93487C15.3017 7.93147 15.3017 7.92809 15.3017 7.92471L15.3017 5.85412C15.3017 5.85072 15.3017 5.84734 15.3019 5.84396C15.3021 5.84057 15.3023 5.83718 15.3027 5.83381C15.303 5.83043 15.3034 5.82708 15.3039 5.82374C15.3044 5.82039 15.305 5.81705 15.3056 5.81371C15.3063 5.8104 15.307 5.8071 15.3078 5.80381C15.3087 5.80052 15.3096 5.79724 15.3106 5.79399C15.3115 5.79077 15.3126 5.78756 15.3137 5.78437C15.3149 5.78116 15.3161 5.77799 15.3174 5.77487C15.3187 5.77174 15.3201 5.76865 15.3215 5.76559C15.323 5.76253 15.3245 5.75949 15.3261 5.75649C15.3277 5.75352 15.3294 5.75057 15.3311 5.74765C15.3328 5.74475 15.3347 5.7419 15.3365 5.73909C15.3384 5.73625 15.3404 5.73348 15.3424 5.73078C15.3444 5.72805 15.3465 5.72537 15.3486 5.72274C15.3508 5.72014 15.353 5.71758 15.3553 5.71506C15.3576 5.71256 15.3599 5.71011 15.3623 5.70771C15.3647 5.70532 15.3671 5.70297 15.3696 5.70068C15.3722 5.69841 15.3747 5.6962 15.3773 5.69406C15.38 5.69191 15.3827 5.68983 15.3854 5.68781C15.3881 5.68579 15.3908 5.68384 15.3937 5.68196C15.3965 5.68007 15.3993 5.67825 15.4022 5.67653C15.4052 5.67478 15.4081 5.6731 15.4111 5.67149C15.4141 5.66991 15.4171 5.66839 15.4202 5.66693C15.4232 5.66547 15.4263 5.6641 15.4295 5.66281C15.4326 5.66152 15.4357 5.6603 15.4389 5.65915C15.4422 5.658 15.4454 5.65694 15.4486 5.65596C15.4518 5.65498 15.4551 5.65408 15.4584 5.65324C15.4617 5.65243 15.465 5.65169 15.4683 5.65103C15.4717 5.65036 15.475 5.64979 15.4783 5.64931C15.4817 5.64881 15.485 5.64839 15.4884 5.64806C15.4918 5.64772 15.4952 5.64747 15.4986 5.64731C15.5019 5.64714 15.5053 5.64706 15.5087 5.64706ZM10.8235 24.4894L21.1765 24.4894L21.1765 16C21.1765 15.9152 21.1745 15.8306 21.1703 15.7459C21.1662 15.6613 21.1601 15.5768 21.1518 15.4924C21.1435 15.4081 21.1332 15.324 21.1208 15.2402C21.1084 15.1563 21.0939 15.0729 21.0774 14.9897C21.0609 14.9067 21.0424 14.824 21.0218 14.7417C21.0013 14.6595 20.9787 14.5779 20.9542 14.4968C20.9296 14.4157 20.9031 14.3352 20.8745 14.2554C20.846 14.1756 20.8156 14.0966 20.7831 14.0183C20.7507 13.94 20.7165 13.8625 20.6802 13.7859C20.644 13.7093 20.606 13.6336 20.5661 13.5588C20.5261 13.4841 20.4844 13.4104 20.4409 13.3377C20.3973 13.2649 20.352 13.1934 20.305 13.1229C20.2579 13.0524 20.2092 12.9832 20.1587 12.9151C20.1082 12.847 20.0561 12.7802 20.0024 12.7147C19.9486 12.6491 19.8933 12.585 19.8364 12.5222C19.7795 12.4594 19.7211 12.398 19.6612 12.3381C19.6013 12.2781 19.54 12.2197 19.4772 12.1627C19.4144 12.1058 19.3503 12.0505 19.2848 11.9967C19.2193 11.9429 19.1525 11.8908 19.0844 11.8403C19.0164 11.7898 18.9472 11.741 18.8767 11.6939C18.8062 11.6468 18.7346 11.6015 18.662 11.5579C18.5893 11.5143 18.5156 11.4726 18.4409 11.4326C18.3661 11.3926 18.2905 11.3545 18.2139 11.3183C18.1373 11.2821 18.0598 11.2477 17.9815 11.2153C17.9032 11.1828 17.8242 11.1523 17.7444 11.1238C17.6646 11.0952 17.5842 11.0686 17.5031 11.044C17.422 11.0194 17.3404 10.9968 17.2582 10.9762C17.1759 10.9556 17.0933 10.9371 17.0102 10.9205C16.9271 10.904 16.8436 10.8895 16.7598 10.8771C16.6759 10.8646 16.5919 10.8542 16.5075 10.8459C16.4232 10.8376 16.3387 10.8314 16.2541 10.8272C16.1694 10.8231 16.0847 10.821 16 10.821C15.9152 10.821 15.8306 10.8231 15.7459 10.8272C15.6613 10.8314 15.5768 10.8376 15.4925 10.8459C15.4081 10.8542 15.3241 10.8646 15.2402 10.8771C15.1564 10.8895 15.0729 10.904 14.9898 10.9205C14.9067 10.9371 14.824 10.9556 14.7418 10.9762C14.6596 10.9968 14.578 11.0194 14.4969 11.044C14.4158 11.0686 14.3354 11.0952 14.2556 11.1238C14.1758 11.1523 14.0967 11.1828 14.0185 11.2153C13.9402 11.2477 13.8627 11.2821 13.7861 11.3183C13.7095 11.3545 13.6338 11.3926 13.5591 11.4326C13.4844 11.4726 13.4107 11.5143 13.338 11.5579C13.2653 11.6015 13.1938 11.6468 13.1233 11.6939C13.0528 11.741 12.9836 11.7898 12.9156 11.8403C12.8475 11.8908 12.7807 11.9429 12.7152 11.9967C12.6497 12.0505 12.5856 12.1058 12.5228 12.1627C12.46 12.2197 12.3987 12.2781 12.3388 12.3381C12.2789 12.398 12.2205 12.4594 12.1636 12.5222C12.1067 12.585 12.0514 12.6491 11.9976 12.7147C11.9439 12.7802 11.8918 12.847 11.8413 12.9151C11.7908 12.9832 11.7421 13.0524 11.695 13.1229C11.648 13.1934 11.6027 13.2649 11.5591 13.3377C11.5156 13.4104 11.4738 13.4841 11.4339 13.5588C11.394 13.6336 11.356 13.7093 11.3197 13.7859C11.2835 13.8625 11.2492 13.94 11.2168 14.0183C11.1844 14.0966 11.154 14.1756 11.1255 14.2554C11.0969 14.3352 11.0704 14.4157 11.0458 14.4968C11.0212 14.5779 10.9987 14.6595 10.9782 14.7417C10.9576 14.824 10.9391 14.9067 10.9226 14.9897C10.9061 15.0729 10.8916 15.1563 10.8792 15.2402C10.8668 15.324 10.8565 15.4081 10.8482 15.4924C10.8399 15.5768 10.8337 15.6613 10.8297 15.7459C10.8255 15.8306 10.8235 15.9152 10.8235 16L10.8235 24.4894ZM8.95999 24.4894L8.95999 16C8.95999 15.8848 8.96281 15.7697 8.96846 15.6546C8.97412 15.5395 8.98262 15.4246 8.9939 15.31C9.00518 15.1953 9.01928 15.081 9.03618 14.967C9.05309 14.8531 9.07281 14.7396 9.09528 14.6266C9.11774 14.5136 9.14299 14.4012 9.17096 14.2894C9.19896 14.1777 9.22968 14.0667 9.26315 13.9564C9.29659 13.8461 9.33271 13.7367 9.37152 13.6283C9.41034 13.5198 9.45178 13.4123 9.49587 13.3059C9.53996 13.1995 9.58665 13.0942 9.6359 12.99C9.68518 12.8858 9.73696 12.783 9.79128 12.6814C9.84559 12.5797 9.90237 12.4795 9.96159 12.3807C10.0208 12.2819 10.0824 12.1846 10.1465 12.0888C10.2105 11.993 10.2768 11.8988 10.3454 11.8063C10.4141 11.7137 10.4849 11.6229 10.558 11.5339C10.6311 11.4448 10.7063 11.3576 10.7837 11.2722C10.8611 11.1868 10.9405 11.1034 11.022 11.022C11.1034 10.9405 11.1869 10.8611 11.2722 10.7837C11.3576 10.7063 11.4448 10.6311 11.5339 10.558C11.6229 10.4849 11.7137 10.4141 11.8063 10.3454C11.8988 10.2768 11.993 10.2105 12.0888 10.1464C12.1846 10.0824 12.2819 10.0208 12.3807 9.96159C12.4795 9.90237 12.5797 9.84559 12.6814 9.79128C12.783 9.73696 12.8858 9.68518 12.99 9.6359C13.0942 9.58665 13.1995 9.53996 13.3059 9.49587C13.4123 9.45178 13.5198 9.41034 13.6283 9.37152C13.7367 9.33271 13.8461 9.29659 13.9564 9.26312C14.0667 9.22968 14.1777 9.19896 14.2894 9.17096C14.4012 9.14299 14.5136 9.11774 14.6266 9.09528C14.7396 9.07281 14.8531 9.05309 14.967 9.03618C15.081 9.01928 15.1953 9.00518 15.31 8.9939C15.4246 8.98262 15.5395 8.97412 15.6546 8.96846C15.7697 8.96281 15.8848 8.95999 16 8.95999C16.1152 8.95999 16.2303 8.96281 16.3454 8.96846C16.4605 8.97412 16.5754 8.98262 16.69 8.9939C16.8047 9.00518 16.919 9.01928 17.033 9.03618C17.1469 9.05309 17.2604 9.07281 17.3734 9.09528C17.4864 9.11774 17.5988 9.14299 17.7106 9.17096C17.8223 9.19896 17.9333 9.22968 18.0436 9.26315C18.1539 9.29659 18.2632 9.33271 18.3717 9.37152C18.4802 9.41034 18.5877 9.45178 18.6941 9.49587C18.8005 9.53996 18.9058 9.58665 19.01 9.6359C19.1142 9.68518 19.217 9.73696 19.3186 9.79128C19.4202 9.84559 19.5205 9.90237 19.6193 9.96159C19.7181 10.0208 19.8154 10.0824 19.9112 10.1464C20.007 10.2105 20.1012 10.2768 20.1937 10.3454C20.2862 10.4141 20.3771 10.4849 20.4661 10.558C20.5552 10.6311 20.6424 10.7063 20.7278 10.7837C20.8131 10.8611 20.8966 10.9405 20.978 11.022C21.0595 11.1034 21.1389 11.1868 21.2163 11.2722C21.2937 11.3576 21.3689 11.4448 21.442 11.5339C21.5151 11.6229 21.5859 11.7137 21.6546 11.8063C21.7232 11.8988 21.7895 11.993 21.8535 12.0888C21.9176 12.1846 21.9792 12.2819 22.0384 12.3807C22.0976 12.4795 22.1544 12.5797 22.2087 12.6814C22.263 12.783 22.3148 12.8858 22.3641 12.99C22.4133 13.0942 22.46 13.1995 22.5041 13.3059C22.5482 13.4123 22.5897 13.5198 22.6285 13.6283C22.6673 13.7367 22.7034 13.8461 22.7368 13.9564C22.7703 14.0667 22.801 14.1777 22.829 14.2894C22.857 14.4012 22.8822 14.5136 22.9047 14.6266C22.9272 14.7396 22.9469 14.8531 22.9638 14.967C22.9807 15.081 22.9948 15.1953 23.0061 15.31C23.0174 15.4246 23.0259 15.5395 23.0315 15.6546C23.0372 15.7697 23.04 15.8848 23.04 16L23.04 24.4894L26.1459 24.4894C26.1493 24.4894 26.1527 24.4895 26.156 24.4897C26.1594 24.4898 26.1628 24.4901 26.1662 24.4904C26.1696 24.4907 26.1729 24.4911 26.1762 24.4916C26.1796 24.4922 26.1829 24.4927 26.1863 24.4934C26.1896 24.494 26.1929 24.4948 26.1962 24.4956C26.1995 24.4964 26.2027 24.4973 26.206 24.4983C26.2092 24.4993 26.2124 24.5004 26.2156 24.5015C26.2188 24.5027 26.222 24.5039 26.2251 24.5051C26.2282 24.5065 26.2313 24.5078 26.2344 24.5093C26.2375 24.5107 26.2405 24.5122 26.2435 24.5138C26.2465 24.5154 26.2494 24.5171 26.2523 24.5189C26.2552 24.5206 26.2581 24.5224 26.2609 24.5243C26.2637 24.5262 26.2665 24.5281 26.2692 24.5301C26.2719 24.5322 26.2746 24.5342 26.2772 24.5364C26.2798 24.5386 26.2824 24.5408 26.2849 24.5431C26.2874 24.5453 26.2899 24.5476 26.2923 24.5501C26.2947 24.5525 26.297 24.5549 26.2993 24.5574C26.3016 24.5599 26.3038 24.5625 26.3059 24.5651C26.3081 24.5677 26.3102 24.5704 26.3122 24.5731C26.3142 24.5758 26.3162 24.5786 26.318 24.5814C26.3199 24.5842 26.3217 24.5871 26.3235 24.59C26.3252 24.5929 26.3269 24.5959 26.3285 24.5989C26.3301 24.6018 26.3316 24.6049 26.3331 24.6079C26.3345 24.611 26.3359 24.6141 26.3372 24.6172C26.3385 24.6204 26.3397 24.6235 26.3408 24.6267C26.342 24.6299 26.3431 24.6331 26.344 24.6364C26.345 24.6396 26.3459 24.6429 26.3467 24.6462C26.3476 24.6494 26.3483 24.6527 26.349 24.6561C26.3496 24.6594 26.3502 24.6627 26.3507 24.6661C26.3512 24.6694 26.3516 24.6728 26.3519 24.6762C26.3523 24.6795 26.3525 24.6829 26.3527 24.6863C26.3528 24.6897 26.3529 24.6931 26.3529 24.6965L26.3529 26.1459C26.3529 26.1493 26.3528 26.1527 26.3527 26.156C26.3525 26.1594 26.3523 26.1628 26.3519 26.1662C26.3516 26.1695 26.3512 26.1729 26.3507 26.1762C26.3502 26.1796 26.3496 26.1829 26.349 26.1863C26.3483 26.1896 26.3476 26.1929 26.3467 26.1962C26.3459 26.1995 26.345 26.2027 26.344 26.206C26.3431 26.2092 26.342 26.2124 26.3408 26.2156C26.3397 26.2188 26.3385 26.222 26.3372 26.2251C26.3359 26.2282 26.3345 26.2313 26.3331 26.2344C26.3316 26.2375 26.3301 26.2405 26.3285 26.2435C26.3269 26.2465 26.3252 26.2494 26.3235 26.2523C26.3217 26.2552 26.3199 26.2581 26.318 26.2609C26.3162 26.2637 26.3142 26.2665 26.3122 26.2692C26.3102 26.2719 26.3081 26.2746 26.3059 26.2772C26.3038 26.2798 26.3016 26.2824 26.2993 26.2849C26.297 26.2874 26.2947 26.2899 26.2923 26.2923C26.2899 26.2947 26.2874 26.297 26.2849 26.2993C26.2824 26.3016 26.2798 26.3038 26.2772 26.3059C26.2746 26.3081 26.2719 26.3102 26.2692 26.3122C26.2665 26.3142 26.2637 26.3162 26.2609 26.318C26.2581 26.3199 26.2552 26.3217 26.2523 26.3235C26.2494 26.3252 26.2465 26.3269 26.2435 26.3285C26.2405 26.3301 26.2375 26.3316 26.2344 26.3331C26.2313 26.3345 26.2282 26.3359 26.2251 26.3372C26.222 26.3385 26.2188 26.3397 26.2156 26.3408C26.2124 26.342 26.2092 26.343 26.206 26.344C26.2027 26.345 26.1995 26.3459 26.1962 26.3467C26.1929 26.3476 26.1896 26.3483 26.1863 26.349C26.1829 26.3496 26.1796 26.3502 26.1762 26.3507C26.1729 26.3512 26.1695 26.3516 26.1662 26.3519C26.1628 26.3523 26.1594 26.3525 26.156 26.3527C26.1527 26.3528 26.1493 26.3529 26.1459 26.3529L5.85412 26.3529C5.85072 26.3529 5.84734 26.3528 5.84396 26.3527C5.84057 26.3525 5.83718 26.3523 5.83381 26.3519C5.83043 26.3516 5.82708 26.3512 5.82374 26.3507C5.82039 26.3502 5.81705 26.3496 5.81371 26.349C5.8104 26.3483 5.8071 26.3476 5.80381 26.3467C5.80052 26.3459 5.79724 26.345 5.79399 26.344C5.79077 26.343 5.78756 26.342 5.78437 26.3408C5.78116 26.3397 5.77799 26.3385 5.77487 26.3372C5.77174 26.3359 5.76865 26.3345 5.76559 26.3331C5.76253 26.3316 5.75949 26.3301 5.75649 26.3285C5.75352 26.3269 5.75057 26.3252 5.74765 26.3235C5.74475 26.3217 5.7419 26.3199 5.73909 26.318C5.73625 26.3162 5.73348 26.3142 5.73078 26.3122C5.72805 26.3102 5.72537 26.3081 5.72274 26.3059C5.72014 26.3038 5.71758 26.3016 5.71506 26.2993C5.71256 26.297 5.71011 26.2947 5.70771 26.2923C5.70532 26.2899 5.70297 26.2874 5.70068 26.2849C5.69841 26.2824 5.6962 26.2798 5.69406 26.2772C5.69191 26.2746 5.68983 26.2719 5.68781 26.2692C5.68579 26.2665 5.68384 26.2637 5.68196 26.2609C5.68007 26.2581 5.67825 26.2552 5.67653 26.2523C5.67478 26.2494 5.6731 26.2465 5.67149 26.2435C5.66991 26.2405 5.66839 26.2375 5.66693 26.2344C5.66547 26.2313 5.6641 26.2282 5.66281 26.2251C5.66152 26.222 5.6603 26.2188 5.65915 26.2156C5.658 26.2124 5.65694 26.2092 5.65596 26.206C5.65498 26.2027 5.65408 26.1995 5.65324 26.1962C5.65243 26.1929 5.65169 26.1896 5.65103 26.1863C5.65036 26.1829 5.64979 26.1796 5.64931 26.1762C5.64881 26.1729 5.64839 26.1695 5.64806 26.1662C5.64772 26.1628 5.64747 26.1594 5.64731 26.156C5.64714 26.1527 5.64706 26.1493 5.64706 26.1459L5.64706 24.6965C5.64706 24.6931 5.64714 24.6897 5.64731 24.6863C5.64747 24.6829 5.64772 24.6795 5.64806 24.6762C5.64839 24.6728 5.64881 24.6694 5.64931 24.6661C5.64979 24.6627 5.65036 24.6594 5.65103 24.6561C5.65169 24.6527 5.65243 24.6494 5.65324 24.6462C5.65408 24.6429 5.65498 24.6396 5.65596 24.6364C5.65694 24.6331 5.658 24.6299 5.65915 24.6267C5.6603 24.6235 5.66152 24.6204 5.66281 24.6172C5.6641 24.6141 5.66547 24.611 5.66693 24.6079C5.66839 24.6049 5.66991 24.6018 5.67149 24.5989C5.6731 24.5959 5.67478 24.5929 5.67653 24.59C5.67825 24.5871 5.68007 24.5842 5.68196 24.5814C5.68384 24.5786 5.68579 24.5758 5.68781 24.5731C5.68983 24.5704 5.69191 24.5677 5.69406 24.5651C5.6962 24.5625 5.69841 24.5599 5.70068 24.5574C5.70297 24.5549 5.70532 24.5525 5.70771 24.5501C5.71011 24.5476 5.71256 24.5453 5.71506 24.5431C5.71758 24.5408 5.72014 24.5386 5.72274 24.5364C5.72537 24.5342 5.72805 24.5322 5.73078 24.5301C5.73348 24.5281 5.73625 24.5262 5.73909 24.5243C5.7419 24.5224 5.74475 24.5206 5.74765 24.5189C5.75057 24.5171 5.75352 24.5155 5.75649 24.5139C5.75949 24.5123 5.76253 24.5107 5.76559 24.5093C5.76865 24.5078 5.77174 24.5065 5.77487 24.5052C5.77799 24.5039 5.78116 24.5027 5.78437 24.5015C5.78756 24.5004 5.79077 24.4993 5.79399 24.4983C5.79724 24.4973 5.80052 24.4964 5.80381 24.4956C5.8071 24.4948 5.8104 24.494 5.81371 24.4934C5.81705 24.4927 5.82039 24.4922 5.82374 24.4916C5.82708 24.4911 5.83043 24.4907 5.83381 24.4904C5.83718 24.4901 5.84057 24.4898 5.84396 24.4897C5.84734 24.4895 5.85072 24.4894 5.85412 24.4894L8.95999 24.4894Z"   fill="#737373" >
</path>
<path d="M27.2941 0.470589L4.70587 0.470589C4.63656 0.470589 4.56731 0.47229 4.49806 0.475692C4.42884 0.479092 4.35975 0.484189 4.29074 0.490982C4.22178 0.497776 4.153 0.506258 4.08443 0.516429C4.01587 0.5266 3.94762 0.538447 3.87962 0.55197C3.81165 0.565493 3.74403 0.580675 3.67678 0.597517C3.60956 0.614358 3.54277 0.63284 3.47644 0.652961C3.4101 0.673082 3.34431 0.694817 3.27906 0.718167C3.21379 0.741519 3.14914 0.766457 3.08511 0.792982C3.02107 0.819507 2.95772 0.847589 2.89506 0.877223C2.8324 0.906857 2.77051 0.938014 2.70938 0.970689C2.64825 1.00336 2.58796 1.03752 2.52851 1.07315C2.46905 1.10879 2.41051 1.14585 2.35288 1.18436C2.29525 1.22287 2.2386 1.26277 2.18292 1.30406C2.12725 1.34535 2.07262 1.38799 2.01904 1.43196C1.96546 1.47593 1.91299 1.52119 1.86164 1.56774C1.81028 1.61429 1.76009 1.66207 1.71108 1.71108C1.66207 1.76009 1.61429 1.81028 1.56774 1.86163C1.52119 1.91299 1.47593 1.96546 1.43196 2.01904C1.38799 2.07262 1.34535 2.12725 1.30406 2.18292C1.26277 2.2386 1.22288 2.29525 1.18437 2.35288C1.14586 2.41051 1.10879 2.46905 1.07315 2.52851C1.03752 2.58796 1.00336 2.64825 0.970689 2.70938C0.938014 2.77051 0.906857 2.8324 0.877223 2.89506C0.847589 2.95772 0.819507 3.02107 0.792982 3.08511C0.766457 3.14914 0.741519 3.21379 0.718167 3.27906C0.694817 3.34431 0.673082 3.4101 0.652961 3.47644C0.63284 3.54277 0.614358 3.60956 0.597517 3.67678C0.580675 3.74403 0.565493 3.81165 0.55197 3.87962C0.538447 3.94762 0.5266 4.01587 0.516429 4.08443C0.506258 4.153 0.497776 4.22178 0.490982 4.29074C0.484189 4.35975 0.479092 4.42884 0.475692 4.49806C0.47229 4.56731 0.470589 4.63656 0.470589 4.70587L0.470589 27.2941C0.470589 27.3634 0.47229 27.4327 0.475692 27.5019C0.479092 27.5712 0.484189 27.6403 0.490982 27.7092C0.497776 27.7782 0.506258 27.847 0.516429 27.9156C0.5266 27.9841 0.538447 28.0524 0.55197 28.1204C0.565493 28.1884 0.580675 28.256 0.597517 28.3232C0.614358 28.3905 0.63284 28.4572 0.652961 28.5236C0.673082 28.5899 0.694817 28.6557 0.718167 28.7209C0.741519 28.7862 0.766457 28.8509 0.792982 28.9149C0.819507 28.9789 0.847589 29.0423 0.877223 29.1049C0.906857 29.1676 0.938014 29.2295 0.970689 29.2906C1.00336 29.3517 1.03752 29.4121 1.07315 29.4715C1.10879 29.531 1.14585 29.5895 1.18436 29.6471C1.22287 29.7047 1.26277 29.7614 1.30406 29.8171C1.34535 29.8727 1.38799 29.9274 1.43196 29.981C1.47593 30.0346 1.52119 30.087 1.56774 30.1384C1.61429 30.1897 1.66207 30.2399 1.71108 30.2889C1.76009 30.3379 1.81028 30.3857 1.86163 30.4322C1.91299 30.4788 1.96546 30.5241 2.01904 30.568C2.07262 30.612 2.12725 30.6547 2.18292 30.6959C2.2386 30.7372 2.29525 30.7771 2.35288 30.8156C2.41051 30.8542 2.46905 30.8912 2.52851 30.9268C2.58796 30.9625 2.64825 30.9967 2.70938 31.0293C2.77051 31.062 2.8324 31.0932 2.89506 31.1228C2.95772 31.1524 3.02107 31.1805 3.08511 31.207C3.14914 31.2336 3.21379 31.2585 3.27906 31.2819C3.34431 31.3052 3.4101 31.327 3.47644 31.3472C3.54277 31.3672 3.60956 31.3856 3.67678 31.4025C3.74403 31.4194 3.81165 31.4346 3.87962 31.4481C3.94762 31.4617 4.01587 31.4734 4.08443 31.4834C4.153 31.4937 4.22178 31.5022 4.29074 31.5091C4.35975 31.5157 4.42884 31.5208 4.49806 31.5244C4.56731 31.5277 4.63656 31.5294 4.70587 31.5294L27.2941 31.5294C27.3634 31.5294 27.4327 31.5277 27.5019 31.5244C27.5712 31.5208 27.6403 31.5157 27.7092 31.5091C27.7782 31.5022 27.847 31.4937 27.9156 31.4834C27.9841 31.4734 28.0524 31.4617 28.1204 31.4481C28.1884 31.4346 28.256 31.4194 28.3232 31.4025C28.3905 31.3856 28.4572 31.3672 28.5236 31.3472C28.5899 31.327 28.6557 31.3052 28.7209 31.2819C28.7862 31.2585 28.8509 31.2336 28.9149 31.207C28.9789 31.1805 29.0423 31.1524 29.1049 31.1228C29.1676 31.0932 29.2295 31.062 29.2906 31.0293C29.3517 30.9967 29.4121 30.9625 29.4715 30.9268C29.531 30.8912 29.5895 30.8542 29.6471 30.8156C29.7047 30.7771 29.7614 30.7372 29.8171 30.6959C29.8727 30.6547 29.9274 30.612 29.981 30.568C30.0346 30.5241 30.087 30.4788 30.1384 30.4322C30.1897 30.3857 30.2399 30.3379 30.2889 30.2889C30.3379 30.2399 30.3857 30.1897 30.4322 30.1384C30.4788 30.087 30.5241 30.0346 30.568 29.981C30.612 29.9274 30.6547 29.8727 30.6959 29.8171C30.7372 29.7614 30.7771 29.7047 30.8156 29.6471C30.8542 29.5895 30.8912 29.5309 30.9268 29.4715C30.9625 29.4121 30.9967 29.3517 31.0293 29.2906C31.062 29.2295 31.0932 29.1676 31.1228 29.1049C31.1524 29.0423 31.1805 28.9789 31.207 28.9149C31.2336 28.8509 31.2585 28.7862 31.2819 28.7209C31.3052 28.6557 31.327 28.5899 31.3472 28.5236C31.3672 28.4572 31.3856 28.3905 31.4025 28.3232C31.4194 28.256 31.4346 28.1884 31.4481 28.1204C31.4617 28.0524 31.4734 27.9841 31.4834 27.9156C31.4937 27.847 31.5022 27.7782 31.5091 27.7092C31.5157 27.6403 31.5208 27.5712 31.5244 27.5019C31.5277 27.4327 31.5294 27.3634 31.5294 27.2941L31.5294 4.70587C31.5294 4.63656 31.5277 4.56731 31.5244 4.49806C31.5208 4.42884 31.5157 4.35975 31.5091 4.29074C31.5022 4.22178 31.4937 4.153 31.4834 4.08443C31.4734 4.01587 31.4617 3.94762 31.4481 3.87962C31.4346 3.81165 31.4194 3.74403 31.4025 3.67678C31.3856 3.60956 31.3672 3.54277 31.3472 3.47644C31.327 3.4101 31.3052 3.34431 31.2819 3.27906C31.2585 3.21379 31.2336 3.14914 31.207 3.08511C31.1805 3.02107 31.1524 2.95772 31.1228 2.89506C31.0932 2.8324 31.062 2.77051 31.0293 2.70938C30.9967 2.64825 30.9625 2.58796 30.9268 2.52851C30.8912 2.46905 30.8542 2.41051 30.8157 2.35288C30.7772 2.29525 30.7372 2.2386 30.6959 2.18292C30.6547 2.12725 30.612 2.07262 30.5681 2.01904C30.5241 1.96546 30.4788 1.91299 30.4323 1.86164C30.3857 1.81028 30.3379 1.76009 30.2889 1.71108C30.2399 1.66207 30.1897 1.61429 30.1384 1.56774C30.087 1.52119 30.0346 1.47593 29.981 1.43196C29.9274 1.38799 29.8728 1.34535 29.8171 1.30406C29.7614 1.26277 29.7047 1.22288 29.6471 1.18437C29.5895 1.14586 29.531 1.10879 29.4715 1.07315C29.4121 1.03752 29.3517 1.00336 29.2906 0.970689C29.2295 0.938014 29.1676 0.906857 29.1049 0.877223C29.0423 0.847589 28.9789 0.819507 28.9149 0.792982C28.8509 0.766457 28.7862 0.741519 28.7209 0.718167C28.6557 0.694817 28.5899 0.673082 28.5236 0.652961C28.4572 0.63284 28.3905 0.614358 28.3232 0.597517C28.256 0.580675 28.1884 0.565493 28.1204 0.55197C28.0524 0.538447 27.9841 0.5266 27.9156 0.516429C27.847 0.506258 27.7782 0.497776 27.7092 0.490982C27.6403 0.484189 27.5712 0.479092 27.5019 0.475692C27.4327 0.47229 27.3634 0.470589 27.2941 0.470589ZM4.70587 1.41177L27.2941 1.41177C27.348 1.41177 27.4019 1.41309 27.4557 1.41573C27.5096 1.41838 27.5634 1.42234 27.617 1.42763C27.6707 1.43291 27.7242 1.43951 27.7775 1.44742C27.8308 1.45533 27.8839 1.46455 27.9367 1.47506C27.9896 1.48558 28.0422 1.49739 28.0945 1.51049C28.1468 1.52359 28.1988 1.53796 28.2503 1.55361C28.3019 1.56926 28.3531 1.58616 28.4039 1.60433C28.4546 1.62249 28.5049 1.64189 28.5547 1.66252C28.6045 1.68314 28.6538 1.70499 28.7025 1.72804C28.7513 1.75109 28.7994 1.77532 28.8469 1.80073C28.8945 1.82614 28.9414 1.85271 28.9876 1.88042C29.0339 1.90814 29.0794 1.93697 29.1242 1.96692C29.1691 1.99688 29.2131 2.02791 29.2564 2.06002C29.2997 2.09214 29.3422 2.12529 29.3839 2.15949C29.4256 2.1937 29.4664 2.2289 29.5063 2.2651C29.5462 2.30131 29.5853 2.33847 29.6234 2.37659C29.6615 2.41471 29.6987 2.45374 29.7349 2.49369C29.7711 2.53364 29.8063 2.57445 29.8405 2.61612C29.8747 2.65779 29.9079 2.70028 29.94 2.74358C29.9721 2.78688 30.0031 2.83095 30.0331 2.87577C30.063 2.92059 30.0919 2.96613 30.1196 3.01237C30.1473 3.05861 30.1739 3.1055 30.1993 3.15303C30.2247 3.20059 30.2489 3.24874 30.272 3.29747C30.295 3.3462 30.3168 3.39547 30.3375 3.44528C30.3581 3.4951 30.3775 3.54538 30.3957 3.59612C30.4138 3.6469 30.4307 3.69809 30.4464 3.74965C30.4621 3.80124 30.4764 3.85318 30.4895 3.90546C30.5026 3.95778 30.5144 4.01034 30.5249 4.06321C30.5355 4.11609 30.5447 4.16921 30.5526 4.22253C30.5605 4.27587 30.5671 4.32937 30.5724 4.38299C30.5777 4.43665 30.5817 4.4904 30.5843 4.54424C30.5869 4.59812 30.5882 4.65199 30.5882 4.70587L30.5882 27.2941C30.5882 27.3481 30.5869 27.4019 30.5843 27.4557C30.5817 27.5096 30.5777 27.5634 30.5724 27.617C30.5671 27.6707 30.5605 27.7242 30.5526 27.7775C30.5447 27.8308 30.5355 27.8839 30.5249 27.9368C30.5144 27.9897 30.5026 28.0422 30.4895 28.0945C30.4764 28.1468 30.4621 28.1988 30.4464 28.2503C30.4307 28.3019 30.4138 28.3531 30.3957 28.4039C30.3775 28.4546 30.3581 28.5049 30.3375 28.5547C30.3168 28.6045 30.295 28.6538 30.272 28.7025C30.2489 28.7513 30.2247 28.7994 30.1993 28.8469C30.1739 28.8945 30.1473 28.9414 30.1196 28.9876C30.0919 29.0339 30.063 29.0794 30.0331 29.1242C30.0031 29.1691 29.9721 29.2131 29.94 29.2564C29.9079 29.2997 29.8747 29.3422 29.8405 29.3839C29.8063 29.4256 29.7711 29.4664 29.7349 29.5063C29.6987 29.5462 29.6615 29.5853 29.6234 29.6234C29.5853 29.6615 29.5462 29.6987 29.5063 29.7349C29.4664 29.7711 29.4256 29.8063 29.3839 29.8405C29.3422 29.8747 29.2997 29.9079 29.2564 29.94C29.2131 29.9721 29.1691 30.0031 29.1242 30.0331C29.0794 30.063 29.0339 30.0919 28.9876 30.1196C28.9414 30.1473 28.8945 30.1739 28.8469 30.1993C28.7994 30.2247 28.7513 30.2489 28.7025 30.272C28.6538 30.295 28.6045 30.3168 28.5547 30.3375C28.5049 30.3581 28.4546 30.3775 28.4039 30.3957C28.3531 30.4138 28.3019 30.4307 28.2503 30.4464C28.1988 30.4621 28.1468 30.4764 28.0945 30.4895C28.0422 30.5026 27.9897 30.5144 27.9368 30.5249C27.8839 30.5355 27.8308 30.5447 27.7775 30.5526C27.7242 30.5605 27.6707 30.5671 27.617 30.5724C27.5634 30.5777 27.5096 30.5817 27.4557 30.5843C27.4019 30.5869 27.3481 30.5882 27.2941 30.5882L4.70587 30.5882C4.65199 30.5882 4.59812 30.5869 4.54424 30.5843C4.4904 30.5817 4.43665 30.5777 4.38299 30.5724C4.32937 30.5671 4.27587 30.5605 4.22253 30.5526C4.16921 30.5447 4.11609 30.5355 4.06321 30.5249C4.01034 30.5144 3.95778 30.5026 3.90546 30.4895C3.85318 30.4764 3.80124 30.4621 3.74965 30.4464C3.69809 30.4307 3.6469 30.4138 3.59612 30.3957C3.54538 30.3775 3.4951 30.3581 3.44528 30.3375C3.39547 30.3168 3.3462 30.295 3.29747 30.272C3.24874 30.2489 3.20059 30.2247 3.15303 30.1993C3.1055 30.1739 3.05861 30.1473 3.01237 30.1196C2.96613 30.0919 2.92059 30.063 2.87577 30.0331C2.83095 30.0031 2.78688 29.9721 2.74358 29.94C2.70028 29.9079 2.65779 29.8747 2.61612 29.8405C2.57445 29.8063 2.53364 29.7711 2.49369 29.7349C2.45374 29.6987 2.41471 29.6615 2.37659 29.6234C2.33847 29.5853 2.30131 29.5462 2.2651 29.5063C2.2289 29.4664 2.1937 29.4256 2.15949 29.3839C2.12529 29.3422 2.09214 29.2997 2.06002 29.2564C2.02791 29.2131 1.99688 29.1691 1.96693 29.1242C1.93697 29.0794 1.90814 29.0339 1.88042 28.9876C1.85271 28.9414 1.82614 28.8945 1.80073 28.8469C1.77532 28.7994 1.75109 28.7513 1.72804 28.7025C1.70499 28.6538 1.68314 28.6045 1.66252 28.5547C1.64189 28.5049 1.62249 28.4546 1.60433 28.4039C1.58616 28.3531 1.56926 28.3019 1.55361 28.2503C1.53796 28.1988 1.52359 28.1468 1.51049 28.0945C1.49739 28.0422 1.48558 27.9897 1.47506 27.9368C1.46455 27.8839 1.45533 27.8308 1.44742 27.7775C1.43951 27.7242 1.43291 27.6707 1.42763 27.617C1.42234 27.5634 1.41838 27.5096 1.41573 27.4557C1.41309 27.4019 1.41177 27.348 1.41177 27.2941L1.41177 4.70587C1.41177 4.65199 1.41309 4.59812 1.41573 4.54424C1.41838 4.4904 1.42234 4.43665 1.42763 4.38299C1.43291 4.32937 1.43951 4.27587 1.44742 4.22253C1.45533 4.16921 1.46455 4.11609 1.47506 4.06321C1.48558 4.01034 1.49739 3.95778 1.51049 3.90546C1.52359 3.85318 1.53796 3.80124 1.55361 3.74965C1.56926 3.69809 1.58616 3.6469 1.60433 3.59612C1.62249 3.54538 1.64189 3.4951 1.66252 3.44528C1.68314 3.39547 1.70499 3.3462 1.72804 3.29747C1.75109 3.24874 1.77532 3.20059 1.80073 3.15303C1.82614 3.1055 1.85271 3.05861 1.88042 3.01237C1.90814 2.96613 1.93697 2.92059 1.96693 2.87577C1.99688 2.83095 2.02791 2.78688 2.06002 2.74358C2.09214 2.70028 2.12529 2.65779 2.15949 2.61612C2.1937 2.57445 2.2289 2.53364 2.2651 2.49369C2.30131 2.45374 2.33847 2.41471 2.37659 2.37659C2.41471 2.33847 2.45374 2.30131 2.49369 2.2651C2.53364 2.2289 2.57445 2.1937 2.61612 2.15949C2.65779 2.12529 2.70028 2.09214 2.74358 2.06002C2.78688 2.02791 2.83095 1.99688 2.87577 1.96693C2.92059 1.93697 2.96613 1.90814 3.01237 1.88042C3.05861 1.85271 3.1055 1.82614 3.15303 1.80073C3.20059 1.77532 3.24874 1.75109 3.29747 1.72804C3.3462 1.70499 3.39547 1.68314 3.44528 1.66252C3.4951 1.64189 3.54538 1.62249 3.59612 1.60433C3.6469 1.58616 3.69809 1.56926 3.74965 1.55361C3.80124 1.53796 3.85318 1.52359 3.90546 1.51049C3.95778 1.49739 4.01034 1.48558 4.06321 1.47506C4.11609 1.46455 4.16921 1.45533 4.22253 1.44742C4.27587 1.43951 4.32937 1.43291 4.38299 1.42763C4.43665 1.42234 4.4904 1.41838 4.54424 1.41573C4.59812 1.41309 4.65199 1.41177 4.70587 1.41177Z"   fill="#737373" >
</path>
</svg>
