<svg xmlns="http://www.w3.org/2000/svg" xmlns:xlink="http://www.w3.org/1999/xlink" width="32.1875" height="14.19921875" viewBox="0 0 32.1875 14.19921875" fill="none">
<g >
<path     fill="#000000"  d="M1.89453 14.1992Q2.1875 14.1992 2.75391 14.043Q3.18359 13.9062 3.63281 13.8477Q4.17969 13.8086 4.72656 13.7305Q5.50781 13.5938 6.28906 13.5938L8.02734 13.5938Q7.94922 13.4766 7.94922 13.418Q7.94922 13.3789 7.97852 13.3301Q8.00781 13.2812 8.08594 13.2129Q8.16406 13.1445 8.20312 13.0469L7.98828 12.8125Q7.1875 11.9336 7.13867 11.9141Q7.08984 11.8945 6.77734 11.8945Q6.09375 11.8945 5.69336 11.9727Q5.29297 12.0508 4.92188 12.0508Q4.76562 12.0508 4.62891 12.0312L4.55078 12.0312Q4.53125 12.0508 4.29688 12.0996Q4.0625 12.1484 3.82812 12.1484Q3.59375 12.1484 3.35938 12.0898Q3.28125 12.0703 3.18359 12.0703Q2.92969 12.0703 2.8125 11.9336Q2.8125 11.3086 2.85156 10.8594Q2.89062 10.4102 2.89062 10.1562Q2.89062 9.74609 2.98828 9.49219Q3.00781 9.45312 3.01758 9.39453Q3.02734 9.33594 3.02734 9.31641Q3.02734 9.27734 3.00781 9.25781Q2.94922 9.14062 2.94922 9.04297Q2.94922 8.92578 3.01758 8.75977Q3.08594 8.59375 3.08594 8.30078Q3.08594 7.55859 3.22266 6.97266L3.24219 6.60156Q3.24219 6.28906 3.35938 6.01562Q3.37891 5.99609 3.37891 5.9375Q3.33984 5.85938 3.33984 5.78125Q3.33984 5.60547 3.39844 5.41016Q3.47656 4.92188 3.51562 4.41406L3.71094 2.38281Q3.76953 1.97266 3.76953 1.75781Q3.76953 1.28906 3.37891 0.996094Q3.22266 0.898438 3.08594 0.78125Q2.46094 0.234375 2.14844 0L1.50391 0.410156L1.52344 0.46875L1.36719 0.878906Q1.32812 0.996094 1.32812 1.13281Q1.25 1.99219 1.25 2.40234L1.21094 2.92969Q0.976562 6.54297 0.898438 7.05078Q0.898438 7.61719 0.878906 7.79297Q0.839844 8.16406 0.830078 8.19336Q0.820312 8.22266 0.800781 8.28125Q0.761719 8.4375 0.761719 9.31641Q0.761719 9.92188 0.722656 10.293Q0.683594 10.7422 0.683594 11.2109L0.703125 12.0508Q0.703125 12.3047 0.527344 12.3438Q0.253906 12.4414 0.15625 12.7148L0 12.9688Q0.0390625 13.0469 1.01562 13.9844Q1.13281 14.1016 1.23047 14.1016Q1.5625 14.1992 1.89453 14.1992ZM10.7031 14.1797Q10.918 14.1797 11.0938 14.0625L11.6406 13.6914L11.875 13.5156Q12.0508 13.5938 12.2461 13.5938L12.4609 13.5742Q12.7734 13.5352 13.0859 13.5352Q13.3984 13.5352 13.5742 13.5547L15.0977 13.4766L15.7812 13.5156L16.1523 13.5156Q16.9531 13.5156 17.1484 13.4961L17.2852 13.4961Q17.4805 13.4961 17.6953 13.5449Q17.9102 13.5938 18.1445 13.5938L18.2617 13.5938Q18.5742 13.5938 18.6914 13.6328Q18.9648 13.6328 19.2383 13.6914Q19.4336 13.7305 19.5898 13.7305Q19.8438 13.7305 20.0586 13.6523L20.293 13.2617L20.2148 13.1641Q20.1367 13.0273 20.0391 12.9492Q19.5508 12.5586 19.2773 12.0117Q19.1992 11.8945 19.1406 11.8359Q18.8672 11.4844 18.1836 11.4258Q17.8711 11.4258 17.5391 11.4844Q17.3047 11.5234 17.0508 11.543Q16.6602 11.5625 16.2793 11.6504Q15.8984 11.7383 15.5078 11.7676Q15.1172 11.7969 14.7266 11.875Q14.2383 11.9727 14.082 11.9727Q13.8086 11.9727 13.5938 12.0703Q13.2031 12.2461 12.793 12.2461Q12.4805 12.2656 12.1875 12.3633L12.1484 12.3633L11.9727 12.3438Q11.9922 12.168 12.0312 12.0117Q12.0703 11.8555 12.0898 11.6992Q12.0898 11.5625 11.9922 11.4258Q12.207 11.1914 12.207 10.918L12.1875 10.7617L12.207 10.625Q12.4609 9.86328 12.4805 8.96484Q12.4805 8.53516 13.0078 8.53516Q13.0664 8.53516 13.1055 8.51562Q13.3789 8.51562 13.6719 8.45703Q14.4336 8.28125 14.6387 8.26172Q14.8438 8.24219 15.0195 8.18359Q15.3125 8.10547 15.4102 8.10547L15.6445 8.125L15.7227 8.08594Q15.918 7.98828 16.0156 7.98828L16.25 7.98828Q16.582 7.98828 16.9141 7.94922Q17.2461 7.91016 17.5781 7.91016L17.6562 7.91016Q18.3398 7.91016 18.9844 7.61719Q19.0234 7.59766 19.0723 7.59766Q19.1211 7.59766 19.1602 7.57812Q19.6289 7.51953 19.6289 7.26562Q19.6289 7.05078 19.3359 6.75781Q19.0234 6.52344 18.8477 6.17188Q18.3984 5.48828 17.6562 5.48828Q17.5 5.48828 17.3145 5.52734Q17.1289 5.56641 16.9531 5.58594L15.9766 5.76172Q15.3125 5.91797 14.6094 5.97656Q14.2188 5.99609 13.8379 6.10352Q13.457 6.21094 13.2617 6.21094Q13.1445 6.21094 12.9883 6.20117Q12.832 6.19141 12.832 6.01562L12.832 5.95703Q12.8906 5.54688 12.8906 4.98047L12.9883 4.43359L12.9883 3.20312Q12.9688 3.10547 12.9688 2.91016Q13.1055 2.87109 13.2227 2.87109L13.3008 2.87109Q13.5742 2.87109 13.6914 2.77344L13.8281 2.77344Q13.8672 2.8125 14.082 2.8125Q14.4922 2.8125 14.8633 2.63672Q15 2.57812 15.1367 2.57812Q15.2734 2.57812 15.3906 2.61719L16.0352 2.57812L16.2305 2.55859Q16.4648 2.55859 16.6406 2.5Q16.8164 2.44141 16.875 2.44141Q16.9336 2.44141 17.002 2.4707Q17.0703 2.5 17.1875 2.5Q17.5586 2.40234 17.9492 2.40234L18.3789 2.40234Q19.082 2.40234 19.3945 2.20703Q19.6094 2.07031 19.707 1.67969Q19.043 1.13281 18.5742 0.390625Q18.5352 0.273438 18.3594 0.214844L18.2617 0.195312Q18.0859 0.117188 17.9297 0.117188Q17.8125 0.117188 17.7148 0.15625L17.6953 0.175781Q17.4805 0.273438 17.4023 0.273438L17.2461 0.253906Q17.1484 0.253906 17.0996 0.273438Q17.0508 0.292969 17.0312 0.3125Q16.0156 0.625 15.1367 0.664062Q14.4922 0.703125 13.9062 0.9375Q13.8477 0.957031 13.7305 0.957031Q12.9492 1.05469 12.6562 1.13281Q12.5391 1.17188 12.4414 1.17188Q12.2656 1.17188 12.1289 1.03516L11.5625 0.449219Q11.3672 0.253906 11.1523 0.253906Q11.1328 0.253906 11.0059 0.263672Q10.8789 0.273438 10.7812 0.527344Q10.5859 0.996094 10.5859 1.48438L10.6055 1.79688L10.625 1.93359Q10.5273 2.46094 10.5273 3.00781Q10.5273 3.47656 10.4688 3.94531L10.4492 4.49219L10.4688 4.72656Q10.4688 5.05859 10.332 5.39062L10.3516 5.89844Q10.3516 6.48438 10.2344 7.07031Q10.1953 7.34375 10.1758 7.65625Q10.1562 7.96875 10.0977 8.28125Q10.0586 8.47656 10.0586 8.67188Q10.0586 8.86719 10.0391 9.0625Q10.0195 9.25781 10 9.49219L9.92188 10.1367Q9.76562 10.6836 9.76562 11.2305L9.70703 11.4062Q9.55078 11.8555 9.55078 12.3242Q9.55078 12.5977 9.60938 12.8711Q9.62891 12.9297 9.62891 12.9785Q9.62891 13.0273 9.64844 13.0469L9.33594 13.2227L9.43359 13.3398Q9.53125 13.4961 9.66797 13.5547Q9.92188 13.6719 10.1172 13.8672L10.2148 13.9844Q10.4688 14.1797 10.7031 14.1797ZM23.0859 14.0625Q23.2031 14.0625 23.3301 13.9746Q23.457 13.8867 23.5059 13.623Q23.5547 13.3594 23.6133 13.0273L23.6719 12.6953Q24.1992 13.2422 24.7852 13.4961L24.8242 13.5156Q25.332 13.75 25.8594 13.8281Q26.4844 13.8672 26.7578 13.9258Q27.6562 13.9258 28.418 13.5938Q29.3359 13.2422 30.0195 12.5195Q30.0781 12.4414 30.1367 12.3242Q30.1953 12.207 30.293 12.1094Q30.6641 11.7383 30.8594 11.25Q31.2109 10.5469 31.2988 10.293Q31.3867 10.0391 31.5137 9.75586Q31.6406 9.47266 31.6992 9.14062L31.8359 8.67188Q32.0703 7.94922 32.1094 7.1875Q32.1875 6.34766 32.1875 6.07422Q32.1875 5.15625 31.9727 4.23828Q31.7578 3.32031 31.0742 2.69531Q30.8398 2.48047 30.6445 2.22656L30.3516 1.85547Q29.7852 1.01562 28.2812 1.01562Q27.5391 1.01562 26.8164 1.30859Q26.7578 1.34766 26.6797 1.36719Q26.4844 1.38672 25.4102 1.99219L25.1758 2.05078Q24.9414 1.54297 24.4922 1.23047Q24.2383 1.03516 24.043 0.800781L23.5156 0.136719Q23.2812 0.214844 23.0859 0.3125L22.9688 0.351562Q22.9297 0.429688 22.8711 0.488281Q22.7539 0.644531 22.6953 0.820312Q22.4609 1.46484 22.4609 2.12891L22.4805 2.53906L22.5 2.67578Q22.5 2.75391 22.4805 2.8125Q22.4609 2.87109 22.4609 2.91992Q22.4609 2.96875 22.4414 3.03711Q22.4219 3.10547 22.4219 3.18359L22.4414 3.96484L22.4414 5.09766Q22.4414 5.9375 22.3828 6.75781Q22.3438 7.44141 22.2852 8.04688Q22.168 9.04297 22.168 10.8008L22.1875 11.5039L22.1875 12.5Q22.1875 13.1836 22.5977 13.7305Q22.8711 14.0625 23.0859 14.0625ZM25.625 12.3242Q24.8242 12.3242 24.1016 11.9141Q23.7891 11.7773 23.7891 11.4453L23.8086 11.3086Q23.8867 10.8789 23.9062 10.4492Q23.9062 9.90234 24.0332 9.38477Q24.1602 8.86719 24.2188 8.33984Q24.3359 7.59766 24.4922 6.85547L24.5508 6.50391Q24.5898 6.11328 24.6777 5.89844Q24.7656 5.68359 24.7852 5.44922L24.8438 5.13672Q24.9219 4.90234 24.9219 4.64844L24.9219 4.58984Q24.9219 4.45312 24.9805 4.31641Q25.0781 3.96484 25.1562 3.81836Q25.2344 3.67188 25.6055 3.49609Q25.6641 3.47656 25.7031 3.4375L25.9375 3.32031Q26.1719 3.16406 26.4453 3.08594L26.7578 2.98828Q27.2266 2.8125 27.4805 2.8125L27.8906 2.83203Q27.8516 2.77344 27.8516 2.73438Q27.8516 2.65625 27.9297 2.65625L27.9883 2.67578Q28.1445 2.77344 28.5156 2.77344Q28.5938 2.75391 28.6914 2.75391Q29.082 2.79297 29.4727 2.85156Q29.8633 2.91016 29.9023 2.91016Q30.4102 3.61328 30.4102 5.68359Q30.4102 6.05469 30.2344 7.16797Q30.1953 7.40234 30.1758 7.42188Q30.0781 8.32031 29.707 9.14062Q29.707 9.43359 29.5605 9.6875Q29.4141 9.94141 29.3945 10.2148Q29.3945 10.332 29.3164 10.3711Q29.1016 10.5469 29.0039 10.7715Q28.9062 10.9961 28.7793 11.1328Q28.6523 11.2695 28.5547 11.4062Q28.3594 11.6211 28.1348 11.8066Q27.9102 11.9922 27.5781 12.0117Q27.5195 12.0117 27.4805 12.041Q27.4414 12.0703 27.4219 12.0703Q26.9531 12.2852 26.3281 12.2852L25.8984 12.3047L25.625 12.3242Z">
</path>
</g>
</svg>
