<svg xmlns="http://www.w3.org/2000/svg" xmlns:xlink="http://www.w3.org/1999/xlink" width="36.07421875" height="16.40625" viewBox="0 0 36.07421875 16.40625" fill="none">
<g >
<path     fill="#000000"  d="M12.168 15.4297Q12.4023 15.4297 12.6855 15.3906Q12.9688 15.3516 13.2227 15.2344Q13.5547 15.0977 13.5547 14.8438L13.5742 14.8047Q13.5742 14.707 13.5938 14.6875Q13.7109 14.4922 13.7109 14.3164Q13.7109 14.2578 13.6914 14.1211Q13.6719 13.9844 12.4023 11.4062Q12.168 10.8789 12.1289 10.8496Q12.0898 10.8203 12.0508 10.8008Q12.0508 11.3477 12.1875 13.4961L12.1875 13.6133Q12.1875 13.75 12.1094 13.8477Q12.0312 13.9453 11.543 13.9453L11.2891 13.9648Q10.6641 14.043 10.0586 14.043Q8.28125 14.043 7.8125 13.5742Q7.67578 13.3594 7.67578 13.0664L7.67578 12.9688Q7.73438 11.7773 8.26172 10.7031Q8.35938 10.4883 8.35938 10.2539L8.35938 10.1758Q8.30078 10.0586 8.23242 10Q8.16406 9.94141 8.11523 9.90234Q8.06641 9.86328 8.02734 9.80469Q8.69141 9.51172 10.0391 9.25781L11.7383 8.84766Q12.3633 8.75 12.832 8.32031Q13.0273 8.125 13.0273 7.98828Q13.0273 7.87109 12.9102 7.71484Q11.9727 6.44531 11.7188 6.44531Q11.0547 6.50391 9.76562 6.69922L9.43359 6.75781Q8.61328 6.875 8.18359 6.99219Q7.98828 7.07031 7.28516 7.20703Q6.32812 7.44141 5.37109 7.61719Q4.31641 7.85156 3.30078 8.26172L2.26562 8.63281L2.08984 8.59375Q2.10938 8.55469 2.12891 8.48633Q2.14844 8.41797 2.1875 8.33008Q2.22656 8.24219 2.24609 8.125Q2.24609 8.02734 2.1875 7.95898Q2.12891 7.89062 2.08984 7.85156Q1.83594 7.5 1.52344 7.46094Q1.46484 7.53906 1.38672 7.59766L1.05469 7.91016Q1.01562 7.96875 0.976562 8.01758Q0.9375 8.06641 0.9375 8.10547L0.9375 8.18359Q0.9375 8.28125 0.800781 8.55469Q0.429688 9.21875 0.214844 9.94141Q0.195312 9.98047 0.166016 10.0391Q0.136719 10.0977 0 10.5664L0 10.9766L0.917969 11.7773Q1.17188 11.7188 1.31836 11.5234Q1.46484 11.3281 1.81641 9.94141Q1.85547 9.70703 2.06055 9.62891Q2.26562 9.55078 2.44141 9.49219Q3.00781 9.27734 3.22266 9.23828Q3.82812 9.08203 4.375 8.78906L5.39062 8.49609Q6.89453 8.04688 9.35547 7.87109L9.39453 7.85156Q9.49219 7.85156 9.58008 7.86133Q9.66797 7.87109 9.76562 7.96875L9.29688 8.30078Q8.94531 8.49609 8.61328 8.73047Q8.04688 9.14062 7.36328 9.43359Q7.01172 9.57031 6.67969 9.82422Q6.09375 10.2148 5.99609 10.3125Q5.9375 10.2734 5.87891 10.2246Q5.82031 10.1758 5.74219 10.1562Q5.29297 10.0391 5.03906 9.64844Q4.94141 9.53125 4.82422 9.53125Q4.60938 9.53125 4.04297 10.0977Q3.96484 10.1758 3.95508 10.2051Q3.94531 10.2344 3.92578 10.2734Q3.96484 10.2539 3.98438 10.2539Q4.00391 10.2539 4.00391 10.2344Q4.16016 10.1172 4.19922 10.1172Q4.375 10.1172 4.375 10.293Q4.375 10.3711 4.33594 10.4297Q4.33594 10.5664 4.17969 10.7812Q4.10156 10.8984 4.04297 11.0352Q3.51562 12.0508 2.55859 12.5781L2.03125 13.0469Q0.957031 13.9844 0.898438 14.1211L0.859375 14.1797Q0.976562 14.3359 1.23047 14.5898Q1.36719 14.6875 1.54297 14.6875Q1.60156 14.6875 1.91406 14.6094Q1.97266 14.5703 2.05078 14.5508Q2.79297 14.2578 3.88672 13.2617L4.02344 13.1445Q4.29688 12.9102 4.53125 12.6367L5.33203 11.6602Q5.58594 11.2891 5.87891 10.9375Q5.95703 10.9375 6.01562 10.918Q6.21094 10.8789 6.40625 10.791Q6.60156 10.7031 6.71875 10.7031Q6.75781 10.7031 6.8457 10.7129Q6.93359 10.7227 6.93359 10.8789L6.875 11.2109Q6.81641 11.3867 6.73828 12.3633L6.69922 13.2031Q6.69922 13.6328 7.05078 13.9453Q7.40234 14.2578 7.79297 14.6289L7.96875 14.7461Q8.84766 15.2734 9.84375 15.2734L10.1172 15.2734Q10.1953 15.2734 10.2539 15.293Q10.5469 15.3711 10.8594 15.3711L10.9766 15.3711Q11.3477 15.3711 11.4062 15.3906L11.5625 15.3906Q11.8359 15.4297 12.168 15.4297ZM2.12891 4.27734Q2.89062 4.25781 3.59375 3.94531L4.25781 3.69141Q5.15625 3.30078 7.42188 2.79297Q9.16016 2.38281 9.80469 2.38281L10.5078 2.40234Q10.8594 2.44141 11.3672 2.44141Q11.4648 2.44141 11.5723 2.37305Q11.6797 2.30469 11.7188 2.24609Q11.7578 2.1875 11.7578 2.14844L11.7383 2.08984Q11.5039 1.67969 11.1719 1.34766L11.0938 1.32812Q10.9766 1.32812 10.8594 1.33789Q10.7422 1.34766 10.6055 1.38672Q10.4688 1.42578 10.0879 1.46484Q9.70703 1.50391 9.02344 1.64062L8.22266 1.75781Q7.85156 1.75781 7.30469 1.01562Q6.95312 0.527344 6.38672 0.46875L6.09375 0.449219Q5.625 0.449219 5.17578 0.585938L4.84375 0.664062Q6.42578 1.48438 6.64062 2.08984L6.44531 2.14844L5.13672 2.51953Q4.00391 2.85156 2.85156 3.16406Q2.44141 3.26172 1.99219 3.26172Q1.64062 3.26172 1.26953 3.16406Q1.15234 3.125 1.01562 3.10547Q0.957031 3.28125 0.957031 3.35938Q0.957031 3.55469 1.69922 4.17969Q1.83594 4.27734 2.12891 4.27734ZM5.44922 7.32422L5.60547 7.30469L8.26172 6.38672Q8.96484 6.15234 8.96484 5.87891Q8.96484 5.74219 8.79883 5.55664Q8.63281 5.37109 8.59375 5.29297L9.19922 4.58984Q9.375 4.39453 9.375 4.25781Q9.375 4.04297 8.47656 3.14453Q6.64062 3.55469 5 4.64844Q4.90234 4.49219 4.85352 4.38477Q4.80469 4.27734 4.74609 4.17969Q4.57031 3.96484 4.45312 3.96484Q4.29688 3.98438 4.25781 4.0918Q4.21875 4.19922 4.21875 4.33594L4.19922 4.33594L4.19922 4.35547Q3.94531 5.11719 3.92578 5.9375L3.92578 6.01562L3.94531 6.13281Q4.19922 6.67969 4.94141 6.99219Q5.25391 6.89453 5.39062 6.69922Q5.44922 6.62109 5.44922 6.19141L5.46875 5.82031Q5.52734 5.23438 5.99609 4.86328Q6.30859 4.62891 6.61133 4.375Q6.91406 4.12109 7.30469 4.0625Q7.44141 4.0625 7.48047 4.0918Q7.51953 4.12109 7.51953 4.16016Q7.51953 4.19922 7.50977 4.22852Q7.5 4.25781 7.16797 4.72656Q7.10938 4.82422 6.94336 5.06836Q6.77734 5.3125 6.5625 5.56641L6.30859 5.91797Q6.28906 5.9375 6.28906 6.07422Q6.34766 6.11328 6.42578 6.15234Q6.50391 6.19141 6.58203 6.25L5.44922 7.32422ZM33.3008 16.4062Q32.2461 16.4062 31.4453 15.6836Q30.8203 15.1758 30.1758 14.7266Q29.6875 14.4141 29.1406 13.9062Q28.5156 13.3398 28.2422 13.1445L27.9102 13.3594Q27.0703 14.0039 26.6602 14.0625L26.2891 14.1797Q25.9766 14.3164 25.625 14.3359Q25.4492 14.3555 25.2734 14.4336L25.0977 14.4727L25 14.5117Q24.8047 14.4531 24.5898 14.4141Q24.2578 14.375 23.9648 14.2578Q23.6719 14.1406 23.457 13.8281Q23.3398 13.6719 23.1836 13.5352Q22.793 13.2812 22.793 12.9297Q22.793 12.832 22.8223 12.7539Q22.8516 12.6758 22.8906 12.6367Q22.9297 12.5977 22.9492 12.5879Q22.9688 12.5781 22.9883 12.5781L23.0469 12.6758L23.1445 12.9102Q23.5547 13.6133 24.4922 13.6133L24.7266 13.5938Q26.0156 13.3984 27.0117 12.5586Q27.1875 12.4219 27.3828 12.2266L26.6797 11.5234Q26.543 11.4062 26.4062 11.4062Q26.1719 11.4062 25.7422 11.6992Q25.3125 11.9922 24.8047 12.1484L24.6289 12.0898Q24.707 11.7773 24.9805 11.6504Q25.2539 11.5234 25.5078 11.3867Q26.1914 10.9375 26.6016 10.9375Q26.9531 10.9375 27.3047 11.1523Q27.5 11.2695 27.7148 11.3672L27.9102 11.4648Q28.3398 10.7422 28.5742 9.94141Q28.5938 9.86328 28.6328 9.80469Q28.5352 9.72656 28.4375 9.72656Q28.3594 9.72656 28.2812 9.76562Q27.7344 10 27.168 10.2148Q25.5273 10.8203 24.707 11.2305Q24.5898 11.2891 24.4727 11.2891Q24.2773 11.2891 23.9844 11.0352L23.7109 10.7812Q23.5547 10.6445 23.5547 10.5078Q23.5547 10.3516 23.7207 10.1758Q23.8867 10 24.1992 10L24.4727 10Q24.9023 10 25.293 9.84375L25.3125 9.84375Q25.3516 9.80469 25.4102 9.80469Q26.1328 9.76562 26.7969 9.57031L27.3047 9.43359Q27.832 9.29688 28.3008 9.10156L28.5352 9.02344Q28.9453 8.86719 29.0625 8.63281Q29.0625 8.59375 29.0918 8.56445Q29.1211 8.53516 29.1406 8.53516L29.4531 8.39844Q29.7461 8.24219 30.0391 8.24219Q30.1758 8.24219 30.3418 8.28125Q30.5078 8.32031 30.6055 8.51562L30.7812 8.75Q30.957 8.92578 30.957 9.14062Q30.957 9.31641 30.7812 9.51172Q30.4492 9.88281 30.2734 10.3125L30.1758 10.5273Q29.8828 11.0547 29.668 11.582L29.5898 11.6992Q29.2773 12.0508 29.1602 12.207L29.7852 12.5781Q30.7812 13.2031 31.3477 13.3594Q31.3867 13.3594 31.4062 13.3789Q31.6992 13.5742 32.0117 13.6426Q32.3242 13.7109 32.5781 13.8672L32.6367 13.8672Q32.8516 13.8672 33.0273 13.9844L33.2422 14.0625Q33.9844 14.3164 34.5508 14.8047Q35.0391 15.1367 35.4883 15.5273Q35.7227 15.7031 35.8984 15.8789L36.0742 16.0352L35.7031 16.1133Q34.7461 16.2695 34.4043 16.2988Q34.0625 16.3281 33.6914 16.3867L33.3008 16.4062ZM17.4219 15.3125Q17.1094 15.1367 16.9922 14.9805Q16.875 14.8242 16.8164 14.4727Q17.5781 13.5742 17.8711 13.1445Q18.2227 12.5195 18.7695 12.2656Q18.8086 12.4414 18.8281 12.5586Q18.8477 12.6758 18.8867 12.793Q19.1016 12.6367 19.1992 12.4219L20.3516 10.7227Q20.6055 10.3906 20.7812 10.0195Q21.0547 9.35547 21.3867 8.73047Q21.8359 7.89062 22.168 7.01172Q22.2461 6.69922 22.2461 6.58203Q22.2461 6.46484 22.207 6.32812Q21.8359 6.19141 21.4453 6.19141Q21.1523 6.19141 20.8398 6.26953Q21.0938 6.03516 21.3672 5.95703Q21.6406 5.87891 21.9336 5.83984Q22.1289 5.83984 22.207 5.82031Q22.2852 5.80078 22.3438 5.80078Q22.7148 5.80078 22.9688 6.15234Q23.3203 6.66016 23.8867 6.66016Q24.0625 6.66016 24.2578 6.60156Q25.0391 6.30859 25.293 6.25Q25.293 6.05469 25.2441 5.89844Q25.1953 5.74219 25.127 5.625Q25.0586 5.50781 25.0098 5.39062Q24.9609 5.27344 24.6289 5.25391L24.7852 5.52734Q24.7266 5.52734 24.6875 5.50781Q24.3555 5.3125 24.3555 5.11719Q24.3555 5 24.4922 4.90234Q24.8633 4.64844 25.1758 4.64844Q25.4297 4.64844 25.5859 4.90234Q25.8203 5.19531 26.1133 5.46875L26.3281 5.70312Q27.5 5.44922 28.5547 5.09766L28.5742 4.88281Q28.5938 4.6875 28.6328 4.51172L28.6328 4.41406Q28.6328 4.12109 28.3789 4.12109L28.2227 4.14062Q27.9297 4.21875 27.8516 4.28711Q27.7734 4.35547 27.7344 4.60938Q27.6758 4.45312 27.6758 4.33594Q27.6758 4.02344 28.0078 3.86719Q28.418 3.73047 28.8672 3.67188Q28.9453 3.63281 29.0234 3.63281Q29.1992 3.63281 29.3262 3.78906Q29.4531 3.94531 29.6289 4.08203L29.6484 4.08203Q29.7656 4.17969 29.8438 4.25781Q29.9219 4.33594 29.9609 4.62891L30.1758 4.58984Q30.957 4.47266 31.0742 4.47266Q31.4062 4.47266 31.5625 4.80469Q31.6406 4.96094 31.8262 5.08789Q32.0117 5.21484 32.0117 5.39062Q32.0117 5.46875 31.9922 5.52734Q31.7383 5.72266 31.5625 5.83008Q31.3867 5.9375 30.9375 5.9375Q30.7031 5.9375 30.4688 5.89844L30.4102 5.89844Q30.3125 5.89844 29.8633 6.09375L29.707 6.15234L29.3945 6.91406L29.3945 6.95312Q29.4531 7.08984 29.6484 7.30469Q29.7656 7.44141 29.7656 7.53906Q29.7656 7.8125 29.2383 7.87109L29.1797 7.87109Q28.9648 7.87109 28.8672 8.02734Q28.7891 8.10547 28.6914 8.10547Q28.6328 8.10547 28.5938 8.08594Q28.418 8.00781 28.2422 8.00781Q28.0664 8.00781 27.793 8.125L27.6367 8.18359Q26.8164 8.47656 26.0352 8.84766Q25.957 8.84766 25.5957 9.08203Q25.2344 9.31641 25.1367 9.31641Q25.0391 9.31641 24.8828 9.14062L24.5703 8.82812L24.5508 8.78906L24.5508 8.61328Q24.5508 8.53516 24.7656 8.32031Q24.9219 8.20312 24.9805 8.00781Q25.0391 7.8125 25.1367 7.63672L25.2148 7.44141L25.0586 7.42188Q24.9219 7.44141 24.7852 7.4707Q24.6484 7.5 24.4727 7.5Q24.2383 7.5 24.043 7.32422Q23.9062 7.20703 23.7305 7.12891L23.5742 7.03125L23.3789 7.42188Q22.5391 9.29688 21.1133 11.25Q20.8398 11.6016 20.6055 11.9727Q20.1953 12.6172 19.6484 13.1836Q17.8516 15.0977 17.5586 15.2344L17.4219 15.3125ZM26.6992 7.5Q27.0312 7.34375 27.4023 7.24609Q27.6367 7.1875 27.8516 7.08984Q28.2031 6.99219 28.2617 6.99219L28.3594 6.36719L28.2227 6.40625Q27.9492 6.44531 27.9102 6.46484Q26.8359 6.73828 26.582 6.875Q26.4453 6.97266 26.4453 7.28516Q26.4453 7.5 26.6602 7.5L26.6992 7.5ZM22.168 5.13672Q22.1289 5.13672 22.0703 5.10742Q22.0117 5.07812 21.3086 4.45312Q21.25 4.39453 21.25 4.27734Q21.25 4.10156 21.3672 4.00391Q21.6016 3.78906 21.9141 3.76953Q22.0312 3.76953 22.1484 3.74023Q22.2656 3.71094 22.3438 3.71094Q22.4414 3.71094 22.5488 3.75Q22.6562 3.78906 22.7734 3.78906Q23.0078 3.78906 23.2129 3.73047Q23.418 3.67188 23.6328 3.57422L24.043 3.4375Q24.3555 3.32031 24.6875 3.22266Q25.1953 3.02734 25.8984 2.83203L26.0742 2.73438Q25.7617 2.1875 25.7617 1.5625L25.7617 1.26953L25.7812 0.898438Q25.7812 0.605469 25.5078 0.488281Q25.4297 0.449219 25.2832 0.400391Q25.1367 0.351562 24.9805 0.273438L25.1172 0.195312Q25.3516 0 25.8398 0Q25.9375 0 26.1621 0.0390625Q26.3867 0.078125 26.6602 0.410156Q26.875 0.664062 27.1094 0.878906Q27.1484 0.9375 27.207 0.976562Q27.6562 1.40625 27.6758 2.03125Q27.6758 2.10938 27.7539 2.1875L28.4766 2.01172Q30.0391 1.62109 30.1172 1.62109Q30.3906 1.58203 30.5273 1.58203Q30.6445 1.60156 30.7324 1.68945Q30.8203 1.77734 30.9766 2.01172Q31.0742 2.14844 31.1914 2.26562Q31.4062 2.48047 31.4062 2.61719Q31.4062 2.77344 31.2109 2.87109Q31.1523 2.89062 31.0938 2.93945Q31.0352 2.98828 30.9863 3.00781Q30.9375 3.02734 30.8984 3.04688Q30.8008 3.125 30.6836 3.14453Q30.1953 3.14453 29.707 3.10547Q29.668 3.10547 29.5898 3.02734Q29.5117 2.85156 29.3359 2.85156L28.3203 2.96875Q28.1055 3.02734 27.8613 3.125Q27.6172 3.22266 27.3242 3.32031Q25.5469 3.94531 24.0039 4.58984Q23.4375 4.82422 22.8516 5.03906Q22.5977 5.11719 22.3438 5.11719Q22.2461 5.11719 22.168 5.13672Z">
</path>
</g>
</svg>
