<svg xmlns="http://www.w3.org/2000/svg" xmlns:xlink="http://www.w3.org/1999/xlink" width="72" height="45" viewBox="0 0 72 45" fill="none">
<path d="M33.75 31.5L31.5 31.5L31.5 27L33.75 27C33.9341 27 34.1181 26.9955 34.302 26.9865C34.4859 26.9774 34.6695 26.9639 34.8527 26.9458C35.0359 26.9278 35.2186 26.9053 35.4007 26.8782C35.5828 26.8512 35.7642 26.8197 35.9448 26.7838C36.1253 26.7479 36.3049 26.7076 36.4835 26.6628C36.6621 26.6181 36.8395 26.569 37.0157 26.5156C37.1919 26.4621 37.3667 26.4044 37.54 26.3424C37.7134 26.2803 37.8851 26.2141 38.0552 26.1436C38.2253 26.0732 38.3936 25.9986 38.56 25.9199C38.7264 25.8412 38.8909 25.7584 39.0532 25.6716C39.2156 25.5848 39.3757 25.4941 39.5336 25.3994C39.6916 25.3048 39.8471 25.2063 40.0002 25.104C40.1532 25.0018 40.3037 24.8958 40.4516 24.7861C40.5995 24.6764 40.7446 24.5631 40.8869 24.4464C41.0293 24.3296 41.1686 24.2093 41.305 24.0857C41.4415 23.9621 41.5748 23.8351 41.7049 23.7049C41.8351 23.5747 41.9621 23.4414 42.0857 23.305C42.2093 23.1686 42.3296 23.0293 42.4464 22.8869C42.5631 22.7446 42.6764 22.5995 42.7861 22.4516C42.8958 22.3037 43.0018 22.1532 43.104 22.0002C43.2063 21.8471 43.3048 21.6916 43.3994 21.5336C43.4941 21.3757 43.5848 21.2156 43.6716 21.0532C43.7584 20.8909 43.8412 20.7264 43.9199 20.56C43.9985 20.3936 44.0732 20.2253 44.1435 20.0552C44.2143 19.8851 44.2806 19.7134 44.3426 19.54C44.4045 19.3667 44.4621 19.1919 44.5157 19.0157C44.5689 18.8395 44.6181 18.6621 44.6629 18.4835C44.7073 18.3049 44.7477 18.1253 44.7838 17.9448C44.8198 17.7642 44.8515 17.5828 44.8783 17.4007C44.9051 17.2186 44.9279 17.0359 44.9459 16.8527C44.964 16.6695 44.9771 16.4859 44.9864 16.302C44.9956 16.1181 45 15.9341 45 15.75C45 15.5659 44.9956 15.3819 44.9864 15.198C44.9771 15.0141 44.964 14.8305 44.9459 14.6473C44.9279 14.4641 44.9051 14.2814 44.8783 14.0993C44.8515 13.9172 44.8198 13.7358 44.7838 13.5552C44.7477 13.3747 44.7073 13.1951 44.6629 13.0165C44.6181 12.8379 44.5689 12.6605 44.5157 12.4843C44.4621 12.3081 44.4045 12.1333 44.3426 11.96C44.2806 11.7866 44.2143 11.6149 44.1435 11.4448C44.0732 11.2747 43.9985 11.1064 43.9199 10.94C43.8412 10.7736 43.7584 10.6091 43.6716 10.4468C43.5848 10.2844 43.4941 10.1243 43.3994 9.96636C43.3048 9.80842 43.2063 9.65289 43.104 9.49983C43.0018 9.34677 42.8958 9.19626 42.7861 9.04838C42.6764 8.90051 42.5631 8.7554 42.4464 8.61306C42.3296 8.47072 42.2093 8.33137 42.0857 8.19496C41.9621 8.05851 41.8351 7.92523 41.7049 7.79506C41.5748 7.66485 41.4415 7.53794 41.305 7.41428C41.1686 7.29066 41.0293 7.17042 40.8869 7.05362C40.7446 6.93681 40.5995 6.82356 40.4516 6.71392C40.3037 6.60423 40.1532 6.49824 40.0002 6.39598C39.8471 6.29367 39.6916 6.19519 39.5336 6.10053C39.3757 6.00592 39.2156 5.91517 39.0532 5.82838C38.8909 5.74159 38.7264 5.65884 38.56 5.58013C38.3936 5.50143 38.2253 5.42681 38.0552 5.35636C37.8851 5.28592 37.7134 5.21965 37.54 5.15764C37.3667 5.09563 37.1919 5.03789 37.0157 4.98441C36.8395 4.93097 36.6621 4.88188 36.4835 4.83715C36.3049 4.79241 36.1253 4.75207 35.9448 4.71617C35.7642 4.68026 35.5828 4.6488 35.4007 4.62177C35.2186 4.59475 35.0359 4.57225 34.8527 4.55418C34.6695 4.53612 34.4859 4.52259 34.302 4.51353C34.1181 4.50453 33.9341 4.5 33.75 4.5L15.75 4.5C15.5659 4.5 15.3819 4.50453 15.198 4.51353C15.0141 4.52259 14.8305 4.53612 14.6473 4.55418C14.4641 4.57225 14.2814 4.59475 14.0993 4.62177C13.9172 4.6488 13.7358 4.68026 13.5552 4.71617C13.3747 4.75207 13.1951 4.79241 13.0165 4.83715C12.8379 4.88188 12.6605 4.93097 12.4843 4.98441C12.3081 5.03789 12.1333 5.09563 11.96 5.15764C11.7866 5.21965 11.6149 5.28592 11.4448 5.35636C11.2747 5.42681 11.1064 5.50143 10.94 5.58013C10.7736 5.65884 10.6091 5.74159 10.4468 5.82838C10.2844 5.91517 10.1243 6.00592 9.96636 6.10053C9.80842 6.19519 9.65289 6.29367 9.49983 6.39598C9.34677 6.49824 9.19626 6.60423 9.04838 6.71392C8.90051 6.82356 8.7554 6.93681 8.61306 7.05362C8.47072 7.17042 8.33137 7.29066 8.19497 7.41428C8.05851 7.53794 7.92523 7.66485 7.79506 7.79506C7.66485 7.92523 7.53794 8.05851 7.41428 8.19496C7.29066 8.33137 7.17042 8.47072 7.05362 8.61306C6.93681 8.7554 6.82356 8.90051 6.71392 9.04838C6.60423 9.19626 6.49824 9.34677 6.39598 9.49983C6.29367 9.65289 6.19519 9.80842 6.10053 9.96636C6.00592 10.1243 5.91517 10.2844 5.82838 10.4468C5.74159 10.6091 5.65884 10.7736 5.58013 10.94C5.50143 11.1064 5.42681 11.2747 5.35636 11.4448C5.28592 11.6149 5.21965 11.7866 5.15764 11.96C5.09563 12.1333 5.03789 12.3081 4.98441 12.4843C4.93097 12.6605 4.88188 12.8379 4.83715 13.0165C4.79241 13.1951 4.75207 13.3747 4.71617 13.5552C4.68026 13.7358 4.6488 13.9172 4.62177 14.0993C4.59475 14.2814 4.57225 14.4641 4.55418 14.6473C4.53612 14.8305 4.52259 15.0141 4.51354 15.198C4.50453 15.3819 4.5 15.5659 4.5 15.75C4.5 15.9341 4.50453 16.1181 4.51354 16.302C4.52259 16.4859 4.53612 16.6695 4.55418 16.8527C4.57225 17.0359 4.59475 17.2186 4.62177 17.4007C4.6488 17.5828 4.68026 17.7642 4.71617 17.9448C4.75207 18.1253 4.79241 18.3049 4.83715 18.4835C4.88188 18.6621 4.93097 18.8395 4.98441 19.0157C5.03789 19.1919 5.09563 19.3667 5.15764 19.54C5.21965 19.7134 5.28592 19.8851 5.35636 20.0552C5.42681 20.2253 5.50143 20.3936 5.58013 20.56C5.65884 20.7264 5.74159 20.8909 5.82838 21.0532C5.91517 21.2156 6.00592 21.3757 6.10053 21.5336C6.19519 21.6916 6.29367 21.8471 6.39598 22.0002C6.49824 22.1532 6.60423 22.3037 6.71392 22.4516C6.82361 22.5995 6.93685 22.7446 7.05362 22.8869C7.17042 23.0293 7.29066 23.1686 7.41428 23.305C7.53794 23.4414 7.66485 23.5747 7.79506 23.7049C7.92523 23.8351 8.05851 23.9621 8.19497 24.0857C8.33137 24.2093 8.47072 24.3296 8.61306 24.4464C8.7554 24.5631 8.90051 24.6764 9.04838 24.7861C9.19626 24.8958 9.34677 25.0018 9.49983 25.104C9.65289 25.2063 9.80842 25.3048 9.96636 25.3994C10.1243 25.4941 10.2844 25.5848 10.4468 25.6716C10.6091 25.7584 10.7736 25.8412 10.94 25.9199C11.1064 25.9986 11.2747 26.0732 11.4448 26.1436C11.6149 26.2141 11.7866 26.2803 11.96 26.3424C12.1333 26.4044 12.3081 26.4621 12.4843 26.5156C12.6605 26.569 12.8379 26.6181 13.0165 26.6628C13.1951 26.7076 13.3747 26.7479 13.5552 26.7838C13.7358 26.8197 13.9172 26.8512 14.0993 26.8782C14.2814 26.9053 14.4641 26.9278 14.6473 26.9458C14.8305 26.9639 15.0141 26.9774 15.198 26.9865C15.3819 26.9955 15.5659 27 15.75 27L18 27L18 31.5L15.75 31.5C15.4923 31.5 15.2347 31.4937 14.9772 31.481C14.7197 31.4684 14.4628 31.4494 14.2062 31.4241C13.9497 31.3989 13.694 31.3674 13.439 31.3295C13.184 31.2917 12.9302 31.2477 12.6773 31.1973C12.4245 31.1471 12.1731 31.0906 11.9231 31.028C11.673 30.9654 11.4247 30.8966 11.178 30.8218C10.9314 30.747 10.6867 30.6661 10.444 30.5793C10.2013 30.4925 9.96086 30.3997 9.72272 30.3011C9.48458 30.2024 9.24904 30.098 9.016 29.9878C8.783 29.8776 8.55281 29.7618 8.32548 29.6403C8.09815 29.5188 7.87399 29.3917 7.6529 29.2592C7.43181 29.1267 7.21411 28.9889 6.99978 28.8457C6.78546 28.7024 6.57475 28.5541 6.36772 28.4005C6.16069 28.2469 5.95758 28.0884 5.75829 27.9249C5.55904 27.7614 5.36392 27.5931 5.17293 27.42C4.98195 27.2469 4.79531 27.0692 4.61307 26.8869C4.43079 26.7047 4.25312 26.518 4.08002 26.3271C3.90692 26.1361 3.73861 25.941 3.57509 25.7417C3.41156 25.5424 3.25303 25.3393 3.09948 25.1323C2.94593 24.9253 2.79756 24.7145 2.65435 24.5002C2.51115 24.2859 2.37329 24.0682 2.24078 23.8471C2.10826 23.626 1.98125 23.4018 1.85974 23.1745C1.73823 22.9472 1.62238 22.717 1.51217 22.484C1.40196 22.251 1.29754 22.0154 1.1989 21.7773C1.10025 21.5391 1.00752 21.2987 0.920681 21.056C0.833845 20.8133 0.753016 20.5686 0.67819 20.322C0.603365 20.0753 0.534639 19.827 0.472008 19.5769C0.409377 19.3269 0.352918 19.0755 0.302632 18.8227C0.252345 18.5698 0.208292 18.316 0.17047 18.061C0.132648 17.806 0.101105 17.5503 0.0758404 17.2938C0.0505753 17.0372 0.0316193 16.7803 0.0189715 16.5228C0.00632386 16.2653 0 16.0077 0 15.75C0 15.4923 0.00632386 15.2347 0.0189715 14.9772C0.0316193 14.7197 0.0505753 14.4628 0.0758404 14.2062C0.101105 13.9497 0.132648 13.694 0.17047 13.439C0.208292 13.184 0.252345 12.9302 0.302632 12.6773C0.352918 12.4245 0.409377 12.1731 0.472008 11.9231C0.534639 11.673 0.603365 11.4247 0.67819 11.178C0.753016 10.9314 0.833845 10.6867 0.920681 10.444C1.00752 10.2013 1.10025 9.96086 1.1989 9.72272C1.29754 9.48458 1.40196 9.24904 1.51217 9.016C1.62238 8.783 1.73823 8.55281 1.85974 8.32548C1.98125 8.09815 2.10826 7.87399 2.24078 7.6529C2.37329 7.43181 2.51115 7.21411 2.65435 6.99978C2.79756 6.78546 2.94593 6.57475 3.09948 6.36772C3.25303 6.16069 3.41156 5.95758 3.57509 5.75829C3.73861 5.55904 3.90692 5.36392 4.08002 5.17293C4.25312 4.98195 4.43079 4.79531 4.61307 4.61307C4.79531 4.43079 4.98195 4.25312 5.17293 4.08002C5.36392 3.90692 5.55904 3.73861 5.75829 3.57509C5.95758 3.41156 6.16069 3.25303 6.36772 3.09948C6.57475 2.94593 6.78546 2.79756 6.99978 2.65435C7.21411 2.51115 7.43181 2.37329 7.6529 2.24078C7.87399 2.10826 8.09815 1.98125 8.32548 1.85974C8.55281 1.73823 8.783 1.62238 9.016 1.51217C9.24904 1.40196 9.48458 1.29754 9.72272 1.1989C9.96086 1.10025 10.2013 1.00752 10.444 0.920681C10.6867 0.833845 10.9314 0.753016 11.178 0.67819C11.4247 0.603365 11.673 0.534639 11.9231 0.472008C12.1731 0.409377 12.4245 0.352918 12.6773 0.302632C12.9302 0.252345 13.184 0.208292 13.439 0.17047C13.694 0.132648 13.9497 0.101105 14.2062 0.0758404C14.4628 0.0505753 14.7197 0.0316193 14.9772 0.0189715C15.2347 0.00632386 15.4923 0 15.75 0L33.75 0C34.0077 0 34.2653 0.00632386 34.5228 0.0189715C34.7803 0.0316193 35.0372 0.0505753 35.2938 0.0758404C35.5503 0.101105 35.806 0.132648 36.061 0.17047C36.316 0.208292 36.5698 0.252345 36.8227 0.302632C37.0755 0.352918 37.3269 0.409377 37.5769 0.472008C37.827 0.534639 38.0753 0.603365 38.322 0.67819C38.5686 0.753016 38.8133 0.833845 39.056 0.920681C39.2987 1.00752 39.5391 1.10025 39.7773 1.1989C40.0154 1.29754 40.251 1.40196 40.484 1.51217C40.717 1.62238 40.9472 1.73823 41.1745 1.85974C41.4018 1.98125 41.626 2.10826 41.8471 2.24078C42.0682 2.37329 42.2859 2.51115 42.5002 2.65435C42.7145 2.79756 42.9253 2.94593 43.1323 3.09948C43.3393 3.25303 43.5424 3.41156 43.7417 3.57509C43.941 3.73861 44.136 3.90692 44.3272 4.08002C44.5184 4.25312 44.7047 4.43079 44.8871 4.61307C45.0694 4.79531 45.247 4.98195 45.4201 5.17293C45.5933 5.36392 45.7616 5.55904 45.925 5.75829C46.0885 5.95758 46.2472 6.16069 46.4005 6.36772C46.5539 6.57475 46.7024 6.78546 46.8457 6.99978C46.989 7.21411 47.1269 7.43181 47.2592 7.6529C47.3915 7.87399 47.5185 8.09815 47.6402 8.32548C47.762 8.55281 47.8775 8.783 47.9878 9.016C48.0981 9.24904 48.2023 9.48458 48.3012 9.72272C48.4 9.96086 48.4928 10.2013 48.5793 10.444C48.6659 10.6867 48.7468 10.9314 48.8219 11.178C48.8966 11.4247 48.9652 11.673 49.028 11.9231C49.0909 12.1731 49.1471 12.4245 49.1972 12.6773C49.2477 12.9302 49.2917 13.184 49.3295 13.439C49.3673 13.694 49.3989 13.9497 49.424 14.2062C49.4495 14.4628 49.4684 14.7197 49.4811 14.9772C49.4938 15.2347 49.5 15.4923 49.5 15.75C49.5 16.0077 49.4938 16.2653 49.4811 16.5228C49.4684 16.7803 49.4495 17.0372 49.424 17.2938C49.3989 17.5503 49.3673 17.806 49.3295 18.061C49.2917 18.316 49.2477 18.5698 49.1972 18.8227C49.1471 19.0755 49.0909 19.3269 49.028 19.5769C48.9652 19.827 48.8966 20.0753 48.8219 20.322C48.7468 20.5686 48.6659 20.8133 48.5793 21.056C48.4928 21.2987 48.4 21.5391 48.3012 21.7773C48.2023 22.0154 48.0981 22.251 47.9878 22.484C47.8775 22.717 47.762 22.9472 47.6402 23.1745C47.5185 23.4018 47.3915 23.626 47.2592 23.8471C47.1269 24.0682 46.989 24.2859 46.8457 24.5002C46.7024 24.7145 46.5539 24.9253 46.4005 25.1323C46.2472 25.3393 46.0885 25.5424 45.925 25.7417C45.7616 25.941 45.5933 26.1361 45.4201 26.3271C45.247 26.518 45.0694 26.7047 44.8871 26.8869C44.7047 27.0692 44.5184 27.2469 44.3272 27.42C44.136 27.5931 43.941 27.7614 43.7417 27.9249C43.5424 28.0884 43.3393 28.2469 43.1323 28.4005C42.9253 28.5541 42.7145 28.7024 42.5002 28.8457C42.2859 28.9889 42.0682 29.1267 41.8471 29.2592C41.626 29.3917 41.4018 29.5188 41.1745 29.6403C40.9472 29.7618 40.717 29.8776 40.484 29.9878C40.251 30.098 40.0154 30.2024 39.7773 30.3011C39.5391 30.3997 39.2987 30.4925 39.056 30.5793C38.8133 30.6661 38.5686 30.747 38.322 30.8218C38.0753 30.8966 37.827 30.9654 37.5769 31.028C37.3269 31.0906 37.0755 31.1471 36.8227 31.1973C36.5698 31.2477 36.316 31.2917 36.061 31.3295C35.806 31.3674 35.5503 31.3989 35.2938 31.4241C35.0372 31.4494 34.7803 31.4684 34.5228 31.481C34.2653 31.4937 34.0077 31.5 33.75 31.5Z"   fill="#737373" >
</path>
<path d="M56.25 45L38.25 45C37.9923 45 37.7346 44.9937 37.4772 44.9811C37.2197 44.9685 36.9627 44.9495 36.7062 44.924C36.4497 44.8988 36.194 44.8673 35.939 44.8295C35.684 44.7917 35.4302 44.7476 35.1773 44.6972C34.9245 44.6471 34.6731 44.5907 34.4231 44.528C34.173 44.4653 33.9247 44.3966 33.678 44.3219C33.4314 44.2469 33.1867 44.166 32.944 44.0793C32.7013 43.9926 32.4609 43.8999 32.2227 43.8011C31.9846 43.7024 31.749 43.598 31.516 43.4878C31.283 43.3776 31.0528 43.2618 30.8255 43.1403C30.5982 43.0188 30.374 42.8917 30.1529 42.7592C29.9318 42.6267 29.7141 42.4889 29.4998 42.3457C29.2855 42.2024 29.0747 42.0541 28.8677 41.9005C28.6607 41.7469 28.4575 41.5884 28.2583 41.4249C28.059 41.2614 27.8639 41.0931 27.6729 40.92C27.4819 40.7469 27.2953 40.5692 27.1131 40.3869C26.9308 40.2047 26.7531 40.0181 26.58 39.8271C26.4069 39.6361 26.2386 39.441 26.0751 39.2417C25.9115 39.0424 25.753 38.8393 25.5995 38.6323C25.4459 38.4253 25.2975 38.2145 25.1543 38.0002C25.0111 37.7859 24.8733 37.5682 24.7408 37.3471C24.6083 37.126 24.4812 36.9018 24.3597 36.6745C24.2382 36.4472 24.1224 36.217 24.0122 35.984C23.9019 35.751 23.7975 35.5154 23.6989 35.2773C23.6003 35.0391 23.5075 34.7987 23.4207 34.556C23.3338 34.3133 23.253 34.0686 23.1782 33.822C23.1034 33.5753 23.0347 33.327 22.972 33.0769C22.9094 32.8269 22.8529 32.5755 22.8026 32.3227C22.7523 32.0698 22.7083 31.816 22.6705 31.561C22.6326 31.306 22.6011 31.0503 22.5758 30.7938C22.5506 30.5372 22.5316 30.2803 22.519 30.0228C22.5063 29.7653 22.5 29.5077 22.5 29.25C22.5 28.9923 22.5063 28.7347 22.519 28.4772C22.5316 28.2197 22.5506 27.9628 22.5758 27.7062C22.6011 27.4497 22.6326 27.194 22.6705 26.939C22.7083 26.684 22.7523 26.4302 22.8026 26.1773C22.8529 25.9245 22.9094 25.6731 22.972 25.4231C23.0347 25.173 23.1034 24.9247 23.1782 24.678C23.253 24.4314 23.3339 24.1867 23.4207 23.944C23.5075 23.7013 23.6003 23.4609 23.6989 23.2227C23.7975 22.9846 23.9019 22.749 24.0122 22.516C24.1224 22.283 24.2382 22.0528 24.3597 21.8255C24.4812 21.5982 24.6083 21.374 24.7408 21.1529C24.8733 20.9318 25.0111 20.7141 25.1543 20.4998C25.2975 20.2855 25.4459 20.0747 25.5995 19.8677C25.753 19.6607 25.9115 19.4576 26.0751 19.2583C26.2386 19.059 26.4069 18.8639 26.58 18.6729C26.7531 18.4819 26.9308 18.2953 27.1131 18.1131C27.2953 17.9308 27.4819 17.7531 27.6729 17.58C27.8639 17.4069 28.059 17.2386 28.2583 17.0751C28.4576 16.9115 28.6607 16.753 28.8677 16.5995C29.0747 16.4459 29.2855 16.2975 29.4998 16.1543C29.7141 16.0111 29.9318 15.8733 30.1529 15.7408C30.374 15.6083 30.5982 15.4812 30.8255 15.3597C31.0528 15.2382 31.283 15.1224 31.516 15.0122C31.749 14.902 31.9846 14.7976 32.2227 14.6989C32.4609 14.6003 32.7013 14.5075 32.944 14.4207C33.1867 14.3339 33.4314 14.253 33.678 14.1782C33.9247 14.1034 34.173 14.0347 34.4231 13.972C34.6731 13.9094 34.9245 13.8529 35.1773 13.8027C35.4302 13.7523 35.684 13.7083 35.939 13.6705C36.194 13.6326 36.4497 13.6011 36.7062 13.5758C36.9627 13.5506 37.2197 13.5316 37.4772 13.519C37.7346 13.5063 37.9923 13.5 38.25 13.5L40.5 13.5L40.5 18L38.25 18C38.0659 18 37.882 18.0047 37.6981 18.0138C37.5143 18.0229 37.3307 18.0364 37.1476 18.0545C36.9644 18.0726 36.7817 18.0952 36.5997 18.1223C36.4176 18.1493 36.2363 18.1808 36.0558 18.2168C35.8752 18.2528 35.6957 18.2932 35.5172 18.3379C35.3386 18.3827 35.1613 18.4319 34.9852 18.4853C34.809 18.5388 34.6343 18.5966 34.461 18.6587C34.2877 18.7207 34.116 18.787 33.946 18.8575C33.776 18.9279 33.6077 19.0026 33.4414 19.0813C33.275 19.1601 33.1106 19.2429 32.9483 19.3297C32.786 19.4164 32.6259 19.5072 32.468 19.6019C32.3102 19.6966 32.1547 19.795 32.0017 19.8973C31.8487 19.9996 31.6982 20.1056 31.5504 20.2153C31.4026 20.325 31.2575 20.4382 31.1153 20.555C30.973 20.6718 30.8337 20.7921 30.6973 20.9157C30.561 21.0393 30.4277 21.1662 30.2976 21.2964C30.1674 21.4266 30.0406 21.5599 29.917 21.6963C29.7933 21.8327 29.6732 21.9721 29.5564 22.1144C29.4397 22.2567 29.3265 22.4018 29.2169 22.5497C29.1072 22.6975 29.0013 22.848 28.8991 23.001C28.7968 23.1541 28.6984 23.3096 28.6037 23.4675C28.5091 23.6254 28.4185 23.7855 28.3317 23.9479C28.2449 24.1102 28.1622 24.2746 28.0836 24.441C28.0049 24.6074 27.9303 24.7756 27.8599 24.9457C27.7894 25.1158 27.7233 25.2875 27.6612 25.4608C27.5992 25.6341 27.5415 25.8088 27.4881 25.985C27.4347 26.1612 27.3856 26.3385 27.3409 26.517C27.2962 26.6956 27.2558 26.8752 27.2199 27.0557C27.184 27.2362 27.1526 27.4176 27.1256 27.5996C27.0986 27.7817 27.0761 27.9643 27.0581 28.1475C27.04 28.3308 27.0265 28.5143 27.0174 28.6981C27.0084 28.882 27.0039 29.0659 27.0039 29.25C27.0039 29.4341 27.0084 29.618 27.0174 29.8019C27.0265 29.9857 27.04 30.1692 27.0581 30.3525C27.0761 30.5357 27.0986 30.7183 27.1256 30.9004C27.1526 31.0824 27.184 31.2637 27.2199 31.4443C27.2558 31.6248 27.2962 31.8044 27.3409 31.983C27.3856 32.1615 27.4347 32.3388 27.4881 32.515C27.5415 32.6912 27.5992 32.8659 27.6612 33.0392C27.7233 33.2125 27.7894 33.3842 27.8599 33.5543C27.9303 33.7243 28.0049 33.8926 28.0836 34.059C28.1622 34.2254 28.2449 34.3898 28.3317 34.5521C28.4185 34.7145 28.5091 34.8746 28.6037 35.0325C28.6984 35.1904 28.7968 35.3459 28.8991 35.4989C29.0013 35.652 29.1072 35.8025 29.2169 35.9503C29.3265 36.0982 29.4397 36.2433 29.5564 36.3856C29.6732 36.5279 29.7933 36.6673 29.917 36.8037C30.0406 36.9401 30.1674 37.0734 30.2976 37.2036C30.4277 37.3338 30.561 37.4607 30.6973 37.5843C30.8337 37.7079 30.973 37.8282 31.1153 37.945C31.2575 38.0618 31.4026 38.175 31.5504 38.2847C31.6982 38.3944 31.8487 38.5004 32.0017 38.6027C32.1547 38.705 32.3102 38.8034 32.468 38.8981C32.6259 38.9928 32.786 39.0836 32.9483 39.1703C33.1106 39.2571 33.275 39.3399 33.4414 39.4187C33.6077 39.4974 33.776 39.5721 33.946 39.6425C34.116 39.713 34.2877 39.7793 34.461 39.8413C34.6343 39.9034 34.809 39.9612 34.9852 40.0147C35.1613 40.0681 35.3386 40.1173 35.5172 40.1621C35.6957 40.2068 35.8752 40.2472 36.0558 40.2832C36.2363 40.3192 36.4176 40.3507 36.5997 40.3777C36.7817 40.4048 36.9644 40.4274 37.1476 40.4455C37.3307 40.4636 37.5143 40.4771 37.6981 40.4862C37.882 40.4953 38.0659 40.5 38.25 40.5L56.25 40.5C56.434 40.5 56.6179 40.4955 56.8019 40.4865C56.9859 40.4774 57.1695 40.4639 57.3526 40.4458C57.536 40.4277 57.7186 40.4053 57.9006 40.3782C58.0828 40.3512 58.2641 40.3197 58.4446 40.2838C58.6254 40.2479 58.805 40.2076 58.9834 40.1628C59.1621 40.1181 59.3395 40.069 59.5156 40.0156C59.6919 39.9621 59.8667 39.9044 60.0398 39.8424C60.2133 39.7803 60.3851 39.7141 60.5553 39.6436C60.7252 39.5732 60.8934 39.4986 61.0598 39.4199C61.2265 39.3412 61.391 39.2584 61.5533 39.1716C61.7156 39.0848 61.8757 38.9941 62.0336 38.8994C62.1915 38.8048 62.3471 38.7063 62.5003 38.604C62.6533 38.5018 62.8037 38.3958 62.9516 38.2861C63.0996 38.1764 63.2446 38.0631 63.3867 37.9464C63.5291 37.8296 63.6685 37.7093 63.8051 37.5857C63.9416 37.4621 64.0749 37.3351 64.205 37.2049C64.335 37.0748 64.4619 36.9415 64.5855 36.805C64.7092 36.6686 64.8294 36.5293 64.9463 36.3869C65.0632 36.2446 65.1765 36.0995 65.286 35.9516C65.3956 35.8037 65.5017 35.6532 65.6042 35.5002C65.7065 35.3471 65.8049 35.1916 65.8995 35.0336C65.9941 34.8757 66.0848 34.7156 66.1715 34.5532C66.2582 34.3908 66.341 34.2264 66.4198 34.06C66.4985 33.8936 66.5732 33.7253 66.6435 33.5552C66.7142 33.3851 66.7806 33.2134 66.8426 33.04C66.9045 32.8667 66.9621 32.6919 67.0157 32.5157C67.0689 32.3395 67.1181 32.1621 67.1629 31.9835C67.2073 31.8049 67.2477 31.6253 67.2838 31.4448C67.3198 31.2642 67.3515 31.0828 67.3783 30.9007C67.4051 30.7186 67.4279 30.5359 67.4459 30.3527C67.464 30.1695 67.4771 29.9859 67.4864 29.802C67.4956 29.6181 67.5 29.4341 67.5 29.25C67.5 29.0659 67.4956 28.8819 67.4864 28.698C67.4771 28.5141 67.464 28.3305 67.4459 28.1473C67.4279 27.9641 67.4051 27.7814 67.3783 27.5993C67.3515 27.4171 67.3198 27.2358 67.2838 27.0552C67.2477 26.8747 67.2073 26.6951 67.1629 26.5165C67.1181 26.3379 67.0689 26.1605 67.0157 25.9843C66.9621 25.8081 66.9045 25.6333 66.8426 25.46C66.7806 25.2866 66.7142 25.1149 66.6435 24.9448C66.5732 24.7747 66.4985 24.6064 66.4198 24.44C66.341 24.2736 66.2582 24.1091 66.1715 23.9468C66.0848 23.7844 65.9941 23.6243 65.8995 23.4664C65.8049 23.3084 65.7065 23.1529 65.6042 22.9998C65.5017 22.8468 65.3956 22.6963 65.286 22.5484C65.1765 22.4005 65.0632 22.2554 64.9463 22.1131C64.8294 21.9707 64.7092 21.8314 64.5855 21.695C64.4619 21.5585 64.335 21.4252 64.205 21.2951C64.0749 21.1649 63.9416 21.0379 63.8051 20.9143C63.6685 20.7907 63.5291 20.6704 63.3867 20.5536C63.2446 20.4368 63.0996 20.3236 62.9516 20.2139C62.8037 20.1042 62.6533 19.9982 62.5003 19.896C62.3471 19.7937 62.1915 19.6952 62.0336 19.6005C61.8757 19.5059 61.7156 19.4152 61.5533 19.3284C61.391 19.2416 61.2265 19.1588 61.0598 19.0801C60.8934 19.0014 60.7252 18.9268 60.5553 18.8564C60.3851 18.7859 60.2133 18.7196 60.0398 18.6576C59.8667 18.5956 59.6919 18.5379 59.5156 18.4844C59.3395 18.431 59.1621 18.3819 58.9834 18.3371C58.805 18.2924 58.6254 18.2521 58.4446 18.2162C58.2641 18.1803 58.0828 18.1488 57.9006 18.1218C57.7186 18.0947 57.536 18.0722 57.3526 18.0542C57.1695 18.0361 56.9859 18.0226 56.8019 18.0135C56.6179 18.0045 56.434 18 56.25 18L54 18L54 13.5L56.25 13.5C56.5078 13.5 56.7655 13.5063 57.023 13.519C57.2802 13.5316 57.5371 13.5506 57.7938 13.5758C58.0504 13.6011 58.3062 13.6326 58.5611 13.6705C58.816 13.7083 59.0698 13.7523 59.3226 13.8027C59.5755 13.8529 59.8268 13.9094 60.0767 13.972C60.3269 14.0347 60.5754 14.1034 60.8221 14.1782C61.0687 14.253 61.3134 14.3339 61.5559 14.4207C61.7988 14.5075 62.0392 14.6003 62.2771 14.6989C62.5153 14.7976 62.7509 14.902 62.9842 15.0122C63.2171 15.1224 63.4472 15.2382 63.6745 15.3597C63.9019 15.4812 64.126 15.6083 64.3469 15.7408C64.5681 15.8733 64.7859 16.0111 65.0004 16.1543C65.2145 16.2975 65.4252 16.4459 65.6323 16.5995C65.8394 16.753 66.0426 16.9115 66.2418 17.0751C66.441 17.2386 66.636 17.4069 66.8272 17.58C67.0183 17.7531 67.2047 17.9308 67.387 18.1131C67.5694 18.2953 67.747 18.4819 67.9201 18.6729C68.0932 18.8639 68.2616 19.059 68.425 19.2583C68.5885 19.4576 68.7472 19.6607 68.9005 19.8677C69.0539 20.0747 69.2024 20.2855 69.3457 20.4998C69.489 20.7141 69.6269 20.9318 69.7592 21.1529C69.8915 21.374 70.0185 21.5982 70.1402 21.8255C70.2619 22.0528 70.3775 22.283 70.4878 22.516C70.5981 22.749 70.7023 22.9846 70.8012 23.2227C70.9 23.4609 70.9928 23.7013 71.0793 23.944C71.1659 24.1867 71.2468 24.4314 71.3219 24.678C71.3966 24.9247 71.4652 25.173 71.528 25.4231C71.5909 25.6731 71.6471 25.9245 71.6972 26.1773C71.7477 26.4302 71.7917 26.684 71.8295 26.939C71.8673 27.194 71.8989 27.4497 71.924 27.7062C71.9494 27.9628 71.9683 28.2197 71.9811 28.4772C71.9938 28.7347 72 28.9923 72 29.25C72 29.5077 71.9938 29.7653 71.9811 30.0228C71.9683 30.2803 71.9494 30.5372 71.924 30.7938C71.8989 31.0503 71.8673 31.306 71.8295 31.561C71.7917 31.816 71.7477 32.0698 71.6972 32.3227C71.6471 32.5755 71.5909 32.8269 71.528 33.0769C71.4652 33.327 71.3966 33.5753 71.3219 33.822C71.2468 34.0686 71.1659 34.3133 71.0793 34.556C70.9928 34.7987 70.9 35.0391 70.8012 35.2773C70.7023 35.5154 70.5981 35.751 70.4878 35.984C70.3775 36.217 70.2619 36.4472 70.1402 36.6745C70.0185 36.9018 69.8915 37.126 69.7592 37.3471C69.6269 37.5682 69.489 37.7859 69.3457 38.0002C69.2024 38.2145 69.0539 38.4253 68.9005 38.6323C68.7472 38.8393 68.5885 39.0424 68.425 39.2417C68.2616 39.441 68.0932 39.6361 67.9201 39.8271C67.747 40.0181 67.5694 40.2047 67.387 40.3869C67.2047 40.5692 67.0183 40.7469 66.8272 40.92C66.636 41.0931 66.441 41.2614 66.2418 41.4249C66.0426 41.5884 65.8394 41.7469 65.6323 41.9005C65.4252 42.0541 65.2145 42.2024 65.0004 42.3457C64.7859 42.4889 64.5681 42.6267 64.3469 42.7592C64.126 42.8917 63.9019 43.0188 63.6745 43.1403C63.4472 43.2618 63.2171 43.3776 62.9842 43.4878C62.7509 43.598 62.5153 43.7024 62.2771 43.8011C62.0392 43.8999 61.7988 43.9926 61.5559 44.0793C61.3134 44.166 61.0687 44.2469 60.8221 44.3219C60.5754 44.3966 60.3269 44.4653 60.0767 44.528C59.8268 44.5907 59.5755 44.6471 59.3226 44.6972C59.0698 44.7476 58.816 44.7917 58.5611 44.8295C58.3062 44.8673 58.0504 44.8988 57.7938 44.924C57.5371 44.9495 57.2802 44.9685 57.023 44.9811C56.7655 44.9937 56.5078 45 56.25 45Z"   fill="#737373" >
</path>
</svg>
