<svg xmlns="http://www.w3.org/2000/svg" xmlns:xlink="http://www.w3.org/1999/xlink" width="32" height="32" viewBox="0 0 32 32" fill="none">
<path d="M30.9854 14.275C30.9694 14.275 30.9536 14.2754 30.9378 14.2762C30.922 14.277 30.9062 14.2782 30.8902 14.2798C30.8744 14.2814 30.8586 14.2834 30.8428 14.2858C30.8273 14.2882 30.8117 14.291 30.7961 14.2942C30.7806 14.2974 30.765 14.301 30.7494 14.305C30.734 14.3089 30.7188 14.3133 30.7036 14.3181C30.6884 14.3228 30.6733 14.3279 30.6584 14.3335C30.6434 14.339 30.6286 14.3449 30.6138 14.3511C30.5992 14.3574 30.5847 14.364 30.5704 14.371C30.556 14.378 30.5419 14.3854 30.5279 14.3931C30.5137 14.4008 30.4999 14.4089 30.4863 14.4173C30.4726 14.4257 30.4591 14.4344 30.446 14.4435C30.4329 14.4526 30.4199 14.462 30.4072 14.4718C30.3944 14.4815 30.3819 14.4916 30.3695 14.502C30.3572 14.5124 30.3452 14.5231 30.3334 14.5341C30.3217 14.545 30.3102 14.5563 30.2989 14.5679C30.2877 14.5795 30.2767 14.5913 30.2661 14.6034C30.2554 14.6156 30.245 14.6279 30.235 14.6406C30.2248 14.6533 30.2151 14.6662 30.2056 14.6793C30.1961 14.6925 30.187 14.7058 30.1782 14.7194C30.1694 14.733 30.1609 14.7469 30.1527 14.7609C30.1445 14.7749 30.1367 14.7892 30.1292 14.8036C30.1217 14.818 30.1146 14.8326 30.1078 14.8474C30.101 14.8622 30.0945 14.8772 30.0885 14.8923C30.0824 14.9074 30.0767 14.9227 30.0713 14.9381C30.066 14.9535 30.061 14.9691 30.0564 14.9847C30.0518 15.0004 30.0475 15.0162 30.0437 15.032C30.0398 15.0479 30.0363 15.0639 30.0332 15.0799C30.0301 15.096 30.0274 15.1121 30.0251 15.1283C30.0227 15.1445 30.0208 15.1607 30.0192 15.177C30.0177 15.1933 30.0165 15.2096 30.0157 15.2259C30.015 15.2423 30.0146 15.2586 30.0146 15.275C30.0143 15.5159 30.0083 15.7567 29.9967 15.9973C29.985 16.2379 29.9675 16.4781 29.9444 16.7178C29.9213 16.9576 29.8924 17.1966 29.858 17.4349C29.8234 17.6732 29.7833 17.9104 29.7375 18.1467C29.6917 18.3829 29.6403 18.6179 29.5833 18.8515C29.5263 19.0852 29.4638 19.3173 29.3957 19.5478C29.3277 19.7783 29.2542 20.0069 29.1753 20.2337C29.0964 20.4605 29.0121 20.6852 28.9225 20.9077C28.8328 21.1302 28.738 21.3504 28.6379 21.5681C28.5378 21.7858 28.4326 22.0009 28.3222 22.2133C28.2119 22.4258 28.0965 22.6353 27.9762 22.8419C27.8559 23.0485 27.7308 23.2519 27.6008 23.4522C27.4708 23.6525 27.3361 23.8494 27.1967 24.0429C27.0573 24.2363 26.9134 24.4262 26.765 24.6124C26.6166 24.7986 26.4639 24.981 26.3068 25.1595C26.1497 25.338 25.9884 25.5124 25.8231 25.6827C25.6577 25.8531 25.4883 26.0192 25.315 26.181C25.1417 26.3428 24.9647 26.5001 24.7839 26.653C24.6031 26.8058 24.4188 26.9541 24.2309 27.0976C24.0431 27.2412 23.8519 27.3799 23.6575 27.5138C23.463 27.6477 23.2655 27.7766 23.065 27.9005C22.8644 28.0244 22.661 28.1432 22.4547 28.2569C22.2485 28.3705 22.0397 28.4789 21.8282 28.582C21.6168 28.6851 21.4031 28.7828 21.1871 28.8751C20.971 28.9674 20.7529 29.0542 20.5327 29.1355C20.3125 29.2168 20.0906 29.2925 19.8668 29.3626C19.643 29.4327 19.4177 29.4971 19.1908 29.5557C18.964 29.6145 18.7358 29.6674 18.5065 29.7146C18.2771 29.7617 18.0468 29.8031 17.8154 29.8387C17.5841 29.8742 17.352 29.9039 17.1193 29.9277C16.8865 29.9516 16.6533 29.9695 16.4197 29.9816C16.1861 29.9936 15.9523 29.9997 15.7184 30C15.7025 30 15.6867 30.0004 15.6708 30.0012C15.6549 30.002 15.6391 30.0032 15.6233 30.0048C15.6075 30.0064 15.5917 30.0084 15.576 30.0108C15.5603 30.0132 15.5446 30.016 15.529 30.0192C15.5135 30.0224 15.498 30.026 15.4826 30.03C15.4671 30.0339 15.4518 30.0383 15.4366 30.0431C15.4214 30.0478 15.4063 30.0529 15.3914 30.0585C15.3764 30.064 15.3616 30.0698 15.3469 30.0761C15.3322 30.0824 15.3177 30.089 15.3033 30.096C15.289 30.103 15.2748 30.1103 15.2608 30.1181C15.2468 30.1258 15.2329 30.1339 15.2193 30.1423C15.2057 30.1507 15.1923 30.1594 15.1791 30.1685C15.1659 30.1776 15.1529 30.187 15.1401 30.1968C15.1273 30.2065 15.1148 30.2166 15.1025 30.227C15.0902 30.2374 15.0782 30.2481 15.0664 30.259C15.0547 30.27 15.0432 30.2813 15.0319 30.2929C15.0207 30.3045 15.0098 30.3163 14.9991 30.3284C14.9884 30.3406 14.978 30.3529 14.968 30.3656C14.9579 30.3782 14.9481 30.3912 14.9386 30.4043C14.9292 30.4174 14.92 30.4308 14.9112 30.4444C14.9024 30.458 14.8939 30.4719 14.8857 30.4859C14.8775 30.4999 14.8697 30.5142 14.8622 30.5286C14.8547 30.543 14.8476 30.5577 14.8408 30.5724C14.834 30.5872 14.8275 30.6022 14.8215 30.6173C14.8154 30.6324 14.8097 30.6477 14.8043 30.6631C14.799 30.6785 14.794 30.6941 14.7894 30.7097C14.7848 30.7254 14.7805 30.7412 14.7767 30.757C14.7728 30.7729 14.7693 30.7889 14.7662 30.8049C14.7631 30.821 14.7604 30.8371 14.7581 30.8533C14.7557 30.8695 14.7538 30.8857 14.7522 30.902C14.7507 30.9183 14.7495 30.9346 14.7488 30.9509C14.748 30.9673 14.7476 30.9836 14.7476 31C14.7476 31.0164 14.748 31.0327 14.7488 31.0491C14.7495 31.0654 14.7507 31.0817 14.7522 31.098C14.7538 31.1143 14.7557 31.1305 14.7581 31.1467C14.7604 31.1629 14.7631 31.179 14.7662 31.1951C14.7693 31.2111 14.7728 31.2271 14.7767 31.243C14.7805 31.2589 14.7848 31.2747 14.7894 31.2903C14.794 31.3059 14.799 31.3215 14.8043 31.3369C14.8097 31.3523 14.8154 31.3676 14.8215 31.3828C14.8275 31.3978 14.834 31.4127 14.8408 31.4275C14.8476 31.4423 14.8547 31.4569 14.8622 31.4712C14.8697 31.4858 14.8775 31.5001 14.8857 31.5141C14.8939 31.528 14.9024 31.5419 14.9112 31.5556C14.92 31.5692 14.9292 31.5825 14.9386 31.5956C14.9481 31.6087 14.9579 31.6217 14.968 31.6344C14.978 31.6471 14.9884 31.6595 14.9991 31.6716C15.0098 31.6837 15.0207 31.6955 15.0319 31.7072C15.0432 31.7187 15.0547 31.7299 15.0664 31.7409C15.0782 31.752 15.0902 31.7627 15.1025 31.7731C15.1148 31.7833 15.1273 31.7933 15.1401 31.8031C15.1529 31.8129 15.1659 31.8224 15.1791 31.8316C15.1923 31.8405 15.2057 31.8493 15.2193 31.8578C15.2329 31.8662 15.2468 31.8742 15.2608 31.8819C15.2748 31.8896 15.289 31.897 15.3033 31.9041C15.3177 31.9109 15.3322 31.9175 15.3469 31.9237C15.3616 31.93 15.3764 31.9359 15.3914 31.9416C15.4063 31.947 15.4214 31.9521 15.4366 31.9569C15.4518 31.9617 15.4671 31.966 15.4826 31.97C15.498 31.974 15.5135 31.9776 15.529 31.9809C15.5446 31.9841 15.5603 31.9868 15.576 31.9891C15.5917 31.9916 15.6075 31.9937 15.6233 31.9953C15.6391 31.9968 15.6549 31.9979 15.6708 31.9987C15.6867 31.9996 15.7025 32 15.7184 32C15.9841 31.9996 16.2496 31.9926 16.5149 31.9791C16.7802 31.9653 17.0451 31.9448 17.3094 31.9175C17.5738 31.8904 17.8373 31.8567 18.1001 31.8162C18.3628 31.7758 18.6245 31.7288 18.885 31.6753C19.1455 31.6218 19.4046 31.5616 19.6622 31.4947C19.9198 31.428 20.1757 31.3549 20.4299 31.2753C20.684 31.1957 20.9362 31.1097 21.1862 31.0174C21.4363 30.925 21.684 30.8264 21.9294 30.7216C22.1748 30.6167 22.4175 30.5057 22.6576 30.3886C22.8977 30.2714 23.1349 30.1483 23.3691 30.0192C23.6033 29.8902 23.8343 29.7552 24.0622 29.6145C24.29 29.4737 24.5143 29.3273 24.7351 29.1752C24.956 29.0231 25.1731 28.8655 25.3864 28.7025C25.5998 28.5394 25.8091 28.3711 26.0144 28.1975C26.2198 28.0239 26.4208 27.8452 26.6177 27.6614C26.8145 27.4776 27.0068 27.289 27.1947 27.0955C27.3825 26.902 27.5657 26.7039 27.7441 26.5012C27.9225 26.2985 28.096 26.0913 28.2646 25.8799C28.4331 25.6684 28.5965 25.4527 28.7549 25.233C28.9131 25.0133 29.0661 24.7897 29.2138 24.5622C29.3614 24.3347 29.5036 24.1037 29.6403 23.869C29.7769 23.6344 29.9079 23.3964 30.0333 23.1552C30.1586 22.9139 30.2781 22.6696 30.3917 22.4223C30.5056 22.175 30.6134 21.925 30.7151 21.6723C30.8168 21.4196 30.9126 21.1644 31.0024 20.9068C31.092 20.6492 31.1755 20.3896 31.2527 20.1278C31.33 19.866 31.401 19.6024 31.4657 19.337C31.5306 19.0717 31.5891 18.8048 31.6411 18.5365C31.6931 18.2682 31.7387 17.9987 31.7779 17.7281C31.8171 17.4574 31.85 17.186 31.8765 16.9137C31.9028 16.6414 31.9226 16.3686 31.936 16.0954C31.9491 15.8221 31.9559 15.5486 31.9563 15.275C31.9563 15.2586 31.9559 15.2423 31.9551 15.2259C31.9543 15.2096 31.9532 15.1933 31.9518 15.177C31.9502 15.1607 31.9481 15.1445 31.9457 15.1283C31.9435 15.1121 31.9408 15.096 31.9378 15.0799C31.9346 15.0639 31.931 15.0479 31.9272 15.032C31.9233 15.0162 31.9191 15.0004 31.9144 14.9847C31.9098 14.9691 31.9048 14.9535 31.8996 14.9381C31.8941 14.9227 31.8884 14.9074 31.8823 14.8923C31.8762 14.8772 31.8698 14.8622 31.8632 14.8474C31.8563 14.8326 31.8491 14.818 31.8416 14.8036C31.8341 14.7892 31.8264 14.7749 31.8183 14.7609C31.81 14.7469 31.8015 14.733 31.7928 14.7194C31.7839 14.7058 31.7747 14.6925 31.7652 14.6793C31.7557 14.6662 31.746 14.6533 31.736 14.6406C31.7259 14.6279 31.7155 14.6156 31.7048 14.6034C31.6941 14.5913 31.6832 14.5795 31.672 14.5679C31.6607 14.5563 31.6492 14.545 31.6374 14.5341C31.6257 14.5231 31.6137 14.5124 31.6013 14.502C31.589 14.4916 31.5765 14.4815 31.5637 14.4718C31.551 14.462 31.538 14.4526 31.5249 14.4435C31.5115 14.4344 31.4981 14.4257 31.4845 14.4173C31.471 14.4089 31.4571 14.4008 31.443 14.3931C31.429 14.3854 31.4148 14.378 31.4005 14.371C31.3861 14.364 31.3717 14.3574 31.3571 14.3511C31.3423 14.3449 31.3275 14.339 31.3125 14.3335C31.2975 14.3279 31.2825 14.3228 31.2673 14.3181C31.2521 14.3133 31.2369 14.3089 31.2215 14.305C31.2059 14.301 31.1903 14.2974 31.1748 14.2942C31.1592 14.291 31.1436 14.2882 31.128 14.2858C31.1123 14.2834 31.0965 14.2814 31.0807 14.2798C31.0647 14.2782 31.0488 14.277 31.0331 14.2762C31.0173 14.2754 31.0014 14.275 30.9854 14.275Z"   fill="#00BFFF" >
</path>
<path d="M15.7184 25.065C15.7025 25.065 15.6867 25.0654 15.6708 25.0662C15.6549 25.067 15.6391 25.0682 15.6233 25.0698C15.6075 25.0714 15.5917 25.0734 15.576 25.0758C15.5603 25.0782 15.5446 25.081 15.529 25.0842C15.5135 25.0874 15.498 25.091 15.4826 25.095C15.4671 25.0989 15.4518 25.1033 15.4366 25.1081C15.4214 25.1128 15.4063 25.1179 15.3914 25.1235C15.3764 25.129 15.3616 25.1348 15.3469 25.1411C15.3322 25.1474 15.3177 25.154 15.3033 25.161C15.289 25.168 15.2748 25.1754 15.2608 25.1831C15.2468 25.1908 15.2329 25.1989 15.2193 25.2073C15.2057 25.2157 15.1923 25.2244 15.1791 25.2335C15.1659 25.2426 15.1529 25.252 15.1401 25.2618C15.1273 25.2715 15.1148 25.2816 15.1025 25.292C15.0902 25.3024 15.0782 25.3131 15.0664 25.3241C15.0547 25.335 15.0432 25.3463 15.0319 25.3579C15.0207 25.3695 15.0098 25.3813 14.9991 25.3934C14.9884 25.4056 14.978 25.4179 14.968 25.4306C14.9579 25.4433 14.9481 25.4562 14.9386 25.4693C14.9292 25.4825 14.92 25.4958 14.9112 25.5094C14.9024 25.523 14.8939 25.5369 14.8857 25.5509C14.8775 25.5649 14.8697 25.5792 14.8622 25.5936C14.8547 25.608 14.8476 25.6227 14.8408 25.6374C14.834 25.6522 14.8275 25.6672 14.8215 25.6823C14.8154 25.6974 14.8097 25.7127 14.8043 25.7281C14.799 25.7435 14.794 25.7591 14.7894 25.7747C14.7848 25.7904 14.7805 25.8062 14.7767 25.822C14.7728 25.8379 14.7693 25.8539 14.7662 25.8699C14.7631 25.8859 14.7604 25.9021 14.7581 25.9183C14.7557 25.9345 14.7538 25.9507 14.7522 25.967C14.7507 25.9833 14.7495 25.9996 14.7488 26.0159C14.748 26.0323 14.7476 26.0486 14.7476 26.065C14.7476 26.0814 14.748 26.0977 14.7488 26.1141C14.7495 26.1304 14.7507 26.1468 14.7522 26.163C14.7538 26.1793 14.7557 26.1955 14.7581 26.2117C14.7604 26.2279 14.7631 26.244 14.7662 26.2601C14.7693 26.2761 14.7728 26.2921 14.7767 26.308C14.7805 26.3238 14.7848 26.3396 14.7894 26.3553C14.794 26.3709 14.799 26.3865 14.8043 26.4019C14.8097 26.4173 14.8154 26.4326 14.8215 26.4477C14.8275 26.4628 14.834 26.4778 14.8408 26.4926C14.8476 26.5073 14.8547 26.522 14.8622 26.5364C14.8697 26.5508 14.8775 26.5651 14.8857 26.5791C14.8939 26.5931 14.9024 26.607 14.9112 26.6206C14.92 26.6342 14.9292 26.6475 14.9386 26.6607C14.9481 26.6738 14.9579 26.6868 14.968 26.6994C14.978 26.7121 14.9884 26.7244 14.9991 26.7366C15.0098 26.7487 15.0207 26.7605 15.0319 26.7721C15.0432 26.7837 15.0547 26.795 15.0664 26.8059C15.0782 26.8169 15.0902 26.8276 15.1025 26.838C15.1148 26.8484 15.1273 26.8585 15.1401 26.8682C15.1529 26.878 15.1659 26.8874 15.1791 26.8965C15.1923 26.9056 15.2057 26.9143 15.2193 26.9227C15.2329 26.9311 15.2468 26.9392 15.2608 26.9469C15.2748 26.9547 15.289 26.962 15.3033 26.969C15.3177 26.976 15.3322 26.9826 15.3469 26.9889C15.3616 26.9952 15.3764 27.001 15.3914 27.0065C15.4063 27.0121 15.4214 27.0172 15.4366 27.0219C15.4518 27.0267 15.4671 27.0311 15.4826 27.035C15.498 27.039 15.5135 27.0426 15.529 27.0458C15.5446 27.049 15.5603 27.0518 15.576 27.0542C15.5917 27.0566 15.6075 27.0586 15.6233 27.0602C15.6391 27.0618 15.6549 27.063 15.6708 27.0638C15.6867 27.0646 15.7025 27.065 15.7184 27.065C15.9047 27.0647 16.0909 27.0597 16.2769 27.0499C16.4629 27.0402 16.6486 27.0258 16.8339 27.0067C17.0193 26.9876 17.204 26.9638 17.3882 26.9354C17.5725 26.907 17.7559 26.874 17.9385 26.8363C18.1211 26.7986 18.3028 26.7563 18.4834 26.7095C18.664 26.6627 18.8434 26.6113 19.0216 26.5554C19.1998 26.4995 19.3765 26.4391 19.5519 26.3743C19.7272 26.3095 19.9008 26.2403 20.0728 26.1667C20.2448 26.0931 20.415 26.0152 20.5833 25.933C20.7516 25.8508 20.9179 25.7645 21.0821 25.6739C21.2463 25.5833 21.4083 25.4887 21.5679 25.3899C21.7276 25.2912 21.8849 25.1885 22.0397 25.0818C22.1945 24.9751 22.3467 24.8646 22.4962 24.7503C22.6458 24.6359 22.7925 24.5178 22.9365 24.3961C23.0804 24.2743 23.2214 24.149 23.3593 24.0201C23.4973 23.8912 23.6322 23.7589 23.7638 23.6232C23.8955 23.4875 24.0239 23.3486 24.149 23.2064C24.274 23.0643 24.3956 22.919 24.5138 22.7707C24.632 22.6224 24.7465 22.4712 24.8575 22.3171C24.9684 22.163 25.0757 22.0063 25.1792 21.8468C25.2827 21.6873 25.3824 21.5252 25.4782 21.3607C25.574 21.1962 25.6658 21.0293 25.7536 20.8602C25.8415 20.691 25.9253 20.5197 26.005 20.3463C26.0847 20.1729 26.1603 19.9976 26.2316 19.8204C26.303 19.6432 26.3701 19.4643 26.433 19.2837C26.4958 19.1031 26.5544 18.921 26.6086 18.7375C26.6628 18.5539 26.7126 18.3691 26.758 18.1831C26.8034 17.997 26.8443 17.8099 26.8808 17.6218C26.9173 17.4336 26.9493 17.2447 26.9769 17.0549C27.0044 16.8652 27.0274 16.6749 27.0458 16.484C27.0643 16.2931 27.0782 16.1018 27.0876 15.9102C27.0969 15.7186 27.1017 15.5269 27.1019 15.335C27.1019 15.3186 27.1015 15.3023 27.1008 15.2859C27.1 15.2696 27.0988 15.2533 27.0973 15.237C27.0957 15.2207 27.0938 15.2045 27.0914 15.1883C27.0891 15.1721 27.0864 15.156 27.0833 15.1399C27.0802 15.1239 27.0767 15.1079 27.0728 15.092C27.069 15.0762 27.0647 15.0604 27.0601 15.0447C27.0555 15.0291 27.0505 15.0135 27.0452 14.9981C27.0398 14.9827 27.0341 14.9674 27.028 14.9523C27.0219 14.9372 27.0155 14.9222 27.0087 14.9074C27.0019 14.8927 26.9948 14.878 26.9873 14.8636C26.9798 14.8492 26.972 14.835 26.9638 14.8209C26.9556 14.8069 26.9471 14.793 26.9383 14.7794C26.9295 14.7658 26.9204 14.7525 26.9109 14.7393C26.9014 14.7262 26.8917 14.7133 26.8816 14.7006C26.8715 14.688 26.8611 14.6756 26.8504 14.6634C26.8398 14.6513 26.8288 14.6395 26.8176 14.6279C26.8063 14.6163 26.7948 14.605 26.7831 14.5941C26.7713 14.5831 26.7593 14.5724 26.747 14.562C26.7347 14.5516 26.7222 14.5415 26.7094 14.5318C26.6966 14.522 26.6836 14.5126 26.6704 14.5035C26.6573 14.4945 26.6438 14.4857 26.6302 14.4773C26.6166 14.4689 26.6027 14.4608 26.5887 14.4531C26.5747 14.4454 26.5605 14.438 26.5462 14.431C26.5318 14.424 26.5173 14.4174 26.5026 14.4111C26.4879 14.4049 26.4731 14.399 26.4581 14.3935C26.4432 14.388 26.4281 14.3828 26.4129 14.3781C26.3977 14.3733 26.3824 14.369 26.367 14.365C26.3515 14.361 26.336 14.3574 26.3205 14.3542C26.3049 14.351 26.2892 14.3482 26.2735 14.3458C26.2578 14.3434 26.2421 14.3414 26.2262 14.3398C26.2104 14.3382 26.1946 14.337 26.1787 14.3362C26.1628 14.3354 26.147 14.335 26.1311 14.335C26.1152 14.335 26.0993 14.3354 26.0834 14.3362C26.0676 14.337 26.0517 14.3382 26.0359 14.3398C26.0201 14.3414 26.0043 14.3434 25.9886 14.3458C25.9729 14.3482 25.9573 14.351 25.9417 14.3542C25.9261 14.3574 25.9106 14.361 25.8952 14.365C25.8798 14.369 25.8644 14.3733 25.8492 14.3781C25.834 14.3828 25.8189 14.388 25.804 14.3935C25.789 14.399 25.7742 14.4049 25.7595 14.4111C25.7448 14.4174 25.7303 14.424 25.716 14.431C25.7016 14.438 25.6874 14.4454 25.6734 14.4531C25.6594 14.4608 25.6456 14.4689 25.6319 14.4773C25.6183 14.4857 25.6049 14.4945 25.5917 14.5035C25.5785 14.5126 25.5655 14.522 25.5527 14.5318C25.54 14.5415 25.5274 14.5516 25.5151 14.562C25.5029 14.5724 25.4908 14.5831 25.4791 14.5941C25.4673 14.605 25.4558 14.6163 25.4446 14.6279C25.4333 14.6395 25.4224 14.6513 25.4117 14.6634C25.401 14.6756 25.3907 14.688 25.3806 14.7006C25.3705 14.7133 25.3607 14.7262 25.3512 14.7393C25.3418 14.7525 25.3326 14.7658 25.3238 14.7794C25.315 14.793 25.3065 14.8069 25.2983 14.8209C25.2902 14.835 25.2823 14.8492 25.2748 14.8636C25.2674 14.878 25.2602 14.8927 25.2534 14.9074C25.2466 14.9222 25.2402 14.9372 25.2341 14.9523C25.228 14.9674 25.2223 14.9827 25.217 14.9981C25.2116 15.0135 25.2066 15.0291 25.202 15.0447C25.1974 15.0604 25.1931 15.0762 25.1893 15.092C25.1854 15.1079 25.1819 15.1239 25.1789 15.1399C25.1758 15.156 25.173 15.1721 25.1707 15.1883C25.1684 15.2045 25.1664 15.2207 25.1649 15.237C25.1633 15.2533 25.1621 15.2696 25.1614 15.2859C25.1606 15.3023 25.1602 15.3186 25.1602 15.335C25.16 15.4942 25.1561 15.6532 25.1484 15.8121C25.1406 15.9711 25.1291 16.1297 25.1139 16.2881C25.0986 16.4465 25.0796 16.6043 25.0568 16.7617C25.034 16.9191 25.0074 17.0759 24.9772 17.2319C24.9469 17.388 24.913 17.5432 24.8754 17.6975C24.8377 17.8519 24.7965 18.0052 24.7515 18.1575C24.7066 18.3097 24.6581 18.4608 24.6059 18.6106C24.5538 18.7604 24.4982 18.9088 24.439 19.0558C24.3798 19.2028 24.3172 19.3483 24.2511 19.4921C24.185 19.6359 24.1155 19.778 24.0426 19.9183C23.9698 20.0587 23.8936 20.1971 23.8141 20.3336C23.7347 20.4701 23.652 20.6045 23.5662 20.7368C23.4803 20.8691 23.3914 20.9992 23.2994 21.127C23.2073 21.2548 23.1123 21.3803 23.0143 21.5033C22.9163 21.6263 22.8154 21.7468 22.7117 21.8647C22.608 21.9827 22.5015 22.0979 22.3922 22.2105C22.283 22.323 22.1712 22.4328 22.0567 22.5397C21.9423 22.6466 21.8253 22.7505 21.7059 22.8516C21.5866 22.9526 21.4648 23.0505 21.3408 23.1454C21.2167 23.2402 21.0905 23.3319 20.9621 23.4204C20.8336 23.5089 20.7032 23.5941 20.5708 23.676C20.4383 23.7579 20.3039 23.8364 20.1677 23.9115C20.0315 23.9867 19.8936 24.0583 19.754 24.1265C19.6144 24.1946 19.4732 24.2592 19.3305 24.3203C19.1878 24.3813 19.0438 24.4387 18.8983 24.4924C18.7529 24.5462 18.6063 24.5963 18.4585 24.6426C18.3107 24.689 18.1619 24.7316 18.012 24.7704C17.8622 24.8093 17.7115 24.8443 17.56 24.8755C17.4085 24.9068 17.2564 24.9342 17.1036 24.9577C16.9508 24.9813 16.7975 25.001 16.6438 25.0168C16.49 25.0326 16.336 25.0445 16.1817 25.0526C16.0274 25.0606 15.873 25.0648 15.7184 25.065Z"   fill="#00BFFF" >
</path>
<path d="M22.2864 15.03C22.2874 14.9041 22.2853 14.7782 22.2802 14.6525C22.2752 14.5267 22.2672 14.4011 22.2561 14.2757C22.245 14.1503 22.231 14.0253 22.214 13.9007C22.197 13.776 22.177 13.6518 22.154 13.5282C22.1311 13.4045 22.1052 13.2815 22.0764 13.1592C22.0476 13.0368 22.0159 12.9152 21.9812 12.7945C21.9466 12.6738 21.9091 12.554 21.8688 12.4352C21.8284 12.3163 21.7853 12.1986 21.7393 12.0819C21.6934 11.9652 21.6446 11.8498 21.5932 11.7356C21.5417 11.6214 21.4875 11.5086 21.4306 11.3972C21.3738 11.2857 21.3143 11.1758 21.2522 11.0674C21.1901 10.9589 21.1254 10.8522 21.0582 10.747C20.991 10.6418 20.9213 10.5384 20.8492 10.4368C20.777 10.3352 20.7025 10.2355 20.6256 10.1376C20.5487 10.0398 20.4695 9.94394 20.388 9.85009C20.3065 9.75625 20.2228 9.6645 20.137 9.57491C20.0511 9.48531 19.9632 9.39797 19.8731 9.31281C19.7831 9.22766 19.6911 9.14484 19.5971 9.06434C19.5031 8.98387 19.4072 8.90581 19.3095 8.83019C19.2118 8.75456 19.1123 8.68144 19.0111 8.61084C18.9099 8.54025 18.8071 8.47228 18.7026 8.40691C18.5982 8.3415 18.4922 8.27881 18.3848 8.21878C18.2773 8.15878 18.1685 8.10153 18.0583 8.04703C17.9482 7.9925 17.8368 7.94081 17.7241 7.89197C17.6115 7.84312 17.4977 7.79712 17.3828 7.75403C17.268 7.71094 17.1522 7.67075 17.0354 7.63353C16.9187 7.59631 16.8011 7.56206 16.6827 7.53078C16.5643 7.4995 16.4452 7.47122 16.3255 7.446C16.2057 7.42075 16.0854 7.39856 15.9646 7.37941C15.8439 7.36025 15.7227 7.34416 15.6011 7.33116C15.4795 7.31812 15.3577 7.30819 15.2356 7.30134C15.1136 7.2945 14.9915 7.29075 14.8692 7.29009C14.747 7.28944 14.6248 7.29187 14.5027 7.29741C14.3806 7.30294 14.2587 7.31156 14.137 7.32328C14.0153 7.335 13.8939 7.34978 13.773 7.36762C13.652 7.38547 13.5315 7.40637 13.4115 7.43034C13.2915 7.45428 13.1721 7.48125 13.0534 7.51128C12.9347 7.54128 12.8168 7.57425 12.6996 7.61022C12.5825 7.64619 12.4663 7.68512 12.351 7.727C12.2358 7.76884 12.1216 7.81359 12.0084 7.86125C11.8953 7.90891 11.7834 7.95937 11.6726 8.01269C11.5619 8.066 11.4525 8.12209 11.3445 8.18097C11.2364 8.23981 11.1298 8.30137 11.0247 8.36562C10.9196 8.42987 10.8161 8.49675 10.7142 8.56625C10.6123 8.63575 10.5121 8.70778 10.4136 8.78237C10.3151 8.85694 10.2185 8.93397 10.1236 9.01344C10.0289 9.09291 9.936 9.17475 9.8451 9.25891C9.75423 9.34306 9.6654 9.4295 9.57862 9.51816C9.49185 9.60684 9.40726 9.69766 9.32483 9.79062C9.2424 9.88359 9.16224 9.97856 9.08433 10.0756C9.00644 10.1726 8.9309 10.2715 8.85772 10.3724C8.78454 10.4732 8.71382 10.5758 8.64555 10.6803C8.57729 10.7847 8.51157 10.8908 8.44835 10.9986C8.38515 11.1063 8.32456 11.2156 8.26655 11.3264C8.20857 11.4372 8.15326 11.5495 8.10062 11.6631C8.04801 11.7767 7.9981 11.8916 7.95095 12.0078C7.90381 12.1239 7.85948 12.2412 7.81791 12.3596C7.77638 12.478 7.7377 12.5974 7.70183 12.7178C7.666 12.8381 7.63305 12.9593 7.60299 13.0813C7.57295 13.2034 7.5458 13.3261 7.52158 13.4495C7.4974 13.5729 7.47617 13.6969 7.45787 13.8213C7.43961 13.9458 7.42428 14.0707 7.41197 14.1959C7.39965 14.3212 7.39034 14.4467 7.38399 14.5724C7.37768 14.6981 7.37435 14.8239 7.37401 14.9498C7.37371 15.0757 7.37641 15.2016 7.38208 15.3273C7.38779 15.4531 7.39646 15.5786 7.40811 15.704C7.41983 15.8293 7.43448 15.9542 7.45211 16.0788C7.46976 16.2034 7.4904 16.3274 7.51394 16.451C7.53751 16.5745 7.56403 16.6974 7.59346 16.8196C7.62289 16.9417 7.65523 17.0631 7.69046 17.1837C7.72571 17.3042 7.76379 17.4238 7.80472 17.5424C7.84567 17.6611 7.88942 17.7786 7.93597 17.895C7.98251 18.0114 8.03181 18.1266 8.08384 18.2405C8.13591 18.3544 8.19067 18.4669 8.24807 18.578C8.3055 18.6892 8.36555 18.7988 8.4282 18.9069C8.49085 19.015 8.55605 19.1214 8.62377 19.2262C8.69152 19.331 8.76172 19.434 8.83439 19.5353C8.90705 19.6365 8.98208 19.7358 9.05945 19.8333C9.13688 19.9307 9.21655 20.0262 9.2985 20.1196C9.38047 20.213 9.46461 20.3042 9.55089 20.3934C9.63724 20.4825 9.72562 20.5694 9.81606 20.6541C9.90654 20.7387 9.99898 20.8211 10.0934 20.901C10.1878 20.981 10.284 21.0586 10.3821 21.1337C10.4802 21.2088 10.58 21.2814 10.6816 21.3514C10.7832 21.4214 10.8863 21.4889 10.9911 21.5537C11.0959 21.6185 11.2022 21.6807 11.3099 21.7401C11.4177 21.7996 11.5268 21.8562 11.6372 21.9102C11.7477 21.9641 11.8594 22.0151 11.9722 22.0634C12.0851 22.1117 12.1991 22.157 12.3142 22.1995C12.4292 22.242 12.5452 22.2816 12.6622 22.3182C12.7791 22.3547 12.8969 22.3884 13.0154 22.419C13.134 22.4497 13.2532 22.4773 13.3731 22.5019C13.4929 22.5265 13.6133 22.5481 13.7342 22.5666C13.8551 22.5851 13.9764 22.6005 14.098 22.6129C14.2197 22.6252 14.3415 22.6345 14.4636 22.6407C14.5857 22.6469 14.7079 22.65 14.8301 22.65C14.9515 22.6501 15.0729 22.6471 15.1942 22.6411C15.3155 22.6351 15.4366 22.626 15.5575 22.6138C15.6784 22.6017 15.7989 22.5866 15.919 22.5684C16.0392 22.5502 16.1588 22.529 16.278 22.5047C16.3971 22.4805 16.5156 22.4533 16.6334 22.4231C16.7513 22.3929 16.8684 22.3598 16.9847 22.3237C17.101 22.2876 17.2163 22.2487 17.3307 22.2067C17.4452 22.1648 17.5585 22.1201 17.6708 22.0725C17.7831 22.0249 17.8943 21.9745 18.0042 21.9213C18.1141 21.8681 18.2227 21.8122 18.3299 21.7535C18.4372 21.6948 18.543 21.6335 18.6473 21.5695C18.7517 21.5055 18.8545 21.4389 18.9557 21.3697C19.0568 21.3006 19.1563 21.2289 19.2541 21.1547C19.3519 21.0806 19.4479 21.004 19.542 20.9249C19.6362 20.8459 19.7284 20.7646 19.8186 20.6809C19.9089 20.5973 19.9972 20.5114 20.0834 20.4233C20.1696 20.3352 20.2537 20.245 20.3356 20.1526C20.4175 20.0603 20.4973 19.9659 20.5747 19.8696C20.6521 19.7732 20.7273 19.675 20.8 19.5749C20.8728 19.4747 20.9432 19.3728 21.0111 19.2692C21.0791 19.1655 21.1446 19.0602 21.2075 18.9532C21.2704 18.8462 21.3308 18.7377 21.3886 18.6277C21.4464 18.5177 21.5016 18.4063 21.554 18.2935C21.6066 18.1807 21.6564 18.0667 21.7035 17.9514C21.7506 17.8361 21.7949 17.7197 21.8365 17.6021C21.878 17.4846 21.9168 17.3661 21.9527 17.2466C21.9887 17.1271 22.0218 17.0068 22.052 16.8857C22.0822 16.7645 22.1096 16.6427 22.134 16.5201C22.1585 16.3976 22.18 16.2745 22.1986 16.1509C22.2172 16.0273 22.2329 15.9033 22.2456 15.7789C22.2583 15.6545 22.2681 15.5299 22.2749 15.405C22.2817 15.2801 22.2855 15.1551 22.2864 15.03ZM9.31552 15.03C9.31458 14.9368 9.31585 14.8437 9.31931 14.7506C9.32283 14.6575 9.32853 14.5646 9.33645 14.4718C9.3444 14.379 9.35456 14.2864 9.36691 14.1941C9.37926 14.1018 9.39379 14.0099 9.41054 13.9183C9.42729 13.8268 9.44622 13.7357 9.46734 13.6451C9.48845 13.5545 9.51169 13.4645 9.53706 13.3751C9.56248 13.2857 9.59 13.197 9.61961 13.109C9.64925 13.0209 9.68099 12.9337 9.71479 12.8473C9.74859 12.7609 9.78445 12.6754 9.82231 12.5908C9.86021 12.5062 9.9001 12.4226 9.94197 12.34C9.98384 12.2574 10.0277 12.176 10.0734 12.0956C10.1192 12.0153 10.1669 11.9361 10.2164 11.8582C10.266 11.7802 10.3174 11.7036 10.3706 11.6283C10.4238 11.5529 10.4788 11.479 10.5355 11.4064C10.5923 11.3339 10.6507 11.2628 10.7109 11.1932C10.771 11.1237 10.8328 11.0557 10.8962 10.9892C10.9596 10.9227 11.0245 10.8579 11.091 10.7947C11.1575 10.7316 11.2254 10.6702 11.2949 10.6104C11.3643 10.5507 11.4351 10.4928 11.5073 10.4367C11.5795 10.3805 11.653 10.3262 11.7277 10.2738C11.8026 10.2214 11.8785 10.171 11.9557 10.1224C12.0329 10.0738 12.1112 10.0273 12.1906 9.98269C12.2701 9.93809 12.3505 9.89556 12.432 9.85506C12.5134 9.81453 12.5958 9.77612 12.6791 9.73978C12.7624 9.70344 12.8465 9.66925 12.9314 9.63716C13.0163 9.60509 13.102 9.57519 13.1883 9.54747C13.2746 9.51975 13.3616 9.49422 13.4492 9.47087C13.5368 9.44756 13.6248 9.42647 13.7134 9.40759C13.802 9.38875 13.891 9.37212 13.9803 9.35778C14.0697 9.34344 14.1594 9.33134 14.2493 9.32156C14.3393 9.31175 14.4294 9.30422 14.5197 9.299C14.61 9.29375 14.7004 9.29081 14.7908 9.29016C14.8813 9.2895 14.9717 9.29112 15.0621 9.29503C15.1524 9.29897 15.2427 9.30519 15.3327 9.31369C15.4228 9.32215 15.5126 9.33294 15.6022 9.346C15.6918 9.35903 15.7809 9.37434 15.8698 9.39194C15.9586 9.4095 16.047 9.42931 16.1348 9.45134C16.2227 9.47337 16.31 9.49765 16.3967 9.52412C16.4835 9.55059 16.5695 9.57925 16.6548 9.61009C16.7402 9.64094 16.8248 9.67391 16.9085 9.70903C16.9923 9.74412 17.0752 9.78134 17.1572 9.82069C17.2392 9.86 17.3202 9.90137 17.4003 9.94481C17.4803 9.98822 17.5592 10.0337 17.6371 10.0811C17.7149 10.1285 17.7916 10.1779 17.8671 10.2292C17.9426 10.2805 18.0168 10.3337 18.0898 10.3888C18.1627 10.4439 18.2343 10.5007 18.3046 10.5594C18.3748 10.6182 18.4436 10.6786 18.5109 10.7408C18.5783 10.803 18.6441 10.8668 18.7084 10.9324C18.7727 10.9979 18.8354 11.065 18.8965 11.1337C18.9576 11.2024 19.017 11.2726 19.0747 11.3443C19.1325 11.4161 19.1885 11.4892 19.2427 11.5637C19.2969 11.6383 19.3494 11.7142 19.4 11.7914C19.4506 11.8686 19.4994 11.9471 19.5462 12.0267C19.5931 12.1064 19.638 12.1872 19.6811 12.2692C19.7241 12.3512 19.7651 12.4342 19.8041 12.5182C19.8432 12.6022 19.8802 12.6872 19.9152 12.7731C19.9502 12.859 19.9831 12.9457 20.0139 13.0333C20.0447 13.1209 20.0735 13.2092 20.1001 13.2983C20.1267 13.3873 20.1512 13.477 20.1735 13.5672C20.1959 13.6575 20.216 13.7483 20.234 13.8396C20.252 13.9309 20.2679 14.0227 20.2815 14.1147C20.2951 14.2068 20.3065 14.2992 20.3157 14.3919C20.3249 14.4846 20.3319 14.5775 20.3367 14.6705C20.3415 14.7635 20.344 14.8566 20.3443 14.9498C20.3446 15.0429 20.3427 15.1361 20.3386 15.2291C20.3345 15.3222 20.3281 15.4151 20.3196 15.5078C20.311 15.6006 20.3002 15.6931 20.2872 15.7853C20.2743 15.8775 20.2591 15.9693 20.2417 16.0607C20.2243 16.1522 20.2048 16.2431 20.1831 16.3335C20.1614 16.424 20.1375 16.5138 20.1115 16.603C20.0855 16.6922 20.0574 16.7808 20.0271 16.8686C19.9969 16.9564 19.9646 17.0434 19.9302 17.1296C19.8958 17.2157 19.8594 17.301 19.8209 17.3853C19.7825 17.4696 19.742 17.5529 19.6996 17.6352C19.6571 17.7175 19.6128 17.7986 19.5664 17.8786C19.5201 17.9587 19.4719 18.0374 19.4218 18.115C19.3718 18.1926 19.3199 18.2689 19.2661 18.3438C19.2124 18.4188 19.1569 18.4923 19.0997 18.5644C19.0425 18.6366 18.9835 18.7072 18.9229 18.7764C18.8623 18.8455 18.8 18.9131 18.7362 18.9791C18.6724 19.0451 18.607 19.1094 18.5401 19.1721C18.4732 19.2348 18.4048 19.2957 18.3349 19.355C18.2651 19.4142 18.1939 19.4716 18.1213 19.5272C18.0488 19.5828 17.9749 19.6366 17.8998 19.6884C17.8246 19.7403 17.7483 19.7902 17.6708 19.8382C17.5933 19.8862 17.5146 19.9322 17.4349 19.9762C17.3552 20.0202 17.2745 20.0622 17.1927 20.1021C17.111 20.142 17.0284 20.1799 16.9449 20.2156C16.8613 20.2513 16.777 20.2849 16.6919 20.3164C16.6067 20.3479 16.5209 20.3772 16.4343 20.4042C16.3478 20.4313 16.2607 20.4562 16.1729 20.4789C16.0852 20.5016 15.997 20.5221 15.9083 20.5403C15.8196 20.5585 15.7305 20.5745 15.641 20.5882C15.5516 20.6019 15.4618 20.6133 15.3718 20.6225C15.2818 20.6317 15.1916 20.6385 15.1013 20.6431C15.0109 20.6477 14.9206 20.65 14.8301 20.65C14.7404 20.6503 14.6507 20.6484 14.561 20.6442C14.4714 20.64 14.3819 20.6336 14.2926 20.6248C14.2033 20.6161 14.1142 20.6052 14.0253 20.592C13.9365 20.5787 13.8481 20.5633 13.76 20.5457C13.6719 20.528 13.5844 20.5081 13.4972 20.486C13.4101 20.4639 13.3235 20.4397 13.2375 20.4132C13.1516 20.3867 13.0663 20.3581 12.9817 20.3274C12.8971 20.2966 12.8132 20.2637 12.7302 20.2287C12.6471 20.1937 12.5649 20.1567 12.4836 20.1176C12.4024 20.0784 12.3221 20.0372 12.2427 19.9941C12.1634 19.9509 12.0851 19.9057 12.0079 19.8586C11.9307 19.8114 11.8547 19.7624 11.7799 19.7114C11.705 19.6604 11.6314 19.6076 11.5591 19.5529C11.4868 19.4982 11.4158 19.4418 11.3461 19.3835C11.2765 19.3252 11.2082 19.2652 11.1414 19.2035C11.0746 19.1418 11.0094 19.0785 10.9456 19.0135C10.8818 18.9484 10.8196 18.8819 10.759 18.8137C10.6983 18.7456 10.6394 18.6759 10.5821 18.6048C10.5248 18.5337 10.4692 18.4612 10.4153 18.3873C10.3615 18.3133 10.3094 18.2381 10.2591 18.1616C10.2088 18.085 10.1604 18.0072 10.1138 17.9282C10.0672 17.8492 10.0226 17.7691 9.97978 17.6879C9.93703 17.6066 9.89622 17.5243 9.85732 17.441C9.81849 17.3577 9.78163 17.2735 9.74677 17.1883C9.71194 17.1032 9.67914 17.0172 9.64837 16.9303C9.61761 16.8435 9.58894 16.756 9.56233 16.6677C9.53575 16.5794 9.51127 16.4906 9.48888 16.401C9.46652 16.3115 9.44628 16.2215 9.4282 16.131C9.41012 16.0405 9.39419 15.9495 9.38041 15.8582C9.36664 15.7669 9.35505 15.6752 9.34564 15.5833C9.33624 15.4914 9.32905 15.3993 9.32401 15.3071C9.31898 15.2148 9.31615 15.1224 9.31552 15.03ZM21.2427 9.29C21.2584 9.29003 21.274 9.28966 21.2897 9.28887C21.3054 9.28809 21.321 9.28694 21.3366 9.28541C21.3522 9.28384 21.3678 9.28191 21.3833 9.27959C21.3988 9.27725 21.4143 9.27456 21.4297 9.27147C21.4451 9.26837 21.4604 9.26487 21.4756 9.26103C21.4908 9.25716 21.5059 9.2529 21.5209 9.24831C21.536 9.24369 21.5509 9.23869 21.5657 9.23334C21.5805 9.228 21.5952 9.22228 21.6097 9.21619C21.6242 9.21009 21.6386 9.20362 21.6528 9.19684C21.667 9.19003 21.6811 9.18287 21.6949 9.17534C21.7088 9.16784 21.7225 9.16 21.736 9.15181C21.7495 9.14362 21.7628 9.13509 21.776 9.12625C21.7891 9.1174 21.802 9.10822 21.8146 9.09872C21.8273 9.08922 21.8398 9.07941 21.852 9.06928C21.8642 9.05916 21.8762 9.04872 21.8879 9.038C21.8996 9.02728 21.9111 9.01628 21.9223 9.005L25.0437 5.84C25.0559 5.82878 25.0679 5.81722 25.0795 5.80537C25.0912 5.79353 25.1025 5.78141 25.1136 5.76894C25.1246 5.7565 25.1354 5.74378 25.1458 5.73078C25.1563 5.71778 25.1664 5.70453 25.1762 5.691C25.186 5.67747 25.1954 5.66369 25.2045 5.64966C25.2136 5.63562 25.2224 5.62137 25.2308 5.60691C25.2392 5.59244 25.2473 5.57775 25.2549 5.56284C25.2626 5.54794 25.2699 5.53287 25.2769 5.51759C25.2838 5.50231 25.2904 5.48684 25.2966 5.47125C25.3027 5.45562 25.3086 5.43984 25.314 5.42391C25.3194 5.408 25.3244 5.39194 25.329 5.37575C25.3336 5.35956 25.3378 5.34328 25.3417 5.32687C25.3455 5.31047 25.3489 5.29397 25.3519 5.27737C25.355 5.26078 25.3575 5.24416 25.3597 5.22744C25.3619 5.21072 25.3637 5.19394 25.3651 5.17716C25.3665 5.16034 25.3674 5.1435 25.3679 5.12662C25.3685 5.10978 25.3686 5.09291 25.3683 5.07603C25.368 5.05919 25.3673 5.04234 25.3662 5.0255C25.3651 5.00866 25.3636 4.99187 25.3616 4.97512C25.3597 4.95837 25.3574 4.94169 25.3546 4.92503C25.3518 4.90841 25.3486 4.89187 25.3451 4.87541C25.3415 4.85894 25.3375 4.84259 25.3331 4.82631C25.3288 4.81006 25.324 4.79394 25.3188 4.77794C25.3137 4.76191 25.3081 4.74606 25.3021 4.73034C25.2962 4.71462 25.2899 4.69906 25.2831 4.68369C25.2764 4.66828 25.2694 4.65309 25.2619 4.63806C25.2544 4.62303 25.2466 4.60822 25.2384 4.59362C25.2302 4.579 25.2217 4.56462 25.2128 4.55047C25.2039 4.53631 25.1947 4.52237 25.1851 4.50869C25.1755 4.495 25.1656 4.48156 25.1554 4.46841C25.1451 4.45525 25.1346 4.44234 25.1237 4.42972C25.1128 4.41712 25.1016 4.40478 25.0902 4.39275C25.0787 4.38072 25.0669 4.36897 25.0548 4.35756C25.0428 4.34616 25.0305 4.33506 25.0179 4.32428C25.0053 4.3135 24.9924 4.30303 24.9793 4.29294C24.9662 4.28284 24.9528 4.27306 24.9392 4.26366C24.9256 4.25425 24.9118 4.24519 24.8978 4.2365C24.8838 4.22781 24.8695 4.2195 24.855 4.21153C24.8406 4.20359 24.826 4.19603 24.8111 4.18884C24.7963 4.18166 24.7814 4.17484 24.7662 4.16844C24.7511 4.16203 24.7358 4.15603 24.7203 4.15044C24.7049 4.14484 24.6893 4.13962 24.6736 4.13481C24.6579 4.13003 24.6421 4.12566 24.6261 4.12169C24.6102 4.11772 24.5942 4.11416 24.5781 4.111C24.562 4.10787 24.5459 4.10516 24.5297 4.10287C24.5134 4.10059 24.4971 4.09872 24.4808 4.09725C24.4645 4.09581 24.4482 4.09478 24.4318 4.09419C24.4154 4.09359 24.399 4.09344 24.3827 4.09369C24.3663 4.09394 24.35 4.09462 24.3336 4.09575C24.3173 4.09684 24.301 4.09837 24.2847 4.10034C24.2684 4.10231 24.2522 4.10472 24.2361 4.1075C24.2199 4.11031 24.2038 4.11353 24.1878 4.11719C24.1719 4.12084 24.156 4.12491 24.1402 4.12937C24.1244 4.13384 24.1087 4.13872 24.0931 4.144C24.0776 4.14928 24.0622 4.155 24.0469 4.16109C24.0316 4.16719 24.0165 4.17366 24.0016 4.18056C23.9866 4.18744 23.9718 4.19469 23.9572 4.20234C23.9426 4.21 23.9282 4.21803 23.914 4.22644C23.8998 4.23484 23.8858 4.24359 23.8721 4.25275C23.8583 4.26187 23.8448 4.27134 23.8314 4.28119C23.8182 4.29103 23.8051 4.30119 23.7923 4.31172C23.7795 4.32225 23.7669 4.33309 23.7547 4.34425C23.7424 4.35544 23.7304 4.36694 23.7187 4.37872C23.707 4.3905 23.6956 4.40259 23.6844 4.415L20.5582 7.58C20.5498 7.58866 20.5415 7.5975 20.5333 7.60647C20.5251 7.61544 20.5171 7.62456 20.5093 7.63384C20.5015 7.64312 20.4938 7.65256 20.4863 7.66212C20.4788 7.67169 20.4715 7.68141 20.4643 7.69125C20.4572 7.70109 20.4502 7.71109 20.4434 7.72122C20.4366 7.73131 20.43 7.74156 20.4236 7.75194C20.4172 7.76228 20.4109 7.77278 20.4049 7.78337C20.3988 7.79397 20.393 7.80469 20.3873 7.81553C20.3817 7.82637 20.3762 7.83728 20.3709 7.84831C20.3656 7.85934 20.3605 7.8705 20.3557 7.88172C20.3508 7.89294 20.3461 7.90425 20.3416 7.91566C20.3372 7.92706 20.3329 7.93856 20.3289 7.95012C20.3248 7.96169 20.3209 7.97331 20.3173 7.98503C20.3137 7.99675 20.3102 8.00853 20.307 8.02037C20.3038 8.03222 20.3008 8.04409 20.298 8.05606C20.2952 8.06803 20.2926 8.08003 20.2902 8.09209C20.2879 8.10416 20.2858 8.11625 20.2838 8.12837C20.2819 8.14053 20.2802 8.15269 20.2787 8.16487C20.2772 8.17709 20.2759 8.18931 20.2749 8.20156C20.2738 8.21381 20.273 8.22609 20.2723 8.23837C20.2717 8.25066 20.2713 8.26294 20.2712 8.27525C20.271 8.28753 20.271 8.29984 20.2713 8.31212C20.2716 8.32441 20.2721 8.33672 20.2727 8.349C20.2735 8.36128 20.2744 8.37353 20.2755 8.38575C20.2767 8.398 20.278 8.41022 20.2796 8.42241C20.2812 8.43459 20.283 8.44675 20.285 8.45887C20.287 8.471 20.2893 8.48309 20.2917 8.49512C20.2942 8.50716 20.2968 8.51916 20.2997 8.53109C20.3026 8.54303 20.3057 8.5549 20.309 8.56672C20.3123 8.57853 20.3158 8.59028 20.3195 8.60197C20.3233 8.61366 20.3272 8.62528 20.3313 8.63681C20.3354 8.64834 20.3398 8.65978 20.3443 8.67115C20.3489 8.68253 20.3537 8.69381 20.3586 8.705C20.3636 8.71619 20.3687 8.72728 20.3741 8.73828C20.3794 8.74925 20.385 8.76016 20.3907 8.77094C20.3965 8.78172 20.4024 8.79241 20.4085 8.80294C20.4146 8.8135 20.4209 8.82394 20.4274 8.83425C20.434 8.84459 20.4406 8.85478 20.4475 8.86484C20.4544 8.87491 20.4614 8.88484 20.4686 8.89462C20.4758 8.90441 20.4832 8.91406 20.4908 8.92359C20.4984 8.93312 20.5061 8.94247 20.514 8.95169C20.5219 8.96091 20.53 8.97 20.5382 8.97891C20.5464 8.98781 20.5548 8.99656 20.5633 9.00516C20.5719 9.01375 20.5806 9.02219 20.5894 9.03047C20.5983 9.03872 20.6072 9.04681 20.6164 9.05475C20.6255 9.06266 20.6348 9.07041 20.6442 9.078C20.6536 9.08556 20.6632 9.09294 20.6728 9.10015C20.6825 9.10737 20.6923 9.11437 20.7022 9.12122C20.7121 9.12806 20.7222 9.13472 20.7323 9.14119C20.7425 9.14762 20.7528 9.15387 20.7632 9.15997C20.7736 9.16603 20.7841 9.17191 20.7946 9.17756C20.8053 9.18322 20.8159 9.18869 20.8267 9.19394C20.8375 9.19919 20.8484 9.20425 20.8594 9.20909C20.8704 9.21394 20.8814 9.21859 20.8925 9.223C20.9037 9.22744 20.9149 9.23166 20.9262 9.23566C20.9375 9.23966 20.9489 9.24344 20.9603 9.247C20.9717 9.25056 20.9832 9.25391 20.9947 9.25703C21.0063 9.26019 21.0179 9.26309 21.0295 9.26578C21.0412 9.26847 21.0529 9.27094 21.0646 9.27319C21.0764 9.27544 21.0882 9.27747 21.1 9.27925C21.1118 9.28103 21.1236 9.28262 21.1355 9.28397C21.1473 9.28531 21.1592 9.28644 21.1711 9.28734C21.1831 9.28825 21.195 9.28891 21.2069 9.28934C21.2189 9.28978 21.2308 9.29 21.2427 9.29ZM7.49513 9.03C7.50623 9.04241 7.51764 9.0545 7.52935 9.06628C7.54106 9.07806 7.55308 9.08956 7.56533 9.10075C7.57762 9.11191 7.59015 9.12275 7.60296 9.13328C7.61576 9.14381 7.62884 9.15397 7.64213 9.16381C7.65544 9.17366 7.66898 9.18312 7.68275 9.19225C7.69652 9.20141 7.71051 9.21016 7.72471 9.21856C7.73891 9.22697 7.75332 9.235 7.76791 9.24266C7.78251 9.25031 7.79728 9.25756 7.81224 9.26444C7.8272 9.27134 7.84231 9.27781 7.85757 9.28391C7.87286 9.29 7.88827 9.29572 7.90381 9.301C7.91937 9.30628 7.93506 9.31116 7.95083 9.31562C7.96664 9.32009 7.98254 9.32415 7.9985 9.32781C8.01452 9.33147 8.0306 9.33469 8.04674 9.3375C8.06288 9.34028 8.07908 9.34266 8.09534 9.34462C8.11163 9.34659 8.12796 9.34816 8.14428 9.34925C8.16063 9.35034 8.17698 9.35103 8.19334 9.35131C8.20972 9.35156 8.22611 9.35141 8.24246 9.35081C8.25884 9.35022 8.2752 9.34919 8.29149 9.34775C8.30781 9.34628 8.3241 9.34441 8.3403 9.34212C8.35657 9.33984 8.37271 9.33712 8.38879 9.334C8.4049 9.33084 8.42092 9.32728 8.43682 9.32331C8.45274 9.31934 8.46855 9.31497 8.48427 9.31019C8.49998 9.30537 8.51555 9.30016 8.53099 9.29456C8.54643 9.28897 8.56172 9.28297 8.57689 9.27656C8.59206 9.27015 8.60702 9.26334 8.62183 9.25616C8.63666 9.24897 8.65129 9.24141 8.66573 9.23347C8.68017 9.2255 8.69443 9.21719 8.70845 9.2085C8.72253 9.19981 8.73633 9.19075 8.74992 9.18134C8.76351 9.17194 8.77686 9.16216 8.78997 9.15206C8.80308 9.14197 8.81594 9.1315 8.82853 9.12072C8.84115 9.10994 8.85347 9.09884 8.86552 9.08744C8.87759 9.07603 8.88936 9.06428 8.90083 9.05225C8.9123 9.04022 8.9235 9.02787 8.93436 9.01528C8.94522 9.00266 8.95578 8.98975 8.96603 8.97659C8.97629 8.96344 8.98618 8.95 8.99577 8.93631C9.00535 8.92262 9.01458 8.90869 9.02347 8.89453C9.03239 8.88037 9.04091 8.86597 9.0491 8.85137C9.05729 8.83678 9.06512 8.82197 9.07256 8.80694C9.08002 8.79191 9.08712 8.77672 9.09382 8.76131C9.10056 8.74594 9.10687 8.73037 9.11282 8.71465C9.11876 8.69894 9.12435 8.68309 9.1295 8.66706C9.13469 8.65106 9.13945 8.63494 9.14382 8.61869C9.14819 8.60241 9.15217 8.58606 9.15575 8.56959C9.15933 8.55312 9.16251 8.53659 9.16524 8.51997C9.16804 8.50331 9.17037 8.48662 9.17231 8.46987C9.17426 8.45312 9.1758 8.43634 9.17689 8.4195C9.17802 8.40266 9.17871 8.38581 9.17899 8.36897C9.17929 8.35209 9.17917 8.33522 9.17862 8.31837C9.17808 8.3015 9.17714 8.28466 9.17574 8.26784C9.17438 8.25106 9.17259 8.23428 9.1704 8.21756C9.16822 8.20084 9.16564 8.18422 9.1626 8.16762C9.1596 8.15103 9.15617 8.13453 9.15235 8.11812C9.14853 8.10172 9.14431 8.08544 9.1397 8.06925C9.13509 8.05306 9.13005 8.037 9.12465 8.02109C9.11925 8.00516 9.11342 7.98937 9.10723 7.97375C9.10104 7.95816 9.09449 7.94269 9.08754 7.92741C9.08063 7.91212 9.07331 7.89706 9.06561 7.88216C9.05793 7.86725 9.04989 7.85256 9.04146 7.83809C9.03305 7.82362 9.02429 7.80937 9.01518 7.79534C9.00608 7.78131 8.99664 7.76753 8.98685 7.754C8.97708 7.74047 8.96694 7.72722 8.95651 7.71422C8.94607 7.70122 8.93533 7.6885 8.92426 7.67606C8.91321 7.66359 8.90183 7.65147 8.89018 7.63962C8.87853 7.62778 8.86658 7.61622 8.85435 7.605L5.733 4.445C5.72168 4.4335 5.71009 4.42228 5.69823 4.41137C5.68638 4.40047 5.67427 4.38984 5.66192 4.37953C5.64956 4.36922 5.63696 4.35922 5.62411 4.34956C5.61129 4.33991 5.59823 4.33056 5.58494 4.32156C5.57168 4.31256 5.55819 4.30391 5.5445 4.29556C5.53079 4.28722 5.5169 4.27925 5.50284 4.27166C5.48877 4.26403 5.47452 4.25675 5.4601 4.24984C5.44567 4.24294 5.43109 4.23641 5.41635 4.23025C5.40162 4.22409 5.38675 4.21828 5.37175 4.21287C5.35674 4.20747 5.34161 4.20247 5.32636 4.19781C5.31111 4.19316 5.29575 4.18891 5.2803 4.18503C5.26485 4.18116 5.24932 4.17769 5.2337 4.17459C5.21808 4.1715 5.20241 4.16881 5.18667 4.16653C5.17092 4.16425 5.15512 4.16234 5.13928 4.16084C5.12346 4.15934 5.10761 4.15825 5.09171 4.15756C5.07583 4.15687 5.05993 4.15659 5.04401 4.15669C5.02812 4.15681 5.01223 4.15734 4.99635 4.15825C4.98047 4.15916 4.96462 4.16047 4.94881 4.16219C4.93301 4.16391 4.91726 4.16603 4.90154 4.16856C4.88582 4.17106 4.87018 4.17397 4.8546 4.17728C4.83903 4.18059 4.82354 4.18428 4.80815 4.18837C4.79274 4.19247 4.77745 4.19694 4.76228 4.20181C4.74709 4.20666 4.73203 4.21191 4.7171 4.21753C4.70216 4.22316 4.68736 4.22916 4.67272 4.23553C4.65807 4.24191 4.64358 4.24866 4.62924 4.25575C4.61492 4.26284 4.60077 4.27031 4.58679 4.27816C4.57284 4.28597 4.55906 4.29412 4.54547 4.30266C4.5319 4.31119 4.51853 4.32003 4.50536 4.32922C4.49219 4.33844 4.47926 4.34794 4.46656 4.35778C4.45385 4.36762 4.4414 4.37781 4.42918 4.38828C4.41696 4.39875 4.405 4.40953 4.39329 4.42062C4.38158 4.43172 4.37014 4.44309 4.35897 4.45475C4.34781 4.46641 4.33692 4.47834 4.32633 4.49056C4.31575 4.50278 4.30545 4.51528 4.29544 4.528C4.28545 4.54072 4.27576 4.55372 4.26638 4.56694C4.25699 4.58016 4.24793 4.59362 4.23919 4.60728C4.23045 4.62097 4.22204 4.63487 4.21395 4.64897C4.20588 4.66309 4.19814 4.67741 4.19074 4.69191C4.18336 4.70641 4.17632 4.72109 4.16962 4.73594C4.16293 4.75078 4.15658 4.76581 4.1506 4.78097C4.14461 4.79616 4.139 4.81147 4.13376 4.82694C4.1285 4.84241 4.12362 4.85797 4.11911 4.87369C4.11462 4.88941 4.11049 4.90522 4.10673 4.92112C4.10297 4.93703 4.0996 4.95303 4.09662 4.96912C4.09363 4.98522 4.09102 5.00137 4.0888 5.01759C4.08657 5.03381 4.08474 5.05006 4.08331 5.06637C4.08185 5.08269 4.0808 5.09903 4.08015 5.11537C4.07948 5.13175 4.0792 5.14812 4.0793 5.1645C4.07942 5.18087 4.07993 5.19725 4.08082 5.21359C4.08173 5.22994 4.08301 5.24628 4.08467 5.26256C4.08635 5.27884 4.08841 5.29509 4.09086 5.31128C4.09331 5.32744 4.09614 5.34356 4.09935 5.35959C4.10257 5.37562 4.10617 5.39159 4.11016 5.40744C4.11412 5.42331 4.11847 5.43906 4.1232 5.45469C4.12793 5.47034 4.13303 5.48584 4.13849 5.50122C4.14395 5.51662 4.14978 5.53184 4.15597 5.54694C4.16218 5.56203 4.16873 5.57694 4.17563 5.59169C4.18253 5.60644 4.18978 5.621 4.19738 5.63541C4.20499 5.64978 4.21293 5.66397 4.2212 5.67797C4.22947 5.69194 4.23807 5.70572 4.24699 5.71928C4.25593 5.73281 4.26518 5.74612 4.27475 5.75922C4.28432 5.77231 4.29419 5.78512 4.30436 5.79772C4.31453 5.81031 4.32501 5.82262 4.33579 5.83469C4.34655 5.84672 4.3576 5.8585 4.36892 5.87L7.49513 9.03ZM14.4272 6.45C14.4431 6.45 14.459 6.44959 14.4748 6.44878C14.4907 6.448 14.5065 6.44678 14.5223 6.44519C14.5382 6.44359 14.5539 6.44159 14.5696 6.43919C14.5853 6.43678 14.601 6.43397 14.6166 6.43078C14.6322 6.42759 14.6476 6.424 14.6631 6.42003C14.6785 6.41606 14.6938 6.41169 14.709 6.40694C14.7242 6.40219 14.7393 6.39706 14.7542 6.39153C14.7692 6.38603 14.784 6.38016 14.7987 6.37387C14.8134 6.36762 14.8279 6.361 14.8423 6.354C14.8567 6.347 14.8708 6.33962 14.8848 6.33191C14.8989 6.32419 14.9127 6.31612 14.9263 6.30772C14.9399 6.29931 14.9534 6.29056 14.9665 6.28147C14.9798 6.27237 14.9928 6.26297 15.0055 6.25322C15.0183 6.24347 15.0308 6.23341 15.0431 6.223C15.0554 6.21262 15.0674 6.20194 15.0792 6.19094C15.0909 6.17997 15.1024 6.16869 15.1137 6.15709C15.1249 6.14553 15.1359 6.13369 15.1465 6.12156C15.1572 6.10944 15.1676 6.09706 15.1777 6.08441C15.1878 6.07175 15.1975 6.05884 15.207 6.04569C15.2165 6.03253 15.2256 6.01916 15.2344 6.00556C15.2432 5.99197 15.2517 5.97812 15.2599 5.96409C15.2681 5.95006 15.2759 5.93581 15.2834 5.92141C15.2909 5.90697 15.298 5.89234 15.3048 5.87756C15.3116 5.86278 15.3181 5.84781 15.3241 5.83269C15.3302 5.81756 15.3359 5.80228 15.3413 5.78687C15.3466 5.77147 15.3516 5.75594 15.3562 5.74028C15.3608 5.72462 15.3651 5.70884 15.3689 5.69297C15.3728 5.67709 15.3763 5.66112 15.3794 5.64509C15.3825 5.62903 15.3852 5.61291 15.3875 5.59672C15.3899 5.58053 15.3918 5.56431 15.3934 5.54803C15.3949 5.53175 15.3961 5.51541 15.3969 5.49906C15.3976 5.48272 15.398 5.46637 15.398 5.45L15.398 1C15.398 0.983634 15.3976 0.967278 15.3969 0.950931C15.3961 0.934584 15.3949 0.918269 15.3934 0.901984C15.3918 0.885697 15.3899 0.869459 15.3875 0.853269C15.3852 0.837081 15.3825 0.820962 15.3794 0.804909C15.3763 0.788856 15.3728 0.772894 15.3689 0.757019C15.3651 0.741144 15.3608 0.725375 15.3562 0.709716C15.3516 0.694056 15.3466 0.678519 15.3413 0.663109C15.3359 0.6477 15.3302 0.632437 15.3241 0.617316C15.3181 0.602197 15.3116 0.587241 15.3048 0.572444C15.298 0.55765 15.2909 0.543037 15.2834 0.528603C15.2759 0.514169 15.2681 0.499934 15.2599 0.485897C15.2517 0.471859 15.2432 0.458037 15.2344 0.444431C15.2256 0.430822 15.2165 0.417447 15.207 0.4043C15.1975 0.391156 15.1878 0.378259 15.1777 0.365606C15.1676 0.352956 15.1572 0.340569 15.1465 0.328441C15.1359 0.316316 15.1249 0.304465 15.1137 0.292893C15.1024 0.281321 15.0909 0.270039 15.0792 0.259049C15.0674 0.248058 15.0554 0.237372 15.0431 0.22699C15.0308 0.216607 15.0183 0.206542 15.0055 0.196792C14.9928 0.187043 14.9798 0.177622 14.9665 0.16853C14.9534 0.159438 14.9399 0.150685 14.9263 0.142271C14.9127 0.133858 14.8989 0.125793 14.8848 0.118079C14.8708 0.110364 14.8567 0.103008 14.8423 0.0960106C14.8279 0.0890134 14.8134 0.0823831 14.7987 0.0761203C14.784 0.0698575 14.7692 0.0639694 14.7542 0.0584559C14.7393 0.0529425 14.7242 0.0478103 14.709 0.0430597C14.6938 0.0383087 14.6785 0.0339453 14.6631 0.0299687C14.6476 0.0259922 14.6322 0.0224075 14.6166 0.0192147C14.601 0.0160219 14.5853 0.0132248 14.5696 0.0108235C14.5539 0.00842215 14.5382 0.00641941 14.5223 0.00481528C14.5065 0.00321116 14.4907 0.00200757 14.4748 0.00120454C14.459 0.000401516 14.4431 0 14.4272 0C14.4113 0 14.3954 0.000401516 14.3795 0.00120454C14.3637 0.00200757 14.3478 0.00321116 14.332 0.00481528C14.3162 0.00641941 14.3004 0.00842215 14.2847 0.0108235C14.269 0.0132248 14.2534 0.0160219 14.2378 0.0192147C14.2222 0.0224075 14.2067 0.0259922 14.1913 0.0299687C14.1759 0.0339453 14.1606 0.0383087 14.1453 0.0430597C14.1301 0.0478103 14.1151 0.0529425 14.1001 0.0584559C14.0851 0.0639694 14.0703 0.0698575 14.0556 0.0761203C14.0409 0.0823831 14.0264 0.0890134 14.0121 0.0960106C13.9977 0.103008 13.9835 0.110364 13.9695 0.118079C13.9555 0.125793 13.9417 0.133858 13.928 0.142271C13.9144 0.150685 13.901 0.159438 13.8878 0.16853C13.8746 0.177622 13.8616 0.187043 13.8488 0.196792C13.8361 0.206542 13.8236 0.216607 13.8112 0.22699C13.799 0.237372 13.7869 0.248058 13.7752 0.259049C13.7634 0.270039 13.7519 0.281321 13.7407 0.292893C13.7294 0.304465 13.7185 0.316316 13.7078 0.328441C13.6971 0.340569 13.6868 0.352956 13.6767 0.365606C13.6666 0.378259 13.6568 0.391156 13.6473 0.4043C13.6379 0.417447 13.6287 0.430822 13.6199 0.444431C13.6111 0.458037 13.6026 0.471859 13.5944 0.485897C13.5863 0.499934 13.5784 0.514169 13.5709 0.528603C13.5635 0.543037 13.5563 0.55765 13.5495 0.572444C13.5427 0.587241 13.5363 0.602197 13.5302 0.617316C13.5241 0.632437 13.5184 0.6477 13.5131 0.663109C13.5077 0.678519 13.5027 0.694056 13.4981 0.709716C13.4935 0.725375 13.4893 0.741144 13.4854 0.757019C13.4815 0.772894 13.478 0.788856 13.475 0.804909C13.4719 0.820962 13.4692 0.837081 13.4668 0.853269C13.4645 0.869459 13.4625 0.885697 13.461 0.901984C13.4594 0.918269 13.4583 0.934584 13.4575 0.950931C13.4567 0.967278 13.4563 0.983634 13.4563 1L13.4563 5.45C13.4563 5.46637 13.4567 5.48272 13.4575 5.49906C13.4583 5.51541 13.4594 5.53175 13.461 5.54803C13.4625 5.56431 13.4645 5.58053 13.4668 5.59672C13.4692 5.61291 13.4719 5.62903 13.475 5.64509C13.478 5.66112 13.4815 5.67709 13.4854 5.69297C13.4893 5.70884 13.4935 5.72462 13.4981 5.74028C13.5027 5.75594 13.5077 5.77147 13.5131 5.78687C13.5184 5.80228 13.5241 5.81756 13.5302 5.83269C13.5363 5.84781 13.5427 5.86278 13.5495 5.87756C13.5563 5.89234 13.5635 5.90697 13.5709 5.92141C13.5784 5.93581 13.5863 5.95006 13.5944 5.96409C13.6026 5.97812 13.6111 5.99197 13.6199 6.00556C13.6287 6.01916 13.6379 6.03253 13.6473 6.04569C13.6568 6.05884 13.6666 6.07175 13.6767 6.08441C13.6868 6.09706 13.6971 6.10944 13.7078 6.12156C13.7185 6.13369 13.7294 6.14553 13.7407 6.15709C13.7519 6.16869 13.7634 6.17997 13.7752 6.19094C13.7869 6.20194 13.799 6.21262 13.8112 6.223C13.8236 6.23341 13.8361 6.24347 13.8488 6.25322C13.8616 6.26297 13.8746 6.27237 13.8878 6.28147C13.901 6.29056 13.9144 6.29931 13.928 6.30772C13.9417 6.31612 13.9555 6.32419 13.9695 6.33191C13.9835 6.33962 13.9977 6.347 14.0121 6.354C14.0264 6.36097 14.0409 6.36759 14.0556 6.37387C14.0703 6.38016 14.0851 6.38603 14.1001 6.39153C14.1151 6.39706 14.1301 6.40219 14.1453 6.40694C14.1606 6.41169 14.1759 6.41606 14.1913 6.42003C14.2067 6.424 14.2222 6.42759 14.2378 6.43078C14.2534 6.43397 14.269 6.43678 14.2847 6.43919C14.3004 6.44159 14.3162 6.44359 14.332 6.44519C14.3478 6.44678 14.3637 6.448 14.3795 6.44878C14.3954 6.44959 14.4113 6.45 14.4272 6.45ZM6.49513 20.63L3.36892 23.79C3.35756 23.8015 3.34647 23.8133 3.33567 23.8253C3.32487 23.8374 3.31437 23.8497 3.30418 23.8623C3.29396 23.8749 3.28405 23.8877 3.27445 23.9008C3.26484 23.9139 3.25555 23.9272 3.24659 23.9408C3.23763 23.9543 3.229 23.9681 3.22068 23.9821C3.21239 23.9961 3.20442 24.0103 3.19678 24.0247C3.18915 24.0391 3.18187 24.0537 3.17493 24.0685C3.16799 24.0832 3.16141 24.0982 3.15518 24.1132C3.14897 24.1283 3.14312 24.1436 3.13761 24.159C3.13211 24.1744 3.12698 24.1899 3.12223 24.2056C3.11748 24.2212 3.1131 24.237 3.10909 24.2529C3.10509 24.2687 3.10146 24.2847 3.0982 24.3008C3.09497 24.3168 3.0921 24.333 3.08962 24.3492C3.08715 24.3654 3.08506 24.3817 3.08337 24.398C3.08167 24.4143 3.08035 24.4306 3.07942 24.447C3.07851 24.4634 3.07799 24.4797 3.07784 24.4962C3.0777 24.5126 3.07794 24.5289 3.07857 24.5453C3.07922 24.5617 3.08025 24.5781 3.08167 24.5944C3.0831 24.6108 3.08491 24.6271 3.0871 24.6433C3.0893 24.6596 3.09189 24.6757 3.09486 24.6919C3.09784 24.708 3.10119 24.724 3.10491 24.74C3.10865 24.7559 3.11276 24.7717 3.11726 24.7875C3.12175 24.8032 3.1266 24.8188 3.13182 24.8343C3.13706 24.8498 3.14266 24.8652 3.14863 24.8804C3.15459 24.8956 3.16091 24.9107 3.16759 24.9256C3.17428 24.9405 3.18132 24.9552 3.18871 24.9697C3.19609 24.9842 3.2038 24.9986 3.21185 25.0127C3.21992 25.0269 3.22833 25.0408 3.23707 25.0545C3.2458 25.0682 3.25486 25.0817 3.26422 25.095C3.27361 25.1082 3.28329 25.1212 3.29329 25.134C3.30328 25.1468 3.31357 25.1593 3.32417 25.1716C3.33475 25.1838 3.34562 25.1958 3.35679 25.2075C3.36795 25.2192 3.37939 25.2306 3.3911 25.2417C3.40279 25.2528 3.41476 25.2637 3.42699 25.2742C3.43921 25.2847 3.45167 25.2949 3.46437 25.3048C3.47708 25.3147 3.49001 25.3242 3.50318 25.3335C3.51635 25.3427 3.52973 25.3516 3.54332 25.3602C3.55691 25.3687 3.57069 25.3769 3.58467 25.3848C3.59865 25.3927 3.6128 25.4002 3.62715 25.4073C3.64149 25.4145 3.65598 25.4212 3.67062 25.4277C3.68529 25.4341 3.70009 25.4401 3.71504 25.4457C3.72999 25.4514 3.74507 25.4567 3.76028 25.4616C3.77547 25.4665 3.79077 25.471 3.80618 25.4751C3.82159 25.4792 3.8371 25.483 3.85269 25.4863C3.86829 25.4897 3.88395 25.4926 3.89969 25.4952C3.91543 25.4977 3.93121 25.4999 3.94705 25.5016C3.96289 25.5034 3.97875 25.5047 3.99465 25.5057C4.01055 25.5066 4.02646 25.5072 4.04238 25.5073C4.05831 25.5075 4.07423 25.5072 4.09013 25.5066C4.10605 25.5059 4.12194 25.5048 4.1378 25.5034C4.15367 25.5019 4.1695 25.5 4.18528 25.4978C4.20103 25.4955 4.21674 25.4928 4.2324 25.4898C4.24805 25.4867 4.26361 25.4833 4.27909 25.4794C4.29458 25.4756 4.30996 25.4713 4.32523 25.4667C4.34053 25.4621 4.35568 25.4571 4.37071 25.4517C4.38576 25.4463 4.40067 25.4406 4.41543 25.4344C4.4302 25.4282 4.44481 25.4217 4.45928 25.4149C4.47374 25.408 4.48802 25.4007 4.50212 25.3931C4.51623 25.3855 4.53016 25.3776 4.54389 25.3692C4.55763 25.361 4.57115 25.3523 4.58446 25.3433C4.59779 25.3343 4.61089 25.325 4.62378 25.3153C4.63664 25.3057 4.64927 25.2957 4.66167 25.2854C4.67407 25.2751 4.68622 25.2645 4.69811 25.2536C4.71 25.2427 4.72163 25.2315 4.733 25.22L7.85435 22.06C7.8657 22.0485 7.87677 22.0368 7.88757 22.0248C7.89838 22.0127 7.9089 22.0005 7.9191 21.9879C7.92929 21.9754 7.93921 21.9626 7.9488 21.9495C7.95842 21.9365 7.9677 21.9232 7.97665 21.9097C7.98563 21.8962 7.99425 21.8824 8.00256 21.8685C8.01087 21.8545 8.01885 21.8404 8.0265 21.826C8.03415 21.8117 8.04143 21.7971 8.04838 21.7824C8.05532 21.7677 8.06191 21.7527 8.06813 21.7377C8.07438 21.7227 8.08023 21.7074 8.08575 21.6921C8.09128 21.6767 8.0964 21.6612 8.10117 21.6456C8.10596 21.63 8.11036 21.6143 8.11436 21.5984C8.1184 21.5826 8.12204 21.5667 8.12529 21.5506C8.12856 21.5346 8.13144 21.5185 8.13393 21.5023C8.13642 21.4862 8.13855 21.47 8.14024 21.4537C8.14197 21.4374 8.14331 21.4211 8.14425 21.4047C8.14522 21.3884 8.14577 21.372 8.14592 21.3557C8.1461 21.3393 8.14586 21.3229 8.14525 21.3066C8.14464 21.2902 8.14364 21.2739 8.14225 21.2576C8.14085 21.2413 8.13909 21.225 8.13691 21.2088C8.13472 21.1926 8.13217 21.1764 8.12923 21.1603C8.12632 21.1442 8.12298 21.1282 8.11928 21.1123C8.11558 21.0964 8.11151 21.0806 8.10705 21.0648C8.10262 21.0491 8.0978 21.0335 8.09258 21.0181C8.08739 21.0026 8.08184 20.9872 8.07589 20.9721C8.06995 20.9569 8.06367 20.9418 8.05702 20.927C8.05038 20.9121 8.04337 20.8974 8.03603 20.8829C8.02868 20.8683 8.02101 20.854 8.01297 20.8399C8.00496 20.8258 7.99658 20.8119 7.98791 20.7982C7.97923 20.7844 7.97022 20.771 7.96088 20.7577C7.95153 20.7444 7.94188 20.7314 7.93193 20.7187C7.92198 20.7059 7.91172 20.6934 7.90117 20.6812C7.89064 20.6689 7.87981 20.6569 7.86867 20.6452C7.85757 20.6335 7.84616 20.6221 7.83451 20.611C7.82286 20.5999 7.81094 20.5891 7.79874 20.5785C7.78657 20.568 7.77416 20.5578 7.76148 20.5479C7.7488 20.538 7.73591 20.5285 7.7228 20.5192C7.70969 20.51 7.69634 20.5011 7.68278 20.4925C7.66925 20.4839 7.6555 20.4757 7.64155 20.4679C7.62762 20.46 7.61351 20.4525 7.59919 20.4453C7.58493 20.4382 7.57046 20.4314 7.55584 20.4249C7.54121 20.4185 7.52647 20.4125 7.51154 20.4068C7.49665 20.4011 7.4816 20.3958 7.46643 20.3909C7.45129 20.386 7.43603 20.3814 7.42064 20.3773C7.40526 20.3731 7.38979 20.3694 7.37422 20.366C7.35869 20.3627 7.34307 20.3597 7.32735 20.3571C7.31166 20.3545 7.29592 20.3523 7.28011 20.3506C7.26433 20.3488 7.2485 20.3474 7.2326 20.3464C7.21676 20.3455 7.20086 20.3449 7.18496 20.3447C7.16907 20.3445 7.1532 20.3447 7.1373 20.3454C7.12143 20.346 7.10557 20.347 7.08973 20.3484C7.07389 20.3499 7.05811 20.3517 7.04234 20.3539C7.02662 20.3562 7.01094 20.3588 6.99528 20.3618C6.97969 20.3648 6.96415 20.3682 6.94868 20.372C6.93321 20.3758 6.91785 20.38 6.90259 20.3846C6.88733 20.3892 6.87219 20.3942 6.85717 20.3995C6.84216 20.4049 6.82726 20.4106 6.81251 20.4167C6.79777 20.4228 6.78314 20.4292 6.7687 20.4361C6.75426 20.4429 6.74 20.4502 6.72589 20.4577C6.71182 20.4652 6.69789 20.4732 6.68418 20.4814C6.67046 20.4897 6.65693 20.4983 6.64361 20.5072C6.63032 20.5162 6.61722 20.5255 6.60435 20.5351C6.59149 20.5447 6.57887 20.5546 6.56646 20.5649C6.55408 20.5751 6.54191 20.5857 6.53002 20.5965C6.51813 20.6074 6.50651 20.6185 6.49513 20.63Z"   fill="#00BFFF" >
</path>
<path d="M6.31068 14.615C6.31068 14.5986 6.31029 14.5823 6.3095 14.5659C6.30874 14.5496 6.30755 14.5333 6.30601 14.517C6.30446 14.5007 6.30252 14.4845 6.30018 14.4683C6.29785 14.4521 6.29511 14.436 6.29202 14.4199C6.28893 14.4039 6.28544 14.3879 6.28158 14.372C6.27773 14.3562 6.27348 14.3404 6.26887 14.3247C6.26426 14.3091 6.25928 14.2935 6.25391 14.2781C6.24857 14.2627 6.24287 14.2474 6.23677 14.2323C6.2307 14.2172 6.22427 14.2022 6.21748 14.1874C6.21068 14.1726 6.20352 14.158 6.19603 14.1436C6.18853 14.1292 6.1807 14.1149 6.17254 14.1009C6.16438 14.0869 6.15589 14.073 6.14706 14.0594C6.13823 14.0458 6.1291 14.0325 6.11963 14.0193C6.11016 14.0062 6.10039 13.9933 6.09029 13.9806C6.08022 13.9679 6.06984 13.9556 6.05916 13.9434C6.04851 13.9313 6.03756 13.9195 6.0263 13.9079C6.01508 13.8963 6.00358 13.885 5.99181 13.8741C5.98004 13.8631 5.96802 13.8524 5.95573 13.842C5.94345 13.8316 5.93092 13.8215 5.91814 13.8118C5.90537 13.802 5.89238 13.7926 5.87919 13.7835C5.86599 13.7744 5.85255 13.7657 5.83893 13.7573C5.8253 13.7489 5.81147 13.7408 5.79748 13.7331C5.78346 13.7254 5.76927 13.718 5.75491 13.711C5.74056 13.704 5.72603 13.6974 5.71135 13.6911C5.69666 13.6849 5.68183 13.679 5.66687 13.6735C5.65191 13.6679 5.63683 13.6628 5.62163 13.6581C5.60643 13.6533 5.59111 13.6489 5.5757 13.645C5.56029 13.641 5.54478 13.6374 5.52922 13.6342C5.51362 13.631 5.49797 13.6282 5.48225 13.6258C5.46654 13.6234 5.45079 13.6214 5.43498 13.6198C5.41917 13.6182 5.40331 13.617 5.38744 13.6162C5.37157 13.6154 5.3557 13.615 5.33981 13.615L0.970874 13.615C0.954985 13.615 0.939105 13.6154 0.923234 13.6162C0.907363 13.617 0.891523 13.6182 0.875713 13.6198C0.8599 13.6214 0.844135 13.6234 0.828416 13.6258C0.8127 13.6282 0.797051 13.631 0.781465 13.6342C0.76588 13.6374 0.750382 13.641 0.73497 13.645C0.719557 13.6489 0.704248 13.6533 0.689044 13.6581C0.673841 13.6628 0.658756 13.6679 0.643795 13.6735C0.628835 13.679 0.614017 13.6849 0.599336 13.6911C0.584657 13.6974 0.570136 13.704 0.555771 13.711C0.541408 13.718 0.527221 13.7254 0.513207 13.7331C0.499193 13.7408 0.485373 13.7489 0.471745 13.7573C0.458116 13.7657 0.444697 13.7744 0.431487 13.7835C0.418274 13.7926 0.405288 13.802 0.392524 13.8118C0.379763 13.8215 0.367242 13.8316 0.354958 13.842C0.342676 13.8524 0.330649 13.8631 0.318874 13.8741C0.307103 13.885 0.295597 13.8963 0.284362 13.9079C0.273127 13.9195 0.262174 13.9313 0.251504 13.9434C0.240833 13.9556 0.230458 13.9679 0.220378 13.9806C0.210298 13.9933 0.200526 14.0062 0.191061 14.0193C0.181596 14.0325 0.172449 14.0458 0.163622 14.0594C0.154794 14.073 0.146296 14.0869 0.138127 14.1009C0.129959 14.1149 0.12213 14.1292 0.11464 14.1436C0.10715 14.158 0.100008 14.1726 0.0932142 14.1874C0.0864208 14.2022 0.0799836 14.2172 0.0739032 14.2323C0.0678228 14.2474 0.0621062 14.2627 0.0567533 14.2781C0.0514005 14.2935 0.0464178 14.3091 0.0418055 14.3247C0.037193 14.3404 0.0329566 14.3562 0.0290959 14.372C0.0252351 14.3879 0.0217549 14.4039 0.0186551 14.4199C0.0155553 14.436 0.0128397 14.4521 0.0105083 14.4683C0.00817685 14.4845 0.00623243 14.5007 0.00467503 14.517C0.00311763 14.5333 0.0019491 14.5496 0.00116946 14.5659C0.000389821 14.5823 0 14.5986 0 14.615C0 14.6314 0.000389821 14.6477 0.00116946 14.6641C0.0019491 14.6804 0.00311763 14.6967 0.00467503 14.713C0.00623243 14.7293 0.00817685 14.7455 0.0105083 14.7617C0.0128397 14.7779 0.0155553 14.794 0.0186551 14.8101C0.0217549 14.8261 0.0252351 14.8421 0.0290959 14.858C0.0329566 14.8738 0.037193 14.8896 0.0418055 14.9053C0.0464178 14.9209 0.0514005 14.9365 0.0567533 14.9519C0.0621062 14.9673 0.0678228 14.9826 0.0739032 14.9977C0.0799836 15.0128 0.0864208 15.0278 0.0932142 15.0426C0.100008 15.0574 0.10715 15.072 0.11464 15.0864C0.12213 15.1008 0.129959 15.1151 0.138127 15.1291C0.146296 15.1431 0.154794 15.157 0.163622 15.1706C0.172449 15.1842 0.181596 15.1975 0.191061 15.2107C0.200526 15.2238 0.210298 15.2367 0.220378 15.2494C0.230458 15.2621 0.240833 15.2744 0.251504 15.2866C0.262174 15.2987 0.273127 15.3105 0.284362 15.3221C0.295597 15.3337 0.307103 15.345 0.318874 15.3559C0.330649 15.3669 0.342676 15.3776 0.354958 15.388C0.367242 15.3984 0.379763 15.4085 0.392524 15.4182C0.405288 15.428 0.418274 15.4374 0.431487 15.4465C0.444697 15.4556 0.458116 15.4643 0.471745 15.4727C0.485373 15.4811 0.499193 15.4892 0.513207 15.4969C0.527221 15.5046 0.541408 15.512 0.555771 15.519C0.570136 15.526 0.584657 15.5326 0.599336 15.5389C0.614017 15.5451 0.628835 15.551 0.643795 15.5565C0.658756 15.5621 0.673841 15.5672 0.689044 15.5719C0.704248 15.5767 0.719557 15.5811 0.73497 15.585C0.750382 15.589 0.76588 15.5926 0.781465 15.5958C0.797051 15.599 0.8127 15.6018 0.828416 15.6042C0.844135 15.6066 0.8599 15.6086 0.875713 15.6102C0.891523 15.6118 0.907363 15.613 0.923234 15.6138C0.939105 15.6146 0.954985 15.615 0.970874 15.615L5.33981 15.615C5.3557 15.615 5.37157 15.6146 5.38744 15.6138C5.40331 15.613 5.41917 15.6118 5.43498 15.6102C5.45079 15.6086 5.46654 15.6066 5.48225 15.6042C5.49797 15.6018 5.51362 15.599 5.52922 15.5958C5.54478 15.5926 5.56029 15.589 5.5757 15.585C5.59111 15.5811 5.60643 15.5767 5.62163 15.5719C5.63683 15.5672 5.65191 15.5621 5.66687 15.5565C5.68183 15.551 5.69666 15.5451 5.71135 15.5389C5.72603 15.5326 5.74056 15.526 5.75491 15.519C5.76927 15.512 5.78346 15.5046 5.79748 15.4969C5.81147 15.4892 5.8253 15.4811 5.83893 15.4727C5.85255 15.4643 5.86599 15.4556 5.87919 15.4465C5.89238 15.4374 5.90537 15.428 5.91814 15.4182C5.93092 15.4085 5.94345 15.3984 5.95573 15.388C5.96802 15.3776 5.98004 15.3669 5.99181 15.3559C6.00358 15.345 6.01508 15.3337 6.0263 15.3221C6.03756 15.3105 6.04851 15.2987 6.05916 15.2866C6.06984 15.2744 6.08022 15.2621 6.09029 15.2494C6.10039 15.2367 6.11016 15.2238 6.11963 15.2107C6.1291 15.1975 6.13823 15.1842 6.14706 15.1706C6.15589 15.157 6.16438 15.1431 6.17254 15.1291C6.1807 15.1151 6.18853 15.1008 6.19603 15.0864C6.20352 15.072 6.21068 15.0574 6.21748 15.0426C6.22427 15.0278 6.2307 15.0128 6.23677 14.9977C6.24287 14.9826 6.24857 14.9673 6.25391 14.9519C6.25928 14.9365 6.26426 14.9209 6.26887 14.9053C6.27348 14.8896 6.27773 14.8738 6.28158 14.858C6.28544 14.8421 6.28893 14.8261 6.29202 14.8101C6.29511 14.794 6.29785 14.7779 6.30018 14.7617C6.30252 14.7455 6.30446 14.7293 6.30601 14.713C6.30755 14.6967 6.30874 14.6804 6.3095 14.6641C6.31029 14.6477 6.31068 14.6314 6.31068 14.615Z"   fill="#00BFFF" >
</path>
<path d="M21.43 25.25L24.39 25.25C24.2131 24.9925 24.134 24.7732 24.15 24.59C24.15 24.5647 24.16 24.5447 24.16 24.52C24.2115 24.311 24.3819 24.2082 24.67 24.22C24.845 24.22 25.0723 24.2118 25.35 24.2C25.6277 24.1882 25.8646 24.19 26.05 24.19C26.2556 24.178 26.3735 24.103 26.42 23.97C26.4434 23.8993 26.47 23.8241 26.47 23.75L21.43 23.75C21.1944 23.75 21 23.9628 21 24.23L21 24.77C21 25.0359 21.1944 25.25 21.43 25.25ZM21.43 22.1L26.49 22.1C26.49 21.938 26.49 21.7746 26.49 21.61C26.49 21.4069 26.48 21.2086 26.48 21.01L26.48 20.6L21.43 20.6C21.1944 20.6 21 20.8128 21 21.08L21 21.62C21 21.8862 21.1944 22.1 21.43 22.1ZM21.43 31.56L31.21 31.56C31.4456 31.56 31.64 31.3375 31.64 31.07L31.64 30.54C31.64 30.2741 31.4456 30.05 31.21 30.05L21.43 30.05C21.1944 30.05 21 30.2728 21 30.54L21 31.08C21 31.3462 21.1944 31.56 21.43 31.56ZM21.43 28.4L26.49 28.4L26.34 28.17C26.2025 27.9616 26.0612 27.7576 25.92 27.54L25.51 26.9L21.43 26.9C21.1944 26.9 21 27.1232 21 27.39L21 27.92C21 28.1859 21.1944 28.41 21.43 28.41L21.43 28.4ZM26.2 25.46C26.1627 25.6113 26.226 25.7928 26.39 26.02C26.539 26.2305 26.7098 26.4842 26.9 26.77C27.0902 27.0558 27.2765 27.3411 27.47 27.64C27.6637 27.9387 27.8575 28.2266 28.04 28.5C28.2225 28.7734 28.3785 29.0065 28.52 29.2C28.6619 29.3852 28.7973 29.47 28.92 29.47C29.0427 29.47 29.1654 29.3633 29.3 29.17C29.449 28.9599 29.62 28.7006 29.81 28.41L30.4 27.52C30.6012 27.2129 30.7937 26.9162 30.98 26.63C31.1662 26.3438 31.3283 26.1017 31.47 25.9C31.6042 25.7069 31.646 25.5423 31.59 25.42C31.534 25.2977 31.401 25.24 31.2 25.24C31.0733 25.24 30.9302 25.23 30.77 25.23C30.6098 25.23 30.4819 25.22 30.37 25.22C30.2135 25.22 30.1046 25.1572 30.06 25.01C30.0154 24.8628 30 24.6623 30 24.41L30 23.81C30 23.5914 29.99 22.7589 29.99 22.54C29.99 22.3211 29.99 22.1134 29.99 21.92L29.99 21.43C29.99 21.144 29.9456 20.9305 29.86 20.8C29.7744 20.6695 29.606 20.61 29.36 20.61C29.1812 20.61 29.0304 20.61 28.9 20.61C28.7696 20.61 28.6265 20.62 28.47 20.62C28.3356 20.62 28.2284 20.6495 28.15 20.7C28.1315 20.7115 28.1069 20.7161 28.09 20.73C28.0731 20.7439 28.0651 20.764 28.05 20.78C28.0349 20.796 28.013 20.8122 28 20.83C27.987 20.8478 27.9807 20.8706 27.97 20.89C27.9596 20.9095 27.94 20.9296 27.94 20.95C27.94 20.9704 27.92 20.9888 27.92 21.01C27.92 21.0312 27.9 21.0483 27.9 21.07C27.9 21.0918 27.89 21.1179 27.89 21.14C27.879 21.2279 27.87 21.3113 27.87 21.4L27.87 22.03C27.87 22.257 27.88 22.4944 27.88 22.73C27.88 22.9656 27.89 23.8131 27.89 24.04L27.89 24.66C27.89 24.8284 27.8635 24.9634 27.83 25.06C27.7965 25.1566 27.709 25.22 27.56 25.22C27.4259 25.22 27.2612 25.23 27.06 25.23C26.8587 25.23 26.6969 25.24 26.57 25.24C26.3617 25.24 26.2375 25.3085 26.2 25.46Z"   fill="#0EBBCB" >
</path>
</svg>
