<svg xmlns="http://www.w3.org/2000/svg" xmlns:xlink="http://www.w3.org/1999/xlink" width="31.47754669189453" height="32" viewBox="0 0 31.47754669189453 32" fill="none">
<path d="M26.4608 22.0563L4.48186 22.0563C4.22365 22.0563 3.98388 21.9094 3.86399 21.6781C3.74411 21.4438 3.75948 21.1625 3.90703 20.9469L9.98734 11.9469L9.98734 8.15C9.98734 7.34375 10.6329 6.6875 11.426 6.6875L19.5167 6.6875C20.3098 6.6875 20.9553 7.34375 20.9553 8.15L20.9553 11.9438L27.0356 20.9438C27.1832 21.1625 27.1985 21.4438 27.0787 21.675C26.9588 21.9094 26.7221 22.0563 26.4608 22.0563ZM5.80982 20.6344L25.1328 20.6344L19.6827 12.5656C19.6027 12.4469 19.5597 12.3062 19.5597 12.1625L19.5597 8.15C19.5597 8.12813 19.5382 8.10625 19.5167 8.10625L11.426 8.10625C11.4044 8.10625 11.3829 8.12813 11.3829 8.15L11.3829 12.1656C11.3829 12.3094 11.3399 12.45 11.26 12.5688L5.80982 20.6344Z"   fill="#1E94FC" >
</path>
<path d="M20.193 12.8844L10.7497 12.8844C10.3655 12.8844 10.0519 12.5656 10.0519 12.175C10.0519 11.7844 10.3655 11.4656 10.7497 11.4656L20.193 11.4656C20.5772 11.4656 20.8908 11.7844 20.8908 12.175C20.8908 12.5656 20.5803 12.8844 20.193 12.8844Z"   fill="#1E94FC" >
</path>
<path d="M15.3392 27.1406C12.9076 27.1406 10.7282 25.4625 10.2425 23.05C9.98121 21.7531 10.2425 20.4281 10.9741 19.3188C11.7487 18.15 12.9445 17.3562 14.3463 17.0906C17.1497 16.5594 19.8825 18.3531 20.4327 21.0875C20.694 22.3844 20.4327 23.7094 19.7011 24.8188C18.9265 25.9875 17.7307 26.7812 16.329 27.0469C16.0001 27.1094 15.6681 27.1406 15.3392 27.1406ZM15.3422 18.3875C15.0963 18.3875 14.8473 18.4094 14.5983 18.4562C13.5593 18.6531 12.6771 19.2344 12.1084 20.0937C11.5797 20.8906 11.3922 21.8438 11.5797 22.7719C11.9824 24.7719 14.002 26.075 16.08 25.6844C17.119 25.4875 18.0012 24.9062 18.5699 24.0469C19.0986 23.25 19.2862 22.2969 19.0986 21.3687C18.7451 19.6094 17.1405 18.3875 15.3422 18.3875Z"   fill="#28E3C4" >
</path>
<path d="M15.4713 8.10625C15.0871 8.10625 14.7735 7.7875 14.7735 7.39687L14.7735 2.525C14.7735 2.13437 15.0871 1.81562 15.4713 1.81562C15.8556 1.81562 16.1691 2.13437 16.1691 2.525L16.1691 7.39687C16.1691 7.79062 15.8587 8.10625 15.4713 8.10625Z"   fill="#1E94FC" >
</path>
</svg>
