<svg xmlns="http://www.w3.org/2000/svg" xmlns:xlink="http://www.w3.org/1999/xlink" width="32" height="32" viewBox="0 0 32 32" fill="none">
<path d="M3.8375 13.1625C2.39375 13.1625 1.21875 11.9875 1.21875 10.5437C1.21875 9.1 2.39375 7.925 3.8375 7.925C5.28125 7.925 6.45625 9.1 6.45625 10.5437C6.45625 11.9875 5.28125 13.1625 3.8375 13.1625ZM3.8375 9.93437C3.5 9.93437 3.22813 10.2094 3.22813 10.5437C3.22813 10.8781 3.5 11.1562 3.8375 11.1562C4.175 11.1562 4.44688 10.8813 4.44688 10.5469C4.44688 10.2125 4.175 9.93437 3.8375 9.93437ZM11.9219 11.5188C9.82187 11.5188 8.1125 9.80937 8.1125 7.7125C8.1125 5.61562 9.82187 3.90625 11.9219 3.90625C14.0219 3.90625 15.7281 5.61562 15.7281 7.7125C15.7281 9.80937 14.0219 11.5188 11.9219 11.5188ZM11.9219 5.90938C10.9281 5.90938 10.1219 6.71562 10.1219 7.70937C10.1219 8.70312 10.9281 9.50937 11.9219 9.50937C12.9156 9.50937 13.7219 8.70312 13.7219 7.70937C13.7219 6.71562 12.9125 5.90938 11.9219 5.90938ZM20.4375 12.2156C19.8406 12.2156 19.2594 12.0312 18.7656 11.675C18.1437 11.225 17.7313 10.5625 17.6094 9.80625C17.4844 9.05 17.6656 8.2875 18.1125 7.66563C19.0375 6.38125 20.8375 6.08437 22.1219 7.00938C22.7437 7.45937 23.1562 8.12187 23.2812 8.87813C23.4062 9.63437 23.225 10.3969 22.7781 11.0188C22.3312 11.6406 21.6656 12.0531 20.9094 12.1781C20.75 12.2031 20.5938 12.2156 20.4375 12.2156ZM20.4469 8.475C20.1781 8.475 19.9125 8.6 19.7437 8.83438C19.6094 9.02188 19.5531 9.25 19.5906 9.47812C19.6281 9.70625 19.7531 9.90625 19.9406 10.0406C20.1281 10.175 20.3563 10.2281 20.5844 10.1938C20.8125 10.1562 21.0125 10.0312 21.1469 9.84375C21.425 9.45625 21.3375 8.9125 20.95 8.63437C20.7969 8.52812 20.6219 8.475 20.4469 8.475ZM27.7156 15.3844C25.9375 15.3844 24.4906 13.9375 24.4906 12.1594C24.4906 10.3813 25.9406 8.9375 27.7156 8.9375C29.4906 8.9375 30.9406 10.3844 30.9406 12.1625C30.9406 13.9406 29.4937 15.3844 27.7156 15.3844ZM27.7156 10.9438C27.0438 10.9438 26.5 11.4906 26.5 12.1594C26.5 12.8313 27.0469 13.375 27.7156 13.375C28.3875 13.375 28.9312 12.8281 28.9312 12.1594C28.9344 11.4906 28.3875 10.9438 27.7156 10.9438ZM9.11563 19.1031C7.24375 19.1031 5.71875 17.5781 5.71875 15.7063C5.71875 13.8344 7.24375 12.3094 9.11563 12.3094C10.9875 12.3094 12.5125 13.8344 12.5125 15.7063C12.5125 17.5781 10.9906 19.1031 9.11563 19.1031ZM9.11563 14.3156C8.35 14.3156 7.725 14.9375 7.725 15.7063C7.725 16.4719 8.34688 17.0969 9.11563 17.0969C9.88125 17.0969 10.5063 16.475 10.5063 15.7063C10.5063 14.9406 9.88437 14.3156 9.11563 14.3156ZM17.7344 18.1094C17.2469 18.1094 16.7563 17.9625 16.3344 17.6594C15.8125 17.2844 15.4688 16.7281 15.3656 16.0938C15.2625 15.4594 15.4125 14.8219 15.7875 14.3C16.1625 13.7781 16.7188 13.4344 17.3531 13.3313C17.9875 13.2281 18.625 13.3781 19.1469 13.7531C20.225 14.5281 20.4688 16.0344 19.6969 17.1094C19.2188 17.7625 18.4813 18.1094 17.7344 18.1094ZM18.875 16.525L18.8844 16.525L18.875 16.525ZM17.7375 15.3062C17.7125 15.3062 17.6906 15.3094 17.6719 15.3125C17.6125 15.3219 17.4969 15.3562 17.4125 15.4719C17.2844 15.65 17.325 15.9 17.5031 16.0281C17.6812 16.1562 17.9312 16.1156 18.0594 15.9375C18.1875 15.7594 18.1469 15.5094 17.9688 15.3813C17.8844 15.3219 17.8 15.3062 17.7375 15.3062ZM24.8531 22.6906C23.2687 22.6906 21.9813 21.4031 21.9813 19.8156C21.9813 18.2313 23.2687 16.9438 24.8531 16.9438C26.4375 16.9438 27.725 18.2313 27.725 19.8156C27.725 21.4 26.4375 22.6906 24.8531 22.6906ZM24.8531 18.95C24.375 18.95 23.9875 19.3375 23.9875 19.8156C23.9875 20.2938 24.375 20.6812 24.8531 20.6812C25.3312 20.6812 25.7188 20.2938 25.7188 19.8156C25.7188 19.3375 25.3312 18.95 24.8531 18.95Z"   fill="#00BFFF" >
</path>
<path d="M22.8594 26.6062C19.0938 26.6062 16.0938 24.8281 16.0469 24.7969C8.38438 20.6094 3.57812 25.2437 3.375 25.4437C2.98125 25.8344 2.34687 25.8344 1.95625 25.4437C1.56562 25.0531 1.5625 24.4219 1.95 24.0281C2.00937 23.9688 7.98125 18.1 17.0469 23.0563C17.3375 23.2313 23.3531 26.7625 28.4156 22.6188C28.8438 22.2688 29.4781 22.3313 29.8281 22.7594C30.1781 23.1875 30.1156 23.8219 29.6875 24.1719C27.4375 26.0156 25.0219 26.6031 22.8594 26.6062Z"   fill="#00BFFF" >
</path>
<path d="M31.1897 27.1078L28.2303 27.1078C28.4066 27.3566 28.4869 27.57 28.4713 27.7481C28.4689 27.7727 28.4647 27.797 28.4587 27.8209C28.4075 28.0234 28.2381 28.119 27.9506 28.1075C27.7758 28.1075 27.5499 28.1132 27.2728 28.1247C26.9957 28.1362 26.7648 28.1417 26.58 28.1413C26.3748 28.1525 26.249 28.2228 26.2025 28.3522C26.1791 28.4207 26.1626 28.4908 26.1531 28.5625L31.1897 28.5625C31.4247 28.5625 31.6156 28.3538 31.6156 28.0959L31.6156 27.5747C31.6156 27.3172 31.4247 27.1078 31.1897 27.1078ZM31.1897 30.1619L26.1362 30.1619C26.1377 30.3188 26.1397 30.477 26.1422 30.6366C26.1453 30.833 26.1475 31.0273 26.1488 31.2194L26.1488 31.6153L31.1897 31.6153C31.4247 31.6153 31.6156 31.4066 31.6156 31.1488L31.6156 30.6287C31.6156 30.3713 31.4247 30.1619 31.1897 30.1619ZM31.1897 21L21.4259 21C21.1909 21 21 21.2091 21 21.4666L21 21.9878C21 22.2456 21.1909 22.4547 21.4259 22.4547L31.1897 22.4547C31.4247 22.4547 31.6156 22.2456 31.6156 21.9878L31.6156 21.4666C31.6156 21.2091 31.4247 21 31.1897 21ZM31.1897 24.0541L26.1356 24.0541L26.2872 24.2769C26.4241 24.4783 26.563 24.6847 26.7041 24.8959L27.1169 25.5088L31.1897 25.5088C31.4247 25.5088 31.6156 25.2997 31.6156 25.0419L31.6156 24.5206C31.6156 24.2631 31.4247 24.0541 31.1897 24.0541ZM26.4306 26.9116C26.4677 26.7657 26.4045 26.5823 26.2409 26.3612C26.0922 26.1575 25.923 25.9171 25.7334 25.64C25.5438 25.3629 25.3522 25.0797 25.1584 24.7903C24.9651 24.5009 24.7776 24.2238 24.5959 23.9591C24.4143 23.6943 24.2526 23.4683 24.1109 23.2812C23.9697 23.1021 23.8376 23.0166 23.7147 23.0247C23.5918 23.0328 23.4635 23.1306 23.33 23.3181C23.1812 23.5219 23.0121 23.7643 22.8225 24.0453C22.6329 24.3263 22.4377 24.6154 22.2369 24.9125C22.0362 25.21 21.8429 25.4973 21.6569 25.7744C21.4708 26.0515 21.3073 26.2879 21.1663 26.4837C21.0321 26.6712 20.993 26.824 21.0491 26.9419C21.1051 27.0598 21.2333 27.119 21.4338 27.1194C21.5602 27.1194 21.7034 27.1234 21.8634 27.1316C22.0234 27.1397 22.1589 27.1438 22.2697 27.1441C22.4257 27.1357 22.526 27.2029 22.5706 27.3456C22.6152 27.4883 22.6375 27.6819 22.6375 27.9263L22.6375 28.5C22.6375 28.7122 22.6394 29.5238 22.6431 29.7359C22.6469 29.9481 22.6488 30.1475 22.6488 30.335L22.6488 30.8125C22.6488 31.0898 22.6916 31.2915 22.7772 31.4175C22.8628 31.5435 23.0282 31.6068 23.2734 31.6072C23.452 31.6072 23.6063 31.6051 23.7362 31.6009C23.8662 31.5968 24.0094 31.5948 24.1656 31.595C24.2997 31.595 24.4053 31.5706 24.4834 31.5216C24.5019 31.5104 24.5197 31.4981 24.5366 31.4847C24.5535 31.4713 24.5695 31.4568 24.5845 31.4414C24.5996 31.4259 24.6136 31.4095 24.6265 31.3923C24.6395 31.375 24.6512 31.3569 24.6619 31.3381C24.6723 31.3193 24.6818 31.3 24.6903 31.2802C24.6988 31.2604 24.7064 31.2403 24.7129 31.2198C24.7195 31.1992 24.725 31.1785 24.7296 31.1574C24.7341 31.1364 24.7376 31.1152 24.74 31.0938C24.751 31.0086 24.7566 30.9231 24.7569 30.8372L24.7569 30.2256C24.7569 30.0056 24.755 29.7816 24.7512 29.5534C24.7475 29.325 24.7456 28.5009 24.7456 28.2809L24.7456 27.6819C24.7456 27.519 24.7623 27.3906 24.7956 27.2969C24.829 27.2031 24.9201 27.1522 25.0691 27.1441C25.2028 27.1441 25.37 27.1397 25.5709 27.1319C25.7719 27.1241 25.9353 27.1194 26.0616 27.1194C26.2699 27.1275 26.3926 27.0582 26.4297 26.9116L26.4306 26.9116Z"   fill="#0EBBCB" >
</path>
</svg>
