<svg xmlns="http://www.w3.org/2000/svg" xmlns:xlink="http://www.w3.org/1999/xlink" width="38.65234375" height="42.59765625" viewBox="0 0 38.65234375 42.59765625" fill="none">
<g >
<path     fill="#000000"  d="M13.5156 14.9219Q14.082 14.9023 14.6484 14.8242Q15.8203 14.6875 16.6406 13.9258Q16.8164 13.75 16.8164 13.5938L16.8164 13.457L16.8359 13.1836Q16.8359 13.0078 16.6992 12.7734Q16.6211 12.6562 16.5723 12.4805Q16.5234 12.3047 16.4453 12.1484L16.3867 12.0312L15.7617 10.5664L14.9805 8.61328L14.9219 8.80859L14.9023 9.25781Q14.9023 9.49219 14.9219 9.70703Q14.9414 9.82422 14.9609 9.96094Q14.9805 10.0977 14.9902 10.3125Q15 10.5273 15.0781 10.7812Q15.1562 11.0352 15.1562 11.3281L15.1562 11.6406Q15.1562 11.8164 15.1172 11.9922Q15.0781 12.168 15.0098 12.2363Q14.9414 12.3047 14.7852 12.3242L14.7266 12.3438Q14.5898 12.3438 14.4727 12.4023Q13.8672 12.7344 13.2227 12.7734Q12.4805 12.8711 11.7383 12.9102Q11.4258 12.9102 11.1426 12.9297Q10.8594 12.9492 10.7422 12.9688Q10.2734 13.0469 9.62891 13.0469Q9.57031 13.0664 9.10156 13.0664Q8.65234 13.0664 8.26172 12.9102Q8.04688 12.832 7.92969 12.7051Q7.8125 12.5781 7.8125 12.3242Q7.89062 11.3477 8.67188 10.332L8.90625 10.0195Q9.10156 9.72656 9.35547 9.58984L9.55078 9.45312Q9.74609 9.31641 9.99023 9.19922Q10.2344 9.08203 10.4492 8.88672Q10.6055 8.75 10.6055 8.61328Q10.6055 8.51562 10.5273 8.4375Q10.2734 8.20312 10.1172 7.92969L10.0977 7.92969Q10.0391 7.85156 9.94141 7.8125Q9.92188 7.79297 9.87305 7.76367Q9.82422 7.73438 9.74609 7.73438L9.58984 7.79297Q9.43359 7.85156 9.25781 7.87109Q8.26172 8.10547 7.28516 8.51562Q6.50391 8.78906 5.72266 9.16016Q5.17578 9.41406 4.62891 9.62891Q3.69141 10.0195 3.59375 10.0195L3.51562 10Q3.53516 9.98047 3.55469 9.93164Q3.57422 9.88281 3.61328 9.86328Q4.10156 9.57031 4.33594 9.45312L4.41406 9.39453Q4.55078 9.33594 4.62891 9.24805Q4.70703 9.16016 4.77539 9.16016Q4.84375 9.16016 4.96094 9.10156Q5.11719 8.96484 5.33203 8.90625L5.68359 8.75Q5.91797 8.65234 6.17188 8.51562Q6.28906 8.4375 6.60156 8.28125Q6.99219 8.10547 7.53906 7.75391Q7.8125 7.57812 7.87109 7.57812Q8.02734 7.57812 8.06641 7.38281Q8.16406 7.48047 8.26172 7.48047Q8.33984 7.48047 8.44727 7.40234Q8.55469 7.32422 8.94531 7.14844Q9.19922 7.03125 9.41406 6.85547Q9.45312 6.81641 9.47266 6.81641Q9.74609 6.75781 9.96094 6.58203L10.4492 6.30859Q10.7227 6.07422 10.8887 5.9375Q11.0547 5.80078 11.0547 5.58594Q11.0547 5.48828 10.9766 5.42969Q10.7227 5.17578 10.5469 4.88281Q10.4883 4.78516 10.4297 4.69727Q10.3711 4.60938 10.2539 4.60938L10.1953 4.60938L9.94141 4.6875Q9.45312 4.76562 9.08203 5.11719Q9.04297 5.15625 9.00391 5.15625L8.94531 5.13672L8.14453 5.58594Q7.61719 5.87891 7.08984 6.11328L6.93359 6.17188Q7.07031 5.99609 7.24609 5.85938L7.38281 5.72266Q7.55859 5.50781 7.77344 5.46875Q8.02734 5.35156 8.08594 5.23438Q8.39844 5.09766 9.375 4.31641L10.0781 3.78906Q10.4688 3.53516 10.5566 3.42773Q10.6445 3.32031 10.7812 3.28125Q11.0742 3.14453 11.2695 2.92969L11.3477 2.87109Q11.4648 2.71484 11.6406 2.67578Q11.6992 2.63672 11.6992 2.62695Q11.6992 2.61719 11.7188 2.57812Q11.7578 2.46094 11.7578 2.32422Q11.7578 2.22656 11.6602 2.12891Q11.543 1.93359 11.416 1.79688Q11.2891 1.66016 11.1914 1.64062Q10.8203 1.64062 10.3711 1.95312Q9.47266 2.48047 8.55469 2.83203Q8.45703 2.87109 8.33984 2.89062Q7.96875 2.98828 7.85156 3.14453L7.79297 3.14453Q7.75391 3.14453 7.64648 3.19336Q7.53906 3.24219 7.42188 3.30078Q7.30469 3.35938 7.1875 3.39844L7.12891 3.41797L7.10938 3.39844L7.1875 3.18359Q7.26562 2.92969 7.37305 2.72461Q7.48047 2.51953 7.48047 2.36328Q7.48047 2.1875 7.38281 1.95312Q7.10938 1.28906 6.50391 0.859375Q6.44531 0.820312 6.36719 0.800781Q6.03516 0.742188 5.72266 0.644531Q5.66406 0.625 5.58594 0.625Q5.44922 0.625 5.3125 0.742188L5.60547 1.19141Q5.64453 1.26953 5.64453 1.34766Q5.64453 1.44531 5.57617 1.54297Q5.50781 1.64062 5.44922 1.75781Q4.84375 3.30078 4.02344 4.33594L3.92578 4.47266Q3.69141 4.78516 3.30078 5.17578Q3.08594 5.42969 2.77344 5.56641Q2.69531 5.60547 2.55859 5.72266Q2.42188 5.83984 2.42188 5.9375Q2.42188 6.01562 2.51953 6.09375Q2.8125 6.44531 3.24219 6.64062Q3.35938 6.67969 3.47656 6.67969L3.55469 6.67969Q4.16016 6.50391 4.6582 6.10352Q5.15625 5.70312 5.66406 5.27344Q5.91797 5.03906 6.73828 3.90625Q6.85547 3.73047 7.03125 3.73047L7.07031 3.73047Q7.22656 3.73047 7.34375 3.69141Q7.46094 3.65234 7.51953 3.64258Q7.57812 3.63281 7.61719 3.63281Q7.67578 3.63281 7.75391 3.67188Q7.96875 3.55469 8.19336 3.53516Q8.41797 3.51562 8.63281 3.39844Q8.73047 3.35938 8.82812 3.35938Q8.92578 3.35938 9.00391 3.33984Q9.08203 3.32031 9.14062 3.22266L9.25781 3.24219Q9.35547 3.24219 9.52148 3.17383Q9.6875 3.10547 9.82422 3.08594Q9.80469 3.10547 9.80469 3.1543Q9.80469 3.20312 9.62891 3.37891Q9.45312 3.55469 9.29688 3.73047Q8.67188 4.41406 7.73438 5.11719Q7.57812 5.23438 7.44141 5.37109L6.66016 5.99609Q6.50391 6.09375 6.31836 6.18164Q6.13281 6.26953 5.95703 6.40625Q5.58594 6.69922 5.15625 6.85547Q5.05859 6.89453 5.00977 6.94336Q4.96094 6.99219 4.95117 7.05078Q4.94141 7.10938 4.92188 7.16797L5.23438 7.55859Q5.33203 7.71484 5.52734 7.71484L5.99609 7.69531Q6.38672 7.65625 6.54297 7.65625Q6.32812 7.85156 6.07422 7.96875Q5 8.61328 3.98438 9.16016Q3.14453 9.62891 3.00781 9.73633Q2.87109 9.84375 2.68555 9.94141Q2.5 10.0391 2.37305 10.1562Q2.24609 10.2734 2.12891 10.3516Q2.14844 10.4102 2.19727 10.498Q2.24609 10.5859 2.31445 10.6738Q2.38281 10.7617 2.45117 10.8105Q2.51953 10.8594 2.56836 10.918Q2.61719 10.9766 2.69531 11.0254Q2.77344 11.0742 2.87109 11.0938L3.26172 11.0742Q3.33984 11.0938 3.41797 11.1523Q3.45703 11.1523 3.47656 11.1328Q3.88672 11.0156 4.21875 10.8594Q4.41406 10.7617 4.62891 10.7227Q4.74609 10.6836 4.84375 10.625Q5.03906 10.5273 5.23438 10.5273Q5.29297 10.5273 5.41016 10.4688Q5.70312 10.2734 6.05469 10.1562L7.05078 9.78516Q7.40234 9.62891 7.77344 9.49219Q7.79297 9.49219 7.86133 9.45312Q7.92969 9.41406 8.02734 9.41406Q8.10547 9.41406 8.18359 9.49219Q8.02734 9.6875 7.75391 10.1953L7.69531 10.2734Q7.51953 10.5859 7.05078 11.8359Q6.89453 12.1875 6.89453 12.5195Q6.89453 12.9102 7.03125 13.0469L7.98828 14.0625Q8.26172 14.3359 8.65234 14.4141Q9.23828 14.5508 9.84375 14.6484L10.4297 14.7656Q10.5664 14.7852 10.7227 14.7852L11.1133 14.7656L11.6016 14.8047L11.9531 14.8633L12.2852 14.8242L12.793 14.9023Q13.1445 14.9219 13.5156 14.9219ZM32.0508 16.3281Q31.9336 16.3281 31.8164 16.2109L31.1328 15.6055Q30.7617 15.2734 30.6055 14.7852Q30.5469 14.5703 30.4492 14.3555Q30.0781 13.125 29.9609 12.4609Q30.3516 13.0664 30.7031 13.6523L31.0156 13.5352L31.0156 13.5156L31.0547 13.3203Q31.1133 13.1641 31.1133 13.0078Q31.1133 12.9492 31.0938 12.8809Q31.0742 12.8125 31.0742 12.7344Q31.0742 12.6367 31.123 12.5391Q31.1719 12.4414 31.1719 12.3047L31.1719 12.0508Q31.0938 12.0703 30.9961 12.0703Q30.7812 12.0898 30.5859 12.1289L30.4688 12.1484Q30.2539 12.1484 30.0977 11.9531Q29.9805 11.8359 29.8242 11.6895Q29.668 11.543 29.668 11.4648Q29.668 11.4062 29.707 11.3477Q29.8438 11.1133 30.1758 11.0742L30.1953 11.0547L31.2305 10.8594L31.3281 9.43359L30.6836 9.74609Q28.7695 10.6055 27.0312 11.7188L26.3867 11.1328Q26.4062 10.918 26.582 10.7422Q26.6406 10.7227 26.6602 10.6641Q26.6797 10.6055 26.6895 10.5371Q26.6992 10.4688 26.7285 10.4688Q26.7578 10.4688 26.7773 10.4492Q26.8945 10.4492 26.8945 10.3125Q26.9336 10.0781 27.2852 9.88281L27.3633 9.84375Q27.3633 9.62891 27.5977 9.49219Q27.7148 9.41406 27.793 9.31641Q27.9492 9.08203 28.1641 8.88672Q28.3789 8.69141 28.5742 8.49609Q28.9062 8.20312 29.2383 7.83203L29.5898 7.46094Q29.6094 7.44141 29.6582 7.38281Q29.707 7.32422 29.7559 7.27539Q29.8047 7.22656 29.9023 7.22656Q30.1758 6.85547 30.5664 6.60156Q30.7617 6.44531 30.9375 6.25L31.1133 6.07422L31.1328 6.03516Q31.0938 6.01562 30.9766 6.01562Q30.5859 6.17188 29.9609 6.43555Q29.3359 6.69922 29.1602 6.81641Q28.4766 7.16797 27.6367 7.30469L27.5391 7.32422Q27.3242 7.32422 27.041 7.03125Q26.7578 6.73828 26.4844 6.46484Q26.3867 6.36719 26.3867 6.26953Q26.3867 6.15234 26.582 5.95703Q26.6602 5.99609 26.7578 6.01562Q27.2852 6.15234 27.4023 6.15234Q27.6172 6.15234 27.793 6.05469Q28.0664 5.89844 28.3691 5.78125Q28.6719 5.66406 28.9844 5.44922Q29.1406 5.35156 29.3555 5.29297L29.5117 5.23438L29.5703 5.23438L29.6484 5.19531Q30.1172 4.92188 30.6348 4.74609Q31.1523 4.57031 31.4453 4.41406Q31.543 4.35547 31.543 4.19922L31.4844 3.51562Q31.4844 3.24219 31.543 2.94922Q31.543 2.87109 31.5137 2.75391Q31.4844 2.63672 31.4844 2.03125L31.4453 1.28906L31.3867 1.05469Q30.5469 1.21094 30.5469 2.01172L30.5469 2.12891Q30.5469 2.08984 30.5176 2.01172Q30.4883 1.93359 30.4688 1.83594Q30.4688 1.46484 30.5664 1.16211Q30.6641 0.859375 30.9961 0.644531Q31.0938 0.585938 31.1816 0.478516Q31.2695 0.371094 31.3867 0.292969Q31.8945 0 32.0508 0Q32.1875 0 32.2852 0.15625Q32.5 0.46875 32.8027 0.664062Q33.1055 0.859375 33.1055 1.23047L33.1055 1.36719Q33.1055 1.95312 32.9688 2.5Q32.9297 2.63672 32.9297 2.79297L32.9492 3.125Q32.9492 3.30078 32.9102 3.47656L32.9102 3.82812L33.2031 3.73047Q34.1406 3.39844 34.6875 3.30078Q35.5078 3.14453 35.6055 3.14453Q35.7227 3.14453 35.8203 3.24219Q36.3281 3.94531 36.5625 4.21875L36.0547 4.82422Q34.9219 4.82422 34.4922 4.94141L34.1797 5.01953L34.043 5.01953Q33.8281 5.01953 33.6426 5.11719Q33.457 5.21484 32.8516 5.37109Q32.8516 5.52734 32.832 5.66406Q32.832 5.99609 32.8125 6.28906L32.832 6.71875Q32.832 7.05078 32.8223 7.11914Q32.8125 7.1875 32.8125 7.34375Q32.8125 7.51953 32.832 7.59766Q32.8516 7.67578 32.8516 7.79297L32.832 8.10547Q32.832 8.20312 32.8906 8.39844Q33.0469 8.39844 33.2812 8.35938L34.082 8.16406L35.4102 7.87109Q35.8789 7.79297 36.3281 7.79297Q36.6016 7.79297 36.8457 7.8125Q37.0898 7.83203 37.2852 7.83203Q37.5586 7.85156 37.6953 8.08594Q37.8906 8.37891 38.1836 8.59375Q38.3398 8.73047 38.418 8.88672L38.3594 9.08203L38.2227 9.49219Q38.1641 9.58984 38.1055 9.62891L37.7344 9.78516Q37.3242 9.98047 36.875 10.0391Q36.7578 10.0586 36.6699 10.0977Q36.582 10.1367 36.4844 10.1562L35.8398 10.3125Q34.9219 10.4883 34.4141 10.6445Q34.375 10.6641 34.3262 10.6738Q34.2773 10.6836 34.248 10.7129Q34.2188 10.7422 34.1992 10.7422Q34.1992 10.8789 34.2773 10.9766Q34.3555 11.0742 34.4629 11.1621Q34.5703 11.25 34.6484 11.3672L34.5508 11.5625Q34.5508 11.7773 34.2188 11.7773L32.9102 11.7773Q32.8516 11.7773 32.7832 11.8359Q32.7148 11.8945 32.7148 12.3828Q32.7148 12.6367 32.6562 12.8906L32.6562 12.9492L32.6953 13.2812L32.6367 14.0039L32.6562 14.1211L32.6953 14.2188Q32.6172 14.3359 32.6172 14.4336Q32.6172 14.5508 32.6465 14.6582Q32.6758 14.7656 32.6758 14.8633Q32.6758 15.0781 32.6562 15.2832Q32.6367 15.4883 32.5879 15.7031Q32.5391 15.918 32.3535 16.123Q32.168 16.3281 32.0508 16.3281ZM32.8906 10.4102Q32.9297 10.4102 32.959 10.3711Q32.9883 10.332 33.0273 10.3125Q33.0664 10.293 33.1152 10.293Q33.1641 10.293 33.2031 10.2734Q33.6133 10.0586 34.043 9.92188L34.5117 9.74609L36.25 9.02344Q36.4648 8.92578 36.6992 8.76953L36.9336 8.63281Q36.6016 8.4375 36.3281 8.41797L36.2891 8.39844Q35.8984 8.33984 35.5078 8.33984Q34.7461 8.33984 33.3594 8.67188Q33.125 8.73047 32.9785 8.78906Q32.832 8.84766 32.832 9.02344Q32.8711 9.19922 32.8711 9.375Q32.8711 9.53125 32.832 9.70703L32.8125 10.0195Q32.8125 10.332 32.8418 10.3711Q32.8711 10.4102 32.8906 10.4102ZM28.457 10.1562Q28.9453 10 29.4141 9.78516Q30.0195 9.49219 30.625 9.25781L31.25 8.98438Q31.3281 8.94531 31.3672 8.84766Q31.4062 8.75 31.4453 7.59766Q31.4648 7.42188 31.4648 7.22656L30.6836 7.87109L30.0391 8.51562Q29.9805 8.61328 29.7754 8.75Q29.5703 8.88672 29.4336 9.08203Q29.2969 9.27734 29.0625 9.42383Q28.8281 9.57031 28.6621 9.78516Q28.4961 10 28.3008 10.1562L28.457 10.1562ZM24.2188 13.1836L24.1406 13.1445Q23.8867 13.0469 23.2422 12.4219Q23.1055 12.2656 23.1055 12.0703Q23.1055 11.8945 23.1543 11.709Q23.2031 11.5234 23.2227 11.3281L23.6133 9.57031Q23.7109 9.39453 23.7695 8.82812Q23.7695 8.55469 23.5742 8.55469Q23.4375 8.55469 23.2617 8.69141Q23.2227 8.73047 22.998 8.82812Q22.7734 8.92578 22.6172 9.10156Q22.4609 9.27734 22.3047 9.43359Q22.1484 9.58984 22.0117 9.74609L21.0547 10.7227Q20.957 10.8008 20.8691 10.8496Q20.7812 10.8984 20.7129 10.9375Q20.6445 10.9766 20.5859 11.0547Q20.4492 11.2109 20.2344 11.2891L20.1172 11.3086Q19.9805 11.3086 19.8926 11.1914Q19.8047 11.0742 19.6289 10.9961Q19.668 10.918 19.7461 10.8398Q21.0742 9.51172 21.5039 8.82812L21.8945 8.30078Q22.2461 7.85156 22.5195 7.40234Q22.7148 7.01172 23.0859 6.50391L23.1055 6.46484Q23.2031 6.32812 23.2031 6.21094L23.2227 6.05469Q23.4766 5.72266 23.6328 5.33203Q23.7305 5.13672 23.8281 4.96094Q23.9258 4.78516 23.9941 4.54102Q24.0625 4.29688 24.1992 4.07227Q24.3359 3.84766 24.3359 3.61328Q24.3359 3.35938 24.1602 3.10547Q23.9844 2.75391 23.5938 2.63672Q23.5938 2.51953 23.6719 2.51953Q23.75 2.51953 23.7695 2.55859Q24.9219 2.94922 25.6836 4.10156Q25.9766 4.47266 25.9766 4.51172L25.9375 4.55078Q25.918 4.60938 25.9082 4.6875Q25.8984 4.76562 25.8984 4.86328L25.918 4.98047Q25.8984 5.35156 25.6445 5.60547Q25.5273 5.74219 25.4395 5.89844Q25.3516 6.05469 25.2148 6.20117Q25.0781 6.34766 24.9609 6.54297Q24.7852 6.81641 24.5117 7.03125Q24.4141 7.07031 24.4141 7.1875Q24.3359 7.40234 24.1406 7.40234L24.1016 7.40234Q24.0039 7.71484 23.75 7.91016Q23.6523 7.98828 23.4961 8.30078Q23.6523 8.33984 23.9062 8.33984L23.9453 8.33984Q24.082 8.33984 24.1406 8.4375L24.1406 8.47656Q24.1797 8.51562 24.2188 8.57422Q24.2578 8.63281 24.3164 8.65234Q24.668 8.84766 24.7852 9.21875L24.8047 9.27734Q24.9023 9.47266 24.9023 9.66797Q24.8633 10.4297 24.8633 11.1914Q24.8633 11.5625 24.8438 11.6895Q24.8242 11.8164 24.668 12.7539Q24.668 12.8906 24.2188 13.1836ZM8.65234 41.0352Q8.92578 41.0352 9.17969 40.7617Q9.43359 40.4883 9.94141 39.4727Q10.2148 38.9844 10.4688 38.4766Q11.1328 37.3047 11.1328 37.2266Q11.1328 37.1484 11.1523 37.0898L10.4492 37.8125Q9.6875 38.7109 8.71094 39.3945Q8.65234 39.1797 8.65234 38.9844L8.76953 38.2617Q8.88672 37.7148 8.90625 37.4023Q9.00391 36.7773 9.04297 36.6797Q9.10156 36.3867 9.10156 36.2891Q9.10156 35.957 9.12109 35.8301Q9.14062 35.7031 9.14062 35.5859Q9.14062 35.3906 9.0918 35.166Q9.04297 34.9414 8.76953 34.7266Q8.71094 34.6875 8.69141 34.6191Q8.67188 34.5508 8.65234 34.5117Q8.80859 34.5117 8.94531 34.5312Q9.29688 34.5312 9.60938 34.5117Q10 34.5117 10.2734 34.7266L11.6992 35.8203Q12.9492 36.8164 13.5352 37.2461Q14.1992 37.7148 14.9219 38.0469L14.9609 38.0664Q15.6445 38.4375 16.4062 38.4375Q16.8945 38.4375 17.1875 38.3398Q18.0859 37.8906 18.7109 37.7148Q18.8477 37.6953 18.9844 37.5977Q18.8672 37.5391 18.7305 37.5Q18.4961 37.3828 18.2812 37.3047Q17.4609 37.0117 16.6992 36.6797Q16.3672 36.543 15.9961 36.4355Q15.625 36.3281 15.2539 36.1523Q15.0586 36.0742 14.8438 36.0156Q14.375 35.918 14.1211 35.6641Q14.1016 35.625 14.0625 35.6152Q14.0234 35.6055 14.0039 35.6055L13.0859 35.1758L11.7969 34.5312Q11.582 34.4922 11.543 34.2578L11.6211 34.2188L12.3438 34.0234Q13.6914 33.6133 14.9219 32.9102Q15.4102 32.6953 15.6836 32.207Q15.7812 32.0117 15.7812 31.7773Q15.7617 31.543 15.5469 31.3867Q15.3906 31.2891 15.293 31.1328Q15.1172 30.8594 14.9219 30.8594Q14.7656 30.8594 14.6094 30.9961Q14.2578 31.2891 13.9844 31.6602Q13.8281 31.8945 13.5742 32.0508L13.0078 32.5L12.6953 32.6953Q12.0703 33.1055 10.9961 33.75Q10.6641 33.9453 10.3516 33.9453Q10.0586 33.9453 9.43359 33.5938L9.14062 33.4375Q9.41406 32.8906 9.60938 32.4023L10.0195 32.2852Q11.7773 31.875 13.0469 30.957Q13.2227 30.8008 13.418 30.6836Q14.1406 30.2344 14.668 29.5898Q14.8242 29.375 14.8242 29.1406Q14.8047 29.0625 14.5605 28.8477Q14.3164 28.6328 14.1211 28.3789Q13.9844 28.2227 13.8281 28.2227Q13.6719 28.2227 13.3203 28.3594L11.2305 28.9453Q11.3086 28.7695 11.4648 28.2422Q11.5234 28.0273 11.5234 27.8125Q11.5234 27.6953 11.4941 27.5Q11.4648 27.3047 11.1914 27.0508Q10.9961 26.875 10.8203 26.6797Q10.7031 26.543 10.5859 26.543Q10.4492 26.543 10.1367 26.7383Q9.98047 26.8359 9.88281 27.0312Q9.90234 27.0312 9.93164 27.0508Q9.96094 27.0703 10 27.0703Q10.1758 27.1094 10.2539 27.1484Q10.332 27.1875 10.332 27.2852L10.293 27.5977Q10.2148 27.9102 10.0781 28.2422L9.70703 29.2969Q9.58984 29.668 9.23828 29.8438L8.94531 30Q8.45703 30.2148 8.02734 30.5859L7.71484 30.7031Q7.65625 30.4102 7.65625 30.1758Q7.69531 30.0586 7.69531 29.9414Q7.69531 29.7266 7.5 29.5312Q7.1875 29.2383 6.85547 28.9648Q6.58203 29.0234 6.46484 29.3164Q6.40625 29.4727 6.40625 29.668Q6.40625 29.8633 6.23047 30.3125L6.13281 30.5859Q5.91797 31.4453 5.58594 32.1484Q5.29297 32.7734 5.29297 33.0273L5.27344 33.2227Q3.86719 34.7266 2.61719 36.4844Q1.99219 37.3438 1.32812 38.1836Q1.26953 38.0859 1.23047 38.0176Q1.19141 37.9492 1.19141 37.8711Q1.13281 37.9297 1.09375 38.0078L0.898438 38.2617L0.898438 38.2812Q0.664062 38.5938 0.664062 38.7305Q0.664062 38.8477 0.683594 38.9062Q0.839844 39.0234 0.976562 39.1797Q1.19141 39.4727 1.54297 39.6484L1.75781 39.5117Q1.99219 39.3555 2.23633 39.2188Q2.48047 39.082 2.56836 38.8965Q2.65625 38.7109 2.77344 38.6035Q2.89062 38.4961 2.92969 38.3594Q3.08594 38.0664 3.28125 37.7734Q3.75 37.0898 4.62891 35.0977Q5.11719 33.9844 5.35156 33.5352L5.50781 33.2031Q5.82031 33.6133 5.97656 33.6133Q6.15234 33.6133 6.67969 32.832Q6.85547 32.5391 7.02148 32.2461Q7.1875 31.9531 7.36328 31.6699Q7.53906 31.3867 7.77344 31.2109Q8.49609 30.7227 9.25781 30.2344Q9.25781 30.2734 9.27734 30.293Q9.29688 30.3125 9.29688 30.332L9.27734 30.3516Q9.10156 30.7031 8.96484 31.0547Q8.76953 31.5625 8.47656 32.0312Q8.18359 32.5 7.92969 33.0273L7.34375 34.082Q6.97266 34.7852 6.48438 35.4102Q5.87891 36.1328 5.21484 36.7773Q4.64844 37.4023 4.3457 37.6562Q4.04297 37.9102 4.02344 38.0273Q4.02344 38.125 4.07227 38.1738Q4.12109 38.2227 4.18945 38.3008Q4.25781 38.3789 4.3457 38.4473Q4.43359 38.5156 4.53125 38.5547Q4.6875 38.5547 4.90234 38.4375L5.23438 38.2617Q5.35156 38.1445 5.48828 38.0469Q5.83984 37.7734 6.15234 37.4609Q6.85547 36.7773 7.28516 36.0938Q7.48047 35.8398 7.70508 35.5664Q7.92969 35.293 8.22266 35.0977L8.26172 35.2734L8.24219 35.332Q7.87109 36.6211 7.79297 37.1484Q7.75391 37.4023 7.69531 37.6367Q7.46094 38.7695 7.44141 39.9023Q7.44141 40 7.5 40.0781Q7.59766 40.293 8.24219 40.8008Q8.47656 41.0352 8.65234 41.0352ZM9.78516 32.2266L9.72656 32.1875Q9.80469 31.9922 10.2344 31.25Q10.2344 31.2305 10.2441 31.2207Q10.2539 31.2109 10.2637 31.2109Q10.2734 31.2109 10.2734 31.1914Q10.332 30.8008 10.5469 30.4688Q10.7031 30.2344 10.7812 29.9609Q10.8594 29.7852 10.9766 29.6094Q11.0156 29.5508 11.0352 29.5117Q11.0547 29.4727 11.084 29.4531Q11.1133 29.4336 11.3477 29.3945Q11.9531 29.1992 12.6758 29.1992L13.0469 29.2188Q11.6797 31.1133 9.78516 32.2266ZM8.94531 34.3555Q8.80859 34.3555 8.61328 34.3164L8.90625 33.8086L9.41406 34.1016Q9.31641 34.3555 8.94531 34.3555ZM1.42578 34.5312L1.69922 34.4922Q2.03125 34.4727 2.34375 34.3555Q2.53906 34.2773 2.75391 34.2578Q3.37891 34.2188 3.69141 33.6914Q3.75 33.5938 3.75 33.5156Q3.75 33.3789 3.61328 33.2812Q3.18359 32.9688 2.94922 32.5Q2.73438 32.2461 2.46094 32.2461Q2.32422 32.2461 2.16797 32.3047Q1.46484 32.5977 0.839844 32.9883L0.644531 33.0859Q0.175781 33.3203 0 33.6523L0.175781 33.8477Q0.371094 34.0625 0.605469 34.2578Q0.917969 34.5312 1.32812 34.5312L1.42578 34.5312ZM3.98438 30.6836Q4.66797 30.5664 4.99023 30.3906Q5.3125 30.2148 5.3125 29.9414Q5.3125 29.7461 5.13672 29.5312Q4.78516 29.1797 4.47266 28.7891Q4.25781 28.5352 3.98438 28.5352L3.86719 28.5547Q2.75391 28.6719 2.10938 29.3164Q2.1875 29.3555 2.24609 29.4141Q2.73438 29.7266 3.28125 29.7852L3.41797 29.8047Q3.92578 29.8828 3.96484 30.3906L3.96484 30.5664L3.98438 30.6836ZM35.8789 42.5977Q34.8242 42.5977 34.0234 41.875Q33.3984 41.3672 32.7539 40.918Q32.2656 40.6055 31.7188 40.0977Q31.0938 39.5312 30.8203 39.3359L30.4883 39.5508Q29.6484 40.1953 29.2383 40.2539L28.8672 40.3711Q28.5547 40.5078 28.2031 40.5273Q28.0273 40.5469 27.8516 40.625L27.6758 40.6641L27.5781 40.7031Q27.3828 40.6445 27.168 40.6055Q26.8359 40.5664 26.543 40.4492Q26.25 40.332 26.0352 40.0195Q25.918 39.8633 25.7617 39.7266Q25.3711 39.4727 25.3711 39.1211Q25.3711 39.0234 25.4004 38.9453Q25.4297 38.8672 25.4688 38.8281Q25.5078 38.7891 25.5273 38.7793Q25.5469 38.7695 25.5664 38.7695L25.625 38.8672L25.7227 39.1016Q26.1328 39.8047 27.0703 39.8047L27.3047 39.7852Q28.5938 39.5898 29.5898 38.75Q29.7656 38.6133 29.9609 38.418L29.2578 37.7148Q29.1211 37.5977 28.9844 37.5977Q28.75 37.5977 28.3203 37.8906Q27.8906 38.1836 27.3828 38.3398L27.207 38.2812Q27.2852 37.9688 27.5586 37.8418Q27.832 37.7148 28.0859 37.5781Q28.7695 37.1289 29.1797 37.1289Q29.5312 37.1289 29.8828 37.3438Q30.0781 37.4609 30.293 37.5586L30.4883 37.6562Q30.918 36.9336 31.1523 36.1328Q31.1719 36.0547 31.2109 35.9961Q31.1133 35.918 31.0156 35.918Q30.9375 35.918 30.8594 35.957Q30.3125 36.1914 29.7461 36.4062Q28.1055 37.0117 27.2852 37.4219Q27.168 37.4805 27.0508 37.4805Q26.8555 37.4805 26.5625 37.2266L26.2891 36.9727Q26.1328 36.8359 26.1328 36.6992Q26.1328 36.543 26.2988 36.3672Q26.4648 36.1914 26.7773 36.1914L27.0508 36.1914Q27.4805 36.1914 27.8711 36.0352L27.8906 36.0352Q27.9297 35.9961 27.9883 35.9961Q28.7109 35.957 29.375 35.7617L29.8828 35.625Q30.4102 35.4883 30.8789 35.293L31.1133 35.2148Q31.5234 35.0586 31.6406 34.8242Q31.6406 34.7852 31.6699 34.7559Q31.6992 34.7266 31.7188 34.7266L32.0312 34.5898Q32.3242 34.4336 32.6172 34.4336Q32.7539 34.4336 32.9199 34.4727Q33.0859 34.5117 33.1836 34.707L33.3594 34.9414Q33.5352 35.1172 33.5352 35.332Q33.5352 35.5078 33.3594 35.7031Q33.0273 36.0742 32.8516 36.5039L32.7539 36.7188Q32.4609 37.2461 32.2461 37.7734L32.168 37.8906Q31.8555 38.2422 31.7383 38.3984L32.3633 38.7695Q33.3594 39.3945 33.9258 39.5508Q33.9648 39.5508 33.9844 39.5703Q34.2773 39.7656 34.5898 39.834Q34.9023 39.9023 35.1562 40.0586L35.2148 40.0586Q35.4297 40.0586 35.6055 40.1758L35.8203 40.2539Q36.5625 40.5078 37.1289 40.9961Q37.6172 41.3281 38.0664 41.7188Q38.3008 41.8945 38.4766 42.0703L38.6523 42.2266L38.2812 42.3047Q37.3242 42.4609 36.9824 42.4902Q36.6406 42.5195 36.2695 42.5781L35.8789 42.5977ZM20 41.5039Q19.6875 41.3281 19.5703 41.1719Q19.4531 41.0156 19.3945 40.6641Q20.1562 39.7656 20.4492 39.3359Q20.8008 38.7109 21.3477 38.457Q21.3867 38.6328 21.4062 38.75Q21.4258 38.8672 21.4648 38.9844Q21.6797 38.8281 21.7773 38.6133L22.9297 36.9141Q23.1836 36.582 23.3594 36.2109Q23.6328 35.5469 23.9648 34.9219Q24.4141 34.082 24.7461 33.2031Q24.8242 32.8906 24.8242 32.7734Q24.8242 32.6562 24.7852 32.5195Q24.4141 32.3828 24.0234 32.3828Q23.7305 32.3828 23.418 32.4609Q23.6719 32.2266 23.9453 32.1484Q24.2188 32.0703 24.5117 32.0312Q24.707 32.0312 24.7852 32.0117Q24.8633 31.9922 24.9219 31.9922Q25.293 31.9922 25.5469 32.3438Q25.8984 32.8516 26.4648 32.8516Q26.6406 32.8516 26.8359 32.793Q27.6172 32.5 27.8711 32.4414Q27.8711 32.2461 27.8223 32.0898Q27.7734 31.9336 27.7051 31.8164Q27.6367 31.6992 27.5879 31.582Q27.5391 31.4648 27.207 31.4453L27.3633 31.7188Q27.3047 31.7188 27.2656 31.6992Q26.9336 31.5039 26.9336 31.3086Q26.9336 31.1914 27.0703 31.0938Q27.4414 30.8398 27.7539 30.8398Q28.0078 30.8398 28.1641 31.0938Q28.3984 31.3867 28.6914 31.6602L28.9062 31.8945Q30.0781 31.6406 31.1328 31.2891L31.1523 31.0742Q31.1719 30.8789 31.2109 30.7031L31.2109 30.6055Q31.2109 30.3125 30.957 30.3125L30.8008 30.332Q30.5078 30.4102 30.4297 30.4785Q30.3516 30.5469 30.3125 30.8008Q30.2539 30.6445 30.2539 30.5273Q30.2539 30.2148 30.5859 30.0586Q30.9961 29.9219 31.4453 29.8633Q31.5234 29.8242 31.6016 29.8242Q31.7773 29.8242 31.9043 29.9805Q32.0312 30.1367 32.207 30.2734L32.2266 30.2734Q32.3438 30.3711 32.4219 30.4492Q32.5 30.5273 32.5391 30.8203L32.7539 30.7812Q33.5352 30.6641 33.6523 30.6641Q33.9844 30.6641 34.1406 30.9961Q34.2188 31.1523 34.4043 31.2793Q34.5898 31.4062 34.5898 31.582Q34.5898 31.6602 34.5703 31.7188Q34.3164 31.9141 34.1406 32.0215Q33.9648 32.1289 33.5156 32.1289Q33.2812 32.1289 33.0469 32.0898L32.9883 32.0898Q32.8906 32.0898 32.4414 32.2852L32.2852 32.3438L31.9727 33.1055L31.9727 33.1445Q32.0312 33.2812 32.2266 33.4961Q32.3438 33.6328 32.3438 33.7305Q32.3438 34.0039 31.8164 34.0625L31.7578 34.0625Q31.543 34.0625 31.4453 34.2188Q31.3672 34.2969 31.2695 34.2969Q31.2109 34.2969 31.1719 34.2773Q30.9961 34.1992 30.8203 34.1992Q30.6445 34.1992 30.3711 34.3164L30.2148 34.375Q29.3945 34.668 28.6133 35.0391Q28.5352 35.0391 28.1738 35.2734Q27.8125 35.5078 27.7148 35.5078Q27.6172 35.5078 27.4609 35.332L27.1484 35.0195L27.1289 34.9805L27.1289 34.8047Q27.1289 34.7266 27.3438 34.5117Q27.5 34.3945 27.5586 34.1992Q27.6172 34.0039 27.7148 33.8281L27.793 33.6328L27.6367 33.6133Q27.5 33.6328 27.3633 33.6621Q27.2266 33.6914 27.0508 33.6914Q26.8164 33.6914 26.6211 33.5156Q26.4844 33.3984 26.3086 33.3203L26.1523 33.2227L25.957 33.6133Q25.1172 35.4883 23.6914 37.4414Q23.418 37.793 23.1836 38.1641Q22.7734 38.8086 22.2266 39.375Q20.4297 41.2891 20.1367 41.4258L20 41.5039ZM29.2773 33.6914Q29.6094 33.5352 29.9805 33.4375Q30.2148 33.3789 30.4297 33.2812Q30.7812 33.1836 30.8398 33.1836L30.9375 32.5586L30.8008 32.5977Q30.5273 32.6367 30.4883 32.6562Q29.4141 32.9297 29.1602 33.0664Q29.0234 33.1641 29.0234 33.4766Q29.0234 33.6914 29.2383 33.6914L29.2773 33.6914ZM24.7461 31.3281Q24.707 31.3281 24.6484 31.2988Q24.5898 31.2695 23.8867 30.6445Q23.8281 30.5859 23.8281 30.4688Q23.8281 30.293 23.9453 30.1953Q24.1797 29.9805 24.4922 29.9609Q24.6094 29.9609 24.7266 29.9316Q24.8438 29.9023 24.9219 29.9023Q25.0195 29.9023 25.127 29.9414Q25.2344 29.9805 25.3516 29.9805Q25.5859 29.9805 25.791 29.9219Q25.9961 29.8633 26.2109 29.7656L26.6211 29.6289Q26.9336 29.5117 27.2656 29.4141Q27.7734 29.2188 28.4766 29.0234L28.6523 28.9258Q28.3398 28.3789 28.3398 27.7539L28.3398 27.4609L28.3594 27.0898Q28.3594 26.7969 28.0859 26.6797Q28.0078 26.6406 27.8613 26.5918Q27.7148 26.543 27.5586 26.4648L27.6953 26.3867Q27.9297 26.1914 28.418 26.1914Q28.5156 26.1914 28.7402 26.2305Q28.9648 26.2695 29.2383 26.6016Q29.4531 26.8555 29.6875 27.0703Q29.7266 27.1289 29.7852 27.168Q30.2344 27.5977 30.2539 28.2227Q30.2539 28.3008 30.332 28.3789L31.0547 28.2031Q32.6172 27.8125 32.6953 27.8125Q32.9688 27.7734 33.1055 27.7734Q33.2227 27.793 33.3105 27.8809Q33.3984 27.9688 33.5547 28.2031Q33.6523 28.3398 33.7695 28.457Q33.9844 28.6719 33.9844 28.8086Q33.9844 28.9648 33.7891 29.0625Q33.7305 29.082 33.6719 29.1309Q33.6133 29.1797 33.5645 29.1992Q33.5156 29.2188 33.4766 29.2383Q33.3789 29.3164 33.2617 29.3359Q32.7734 29.3359 32.2852 29.2969Q32.2461 29.2969 32.168 29.2188Q32.0898 29.043 31.9141 29.043L30.8984 29.1602Q30.6836 29.2188 30.4395 29.3164Q30.1953 29.4141 29.9023 29.5117Q28.125 30.1367 26.582 30.7812Q26.0156 31.0156 25.4297 31.2305Q25.1758 31.3086 24.9219 31.3086Q24.8242 31.3086 24.7461 31.3281Z">
</path>
</g>
</svg>
