<svg xmlns="http://www.w3.org/2000/svg" xmlns:xlink="http://www.w3.org/1999/xlink" width="32" height="32" viewBox="0 0 32 32" fill="none">
<path d="M3.8375 13.1625C2.39375 13.1625 1.21875 11.9875 1.21875 10.5437C1.21875 9.1 2.39375 7.925 3.8375 7.925C5.28125 7.925 6.45625 9.1 6.45625 10.5437C6.45625 11.9875 5.28125 13.1625 3.8375 13.1625ZM3.8375 9.93437C3.5 9.93437 3.22813 10.2094 3.22813 10.5437C3.22813 10.8781 3.5 11.1562 3.8375 11.1562C4.175 11.1562 4.44688 10.8813 4.44688 10.5469C4.44688 10.2125 4.175 9.93437 3.8375 9.93437ZM11.9219 11.5188C9.82187 11.5188 8.1125 9.80937 8.1125 7.7125C8.1125 5.61562 9.82187 3.90625 11.9219 3.90625C14.0219 3.90625 15.7281 5.61562 15.7281 7.7125C15.7281 9.80937 14.0219 11.5188 11.9219 11.5188ZM11.9219 5.90938C10.9281 5.90938 10.1219 6.71562 10.1219 7.70937C10.1219 8.70312 10.9281 9.50937 11.9219 9.50937C12.9156 9.50937 13.7219 8.70312 13.7219 7.70937C13.7219 6.71562 12.9125 5.90938 11.9219 5.90938ZM20.4375 12.2156C19.8406 12.2156 19.2594 12.0312 18.7656 11.675C18.1437 11.225 17.7313 10.5625 17.6094 9.80625C17.4844 9.05 17.6656 8.2875 18.1125 7.66563C19.0375 6.38125 20.8375 6.08437 22.1219 7.00938C22.7437 7.45937 23.1562 8.12187 23.2812 8.87813C23.4062 9.63437 23.225 10.3969 22.7781 11.0188C22.3312 11.6406 21.6656 12.0531 20.9094 12.1781C20.75 12.2031 20.5938 12.2156 20.4375 12.2156ZM20.4469 8.475C20.1781 8.475 19.9125 8.6 19.7437 8.83438C19.6094 9.02188 19.5531 9.25 19.5906 9.47812C19.6281 9.70625 19.7531 9.90625 19.9406 10.0406C20.1281 10.175 20.3563 10.2281 20.5844 10.1938C20.8125 10.1562 21.0125 10.0312 21.1469 9.84375C21.425 9.45625 21.3375 8.9125 20.95 8.63437C20.7969 8.52812 20.6219 8.475 20.4469 8.475ZM27.7156 15.3844C25.9375 15.3844 24.4906 13.9375 24.4906 12.1594C24.4906 10.3813 25.9406 8.9375 27.7156 8.9375C29.4906 8.9375 30.9406 10.3844 30.9406 12.1625C30.9406 13.9406 29.4937 15.3844 27.7156 15.3844ZM27.7156 10.9438C27.0438 10.9438 26.5 11.4906 26.5 12.1594C26.5 12.8313 27.0469 13.375 27.7156 13.375C28.3875 13.375 28.9312 12.8281 28.9312 12.1594C28.9344 11.4906 28.3875 10.9438 27.7156 10.9438ZM9.11563 19.1031C7.24375 19.1031 5.71875 17.5781 5.71875 15.7063C5.71875 13.8344 7.24375 12.3094 9.11563 12.3094C10.9875 12.3094 12.5125 13.8344 12.5125 15.7063C12.5125 17.5781 10.9906 19.1031 9.11563 19.1031ZM9.11563 14.3156C8.35 14.3156 7.725 14.9375 7.725 15.7063C7.725 16.4719 8.34688 17.0969 9.11563 17.0969C9.88125 17.0969 10.5063 16.475 10.5063 15.7063C10.5063 14.9406 9.88437 14.3156 9.11563 14.3156ZM17.7344 18.1094C17.2469 18.1094 16.7563 17.9625 16.3344 17.6594C15.8125 17.2844 15.4688 16.7281 15.3656 16.0938C15.2625 15.4594 15.4125 14.8219 15.7875 14.3C16.1625 13.7781 16.7188 13.4344 17.3531 13.3313C17.9875 13.2281 18.625 13.3781 19.1469 13.7531C20.225 14.5281 20.4688 16.0344 19.6969 17.1094C19.2188 17.7625 18.4813 18.1094 17.7344 18.1094ZM18.875 16.525L18.8844 16.525L18.875 16.525ZM17.7375 15.3062C17.7125 15.3062 17.6906 15.3094 17.6719 15.3125C17.6125 15.3219 17.4969 15.3562 17.4125 15.4719C17.2844 15.65 17.325 15.9 17.5031 16.0281C17.6812 16.1562 17.9312 16.1156 18.0594 15.9375C18.1875 15.7594 18.1469 15.5094 17.9688 15.3813C17.8844 15.3219 17.8 15.3062 17.7375 15.3062ZM24.8531 22.6906C23.2687 22.6906 21.9813 21.4031 21.9813 19.8156C21.9813 18.2313 23.2687 16.9438 24.8531 16.9438C26.4375 16.9438 27.725 18.2313 27.725 19.8156C27.725 21.4 26.4375 22.6906 24.8531 22.6906ZM24.8531 18.95C24.375 18.95 23.9875 19.3375 23.9875 19.8156C23.9875 20.2938 24.375 20.6812 24.8531 20.6812C25.3312 20.6812 25.7188 20.2938 25.7188 19.8156C25.7188 19.3375 25.3312 18.95 24.8531 18.95Z"   fill="#00BFFF" >
</path>
<path d="M22.8594 26.6062C19.0938 26.6062 16.0938 24.8281 16.0469 24.7969C8.38438 20.6094 3.57812 25.2437 3.375 25.4437C2.98125 25.8344 2.34687 25.8344 1.95625 25.4437C1.56563 25.0531 1.5625 24.4219 1.95 24.0281C2.00937 23.9688 7.98126 18.1 17.0469 23.0563C17.3375 23.2313 23.3531 26.7625 28.4156 22.6188C28.8438 22.2688 29.4781 22.3313 29.8281 22.7594C30.1781 23.1875 30.1156 23.8219 29.6875 24.1719C27.4375 26.0156 25.0219 26.6031 22.8594 26.6062Z"   fill="#00BFFF" >
</path>
</svg>
