<svg xmlns="http://www.w3.org/2000/svg" xmlns:xlink="http://www.w3.org/1999/xlink" width="32" height="32" viewBox="0 0 32 32" fill="none">
<g  clip-path="url(#clip-path-5_30)">
<path     fill="#00BFFF"  d="M6.63062 3.05176e-05L25.3694 3.05176e-05C29.0256 3.05176e-05 32 2.97453 32 6.63066L32 25.3694C32 29.0257 29.0255 32 25.3694 32L6.63062 32C2.9745 32 0 29.0255 0 25.3694L0 6.63066C0 2.97453 2.9745 3.05176e-05 6.63062 3.05176e-05ZM25.3694 30.2703C28.0718 30.2703 30.2703 28.0718 30.2703 25.3694L30.2703 6.63066C30.2703 3.92828 28.0718 1.72975 25.3694 1.72975L6.63062 1.72975C3.92812 1.72975 1.72972 3.92816 1.72972 6.63066L1.72972 25.3694C1.72972 28.0718 3.92825 30.2703 6.63062 30.2703L25.3694 30.2703ZM20.6746 16.5991L20.6746 7.26128C20.6746 4.78653 18.5852 2.76128 16.0363 2.76128C13.4874 2.76128 11.398 4.78647 11.398 7.26128L11.398 16.808C10.048 18.0385 9.19634 19.7806 9.19634 21.7258C9.19634 25.4527 12.3115 28.4758 16.1537 28.4758C19.9958 28.4758 23.1111 25.4535 23.1111 21.7258C23.1111 19.6718 22.1623 17.8361 20.6746 16.5991ZM16.1537 27.0982C13.0975 27.0982 10.612 24.6876 10.612 21.7222C10.612 20.2287 11.2352 18.8361 12.367 17.808L12.8137 17.4031L12.8137 7.25769C12.8137 5.53294 14.2604 4.13166 16.0364 4.13166C17.8129 4.13166 19.2589 5.53366 19.2589 7.25769L19.2589 17.2287L19.7546 17.6401C20.9873 18.6653 21.6955 20.1523 21.6955 21.7222C21.6955 24.6876 19.2099 27.0982 16.1537 27.0982M18.8319 18.6847L17.8433 17.8613L17.8433 7.25769C17.8433 6.30812 17.0149 5.50484 16.0358 5.50484C15.056 5.50484 14.2274 6.30812 14.2274 7.25769L14.2274 7.793L15.4047 7.793L15.4047 8.63087L14.2297 8.63087L14.2297 9.98537L15.4069 9.98537L15.4069 10.824L14.2297 10.824L14.2297 12.1784L15.4069 12.1784L15.4069 13.017L14.2297 13.017L14.2297 14.3729L15.4069 14.3729L15.4069 15.2115L14.2297 15.2115L14.2297 17.996L13.3356 18.8087C12.4918 19.5781 12.0279 20.6127 12.0279 21.7236C12.0279 23.9332 13.876 25.7265 16.154 25.7265C18.432 25.7265 20.2798 23.9291 20.2798 21.7237C20.2798 20.5544 19.7509 19.447 18.8317 18.6848M16.1536 24.8108C14.3985 24.8108 12.9706 23.4247 12.9706 21.7222C12.9706 20.8678 13.3294 20.0673 13.9814 19.4759L15.1716 18.3909L15.1716 16.7159L16.8993 16.7159L16.8993 18.2835L18.2169 19.3779C18.928 19.9701 19.3357 20.8245 19.3357 21.723C19.3364 23.4247 17.9085 24.8108 16.1534 24.8108">
</path>
<path d="M31.1897 27.1078L28.2303 27.1078C28.4066 27.3566 28.4869 27.57 28.4713 27.7481C28.4689 27.7727 28.4647 27.797 28.4587 27.8209C28.4075 28.0234 28.2381 28.119 27.9506 28.1075C27.7758 28.1075 27.5499 28.1132 27.2728 28.1247C26.9957 28.1362 26.7648 28.1417 26.58 28.1413C26.3748 28.1525 26.249 28.2228 26.2025 28.3522C26.1791 28.4207 26.1626 28.4908 26.1531 28.5625L31.1897 28.5625C31.4247 28.5625 31.6156 28.3538 31.6156 28.0959L31.6156 27.5747C31.6156 27.3172 31.4247 27.1078 31.1897 27.1078ZM31.1897 30.1619L26.1362 30.1619C26.1377 30.3188 26.1397 30.477 26.1422 30.6366C26.1453 30.833 26.1475 31.0273 26.1488 31.2194L26.1488 31.6153L31.1897 31.6153C31.4247 31.6153 31.6156 31.4066 31.6156 31.1488L31.6156 30.6287C31.6156 30.3713 31.4247 30.1619 31.1897 30.1619ZM31.1897 21L21.4259 21C21.1909 21 21 21.2091 21 21.4666L21 21.9878C21 22.2456 21.1909 22.4547 21.4259 22.4547L31.1897 22.4547C31.4247 22.4547 31.6156 22.2456 31.6156 21.9878L31.6156 21.4666C31.6156 21.2091 31.4247 21 31.1897 21ZM31.1897 24.0541L26.1356 24.0541L26.2872 24.2769C26.4241 24.4783 26.563 24.6847 26.7041 24.8959L27.1169 25.5088L31.1897 25.5088C31.4247 25.5088 31.6156 25.2997 31.6156 25.0419L31.6156 24.5206C31.6156 24.2631 31.4247 24.0541 31.1897 24.0541ZM26.4306 26.9116C26.4677 26.7657 26.4045 26.5823 26.2409 26.3612C26.0922 26.1575 25.923 25.9171 25.7334 25.64C25.5438 25.3629 25.3522 25.0797 25.1584 24.7903C24.9651 24.5009 24.7776 24.2238 24.5959 23.9591C24.4143 23.6943 24.2526 23.4683 24.1109 23.2812C23.9697 23.1021 23.8376 23.0166 23.7147 23.0247C23.5918 23.0328 23.4635 23.1306 23.33 23.3181C23.1812 23.5219 23.0121 23.7643 22.8225 24.0453C22.6329 24.3263 22.4377 24.6154 22.2369 24.9125C22.0362 25.21 21.8429 25.4973 21.6569 25.7744C21.4708 26.0515 21.3073 26.2879 21.1663 26.4837C21.0321 26.6712 20.993 26.824 21.0491 26.9419C21.1051 27.0598 21.2333 27.119 21.4338 27.1194C21.5602 27.1194 21.7034 27.1234 21.8634 27.1316C22.0234 27.1397 22.1589 27.1438 22.2697 27.1441C22.4257 27.1357 22.526 27.2029 22.5706 27.3456C22.6152 27.4883 22.6375 27.6819 22.6375 27.9263L22.6375 28.5C22.6375 28.7122 22.6394 29.5238 22.6431 29.7359C22.6469 29.9481 22.6488 30.1475 22.6488 30.335L22.6488 30.8125C22.6488 31.0898 22.6916 31.2915 22.7772 31.4175C22.8628 31.5435 23.0282 31.6068 23.2734 31.6072C23.452 31.6072 23.6063 31.6051 23.7362 31.6009C23.8662 31.5968 24.0094 31.5948 24.1656 31.595C24.2997 31.595 24.4053 31.5706 24.4834 31.5216C24.5019 31.5104 24.5197 31.4981 24.5366 31.4847C24.5535 31.4713 24.5695 31.4568 24.5845 31.4414C24.5996 31.4259 24.6136 31.4095 24.6265 31.3923C24.6395 31.375 24.6512 31.3569 24.6619 31.3381C24.6723 31.3193 24.6818 31.3 24.6903 31.2802C24.6988 31.2604 24.7064 31.2403 24.7129 31.2198C24.7195 31.1992 24.725 31.1785 24.7296 31.1574C24.7341 31.1364 24.7376 31.1152 24.74 31.0938C24.751 31.0086 24.7566 30.9231 24.7569 30.8372L24.7569 30.2256C24.7569 30.0056 24.755 29.7816 24.7512 29.5534C24.7475 29.325 24.7456 28.5009 24.7456 28.2809L24.7456 27.6819C24.7456 27.519 24.7623 27.3906 24.7956 27.2969C24.829 27.2031 24.9201 27.1522 25.0691 27.1441C25.2028 27.1441 25.37 27.1397 25.5709 27.1319C25.7719 27.1241 25.9353 27.1194 26.0616 27.1194C26.2699 27.1275 26.3926 27.0582 26.4297 26.9116L26.4306 26.9116Z"   fill="#0EBBCB" >
</path>
</g>
<defs>
<clipPath id="clip-path-5_30">
<path d="M0 32L32 32L32 0L0 0L0 32Z" fill="white"/>
</clipPath>
</defs>
</svg>
