<svg xmlns="http://www.w3.org/2000/svg" xmlns:xlink="http://www.w3.org/1999/xlink" width="115.625" height="16.40625" viewBox="0 0 115.625 16.40625" fill="none">
<g >
<path     fill="#000000"  d="M17.4023 15.0586Q17.4805 15.0586 17.5391 15.0391Q17.8516 14.9219 17.9688 14.5703Q17.9297 14.5312 17.8809 14.4727Q17.832 14.4141 17.7539 14.3555Q17.2852 13.9844 16.9727 13.5156Q16.6602 13.0469 16.1914 12.9492Q15.918 12.8516 15.6836 12.6953Q15.5469 12.6172 15.3906 12.5586Q15.0391 12.4609 14.9219 12.2461L14.8828 12.2266L14.7266 12.2266Q14.5703 12.2266 14.4336 12.1289Q14.1016 11.9727 13.5742 11.7969Q13.457 11.7578 13.3398 11.6992Q13.2227 11.6406 13.0859 11.582Q12.5977 11.4062 12.1484 11.1914Q11.8164 11.0352 11.7969 10.9961Q11.7773 10.957 11.7578 10.9375Q12.0898 10.6641 12.2852 10.4297Q12.3633 10.332 12.4805 10.2344Q12.5977 10.1367 12.6953 9.98047Q12.8711 9.72656 13.125 9.51172Q13.2031 9.43359 13.2422 9.38477Q13.2812 9.33594 13.2812 9.29688Q13.2812 9.23828 13.2617 9.19922Q13.3008 9.16016 13.3691 9.13086Q13.4375 9.10156 13.457 9.04297Q13.5547 8.88672 13.6719 8.74023Q13.7891 8.59375 13.877 8.4375Q13.9648 8.28125 13.9648 8.06641Q14.043 7.94922 14.043 7.85156Q14.043 7.67578 13.8281 7.5Q13.4961 7.34375 13.3008 7.03125Q13.1836 6.81641 13.1055 6.72852Q13.0273 6.64062 12.9297 6.62109L12.5586 6.64062Q12.6367 6.40625 12.8125 6.23047L12.832 6.23047Q12.9297 6.15234 13.0078 6.05469Q13.2812 5.82031 13.5352 5.54688Q14.2578 4.6875 14.2578 4.49219Q14.2578 4.27734 14.043 4.13086Q13.8281 3.98438 13.7305 3.7793Q13.6328 3.57422 13.4766 3.57422L13.3594 3.59375Q12.8711 3.76953 12.5781 3.98438Q12.3633 4.14062 12.1094 4.25781Q12.1094 4.14062 12.1289 4.08203Q12.1484 4.02344 12.1484 3.96484Q12.1484 3.88672 12.1289 3.84766L12.1289 3.82812Q12.1289 3.76953 12.1484 3.73047Q12.3828 3.49609 12.4707 3.19336Q12.5586 2.89062 12.7344 2.61719Q13.0664 1.91406 13.0664 1.69922Q13.0664 1.42578 12.832 1.21094Q12.5195 0.996094 12.3242 0.683594Q12.207 0.507812 11.9336 0.507812Q11.6406 0.507812 11.4258 0.820312Q11.3867 0.839844 11.123 1.14258Q10.8594 1.44531 10.5469 1.69922Q10.4102 1.81641 10.3223 1.93359Q10.2344 2.05078 10.1562 2.12891Q9.39453 2.89062 9.23828 2.98828Q9.17969 3.00781 9.14062 3.04688Q9.0625 2.83203 8.92578 2.69531Q8.67188 2.44141 8.59375 2.44141Q8.37891 2.28516 8.22266 2.05078Q8.06641 1.81641 7.8125 1.81641L7.63672 1.81641Q7.48047 1.81641 7.28516 2.08984L7.42188 2.22656Q7.83203 2.5 7.83203 3.30078Q7.83203 4.12109 7.48047 4.78516Q7.42188 4.88281 7.31445 5Q7.20703 5.11719 7.14844 5.25391Q6.99219 5.54688 6.77734 5.76172Q6.26953 6.26953 6.13281 6.77734L6.11328 6.875Q6.11328 7.01172 6.26953 7.13867Q6.42578 7.26562 6.58203 7.44141L6.64062 7.48047Q6.75781 7.63672 6.81641 7.63672Q6.91406 7.63672 7.03125 7.59766Q7.07031 7.57812 7.14844 7.54883Q7.22656 7.51953 7.32422 7.42188Q7.63672 7.22656 7.85156 6.91406L8.00781 6.69922Q8.20312 6.44531 8.33984 6.15234Q8.55469 5.66406 8.63281 5.58594Q8.65234 5.50781 8.69141 5.44922Q8.88672 5.17578 8.88672 4.96094L8.86719 4.80469L8.88672 4.78516Q8.88672 4.76562 8.90625 4.76562Q8.94531 4.60938 9.00391 4.47266Q9.16016 4.12109 9.29688 3.75Q9.35547 3.59375 9.46289 3.4668Q9.57031 3.33984 9.66797 3.22266Q10 2.89062 10.1172 2.80273Q10.2344 2.71484 10.332 2.59766Q10.5469 2.36328 10.8984 2.1875Q10.9375 2.14844 11.1133 2.14844Q11.1523 2.26562 11.1523 2.42188Q11.1523 2.55859 11.0352 2.8418Q10.918 3.125 10.918 3.4375Q10.918 3.47656 10.9082 3.49609Q10.8984 3.51562 10.8789 3.51562L10.7812 3.82812Q10.6445 4.16016 10.5273 4.51172L10.5078 4.53125Q10.3516 5.01953 10.3516 5.19531Q10.3516 5.39062 10.3906 5.46875Q10.6641 5.76172 11.0742 6.09375L11.2109 6.03516Q12.5 4.94141 12.5195 4.94141Q12.6758 4.78516 12.832 4.78516L12.9492 4.80469L12.832 5.09766Q12.7344 5.27344 12.5781 5.38086Q12.4219 5.48828 12.3242 5.60547Q12.0898 5.89844 11.7969 6.11328L10.918 6.81641Q10.0781 7.48047 9.25781 8.18359Q8.90625 8.49609 8.53516 8.78906Q8.33984 8.98438 8.125 8.98438L7.94922 8.96484Q7.92969 8.94531 7.89062 8.94531L7.79297 8.96484L7.59766 8.96484Q7.48047 8.98438 6.97266 8.98438L6.40625 8.96484Q5.97656 9.00391 5.74219 9.04297L5.89844 8.51562Q5.80078 8.65234 5.68359 8.75Q5.41016 8.98438 5.23438 9.26758Q5.05859 9.55078 4.84375 9.82422Q4.53125 10.2344 3.73047 11.4258L3.63281 11.5625Q3.55469 11.7188 3.47656 11.7188Q3.4375 11.7188 3.37891 11.6797L3.35938 11.4453Q3.35938 11.0547 3.37891 10.8789Q3.47656 10.4688 3.59375 10.0781Q3.67188 9.88281 3.73047 9.66797Q3.75 9.58984 3.79883 9.46289Q3.84766 9.33594 3.88672 9.14062Q3.92578 8.84766 4.16016 8.47656Q4.23828 8.18359 4.31641 8.08594Q4.47266 7.91016 4.53125 7.69531Q4.58984 7.48047 4.58984 7.46094Q4.58984 7.32422 4.45312 7.22656Q4.14062 6.97266 3.90625 6.62109Q3.80859 6.48438 3.67188 6.44531Q3.51562 6.44531 3.39844 6.50391Q2.92969 6.91406 2.53906 7.30469L2.51953 7.34375L2.32422 7.28516L2.10938 7.48047Q1.83594 7.71484 1.52344 7.87109L1.13281 8.08594Q1.03516 8.125 0.986328 8.1543Q0.9375 8.18359 0.664062 8.18359Q0.527344 8.18359 0.429688 8.26172L0.332031 8.30078Q0.0195312 8.4375 0 8.55469L0 8.57422Q0 8.69141 0.185547 8.95508Q0.371094 9.21875 0.664062 9.21875Q0.761719 9.21875 0.878906 9.17969L0.957031 9.16016Q1.01562 9.16016 1.05469 9.17969Q1.26953 9.17969 1.34766 9.10156Q1.38672 9.10156 1.40625 9.11133Q1.42578 9.12109 1.46484 9.14062L1.58203 9.14062L2.28516 8.88672Q2.44141 8.82812 2.55859 8.82812Q2.65625 8.82812 2.65625 8.94531Q2.65625 9.0625 2.63672 9.10156Q2.61719 9.14062 2.5 9.62891Q2.32422 10.6836 2.28516 11.7383L2.26562 12.4805Q2.26562 12.8125 2.5 12.9492Q2.8125 13.2227 2.89062 13.3203L2.91016 13.3203L3.02734 13.418L3.16406 13.418Q3.51562 13.2812 3.69141 12.9883Q3.82812 12.7734 3.98438 12.5781L3.98438 12.5586Q4.08203 12.4609 4.12109 12.3633Q4.19922 12.0898 4.35547 11.8848Q4.51172 11.6797 4.58984 11.4941Q4.66797 11.3086 4.76562 11.1523Q4.96094 10.8203 5.58594 9.33594Q5.66406 9.16016 5.85938 9.15039Q6.05469 9.14062 6.26953 9.14062Q6.73828 9.14062 7.22656 9.25781Q7.55859 9.31641 7.67578 9.45312L7.1875 10L7.71484 10.4688L8.75 10.0195L9.70703 10.8984Q7.83203 12.5 5.54688 13.2617Q5.82031 13.3398 6.09375 13.3594Q6.28906 13.3984 6.64062 13.3984Q7.07031 13.3984 7.5 13.3203L7.85156 13.2617Q9.21875 13.0664 10.3906 12.0508Q10.4492 11.9922 10.6445 11.8945Q10.8008 12.0117 10.9375 12.1484Q11.2305 12.4414 11.543 12.6953Q12.0117 13.0859 12.793 13.4766Q13.1836 13.7109 13.6133 13.8281Q13.8281 13.8867 14.0137 13.9941Q14.1992 14.1016 14.3945 14.1602L14.9414 14.375Q16.0938 14.8633 17.3438 15.0586L17.4023 15.0586ZM10.5469 10.1367Q10.2734 10.0195 9.94141 9.82422Q9.60938 9.62891 9.47266 9.49219L10.7227 8.69141Q11.25 8.37891 11.8359 8.18359L12.0117 8.20312Q12.0117 8.22266 12.0117 8.26172Q12.0117 8.30078 11.9922 8.33984Q11.3477 9.29688 10.5469 10.1367ZM5.01953 4.92188Q5.25391 4.92188 5.36133 4.80469Q5.46875 4.6875 5.52734 4.55078Q5.58594 4.41406 5.66406 4.29688L5.48828 4.08203Q4.98047 3.53516 4.91211 3.4375Q4.84375 3.33984 4.76562 3.24219Q4.62891 3.06641 4.48242 2.89062Q4.33594 2.71484 3.76953 2.71484Q3.22266 2.71484 2.69531 2.98828Q2.36328 3.14453 2.01172 3.20312Q1.93359 3.22266 1.83594 3.32031L2.01172 3.30078Q2.07031 3.30078 2.26562 3.37891L2.28516 3.37891Q2.38281 3.39844 2.8125 3.57422Q3.16406 3.67188 3.35938 3.88672Q3.35938 3.90625 3.38867 3.90625Q3.41797 3.90625 3.4375 3.92578Q3.82812 4.08203 4.10156 4.375Q4.375 4.66797 4.72656 4.78516Q4.96094 4.86328 5.01953 4.92188ZM21.6992 14.9219Q21.9727 14.9219 22.2461 14.8633L22.5391 14.8242Q22.793 14.7852 23.0469 14.707Q23.457 14.5898 23.8672 14.5508Q24.1016 14.5312 24.3652 14.4824Q24.6289 14.4336 24.9414 14.4141L25.2734 14.3945Q26.5039 14.2188 26.9336 14.2188Q27.2852 14.2188 27.7148 14.1406Q28.7695 14.0234 29.8242 14.0039Q30.0977 14.0039 30.4004 13.9844Q30.7031 13.9648 31.3477 13.9648Q31.9141 13.9648 32.0801 13.9941Q32.2461 14.0234 32.9102 14.0625Q34.5898 14.1406 35.0977 14.3164Q35.1562 14.3164 35.1562 14.3359Q35.5078 14.4141 35.8594 14.5312Q35.9961 14.5703 36.1133 14.5703Q36.2109 14.5703 36.2793 14.5508Q36.3477 14.5312 36.4062 14.5312Q36.4062 14.4336 36.4551 14.3652Q36.5039 14.2969 36.5723 14.2578Q36.6406 14.2188 36.6797 14.1602Q36.6406 14.082 36.4355 13.8184Q36.2305 13.5547 36.0156 13.3203L35.4492 12.7539L35.332 12.7344Q35.1562 12.7148 34.9707 12.6758Q34.7852 12.6367 34.5898 12.6367Q34.4922 12.6367 34.4141 12.6562Q34.3359 12.6758 34.2383 12.6758L32.1094 12.6758L32.0898 12.6953L31.5625 12.6953L31.6211 12.3242Q31.7773 11.6602 31.7773 11.543Q31.7773 11.4648 31.7578 11.4258L31.7578 11.2891L31.8359 10.4688L31.8164 9.88281Q31.8164 8.35938 31.7676 8.23242Q31.7188 8.10547 31.7188 7.91016L31.7383 7.8125Q31.7383 7.75391 31.7188 7.71484Q31.7188 7.69531 31.7969 7.61719Q31.9336 7.48047 32.1191 7.44141Q32.3047 7.40234 32.3242 7.10938L32.3633 6.875L32.3047 6.83594Q32.1875 6.71875 32.0703 6.63086Q31.9531 6.54297 31.875 6.42578Q31.6602 6.03516 31.25 6.03516L31.1133 6.05469Q30.8594 6.09375 30.5664 6.10352Q30.2734 6.11328 30.0879 6.23047Q29.9023 6.34766 29.707 6.39648Q29.5117 6.44531 29.0625 6.66016L28.9844 6.67969Q27.8516 7.1875 27.0703 7.67578Q26.9336 7.77344 26.7773 7.83203Q26.543 7.92969 26.3574 8.08594Q26.1719 8.24219 25.9766 8.35938Q25.8789 8.39844 25.7812 8.47656L25.7617 8.28125Q25.7617 8.08594 25.8008 8.00781Q25.8398 7.92969 26.0352 7.87109L26.1719 7.79297Q27.0312 7.48047 27.3047 7.20703Q27.3828 7.14844 27.4219 7.11914Q27.4609 7.08984 27.4707 7.07031Q27.4805 7.05078 27.5 7.03125Q27.6953 6.97266 27.8516 6.79688Q28.0078 6.62109 28.1641 6.60156L28.1836 6.58203Q28.3008 6.40625 28.4961 6.23047Q28.6914 6.05469 28.8281 5.80078Q28.8672 5.72266 28.9258 5.64453Q28.9844 5.56641 29.043 5.56641Q29.1992 5.56641 29.2871 5.53711Q29.375 5.50781 29.4727 5.50781Q29.5508 5.50781 29.6289 5.52734Q29.707 5.54688 29.8047 5.54688Q29.9414 5.54688 30.0977 5.50781L30.7227 5.44922L31.6406 5.39062L31.9336 5.39062Q32.4609 5.39062 32.9688 5.15625L33.0859 5.11719L33.0859 4.86328L32.5 4.27734Q32.4219 4.19922 32.3047 4.19922Q32.0703 4.19922 31.9531 4.21875Q31.4648 4.25781 30.9961 4.33594Q30.8203 4.35547 30.625 4.36523Q30.4297 4.375 30.2051 4.4043Q29.9805 4.43359 29.7461 4.47266Q29.5117 4.51172 29.2969 4.53125Q29.1211 4.53125 29.1211 4.39453Q29.1211 4.25781 28.9258 4.12109Q28.9062 4.12109 28.8672 4.08203Q28.8281 4.04297 28.7793 4.01367Q28.7305 3.98438 28.7109 3.96484L28.8477 3.92578Q29.1016 3.82812 29.3359 3.82812Q29.4727 3.82812 29.5898 3.78906Q29.8438 3.73047 30.0781 3.73047Q30.3125 3.73047 30.3906 3.71094L31.2305 3.73047L31.582 3.75Q31.7578 3.75 31.8164 3.68164Q31.875 3.61328 31.9336 3.57422Q32.0508 3.45703 32.0605 3.37891Q32.0703 3.30078 32.207 3.24219Q32.5 3.08594 32.6953 2.8125Q32.832 2.65625 32.9883 2.51953Q32.9883 2.5 33.0078 2.5L33.0078 2.48047Q33.0859 2.34375 33.1934 2.20703Q33.3008 2.07031 33.3008 1.79688Q33.3008 1.54297 33.125 1.38672Q32.7344 0.839844 32.207 0.429688Q32.168 0.449219 32.1289 0.478516Q32.0898 0.507812 31.6016 0.546875Q31.25 0.546875 30.3711 0.644531Q29.6289 0.742188 29.3164 0.820312L28.0859 1.03516L27.2656 1.19141L27.207 1.21094Q26.1133 1.44531 25.0586 1.83594L24.9023 1.85547Q24.707 1.85547 24.5703 1.71875L24.4922 1.69922L24.4141 1.71875Q24.3164 1.71875 24.1309 1.60156Q23.9453 1.48438 23.7109 1.48438Q23.3398 1.48438 23.0664 1.73828Q23.418 1.73828 23.5742 2.05078L23.6523 2.10938Q23.9453 2.38281 24.0234 2.77344Q24.0234 2.92969 24.0625 3.16406Q24.0625 3.71094 24.4141 4.0625L24.4922 4.17969Q24.5117 4.25781 24.7852 4.39453Q24.9609 4.49219 25.1074 4.59961Q25.2539 4.70703 25.3906 4.70703Q25.4883 4.70703 25.6055 4.62891Q25.625 4.60938 25.625 4.57031Q25.625 4.45312 25.6348 4.41406Q25.6445 4.375 25.7227 4.375Q25.957 4.57031 26.2305 4.57031Q26.3477 4.57031 26.4844 4.53125Q27.2852 4.25781 27.5586 4.21875Q27.6562 4.19922 27.7734 4.16992Q27.8906 4.14062 28.0273 4.08203Q28.125 4.27734 28.125 4.45312Q28.125 4.53125 28.1055 4.58984L28.1055 4.72656L27.832 4.78516Q26.7383 5.05859 26.2109 5.23438Q25.6836 5.35156 25.2637 5.52734Q24.8438 5.70312 24.6289 5.74219Q24.4141 5.78125 24.2188 5.83984L24.1797 5.83984Q24.1016 5.87891 24.0234 5.87891Q23.9453 5.87891 23.8672 5.78125Q23.8672 5.76172 23.7695 5.76172Q23.2031 5.87891 23.1641 5.99609L23.125 6.05469Q23.1836 6.13281 23.2617 6.19141L23.5547 6.54297Q23.7695 6.81641 24.1016 6.81641Q24.4141 6.81641 24.7656 6.66016L25.1758 6.54297Q25.3125 6.54297 25.4102 6.48438Q25.6641 6.36719 26.2109 6.17188L26.2891 6.15234Q26.4258 6.11328 26.582 6.09375Q26.8164 6.07422 27.0312 5.97656Q27.1484 5.89844 27.3242 5.89844L27.4805 5.91797L27.207 6.21094Q26.4258 7.03125 26.3281 7.08984Q26.2305 7.14844 26.1328 7.24609Q26.1133 7.28516 26.0938 7.29492Q26.0742 7.30469 26.0547 7.34375Q26.0352 7.38281 25.9766 7.40234Q25.8203 7.5 25.6641 7.5Q25.4492 7.5 25.2539 7.28516Q25.1758 7.16797 25 7.16797Q24.9609 7.1875 24.9219 7.24609Q24.8047 7.36328 24.8047 7.48047Q24.8242 7.55859 24.8242 7.65625Q24.8242 7.85156 24.8828 7.96875L24.9023 8.04688Q24.9023 8.16406 24.7852 9.14062Q24.6289 10 24.6289 10.3906Q24.6094 10.5859 24.5898 10.7324Q24.5703 10.8789 24.5703 10.9961Q24.5703 11.25 24.5117 11.4062L24.5117 11.4453Q24.5117 11.5625 24.4922 11.6602Q24.4922 12.4023 24.5117 12.6172Q24.5898 12.9297 24.6094 12.9492Q24.6484 13.1055 25 13.3398L25.1172 13.457Q25.0391 13.4766 24.9316 13.4863Q24.8242 13.4961 24.6875 13.5352Q24.4336 13.6133 24.1699 13.6328Q23.9062 13.6523 23.6523 13.7305Q23.3984 13.8086 23.2031 13.8086Q23.1055 13.8086 23.0273 13.7891Q22.9883 13.7891 22.9688 13.7988Q22.9492 13.8086 22.9297 13.8281Q22.8125 13.8477 22.7148 13.8867Q22.1094 14.0625 21.5039 14.082L21.2109 14.1211Q21.1914 14.043 21.1914 14.0137Q21.1914 13.9844 21.1719 13.9844Q21.1328 13.9844 21.0547 14.0039Q20.9766 14.0234 20.8594 14.0234Q20.6055 14.0234 20.3906 14.1602Q20.293 14.2383 20.293 14.2773Q20.293 14.3359 20.4102 14.4434Q20.5273 14.5508 20.6445 14.6875Q20.8008 14.9023 21.1523 14.9023L21.4453 14.9023L21.6992 14.9219ZM25.8008 10.7617L25.7617 9.82422L25.9375 9.78516Q26.2109 9.74609 26.7188 9.57031Q26.8359 9.51172 26.9727 9.47266L27.6758 9.23828Q28.0469 9.10156 28.1738 9.0918Q28.3008 9.08203 28.3984 9.04297Q28.8086 8.94531 29.4336 8.94531Q29.6094 8.90625 29.7754 8.85742Q29.9414 8.80859 29.9609 8.59375Q29.9219 8.57422 29.8633 8.54492Q29.8047 8.51562 29.7656 8.47656Q29.7266 8.4375 29.707 8.4375Q29.6289 8.37891 29.5703 8.27148Q29.5117 8.16406 29.4141 8.13477Q29.3164 8.10547 29.2383 8.10547L29.1602 8.10547Q28.457 8.20312 27.7734 8.41797Q27.5586 8.47656 27.2461 8.63281Q26.8164 8.84766 26.6016 8.92578Q26.4648 8.92578 26.1914 9.08203Q26.0742 9.16016 25.9863 9.19922Q25.8984 9.23828 25.8203 9.27734Q25.7617 9.16016 25.7617 9.04297L25.7812 8.82812Q25.8008 8.76953 25.8691 8.70117Q25.9375 8.63281 27.1484 7.96875Q27.7344 7.61719 28.3984 7.44141Q28.5352 7.40234 28.6523 7.34375Q28.7695 7.28516 28.8672 7.26562Q29.2773 7.10938 29.707 7.10938L29.9805 7.08984Q30.3516 7.08984 30.3906 7.46094L30.3906 7.89062Q30.3906 8.04688 30.4102 8.16406Q30.4297 8.28125 30.4297 8.37891L30.4102 8.75L30.4297 9.10156Q30.4297 9.21875 30.3906 9.3457Q30.3516 9.47266 30.3516 9.60938Q30.3516 9.74609 30.332 9.90234L30.332 10.0586L30.293 10.0391Q29.9609 9.90234 29.8633 9.66797Q29.7656 9.43359 29.5312 9.43359Q29.1211 9.43359 28.8281 9.60938Q28.7305 9.6875 28.5938 9.6875Q28.125 9.78516 27.6758 9.96094L27.4219 10.0391Q27.0117 10.1758 26.6016 10.3711Q26.582 10.3906 26.543 10.3906L25.8008 10.7617ZM25.918 13.3398L25.9766 12.5781Q26.0547 12.5391 26.1523 12.5195Q26.5625 12.4414 26.9531 12.3242Q27.5781 12.1484 27.6953 12.1484Q27.8125 12.1484 27.9102 12.1191Q28.0078 12.0898 28.1055 12.0898L28.1641 12.0898Q28.2812 12.0898 28.3301 12.0605Q28.3789 12.0312 28.418 12.0312Q28.457 12.0312 28.4863 12.0605Q28.5156 12.0898 28.5742 12.0898Q28.6719 12.0898 28.7109 12.0508Q28.8477 11.9727 28.9844 11.9727L29.7656 11.9922Q30.0781 11.9922 30.1562 12.0117L30.2148 12.0117Q30.1562 12.4023 30.1172 12.8125L29.2969 12.8906Q28.1445 12.9883 27.0117 13.1641Q26.0352 13.3008 25.918 13.3398ZM25.9375 11.9336L25.8789 11.9336L25.8594 11.4258L25.8398 11.2891Q26.0156 11.2305 26.2109 11.1914Q27.6172 10.7422 28.4375 10.625Q28.5742 10.6055 28.6914 10.5664Q28.9648 10.5078 29.4141 10.5078Q29.5508 10.5469 29.6875 10.5469Q29.8242 10.5469 29.9414 10.5078Q29.9609 10.4883 30 10.4785Q30.0391 10.4688 30.0781 10.4492Q30.1172 10.4297 30.1465 10.3906Q30.1758 10.3516 30.2148 10.3418Q30.2539 10.332 30.2734 10.332Q30.3125 10.4883 30.3125 10.6445Q30.3125 10.7422 30.293 10.8496Q30.2734 10.957 30.2734 11.0742L30.2734 11.2109L30.1758 11.1914Q29.9023 11.0352 29.6289 11.0352Q29.5117 11.0352 29.4141 11.0547L28.9258 11.1328Q28.3789 11.1914 27.8516 11.2891Q27.8125 11.3086 27.7539 11.3086Q27.168 11.4062 26.6406 11.6797Q26.4258 11.7773 26.1914 11.8555Q26.0352 11.9336 25.9375 11.9336ZM25.8984 3.98438L25.7812 3.69141Q25.4688 2.89062 25.4688 2.67578Q25.5078 2.46094 25.7617 2.36328Q25.8008 2.36328 25.8203 2.34375Q26.1133 2.22656 26.4062 2.14844Q26.5039 2.08984 26.8945 2.01172L27.0508 1.95312Q27.0898 2.08984 27.0898 2.1875Q27.0898 2.36328 27.0117 2.55859L27.0117 2.57812Q26.9336 2.8125 26.8945 3.06641Q26.8945 3.16406 26.9043 3.24219Q26.9141 3.32031 27.0117 3.39844L27.1094 3.57422L25.8984 3.98438ZM30 2.83203Q30.0977 2.51953 30.0977 2.22656Q30.0977 1.73828 29.8438 1.26953L29.9219 1.23047Q30.1562 1.32812 30.4102 1.32812L30.4883 1.32812Q30.6836 1.32812 30.8594 1.36719L30.8789 1.36719Q31.2305 1.40625 31.5234 1.64062Q31.6797 1.75781 31.6797 1.875L31.6602 1.99219Q31.4648 2.5 31.3867 2.65625L30.957 2.71484L30 2.83203ZM28.1055 3.32031L27.9492 3.32031Q28.0078 2.98828 28.0078 2.75391Q28.0078 2.55859 27.9492 2.35352Q27.8906 2.14844 27.4609 1.83594Q27.7344 1.73828 28.0078 1.69922L28.3594 1.62109L28.9844 1.44531Q29.1406 1.42578 29.2773 1.38672L29.2969 1.44531L29.1797 1.99219Q29.0234 2.87109 29.0234 3.00781Q29.0234 3.14453 28.8672 3.14453Q28.8477 3.16406 28.8086 3.16406Q28.7695 3.16406 28.7305 3.18359Q28.3984 3.22266 28.1055 3.32031ZM47.168 14.8438Q47.4414 14.8438 47.6953 14.5703Q47.9492 14.2969 48.457 13.2812Q48.7305 12.793 48.9844 12.2852Q49.6484 11.1133 49.6484 11.0352Q49.6484 10.957 49.668 10.8984L48.9648 11.6211Q48.2031 12.5195 47.2266 13.2031Q47.168 12.9883 47.168 12.793L47.2852 12.0703Q47.4023 11.5234 47.4219 11.2109Q47.5195 10.5859 47.5586 10.4883Q47.6172 10.1953 47.6172 10.0977Q47.6172 9.76562 47.6367 9.63867Q47.6562 9.51172 47.6562 9.39453Q47.6562 9.19922 47.6074 8.97461Q47.5586 8.75 47.2852 8.53516Q47.2266 8.49609 47.207 8.42773Q47.1875 8.35938 47.168 8.32031Q47.3242 8.32031 47.4609 8.33984Q47.8125 8.33984 48.125 8.32031Q48.5156 8.32031 48.7891 8.53516L50.2148 9.62891Q51.4648 10.625 52.0508 11.0547Q52.7148 11.5234 53.4375 11.8555L53.4766 11.875Q54.1602 12.2461 54.9219 12.2461Q55.4102 12.2461 55.7031 12.1484Q56.6016 11.6992 57.2266 11.5234Q57.3633 11.5039 57.5 11.4062Q57.3828 11.3477 57.2461 11.3086Q57.0117 11.1914 56.7969 11.1133Q55.9766 10.8203 55.2148 10.4883Q54.8828 10.3516 54.5117 10.2441Q54.1406 10.1367 53.7695 9.96094Q53.5742 9.88281 53.3594 9.82422Q52.8906 9.72656 52.6367 9.47266Q52.6172 9.43359 52.5781 9.42383Q52.5391 9.41406 52.5195 9.41406L51.6016 8.98438L50.3125 8.33984Q50.0977 8.30078 50.0586 8.06641L50.1367 8.02734L50.8594 7.83203Q52.207 7.42188 53.4375 6.71875Q53.9258 6.50391 54.1992 6.01562Q54.2969 5.82031 54.2969 5.58594Q54.2773 5.35156 54.0625 5.19531Q53.9062 5.09766 53.8086 4.94141Q53.6328 4.66797 53.4375 4.66797Q53.2812 4.66797 53.125 4.80469Q52.7734 5.09766 52.5 5.46875Q52.3438 5.70312 52.0898 5.85938L51.5234 6.30859L51.2109 6.50391Q50.5859 6.91406 49.5117 7.55859Q49.1797 7.75391 48.8672 7.75391Q48.5742 7.75391 47.9492 7.40234L47.6562 7.24609Q47.9297 6.69922 48.125 6.21094L48.5352 6.09375Q50.293 5.68359 51.5625 4.76562Q51.7383 4.60938 51.9336 4.49219Q52.6562 4.04297 53.1836 3.39844Q53.3398 3.18359 53.3398 2.94922Q53.3203 2.87109 53.0762 2.65625Q52.832 2.44141 52.6367 2.1875Q52.5 2.03125 52.3438 2.03125Q52.1875 2.03125 51.8359 2.16797L49.7461 2.75391Q49.8242 2.57812 49.9805 2.05078Q50.0391 1.83594 50.0391 1.62109Q50.0391 1.50391 50.0098 1.30859Q49.9805 1.11328 49.707 0.859375Q49.5117 0.683594 49.3359 0.488281Q49.2188 0.351562 49.1016 0.351562Q48.9648 0.351562 48.6523 0.546875Q48.4961 0.644531 48.3984 0.839844Q48.418 0.839844 48.4473 0.859375Q48.4766 0.878906 48.5156 0.878906Q48.6914 0.917969 48.7695 0.957031Q48.8477 0.996094 48.8477 1.09375L48.8086 1.40625Q48.7305 1.71875 48.5938 2.05078L48.2227 3.10547Q48.1055 3.47656 47.7539 3.65234L47.4609 3.80859Q46.9727 4.02344 46.543 4.39453L46.2305 4.51172Q46.1719 4.21875 46.1719 3.98438Q46.2109 3.86719 46.2109 3.75Q46.2109 3.53516 46.0156 3.33984Q45.7031 3.04688 45.3711 2.77344Q45.0977 2.83203 44.9805 3.125Q44.9219 3.28125 44.9219 3.47656Q44.9219 3.67188 44.7461 4.12109L44.6484 4.39453Q44.4336 5.25391 44.1016 5.95703Q43.8086 6.58203 43.8086 6.83594L43.7891 7.03125Q42.3828 8.53516 41.1328 10.293Q40.5078 11.1523 39.8438 11.9922Q39.7852 11.8945 39.7461 11.8262Q39.707 11.7578 39.707 11.6797Q39.6484 11.7383 39.6094 11.8164L39.4141 12.0703L39.4141 12.0898Q39.1797 12.4023 39.1797 12.5391Q39.1797 12.6562 39.1992 12.7148Q39.3555 12.832 39.4922 12.9883Q39.707 13.2812 40.0586 13.457L40.2734 13.3203Q40.5078 13.1641 40.752 13.0273Q40.9961 12.8906 41.084 12.7051Q41.1719 12.5195 41.2891 12.4121Q41.4062 12.3047 41.4453 12.168Q41.6016 11.875 41.7969 11.582Q42.2656 10.8984 43.1445 8.90625Q43.6328 7.79297 43.8672 7.34375L44.0234 7.01172Q44.3359 7.42188 44.4922 7.42188Q44.668 7.42188 45.1953 6.64062Q45.3711 6.34766 45.5371 6.05469Q45.7031 5.76172 45.8789 5.47852Q46.0547 5.19531 46.2891 5.01953Q47.0117 4.53125 47.7734 4.04297Q47.7734 4.08203 47.793 4.10156Q47.8125 4.12109 47.8125 4.14062L47.793 4.16016Q47.6172 4.51172 47.4805 4.86328Q47.2852 5.37109 46.9922 5.83984Q46.6992 6.30859 46.4453 6.83594L45.8594 7.89062Q45.4883 8.59375 45 9.21875Q44.3945 9.94141 43.7305 10.5859Q43.1641 11.2109 42.8613 11.4648Q42.5586 11.7188 42.5391 11.8359Q42.5391 11.9336 42.5879 11.9824Q42.6367 12.0312 42.7051 12.1094Q42.7734 12.1875 42.8613 12.2559Q42.9492 12.3242 43.0469 12.3633Q43.2031 12.3633 43.418 12.2461L43.75 12.0703Q43.8672 11.9531 44.0039 11.8555Q44.3555 11.582 44.668 11.2695Q45.3711 10.5859 45.8008 9.90234Q45.9961 9.64844 46.2207 9.375Q46.4453 9.10156 46.7383 8.90625L46.7773 9.08203L46.7578 9.14062Q46.3867 10.4297 46.3086 10.957Q46.2695 11.2109 46.2109 11.4453Q45.9766 12.5781 45.957 13.7109Q45.957 13.8086 46.0156 13.8867Q46.1133 14.1016 46.7578 14.6094Q46.9922 14.8438 47.168 14.8438ZM48.3008 6.03516L48.2422 5.99609Q48.3203 5.80078 48.75 5.05859Q48.75 5.03906 48.7598 5.0293Q48.7695 5.01953 48.7793 5.01953Q48.7891 5.01953 48.7891 5Q48.8477 4.60938 49.0625 4.27734Q49.2188 4.04297 49.2969 3.76953Q49.375 3.59375 49.4922 3.41797Q49.5312 3.35938 49.5508 3.32031Q49.5703 3.28125 49.5996 3.26172Q49.6289 3.24219 49.8633 3.20312Q50.4688 3.00781 51.1914 3.00781L51.5625 3.02734Q50.1953 4.92188 48.3008 6.03516ZM47.4609 8.16406Q47.3242 8.16406 47.1289 8.125L47.4219 7.61719L47.9297 7.91016Q47.832 8.16406 47.4609 8.16406ZM39.9414 8.33984L40.2148 8.30078Q40.5469 8.28125 40.8594 8.16406Q41.0547 8.08594 41.2695 8.06641Q41.8945 8.02734 42.207 7.5Q42.2656 7.40234 42.2656 7.32422Q42.2656 7.1875 42.1289 7.08984Q41.6992 6.77734 41.4648 6.30859Q41.25 6.05469 40.9766 6.05469Q40.8398 6.05469 40.6836 6.11328Q39.9805 6.40625 39.3555 6.79688L39.1602 6.89453Q38.6914 7.12891 38.5156 7.46094L38.6914 7.65625Q38.8867 7.87109 39.1211 8.06641Q39.4336 8.33984 39.8438 8.33984L39.9414 8.33984ZM42.5 4.49219Q43.1836 4.375 43.5059 4.19922Q43.8281 4.02344 43.8281 3.75Q43.8281 3.55469 43.6523 3.33984Q43.3008 2.98828 42.9883 2.59766Q42.7734 2.34375 42.5 2.34375L42.3828 2.36328Q41.2695 2.48047 40.625 3.125Q40.7031 3.16406 40.7617 3.22266Q41.25 3.53516 41.7969 3.59375L41.9336 3.61328Q42.4414 3.69141 42.4805 4.19922L42.4805 4.375L42.5 4.49219ZM74.3945 16.4062Q73.3398 16.4062 72.5391 15.6836Q71.9141 15.1758 71.2695 14.7266Q70.7812 14.4141 70.2344 13.9062Q69.6094 13.3398 69.3359 13.1445L69.0039 13.3594Q68.1641 14.0039 67.7539 14.0625L67.3828 14.1797Q67.0703 14.3164 66.7188 14.3359Q66.543 14.3555 66.3672 14.4336L66.1914 14.4727L66.0938 14.5117Q65.8984 14.4531 65.6836 14.4141Q65.3516 14.375 65.0586 14.2578Q64.7656 14.1406 64.5508 13.8281Q64.4336 13.6719 64.2773 13.5352Q63.8867 13.2812 63.8867 12.9297Q63.8867 12.832 63.916 12.7539Q63.9453 12.6758 63.9844 12.6367Q64.0234 12.5977 64.043 12.5879Q64.0625 12.5781 64.082 12.5781L64.1406 12.6758L64.2383 12.9102Q64.6484 13.6133 65.5859 13.6133L65.8203 13.5938Q67.1094 13.3984 68.1055 12.5586Q68.2812 12.4219 68.4766 12.2266L67.7734 11.5234Q67.6367 11.4062 67.5 11.4062Q67.2656 11.4062 66.8359 11.6992Q66.4062 11.9922 65.8984 12.1484L65.7227 12.0898Q65.8008 11.7773 66.0742 11.6504Q66.3477 11.5234 66.6016 11.3867Q67.2852 10.9375 67.6953 10.9375Q68.0469 10.9375 68.3984 11.1523Q68.5938 11.2695 68.8086 11.3672L69.0039 11.4648Q69.4336 10.7422 69.668 9.94141Q69.6875 9.86328 69.7266 9.80469Q69.6289 9.72656 69.5312 9.72656Q69.4531 9.72656 69.375 9.76562Q68.8281 10 68.2617 10.2148Q66.6211 10.8203 65.8008 11.2305Q65.6836 11.2891 65.5664 11.2891Q65.3711 11.2891 65.0781 11.0352L64.8047 10.7812Q64.6484 10.6445 64.6484 10.5078Q64.6484 10.3516 64.8145 10.1758Q64.9805 10 65.293 10L65.5664 10Q65.9961 10 66.3867 9.84375L66.4062 9.84375Q66.4453 9.80469 66.5039 9.80469Q67.2266 9.76562 67.8906 9.57031L68.3984 9.43359Q68.9258 9.29688 69.3945 9.10156L69.6289 9.02344Q70.0391 8.86719 70.1562 8.63281Q70.1562 8.59375 70.1855 8.56445Q70.2148 8.53516 70.2344 8.53516L70.5469 8.39844Q70.8398 8.24219 71.1328 8.24219Q71.2695 8.24219 71.4355 8.28125Q71.6016 8.32031 71.6992 8.51562L71.875 8.75Q72.0508 8.92578 72.0508 9.14062Q72.0508 9.31641 71.875 9.51172Q71.543 9.88281 71.3672 10.3125L71.2695 10.5273Q70.9766 11.0547 70.7617 11.582L70.6836 11.6992Q70.3711 12.0508 70.2539 12.207L70.8789 12.5781Q71.875 13.2031 72.4414 13.3594Q72.4805 13.3594 72.5 13.3789Q72.793 13.5742 73.1055 13.6426Q73.418 13.7109 73.6719 13.8672L73.7305 13.8672Q73.9453 13.8672 74.1211 13.9844L74.3359 14.0625Q75.0781 14.3164 75.6445 14.8047Q76.1328 15.1367 76.582 15.5273Q76.8164 15.7031 76.9922 15.8789L77.168 16.0352L76.7969 16.1133Q75.8398 16.2695 75.498 16.2988Q75.1562 16.3281 74.7852 16.3867L74.3945 16.4062ZM58.5156 15.3125Q58.2031 15.1367 58.0859 14.9805Q57.9688 14.8242 57.9102 14.4727Q58.6719 13.5742 58.9648 13.1445Q59.3164 12.5195 59.8633 12.2656Q59.9023 12.4414 59.9219 12.5586Q59.9414 12.6758 59.9805 12.793Q60.1953 12.6367 60.293 12.4219L61.4453 10.7227Q61.6992 10.3906 61.875 10.0195Q62.1484 9.35547 62.4805 8.73047Q62.9297 7.89062 63.2617 7.01172Q63.3398 6.69922 63.3398 6.58203Q63.3398 6.46484 63.3008 6.32812Q62.9297 6.19141 62.5391 6.19141Q62.2461 6.19141 61.9336 6.26953Q62.1875 6.03516 62.4609 5.95703Q62.7344 5.87891 63.0273 5.83984Q63.2227 5.83984 63.3008 5.82031Q63.3789 5.80078 63.4375 5.80078Q63.8086 5.80078 64.0625 6.15234Q64.4141 6.66016 64.9805 6.66016Q65.1562 6.66016 65.3516 6.60156Q66.1328 6.30859 66.3867 6.25Q66.3867 6.05469 66.3379 5.89844Q66.2891 5.74219 66.2207 5.625Q66.1523 5.50781 66.1035 5.39062Q66.0547 5.27344 65.7227 5.25391L65.8789 5.52734Q65.8203 5.52734 65.7812 5.50781Q65.4492 5.3125 65.4492 5.11719Q65.4492 5 65.5859 4.90234Q65.957 4.64844 66.2695 4.64844Q66.5234 4.64844 66.6797 4.90234Q66.9141 5.19531 67.207 5.46875L67.4219 5.70312Q68.5938 5.44922 69.6484 5.09766L69.668 4.88281Q69.6875 4.6875 69.7266 4.51172L69.7266 4.41406Q69.7266 4.12109 69.4727 4.12109L69.3164 4.14062Q69.0234 4.21875 68.9453 4.28711Q68.8672 4.35547 68.8281 4.60938Q68.7695 4.45312 68.7695 4.33594Q68.7695 4.02344 69.1016 3.86719Q69.5117 3.73047 69.9609 3.67188Q70.0391 3.63281 70.1172 3.63281Q70.293 3.63281 70.4199 3.78906Q70.5469 3.94531 70.7227 4.08203L70.7422 4.08203Q70.8594 4.17969 70.9375 4.25781Q71.0156 4.33594 71.0547 4.62891L71.2695 4.58984Q72.0508 4.47266 72.168 4.47266Q72.5 4.47266 72.6562 4.80469Q72.7344 4.96094 72.9199 5.08789Q73.1055 5.21484 73.1055 5.39062Q73.1055 5.46875 73.0859 5.52734Q72.832 5.72266 72.6562 5.83008Q72.4805 5.9375 72.0312 5.9375Q71.7969 5.9375 71.5625 5.89844L71.5039 5.89844Q71.4062 5.89844 70.957 6.09375L70.8008 6.15234L70.4883 6.91406L70.4883 6.95312Q70.5469 7.08984 70.7422 7.30469Q70.8594 7.44141 70.8594 7.53906Q70.8594 7.8125 70.332 7.87109L70.2734 7.87109Q70.0586 7.87109 69.9609 8.02734Q69.8828 8.10547 69.7852 8.10547Q69.7266 8.10547 69.6875 8.08594Q69.5117 8.00781 69.3359 8.00781Q69.1602 8.00781 68.8867 8.125L68.7305 8.18359Q67.9102 8.47656 67.1289 8.84766Q67.0508 8.84766 66.6895 9.08203Q66.3281 9.31641 66.2305 9.31641Q66.1328 9.31641 65.9766 9.14062L65.6641 8.82812L65.6445 8.78906L65.6445 8.61328Q65.6445 8.53516 65.8594 8.32031Q66.0156 8.20312 66.0742 8.00781Q66.1328 7.8125 66.2305 7.63672L66.3086 7.44141L66.1523 7.42188Q66.0156 7.44141 65.8789 7.4707Q65.7422 7.5 65.5664 7.5Q65.332 7.5 65.1367 7.32422Q65 7.20703 64.8242 7.12891L64.668 7.03125L64.4727 7.42188Q63.6328 9.29688 62.207 11.25Q61.9336 11.6016 61.6992 11.9727Q61.2891 12.6172 60.7422 13.1836Q58.9453 15.0977 58.6523 15.2344L58.5156 15.3125ZM67.793 7.5Q68.125 7.34375 68.4961 7.24609Q68.7305 7.1875 68.9453 7.08984Q69.2969 6.99219 69.3555 6.99219L69.4531 6.36719L69.3164 6.40625Q69.043 6.44531 69.0039 6.46484Q67.9297 6.73828 67.6758 6.875Q67.5391 6.97266 67.5391 7.28516Q67.5391 7.5 67.7539 7.5L67.793 7.5ZM63.2617 5.13672Q63.2227 5.13672 63.1641 5.10742Q63.1055 5.07812 62.4023 4.45312Q62.3438 4.39453 62.3438 4.27734Q62.3438 4.10156 62.4609 4.00391Q62.6953 3.78906 63.0078 3.76953Q63.125 3.76953 63.2422 3.74023Q63.3594 3.71094 63.4375 3.71094Q63.5352 3.71094 63.6426 3.75Q63.75 3.78906 63.8672 3.78906Q64.1016 3.78906 64.3066 3.73047Q64.5117 3.67188 64.7266 3.57422L65.1367 3.4375Q65.4492 3.32031 65.7812 3.22266Q66.2891 3.02734 66.9922 2.83203L67.168 2.73438Q66.8555 2.1875 66.8555 1.5625L66.8555 1.26953L66.875 0.898438Q66.875 0.605469 66.6016 0.488281Q66.5234 0.449219 66.377 0.400391Q66.2305 0.351562 66.0742 0.273438L66.2109 0.195312Q66.4453 0 66.9336 0Q67.0312 0 67.2559 0.0390625Q67.4805 0.078125 67.7539 0.410156Q67.9688 0.664062 68.2031 0.878906Q68.2422 0.9375 68.3008 0.976562Q68.75 1.40625 68.7695 2.03125Q68.7695 2.10938 68.8477 2.1875L69.5703 2.01172Q71.1328 1.62109 71.2109 1.62109Q71.4844 1.58203 71.6211 1.58203Q71.7383 1.60156 71.8262 1.68945Q71.9141 1.77734 72.0703 2.01172Q72.168 2.14844 72.2852 2.26562Q72.5 2.48047 72.5 2.61719Q72.5 2.77344 72.3047 2.87109Q72.2461 2.89062 72.1875 2.93945Q72.1289 2.98828 72.0801 3.00781Q72.0312 3.02734 71.9922 3.04688Q71.8945 3.125 71.7773 3.14453Q71.2891 3.14453 70.8008 3.10547Q70.7617 3.10547 70.6836 3.02734Q70.6055 2.85156 70.4297 2.85156L69.4141 2.96875Q69.1992 3.02734 68.9551 3.125Q68.7109 3.22266 68.418 3.32031Q66.6406 3.94531 65.0977 4.58984Q64.5312 4.82422 63.9453 5.03906Q63.6914 5.11719 63.4375 5.11719Q63.3398 5.11719 63.2617 5.13672ZM79.707 14.2773Q80.1172 14.2383 80.5469 14.0625L81.1719 13.8281L81.9336 13.5742L82.2266 13.457Q82.5391 13.3008 83.125 13.125Q83.3789 13.0273 83.6523 12.9883Q84.0234 12.9297 84.3945 12.8125L85.3125 12.5781Q85.5469 12.5 85.791 12.4805Q86.0352 12.4609 86.2793 12.3926Q86.5234 12.3242 86.7969 12.3242L87.0117 12.3438Q87.3047 12.2461 87.6172 12.2461Q87.7734 12.2461 88.6328 12.168Q89.8633 12.0508 90.8594 12.0508Q91.0938 12.0508 91.3086 12.0898Q91.5234 12.1289 91.7188 12.1484Q91.9922 12.168 92.2461 12.2656Q92.3828 12.3242 92.5391 12.3633Q92.9883 12.4609 93.8281 12.8516Q94.5117 13.125 94.9609 13.2422Q95.4102 13.3594 95.4492 13.3594Q95.5664 13.3594 95.625 13.2617Q95.8398 12.9883 96.1328 12.8125Q96.0547 12.4805 95.9766 12.373Q95.8984 12.2656 95.8008 12.1094Q95.6055 11.7188 95.2539 11.4648L95.2344 11.4648Q94.9609 11.2305 94.707 11.2305Q94.375 11.2305 93.3008 10.9766L93.0664 10.957L92.9492 10.957Q92.6758 10.957 92.4219 10.8594Q92.2852 10.8594 92.207 10.8984L92.0898 10.918Q91.6797 10.8789 91.25 10.8789Q90.7617 10.8789 90.2734 10.9375L90.2344 10.957L89.7461 10.9961Q88.9648 11.0352 88.1836 11.1914L88.0273 11.2109Q87.6953 11.2109 87.6953 10.8203L87.6953 10.7422Q87.7344 10.4492 87.8125 10.2734Q87.832 10.2148 87.8613 10.1465Q87.8906 10.0781 87.9102 9.99023Q87.9297 9.90234 87.9688 9.78516Q88.0469 9.49219 88.0566 9.19922Q88.0664 8.90625 88.1445 8.63281Q88.1445 8.55469 88.2031 8.47656Q88.3398 8.32031 88.9062 8.10547Q90.3711 7.57812 90.4883 7.57812Q90.8984 7.40234 91.3867 7.38281L91.5234 7.40234Q91.6602 7.40234 91.8164 7.39258Q91.9727 7.38281 92.1289 7.25586Q92.2852 7.12891 92.5977 7.03125Q93.0273 6.85547 93.0273 6.50391Q93.0273 6.40625 92.9883 6.28906Q92.8516 5.89844 92.5977 5.52734Q92.1875 4.96094 91.543 4.96094L91.1914 4.98047Q90.918 4.98047 90.332 5.74219Q89.8828 6.28906 89.2578 6.66016L88.3594 7.22656Q88.4766 6.64062 88.5547 6.07422L88.6328 5.625Q88.7695 5.07812 88.7695 4.82422L88.7695 4.72656L88.7891 4.57031Q88.9062 4.14062 88.9062 3.69141Q88.9062 3.53516 88.9355 3.4082Q88.9648 3.28125 88.9648 3.16406Q88.9648 3.02734 88.8867 2.91016Q88.9648 2.8125 88.9648 2.73438Q88.9648 2.67578 88.8672 2.5293Q88.7695 2.38281 88.6914 2.24609Q88.4375 1.83594 88.1152 1.52344Q87.793 1.21094 87.5586 1.21094Q87.3438 1.21094 87.0703 1.36719L86.8359 1.50391Q86.543 1.60156 86.3281 1.85547Q86.3281 1.875 86.2988 1.875Q86.2695 1.875 86.2207 1.91406Q86.1719 1.95312 86.1133 1.99219Q85.8984 2.12891 85.7227 2.28516Q85.625 2.40234 85.5469 2.53906Q85.0977 2.98828 85.0977 3.51562L85.1172 3.71094Q85.1172 3.67188 85.1367 3.67188L85.1367 3.61328L85.1562 3.57422Q85.2344 3.00781 85.7617 2.75391L85.918 2.67578Q86.0352 2.55859 86.25 2.55859Q86.582 2.55859 86.7578 2.79297Q86.8164 2.87109 86.8164 2.94922Q86.8945 3.4375 86.8945 3.94531Q86.8945 4.41406 86.8359 4.90234L86.6602 7.14844Q86.6602 7.26562 86.6406 7.42188Q86.6211 7.57812 86.6211 7.77344L86.6211 7.79297Q86.6211 7.89062 86.5137 7.95898Q86.4062 8.02734 86.4062 8.08594Q86.4062 8.16406 86.4746 8.23242Q86.543 8.30078 86.5625 8.37891Q86.5625 8.45703 86.5527 8.54492Q86.543 8.63281 86.5234 8.71094L86.4648 9.35547L86.4844 10.4102Q86.5039 10.6445 86.5039 10.8984L86.4258 10.957L85.8008 11.25Q85.332 11.4648 84.8438 11.6602Q83.9062 11.9727 82.9688 12.2461L82.5977 12.3438Q82.2461 12.4609 81.6211 12.5586Q81.3086 12.6172 80.9766 12.7148Q80.4102 12.8711 79.834 12.8906Q79.2578 12.9102 78.8086 13.0859Q78.5547 13.2031 78.3008 13.2031L78.1445 13.1836Q78.1055 13.1836 78.0664 13.2031Q78.0273 13.2227 78.0273 13.3203Q78.0273 13.4375 78.2812 13.6133Q78.5938 13.8672 79.1016 14.1797Q79.2969 14.2773 79.5117 14.2773L79.707 14.2773ZM104.883 14.7656Q105.098 14.7656 105.332 14.6289L105.371 14.6094Q105.996 14.3359 106.465 13.8281Q106.562 13.7305 106.582 13.7305L106.758 13.5547Q107.207 13.1641 107.52 12.7734Q107.676 12.5781 107.861 12.4121Q108.047 12.2461 108.75 11.1914Q108.906 10.9961 109.043 10.9961Q109.238 10.9961 109.629 11.25L109.98 11.4453Q110.684 11.7969 111.328 12.2949Q111.973 12.793 113.086 13.9062Q113.906 14.6484 114.453 14.668L115.059 14.7266Q115.371 14.7266 115.43 14.5312Q115.43 14.5117 115.459 14.502Q115.488 14.4922 115.557 14.4336Q115.625 14.375 115.625 14.2773Q115.625 14.1797 115.508 13.9453Q115.391 13.7109 115.293 13.4766Q115.039 12.9297 114.57 12.5586L114.492 12.5Q114.355 12.3633 114.16 12.2266Q113.652 11.7773 113.086 11.4844Q112.793 11.3281 112.52 11.1328Q112.344 11.0352 112.197 10.9668Q112.051 10.8984 111.934 10.8203Q111.465 10.5664 110.977 10.3906L110.742 10.293Q110.469 10.1172 110.273 10.0977Q110.195 10.0977 110.117 10.1562Q110.078 10 110.078 9.94141Q110.078 9.86328 110.234 9.79492Q110.391 9.72656 110.527 9.62891Q110.742 9.49219 110.977 9.375Q111.211 9.25781 111.387 9.10156L111.914 8.59375Q112.285 8.26172 112.52 7.8125Q112.617 7.61719 112.617 7.48047Q112.617 7.46094 112.598 7.37305Q112.578 7.28516 112.334 7.10938Q112.09 6.93359 111.934 6.67969Q111.895 6.62109 111.826 6.55273Q111.758 6.48438 111.582 6.48438Q111.25 6.48438 111.113 6.75781Q110.879 7.24609 110.723 7.46094Q110.391 8.08594 110.039 8.4375Q109.766 8.76953 109.395 9.00391Q109.082 9.17969 108.828 9.375Q108.574 9.57031 108.301 9.57031Q108.125 9.57031 107.305 9.39453Q106.836 9.29688 106.348 9.23828Q106.289 9.23828 106.25 9.21875Q106.133 9.21875 105.996 9.16016Q105.859 9.10156 105.859 9.00391L105.879 8.94531Q105.938 8.67188 105.938 8.45703Q105.938 8.125 106.172 8.03711Q106.406 7.94922 106.621 7.87109Q107.031 7.75391 107.422 7.55859Q107.949 7.26562 108.154 7.16797Q108.359 7.07031 108.574 6.99219Q108.613 7.05078 108.643 7.10938Q108.672 7.16797 108.711 7.20703Q109.141 7.51953 109.531 7.51953L109.805 7.53906Q109.941 7.53906 110.059 7.5Q110.566 7.26562 110.723 6.79688Q110.762 6.66016 110.84 6.54297Q111.055 6.26953 111.055 5.91797L111.055 5.85938Q111.055 5.70312 111.094 5.54688Q111.25 5.19531 111.289 4.78516L111.348 4.39453Q111.445 3.96484 111.445 3.69141Q111.504 3.41797 111.504 3.14453L111.504 2.91016Q111.504 2.71484 111.572 2.5293Q111.641 2.34375 111.641 2.12891Q111.641 1.85547 111.484 1.64062Q110.742 0.78125 110.605 0.703125Q110.469 0.625 110.137 0.625Q109.238 0.625 108.203 1.15234Q108.086 1.19141 107.969 1.26953Q107.676 1.40625 107.383 1.5332Q107.09 1.66016 106.816 1.79688L106.797 1.79688Q106.582 1.89453 106.523 1.99219Q106.387 2.22656 105.977 2.34375Q105.566 2.46094 105.449 2.46094Q105.684 2.5 106.25 2.5Q106.543 2.5 106.777 2.38281Q107.246 2.14844 107.48 2.05078L107.754 1.95312Q108.027 1.79688 108.34 1.79688L108.418 1.79688Q108.457 1.79688 108.506 1.76758Q108.555 1.73828 108.828 1.69922Q109.121 1.69922 109.277 1.66016Q109.316 1.67969 109.385 1.69922Q109.453 1.71875 109.57 1.73828Q109.766 1.75781 109.805 1.96289Q109.844 2.16797 109.844 2.55859Q109.766 3.20312 109.629 3.86719Q109.59 3.82812 109.531 3.80859Q109.238 3.65234 109.082 3.39844Q108.926 3.14453 108.652 3.02734L108.398 3.14453Q107.832 3.41797 107.617 3.55469Q107.5 3.67188 107.188 3.76953Q106.875 3.86719 106.602 4.00391Q106.25 4.10156 106.25 4.39453Q106.25 4.41406 106.26 4.45312Q106.27 4.49219 106.338 4.55078Q106.406 4.60938 106.523 4.72656Q106.562 4.76562 106.66 4.76562Q107.109 4.72656 107.295 4.6582Q107.48 4.58984 107.949 4.51172L108.105 4.49219Q108.457 4.41406 108.809 4.41406Q108.984 4.41406 109.17 4.35547Q109.355 4.29688 109.434 4.23828L109.512 4.21875Q109.434 4.72656 109.258 5.19531Q109.141 5.56641 109.062 5.9375L108.906 5.83984L108.633 5.85938L107.891 5.87891L107.422 5.85938Q106.68 5.78125 106.484 5.72266Q106.309 5.72266 106.27 5.54688L106.211 4.98047L106.191 4.70703L106.094 4.62891Q105.957 4.53125 105.82 4.39453Q105.762 4.39453 105.527 4.12109Q105.371 3.94531 105.195 3.94531Q105.02 3.94531 104.893 4.11133Q104.766 4.27734 104.766 4.47266Q104.766 4.58984 104.805 4.69727Q104.844 4.80469 104.873 4.88281Q104.902 4.96094 104.941 5.03906Q105.059 5.27344 105.059 5.52734L105.059 5.60547Q104.98 6.15234 104.98 6.26953L104.824 7.69531Q104.746 8.71094 104.746 8.98438L104.57 11.3672Q104.492 12.2461 104.492 12.6367L104.492 12.9688Q104.492 13.2422 104.238 13.3594Q104.16 13.3789 104.121 13.4375Q103.848 13.5742 103.848 13.8281Q103.848 14.0039 103.984 14.1211L104.609 14.668Q104.688 14.7656 104.883 14.7656ZM106.016 12.6953Q105.957 12.6953 105.908 12.6562Q105.859 12.6172 105.859 12.5781L105.801 12.3438Q105.703 11.9531 105.703 11.3281Q105.684 11.2109 105.684 11.0742Q105.684 10.957 105.742 10.8496Q105.801 10.7422 105.801 10.6445L105.781 10.4883L105.781 10.3125Q105.879 10.1758 105.967 10.166Q106.055 10.1562 106.113 10.1562Q106.27 10.1562 106.289 10.1953Q107.734 10.3516 108.145 10.5273L108.34 10.5859L108.301 10.7617L108.32 10.8789Q108.32 10.9375 108.203 11.0352Q106.816 12.2461 106.582 12.3633Q106.348 12.4805 106.23 12.5977Q106.113 12.6758 106.016 12.6953ZM106.152 7.36328L106.133 7.1875Q106.133 6.85547 106.211 6.03516Q106.23 5.82031 106.387 5.82031Q106.504 5.82031 107.754 6.11328Q107.91 6.11328 107.91 6.30859Q107.637 6.44531 107.373 6.62109Q107.109 6.79688 106.777 7.01172Q106.504 7.24609 106.152 7.36328ZM106.504 10.0586L106.348 10.0586Q105.977 10.0586 105.781 9.88281Q105.879 9.64844 105.977 9.62891L106.152 9.64844Q106.602 9.72656 107.012 9.96094Q106.797 10.0391 106.504 10.0586ZM99.4922 14.1797Q99.6094 14.1797 99.7461 14.1016Q99.7852 14.0625 99.8145 14.0527Q99.8438 14.043 99.8633 14.0234Q99.8828 14.0039 99.9023 14.0039Q100.312 13.75 100.312 13.1836Q100.312 12.6953 100.391 12.3828Q100.41 12.2852 100.41 12.0703Q100.43 11.9531 100.43 11.8164Q100.43 11.4258 100.547 11.1719L100.547 10.6055Q100.625 10.2148 100.625 10.0781Q100.625 9.64844 100.723 9.35547L100.762 9.19922Q100.84 8.98438 101.016 8.98438L101.094 9.00391Q101.309 9.12109 101.523 9.12109Q101.719 9.12109 101.914 9.02344L101.934 9.00391L102.051 8.98438Q102.344 8.92578 102.441 8.80859Q102.48 8.76953 102.578 8.76953Q102.676 8.76953 102.773 8.61328Q102.812 8.59375 102.822 8.56445Q102.832 8.53516 102.842 8.51562Q102.852 8.49609 102.871 8.47656Q103.008 8.4375 103.076 8.33984Q103.145 8.24219 103.184 8.14453Q103.223 8.04688 103.262 7.98828Q103.535 7.46094 103.535 6.79688Q103.535 6.13281 103.008 5.72266Q102.773 5.56641 102.617 5.33203Q102.578 5.23438 102.52 5.20508Q102.461 5.17578 102.441 5.15625Q102.285 5.05859 102.09 5Q101.816 4.90234 101.816 4.55078Q101.816 4.35547 101.865 4.24805Q101.914 4.14062 102.002 4.00391Q102.09 3.86719 102.148 3.67188L102.207 3.63281Q102.285 3.51562 102.295 3.48633Q102.305 3.45703 102.324 3.45703Q102.422 3.32031 102.471 3.30078Q102.52 3.28125 102.969 2.69531L103.066 2.51953Q103.066 2.5 103.105 2.48047Q103.242 2.44141 103.301 2.34375Q103.457 2.08984 103.457 1.77734Q103.457 1.62109 103.418 1.5625Q103.379 1.50391 103.35 1.47461Q103.32 1.44531 103.301 1.41602Q103.281 1.38672 103.242 1.34766Q103.203 1.30859 103.164 1.25Q103.027 1.01562 102.754 0.917969L102.637 1.03516Q102.383 1.13281 102.148 1.30859L101.758 1.58203Q101.602 1.69922 101.426 1.77734Q100.957 1.99219 100.547 2.26562Q100.332 2.42188 100.098 2.55859Q99.9805 2.61719 99.873 2.73438Q99.7656 2.85156 99.6191 2.89062Q99.4727 2.92969 99.375 3.00781Q99.2773 3.08594 99.209 3.125Q99.1406 3.16406 99.0234 3.16406Q98.7695 3.35938 98.2227 3.49609Q98.2031 3.49609 98.2031 3.51562L98.0469 3.53516Q97.9688 3.53516 97.9199 3.48633Q97.8711 3.4375 97.8125 3.4375Q97.7539 3.4375 97.7148 3.45703Q97.5977 3.45703 97.5586 3.53516Q97.5586 3.63281 97.6172 3.71094Q97.6758 3.78906 97.7539 3.86719Q97.9688 4.00391 98.0469 4.0332Q98.125 4.0625 98.3203 4.0625Q99.1016 3.84766 99.8047 3.47656L99.9219 3.41797Q100.117 3.33984 100.43 3.10547Q100.879 2.8125 101.191 2.63672L101.426 2.5L101.504 2.48047Q101.582 2.48047 101.641 2.55859Q101.582 2.75391 101.484 2.89062Q101.074 3.61328 101.074 4.43359Q101.074 4.82422 101.309 5.00977Q101.543 5.19531 101.67 5.41992Q101.797 5.64453 101.992 5.83984Q102.266 6.15234 102.266 6.50391Q102.266 6.71875 102.168 6.95312L101.992 7.22656Q101.973 7.26562 101.973 7.40234L101.953 7.42188Q101.875 7.44141 101.855 7.48047Q101.777 7.57812 101.777 7.67578Q101.68 7.89062 101.494 8.00781Q101.309 8.125 101.055 8.125L100.918 7.87109Q100.859 7.67578 100.859 7.5Q100.859 7.30469 100.879 7.12891Q100.898 6.95312 100.898 6.62109Q100.879 6.48438 100.879 6.32812Q100.879 6.01562 100.801 5.70312Q100.801 5.66406 100.781 5.64453Q100.723 5.41016 100.605 5.35156Q100.254 5.13672 100.039 4.76562Q99.9805 4.66797 99.9219 4.66797Q99.8438 4.66797 99.7656 4.75586Q99.6875 4.84375 99.5898 4.88281Q99.3359 4.96094 99.3359 5.19531L99.2773 7.07031L99.2578 7.22656Q99.2578 7.34375 99.2969 7.46094L99.2969 7.53906Q99.2188 7.77344 99.2188 8.11523Q99.2188 8.45703 99.1992 8.58398Q99.1797 8.71094 99.1797 8.91602Q99.1797 9.12109 99.1406 9.55078Q99.082 9.78516 99.082 9.92188L99.082 10.0195Q99.1211 10.0781 99.1211 10.1367Q99.1211 10.2539 99.0918 10.332Q99.0625 10.4102 99.0625 10.4688Q99.0625 10.5469 99.082 10.6055Q99.0039 10.6641 99.0039 10.7422L99.0234 10.8984Q99.0234 11.2109 98.9648 11.5039Q98.8281 12.5 98.8281 12.7148Q98.8281 13.1836 99.1016 13.6328L99.2383 13.8672Q99.3359 14.1797 99.4922 14.1797Z">
</path>
</g>
</svg>
