<svg xmlns="http://www.w3.org/2000/svg" xmlns:xlink="http://www.w3.org/1999/xlink" width="32" height="32" viewBox="0 0 32 32" fill="none">
<path d="M26.8745 14.2857C26.8694 14.2754 26.8641 14.2652 26.8586 14.2551C26.8531 14.245 26.8475 14.235 26.8417 14.2251C26.8358 14.2152 26.8299 14.2054 26.8238 14.1957C26.8177 14.186 26.8114 14.1764 26.805 14.167C26.7986 14.1575 26.7921 14.1482 26.7854 14.1389C26.7787 14.1297 26.7718 14.1206 26.7649 14.1116C26.7579 14.1026 26.7508 14.0937 26.7435 14.085C26.7362 14.0762 26.7288 14.0676 26.7213 14.0591C26.7138 14.0507 26.7061 14.0423 26.6983 14.0341C26.6905 14.0259 26.6826 14.0178 26.6746 14.0099C26.6665 14.0019 26.6583 13.9942 26.6501 13.9865C26.6418 13.9788 26.6333 13.9713 26.6248 13.964C26.6163 13.9567 26.6077 13.9495 26.5989 13.9424C26.5902 13.9354 26.5813 13.9285 26.5723 13.9217C26.5634 13.915 26.5543 13.9084 26.5451 13.902C26.5359 13.8956 26.5267 13.8894 26.5173 13.8833C26.5079 13.8772 26.4985 13.8713 26.4889 13.8655C26.4794 13.8598 26.4697 13.8542 26.46 13.8488C26.4502 13.8434 26.4404 13.8381 26.4305 13.8331C26.4206 13.828 26.4107 13.8231 26.4006 13.8184C26.3906 13.8137 26.3805 13.8091 26.3703 13.8048C26.3601 13.8004 26.3498 13.7962 26.3395 13.7922C26.3292 13.7882 26.3188 13.7844 26.3083 13.7808C26.2979 13.7772 26.2874 13.7737 26.2769 13.7705C26.2663 13.7672 26.2557 13.7642 26.2451 13.7612C26.2344 13.7584 26.2237 13.7557 26.213 13.7532C26.2023 13.7506 26.1915 13.7483 26.1807 13.7462C26.1699 13.7441 26.1591 13.7421 26.1482 13.7404C26.1373 13.7386 26.1264 13.7371 26.1155 13.7357C26.1046 13.7343 26.0937 13.7332 26.0827 13.7322C26.0718 13.7312 26.0608 13.7304 26.0498 13.7298C26.0389 13.7292 26.0279 13.7288 26.0169 13.7286C26.006 13.7287 25.9951 13.729 25.9841 13.7295C25.9732 13.7299 25.9623 13.7306 25.9514 13.7314C25.9406 13.7322 25.9297 13.7332 25.9188 13.7345C25.908 13.7357 25.8971 13.737 25.8863 13.7386C25.8755 13.7402 25.8647 13.7419 25.854 13.7438C25.8432 13.7458 25.8324 13.7479 25.8217 13.7502C25.811 13.7524 25.8004 13.7549 25.7897 13.7576C25.7791 13.7602 25.7685 13.763 25.758 13.7661C25.7474 13.7691 25.7369 13.7722 25.7265 13.7756C25.716 13.7789 25.7057 13.7825 25.6953 13.7862C25.685 13.7899 25.6747 13.7938 25.6644 13.7978C25.6542 13.8019 25.6441 13.8061 25.634 13.8105C25.6238 13.8149 25.6138 13.8195 25.6039 13.8242C25.5939 13.8289 25.584 13.8338 25.5742 13.8389C25.5644 13.844 25.5546 13.8492 25.545 13.8546C25.5353 13.86 25.5258 13.8655 25.5162 13.8712C25.5068 13.877 25.4974 13.8829 25.4881 13.8889C25.4787 13.8949 25.4695 13.9011 25.4604 13.9075C25.4512 13.9138 25.4422 13.9203 25.4333 13.9269C25.4244 13.9336 25.4155 13.9404 25.4068 13.9473C25.398 13.9543 25.3894 13.9614 25.3809 13.9686C25.3724 13.9758 25.3639 13.9832 25.3557 13.9907C25.3474 13.9983 25.3392 14.0059 25.3311 14.0137C25.323 14.0215 25.3151 14.0294 25.3073 14.0375C25.2994 14.0456 25.2917 14.0537 25.2841 14.0621C25.2765 14.0704 25.2691 14.0788 25.2617 14.0874C25.2544 14.096 25.2472 14.1047 25.2401 14.1135C25.233 14.1223 25.2261 14.1313 25.2193 14.1403C25.2125 14.1494 25.2058 14.1585 25.1993 14.1678C25.1928 14.1771 25.1864 14.1865 25.1801 14.196C25.1739 14.2054 25.1678 14.215 25.1618 14.2247C25.1559 14.2344 25.1501 14.2442 25.1444 14.2541L25.0006 14.5221C23.1068 17.9956 20.5389 22.7513 20.5389 25.6152C20.5361 25.7123 20.5357 25.8094 20.5375 25.9065C20.5393 26.0036 20.5435 26.1006 20.5499 26.1975C20.5562 26.2943 20.5649 26.391 20.5759 26.4874C20.5869 26.5838 20.6001 26.6798 20.6156 26.7756C20.6311 26.8713 20.6489 26.9665 20.6689 27.0613C20.6889 27.1561 20.7111 27.2502 20.7356 27.3438C20.76 27.4374 20.7866 27.5303 20.8155 27.6225C20.8443 27.7147 20.8753 27.806 20.9085 27.8966C20.9416 27.9871 20.9769 28.0767 21.0142 28.1653C21.0516 28.254 21.091 28.3416 21.1325 28.4282C21.1741 28.5148 21.2176 28.6002 21.2631 28.6845C21.3087 28.7687 21.3562 28.8517 21.4056 28.9335C21.4551 29.0152 21.5064 29.0956 21.5597 29.1746C21.6129 29.2537 21.668 29.3312 21.7249 29.4073C21.7819 29.4834 21.8405 29.5579 21.901 29.6309C21.9614 29.7039 22.0235 29.7752 22.0873 29.8449C22.1511 29.9147 22.2165 29.9826 22.2836 30.0488C22.3506 30.115 22.4191 30.1794 22.4891 30.242C22.5592 30.3046 22.6307 30.3653 22.7036 30.4241C22.7765 30.4829 22.8507 30.5397 22.9263 30.5946C23.0019 30.6494 23.0788 30.7023 23.1569 30.7531C23.235 30.8038 23.3142 30.8525 23.3946 30.8991C23.475 30.9457 23.5564 30.9901 23.6389 31.0324C23.7214 31.0746 23.8048 31.1147 23.8892 31.1525C23.9736 31.1903 24.0588 31.226 24.1448 31.2594C24.2309 31.2925 24.3177 31.3234 24.4052 31.3522C24.4927 31.3809 24.5809 31.4075 24.6696 31.4316C24.7584 31.4556 24.8477 31.4772 24.9374 31.4966C25.0272 31.5156 25.1174 31.5325 25.208 31.5472C25.2986 31.5619 25.3895 31.5737 25.4806 31.5834C25.5718 31.5931 25.6631 31.6006 25.7546 31.6053C25.8461 31.61 25.9377 31.6125 26.0293 31.6125C26.1209 31.6125 26.2125 31.61 26.304 31.6053C26.3955 31.6006 26.4868 31.5931 26.5779 31.5834C26.6691 31.5737 26.76 31.5619 26.8506 31.5472C26.9412 31.5325 27.0313 31.5156 27.1211 31.4966C27.2109 31.4772 27.3002 31.4556 27.3889 31.4316C27.4777 31.4075 27.5658 31.3809 27.6534 31.3522C27.7409 31.3234 27.8277 31.2925 27.9137 31.2594C27.9998 31.226 28.085 31.1903 28.1694 31.1525C28.2537 31.1147 28.3372 31.0746 28.4197 31.0324C28.5022 30.9901 28.5836 30.9457 28.664 30.8991C28.7444 30.8525 28.8236 30.8038 28.9017 30.7531C28.9798 30.7023 29.0566 30.6494 29.1322 30.5946C29.2078 30.5397 29.2821 30.4829 29.355 30.4241C29.4279 30.3653 29.4994 30.3046 29.5696 30.242C29.6394 30.1794 29.7081 30.115 29.7751 30.0488C29.842 29.9826 29.9074 29.9147 29.9711 29.8449C30.0351 29.7752 30.0973 29.7039 30.1577 29.6309C30.2182 29.5579 30.2768 29.4834 30.3337 29.4073C30.3906 29.3312 30.4455 29.2537 30.4988 29.1746C30.5522 29.0956 30.6035 29.0152 30.653 28.9335C30.7022 28.8517 30.7497 28.7687 30.7954 28.6845C30.8411 28.6002 30.8844 28.5148 30.926 28.4282C30.9676 28.3416 31.0068 28.254 31.0442 28.1653C31.0817 28.0767 31.117 27.9871 31.1501 27.8966C31.1834 27.806 31.2143 27.7147 31.2432 27.6225C31.2718 27.5303 31.2986 27.4374 31.3231 27.3438C31.3476 27.2502 31.3697 27.1561 31.3897 27.0613C31.4098 26.9665 31.4275 26.8713 31.4428 26.7756C31.4584 26.6798 31.4717 26.5838 31.4826 26.4874C31.4935 26.391 31.5024 26.2943 31.5088 26.1975C31.515 26.1006 31.5192 26.0036 31.5209 25.9065C31.523 25.8094 31.5224 25.7123 31.5198 25.6152C31.5198 23.1297 29.5366 19.3093 27.7867 15.9935C27.4446 15.3892 27.1422 14.8111 26.8745 14.2857ZM26.002 29.3778C25.9443 29.3774 25.8866 29.3754 25.829 29.372C25.7714 29.3686 25.7139 29.3637 25.6565 29.3572C25.5991 29.3508 25.5419 29.3429 25.4848 29.3335C25.4278 29.3241 25.371 29.3132 25.3145 29.3009C25.258 29.2886 25.2017 29.2748 25.1459 29.2595C25.09 29.2442 25.0345 29.2275 24.9793 29.2094C24.9242 29.1912 24.8696 29.1716 24.8154 29.1506C24.7611 29.1296 24.7075 29.1072 24.6543 29.0835C24.6011 29.0597 24.5485 29.0345 24.4965 29.008C24.4445 28.9815 24.3931 28.9536 24.3424 28.9244C24.2917 28.8952 24.2417 28.8647 24.1924 28.8329C24.143 28.8012 24.0945 28.7681 24.0467 28.7337C23.9989 28.6994 23.952 28.6639 23.9058 28.6272C23.8597 28.5904 23.8144 28.5524 23.7701 28.5133C23.7257 28.4742 23.6823 28.434 23.6397 28.3926C23.5972 28.3512 23.5557 28.3088 23.5151 28.2652C23.4746 28.2217 23.4351 28.1772 23.3966 28.1316C23.3581 28.086 23.3207 28.0394 23.2843 27.9919C23.248 27.9443 23.2128 27.8959 23.1787 27.8465C23.1446 27.7972 23.1116 27.7469 23.0799 27.6959C23.0481 27.6448 23.0175 27.5929 22.9882 27.5402C22.9588 27.4876 22.9307 27.4342 22.9038 27.3801C22.8769 27.3259 22.8512 27.2711 22.8269 27.2157C22.8025 27.1602 22.7795 27.1041 22.7577 27.0475C22.7359 26.9908 22.7155 26.9336 22.6963 26.8759C22.6772 26.8182 22.6595 26.76 22.643 26.7013C22.6266 26.6427 22.6116 26.5837 22.5978 26.5242C22.5841 26.4648 22.5718 26.405 22.5609 26.345C22.55 26.2849 22.5404 26.2246 22.5323 26.164C22.5242 26.1034 22.5174 26.0427 22.5121 25.9818C22.5068 25.9209 22.5029 25.8598 22.5004 25.7987C22.4978 25.7376 22.4968 25.6764 22.4971 25.6152C22.4971 23.6447 24.4355 19.8033 25.9673 16.9236L26.0119 17.0129C27.4992 19.8243 29.4823 23.6709 29.4823 25.6152C29.4826 25.6762 29.4814 25.737 29.4787 25.7978C29.4762 25.8587 29.4722 25.9194 29.4669 25.98C29.4615 26.0406 29.4548 26.1011 29.4467 26.1613C29.4386 26.2216 29.429 26.2817 29.4182 26.3414C29.4073 26.4012 29.395 26.4607 29.3814 26.5198C29.3678 26.579 29.3528 26.6377 29.3365 26.6961C29.3202 26.7545 29.3025 26.8124 29.2836 26.8699C29.2646 26.9273 29.2443 26.9843 29.2227 27.0407C29.2011 27.0971 29.1782 27.1529 29.154 27.2082C29.1298 27.2634 29.1044 27.318 29.0777 27.3719C29.051 27.4258 29.0231 27.479 28.994 27.5315C28.9649 27.5839 28.9346 27.6357 28.9031 27.6866C28.8716 27.7375 28.8389 27.7875 28.8051 27.8367C28.7713 27.886 28.7364 27.9343 28.7003 27.9817C28.6643 28.0291 28.6272 28.0756 28.589 28.1211C28.5509 28.1666 28.5117 28.2111 28.4715 28.2546C28.4312 28.298 28.3901 28.3404 28.3479 28.3818C28.3057 28.4231 28.2626 28.4634 28.2186 28.5025C28.1746 28.5416 28.1297 28.5796 28.084 28.6164C28.0382 28.6532 27.9917 28.6887 27.9443 28.7232C27.8968 28.7576 27.8487 28.7907 27.7998 28.8226C27.7509 28.8545 27.7012 28.8851 27.6509 28.9145C27.6006 28.9438 27.5496 28.9718 27.498 28.9986C27.4463 29.0252 27.3942 29.0506 27.3414 29.0746C27.2886 29.0986 27.2353 29.1212 27.1815 29.1425C27.1276 29.1638 27.0733 29.1836 27.0186 29.2021C26.9639 29.2205 26.9087 29.2376 26.8532 29.2532C26.7977 29.2687 26.7418 29.2829 26.6857 29.2956C26.6295 29.3083 26.5731 29.3196 26.5164 29.3294C26.4597 29.3392 26.4028 29.3475 26.3458 29.3544C26.2887 29.3612 26.2315 29.3666 26.1741 29.3705C26.1168 29.3744 26.0595 29.3768 26.002 29.3778L26.002 29.3778ZM12.1211 4.84253C11.5658 3.79156 11.0354 2.77735 10.5694 1.84723L10.2769 1.27444C10.2715 1.26452 10.2659 1.2547 10.2602 1.24497C10.2545 1.23524 10.2487 1.22562 10.2427 1.21609C10.2367 1.20657 10.2305 1.19715 10.2242 1.18784C10.218 1.17853 10.2115 1.16933 10.2049 1.16024C10.1983 1.15115 10.1916 1.14218 10.1848 1.13332C10.1779 1.12447 10.1709 1.11574 10.1638 1.10712C10.1567 1.09851 10.1494 1.09002 10.142 1.08166C10.1346 1.0733 10.1272 1.06507 10.1195 1.05697C10.1119 1.04886 10.1041 1.0409 10.0962 1.03306C10.0884 1.02523 10.0803 1.01754 10.0722 1.00998C10.0641 1.00243 10.0558 0.995016 10.0475 0.987747C10.0392 0.980475 10.0307 0.973353 10.0221 0.966375C10.0135 0.9594 10.0049 0.952575 9.99611 0.945897C9.98732 0.939222 9.97845 0.9327 9.96946 0.926331C9.96047 0.919966 9.95139 0.913753 9.94222 0.9077C9.93305 0.901647 9.92376 0.895756 9.91442 0.890022C9.90507 0.884291 9.89564 0.878722 9.88611 0.873316C9.87659 0.867912 9.86698 0.862672 9.85728 0.8576C9.84758 0.852528 9.83782 0.847628 9.82798 0.842894C9.81816 0.838159 9.80826 0.833597 9.79826 0.829206C9.78827 0.824816 9.77824 0.8206 9.76813 0.816559C9.75802 0.812519 9.74785 0.808653 9.73762 0.804962C9.72739 0.801272 9.7171 0.797762 9.70675 0.794428C9.6964 0.791094 9.68603 0.787941 9.67559 0.784969C9.66515 0.781997 9.65469 0.779203 9.64416 0.776594C9.63364 0.773984 9.62305 0.771556 9.61247 0.769312C9.60189 0.767069 9.59124 0.765009 9.5806 0.763134C9.56993 0.761256 9.55923 0.759566 9.54853 0.758062C9.53782 0.756556 9.52709 0.755237 9.51633 0.754103C9.50557 0.752972 9.49481 0.752025 9.48402 0.751266C9.47326 0.750506 9.46247 0.749931 9.45165 0.749544C9.44086 0.749159 9.43007 0.748959 9.41925 0.748947C9.40828 0.748787 9.39732 0.748819 9.38638 0.749041C9.37541 0.749262 9.36445 0.749681 9.35351 0.750291C9.34257 0.7509 9.33163 0.7517 9.32073 0.752691C9.30979 0.753684 9.29888 0.754869 9.288 0.756247C9.27712 0.757622 9.26624 0.759187 9.25542 0.760947C9.24461 0.762706 9.23379 0.764653 9.22303 0.766791C9.21223 0.768931 9.2015 0.771256 9.1908 0.773772C9.1801 0.776287 9.16943 0.778991 9.15882 0.781881C9.1482 0.784772 9.13765 0.787847 9.12712 0.791109C9.1166 0.794372 9.10613 0.797819 9.09573 0.801447C9.08532 0.805075 9.07494 0.808887 9.06465 0.812881C9.05436 0.816875 9.04413 0.82105 9.03396 0.825403C9.02379 0.829756 9.01371 0.834284 9.00368 0.838994C8.99366 0.843703 8.98373 0.848584 8.97385 0.853644C8.96397 0.858703 8.95419 0.863931 8.94449 0.869334C8.93479 0.874734 8.92518 0.880306 8.91565 0.886047C8.90613 0.891787 8.89667 0.897691 8.88732 0.903762C8.87798 0.909834 8.86875 0.916069 8.85958 0.922466C8.85044 0.928862 8.84139 0.935419 8.83243 0.942134C8.8235 0.94885 8.81465 0.955719 8.80593 0.962744C8.7972 0.969772 8.78859 0.97695 8.78007 0.984278C8.77155 0.991606 8.76318 0.999081 8.75489 1.00671C8.74664 1.01433 8.7385 1.0221 8.73045 1.03001C8.72241 1.03792 8.71451 1.04597 8.70675 1.05415C8.69897 1.06234 8.69133 1.07066 8.68382 1.07912C8.6763 1.08758 8.6689 1.09617 8.66164 1.10488C8.65442 1.1136 8.64732 1.12244 8.64033 1.13141C8.63334 1.14037 8.62653 1.14946 8.61984 1.15867C8.61315 1.16787 8.6066 1.17719 8.60021 1.18663C8.59381 1.19607 8.58759 1.20561 8.58149 1.21527C8.57538 1.22492 8.56943 1.23468 8.56365 1.24455C8.55784 1.25442 8.55221 1.26438 8.54673 1.27444L7.93202 2.34645C4.78402 8.15841 4.69755e-05 16.9446 4.69755e-05 21.9526C-0.000440516 22.1165 0.00286621 22.2803 0.00996713 22.4441C0.0170681 22.6078 0.0279547 22.7713 0.0426271 22.9345C0.0572992 23.0976 0.0757394 23.2603 0.0979478 23.4226C0.120156 23.5848 0.146105 23.7463 0.175796 23.9072C0.205487 24.0681 0.238883 24.2281 0.275985 24.3872C0.313087 24.5463 0.353847 24.7044 0.398272 24.8614C0.442695 25.0184 0.490725 25.1742 0.542364 25.3287C0.594001 25.4832 0.649183 25.6362 0.707913 25.7879C0.766639 25.9395 0.828841 26.0896 0.894519 26.238C0.960195 26.3864 1.02927 26.533 1.10173 26.6778C1.1742 26.8226 1.24997 26.9654 1.32906 27.1063C1.40814 27.2471 1.49044 27.3858 1.57595 27.5224C1.66145 27.659 1.75007 27.7933 1.8418 27.9252C1.93353 28.0572 2.02825 28.1867 2.12598 28.3138C2.2237 28.4408 2.32431 28.5652 2.4278 28.687C2.53129 28.8088 2.63753 28.9278 2.74654 29.0441C2.85554 29.1604 2.96716 29.2738 3.08143 29.3842C3.19567 29.4947 3.31241 29.6021 3.43163 29.7065C3.55088 29.8109 3.67246 29.9121 3.79637 30.0102C3.92028 30.1082 4.0464 30.203 4.17471 30.2945C4.30301 30.386 4.43334 30.4741 4.56574 30.5588C4.69814 30.6436 4.8324 30.7248 4.96854 30.8025C5.10472 30.8802 5.24257 30.9543 5.38216 31.0249C5.52176 31.0954 5.66288 31.1623 5.80554 31.2255C5.94823 31.2887 6.09231 31.3481 6.23774 31.4037C6.38317 31.4597 6.52981 31.5116 6.67765 31.5597C6.8255 31.6075 6.97435 31.6519 7.12423 31.6922C7.27412 31.7325 7.42485 31.7691 7.57642 31.8012C7.72798 31.8337 7.88022 31.8622 8.03314 31.8869C8.18603 31.9116 8.33939 31.9322 8.49325 31.9487C8.64708 31.9653 8.80121 31.9778 8.95566 31.9862C9.11008 31.995 9.26462 31.9997 9.41925 32C9.57388 31.9991 9.72839 31.9944 9.88278 31.9856C10.0372 31.9769 10.1913 31.9641 10.3451 31.9472C10.4989 31.9303 10.6522 31.9097 10.8051 31.885C10.958 31.8603 11.1101 31.8316 11.2616 31.7987C11.4132 31.7659 11.5639 31.7294 11.7137 31.6887C11.8635 31.6484 12.0123 31.6041 12.1601 31.5556C12.3079 31.5075 12.4544 31.4556 12.5998 31.3997C12.7452 31.3437 12.8892 31.2844 13.0318 31.2208C13.1744 31.1575 13.3154 31.0905 13.455 31.0198C13.5945 30.9492 13.7323 30.8749 13.8684 30.7971C14.0045 30.7192 14.1386 30.6379 14.271 30.5532C14.4033 30.4683 14.5336 30.3802 14.6618 30.2886C14.7901 30.197 14.9161 30.1022 15.04 30.0041C15.1638 29.906 15.2853 29.8047 15.4045 29.7002C15.5237 29.5958 15.6404 29.4883 15.7546 29.3778C15.8688 29.2674 15.9804 29.154 16.0894 29.0377C16.1983 28.9214 16.3045 28.8023 16.408 28.6805C16.5114 28.5587 16.612 28.4343 16.7098 28.3072C16.8075 28.1802 16.9022 28.0507 16.9939 27.9188C17.0856 27.7868 17.1742 27.6526 17.2597 27.516C17.3452 27.3794 17.4275 27.2407 17.5066 27.0999C17.5857 26.9591 17.6615 26.8163 17.734 26.6715C17.8065 26.5267 17.8756 26.3801 17.9413 26.2318C18.007 26.0834 18.0693 25.9334 18.128 25.7818C18.1868 25.6302 18.2421 25.4772 18.2938 25.3227C18.3455 25.1682 18.3936 25.0125 18.4381 24.8556C18.4826 24.6986 18.5234 24.5406 18.5606 24.3815C18.5978 24.2224 18.6313 24.0624 18.6611 23.9016C18.6909 23.7407 18.717 23.5792 18.7393 23.4171C18.7616 23.2549 18.7802 23.0922 18.795 22.9291C18.8098 22.7659 18.8208 22.6025 18.8281 22.4387C18.8353 22.275 18.8388 22.1112 18.8385 21.9473C18.8385 17.5857 15.1551 10.5599 12.2004 4.91084L12.1211 4.84253ZM9.41925 29.898C9.29705 29.8976 9.17491 29.894 9.05289 29.8872C8.93084 29.8804 8.80902 29.8704 8.68744 29.8573C8.56586 29.8442 8.44466 29.8279 8.32385 29.8084C8.20301 29.789 8.08272 29.7664 7.96294 29.7407C7.84316 29.715 7.72406 29.6862 7.6056 29.6542C7.48718 29.6223 7.36955 29.5873 7.25271 29.5493C7.13588 29.5112 7.02002 29.4702 6.9051 29.4261C6.79018 29.382 6.67636 29.335 6.56362 29.285C6.45088 29.235 6.33939 29.1821 6.2291 29.1262C6.11881 29.0704 6.00991 29.0117 5.90233 28.9502C5.79475 28.8888 5.68868 28.8245 5.58411 28.7575C5.47954 28.6905 5.37656 28.6208 5.27521 28.5484C5.17385 28.476 5.07423 28.4011 4.97636 28.3235C4.87848 28.2459 4.78246 28.1658 4.6883 28.0833C4.59413 28.0007 4.50195 27.9157 4.4117 27.8283C4.32146 27.741 4.23331 27.6513 4.14726 27.5593C4.0612 27.4674 3.9773 27.3732 3.89561 27.2769C3.81389 27.1806 3.73446 27.0822 3.65731 26.9817C3.58016 26.8812 3.5054 26.7788 3.43302 26.6744C3.36061 26.5701 3.29068 26.4639 3.2232 26.3559C3.15572 26.2479 3.0908 26.1382 3.02842 26.0268C2.96604 25.9154 2.90626 25.8024 2.8491 25.6879C2.79195 25.5734 2.73749 25.4575 2.68571 25.3402C2.63393 25.2228 2.5849 25.1042 2.53862 24.9843C2.49234 24.8644 2.44887 24.7434 2.4082 24.6212C2.36753 24.4991 2.32971 24.3759 2.29476 24.2518C2.2598 24.1277 2.22773 24.0027 2.19856 23.8769C2.1694 23.7511 2.14316 23.6246 2.11986 23.4975C2.09655 23.3703 2.07621 23.2426 2.05883 23.1144C2.04144 22.9862 2.02704 22.8576 2.01562 22.7286C2.0042 22.5996 1.99577 22.4704 1.99034 22.341C1.9849 22.2116 1.98247 22.0821 1.98304 21.9526C1.98304 17.6541 6.31091 9.56672 9.3796 3.92819C9.69688 4.54825 10.0389 5.19462 10.3711 5.862L10.4058 5.93031C13.1027 11.0801 16.796 18.1322 16.796 21.9421C16.7964 22.071 16.7938 22.1998 16.7883 22.3286C16.7828 22.4574 16.7744 22.5859 16.7629 22.7142C16.7515 22.8426 16.7371 22.9706 16.7198 23.0982C16.7025 23.2257 16.6823 23.3528 16.6591 23.4794C16.6359 23.6059 16.6099 23.7318 16.5809 23.857C16.552 23.9822 16.5202 24.1066 16.4855 24.2301C16.4508 24.3537 16.4133 24.4763 16.373 24.5979C16.3327 24.7195 16.2896 24.84 16.2437 24.9594C16.1979 25.0788 16.1493 25.1969 16.098 25.3138C16.0467 25.4307 15.9927 25.5462 15.9361 25.6602C15.8795 25.7743 15.8203 25.8869 15.7585 25.9979C15.6968 26.109 15.6325 26.2183 15.5657 26.326C15.4988 26.4337 15.4296 26.5397 15.3579 26.6438C15.2862 26.7479 15.2121 26.8501 15.1358 26.9504C15.0594 27.0507 14.9807 27.149 14.8998 27.2452C14.8189 27.3414 14.7358 27.4355 14.6506 27.5275C14.5653 27.6194 14.478 27.7091 14.3886 27.7965C14.2993 27.8839 14.2079 27.969 14.1147 28.0517C14.0214 28.1344 13.9262 28.2147 13.8293 28.2924C13.7323 28.3702 13.6336 28.4455 13.5331 28.5181C13.4327 28.5908 13.3307 28.6609 13.227 28.7283C13.1233 28.7957 13.0182 28.8604 12.9116 28.9223C12.8049 28.9843 12.6969 29.0435 12.5876 29.0999C12.4782 29.1563 12.3676 29.2098 12.2558 29.2605C12.144 29.3111 12.031 29.3589 11.917 29.4037C11.803 29.4486 11.6881 29.4904 11.5721 29.5293C11.4562 29.5682 11.3394 29.6041 11.2218 29.6369C11.1042 29.6698 10.9859 29.6996 10.867 29.7263C10.748 29.7531 10.6285 29.7767 10.5084 29.7973C10.3884 29.8178 10.2679 29.8353 10.1471 29.8496C10.0262 29.864 9.90507 29.8752 9.7837 29.8832C9.66232 29.8913 9.54086 29.8962 9.41925 29.898ZM31.5643 12.7459C31.0687 12.2625 30.8803 11.4742 30.6769 10.5652C30.3844 9.24616 30.0224 7.60662 28.4114 6.56616C26.4284 5.28922 24.5445 6.04066 22.8788 6.6765C21.7237 7.12319 20.6281 7.54881 19.6218 7.28081C15.6954 6.22984 15.9483 1.34276 15.9582 1.1273C15.9593 1.11014 15.9601 1.09297 15.9605 1.07577C15.9609 1.05857 15.9609 1.04137 15.9605 1.02417C15.9601 1.00698 15.9592 0.9898 15.958 0.972647C15.9568 0.955491 15.9552 0.938378 15.9532 0.921306C15.9512 0.904234 15.9488 0.887225 15.946 0.870278C15.9432 0.853331 15.94 0.836469 15.9365 0.819687C15.9329 0.802906 15.929 0.786228 15.9246 0.769653C15.9203 0.753075 15.9155 0.736622 15.9104 0.720294C15.9053 0.703966 15.8999 0.687778 15.894 0.671734C15.8881 0.655691 15.8819 0.639809 15.8753 0.624087C15.8687 0.608369 15.8618 0.592831 15.8545 0.577472C15.8471 0.562112 15.8395 0.546956 15.8315 0.531997C15.8235 0.517037 15.8151 0.502294 15.8064 0.487769C15.7977 0.473247 15.7887 0.458956 15.7793 0.444903C15.77 0.430847 15.7603 0.417044 15.7503 0.403494C15.7403 0.389944 15.73 0.376662 15.7194 0.363647C15.7088 0.350631 15.6978 0.337903 15.6866 0.325456C15.6754 0.313009 15.6639 0.300862 15.6522 0.289013C15.6404 0.277165 15.6284 0.26563 15.6161 0.254407C15.6038 0.243185 15.5912 0.23229 15.5784 0.221721C15.5656 0.211152 15.5526 0.200923 15.5393 0.191033C15.526 0.181143 15.5125 0.171604 15.4988 0.162417C15.4851 0.15323 15.4711 0.144405 15.457 0.135943C15.4429 0.127481 15.4286 0.119391 15.4141 0.111673C15.3996 0.103957 15.3849 0.0966212 15.37 0.0896678C15.3552 0.0827147 15.3402 0.0761519 15.3251 0.0699791C15.3099 0.0638066 15.2946 0.0580316 15.2792 0.0526541C15.2638 0.0472772 15.2483 0.0423041 15.2326 0.0377353C15.217 0.0331666 15.2012 0.0290075 15.1854 0.0252582C15.1695 0.0215088 15.1536 0.0181737 15.1376 0.0152529C15.1216 0.012332 15.1056 0.00982894 15.0895 0.00774362C15.0733 0.00565828 15.0572 0.00399322 15.041 0.00274843C15.0248 0.00150146 15.0085 0.000678753 14.9923 0.000280317C14.976 -0.000118121 14.9597 -9.18091e-05 14.9435 0.000359253C14.9272 0.000810316 14.9109 0.00168558 14.8947 0.00298505C14.8784 0.0042845 14.8623 0.00600659 14.8461 0.00815134C14.83 0.0102961 14.8139 0.0128608 14.7978 0.0158456C14.7818 0.0188304 14.7659 0.0222316 14.75 0.0260492C14.7341 0.0298669 14.7183 0.0340962 14.7027 0.0387372C14.687 0.0433784 14.6714 0.0484259 14.656 0.0538794C14.6405 0.0593328 14.6252 0.0651859 14.6101 0.0714384C14.5949 0.0776909 14.5799 0.0843356 14.565 0.0913719C14.5501 0.0984087 14.5355 0.105829 14.521 0.113632C14.5064 0.121436 14.4921 0.129613 14.478 0.138164C14.4638 0.146716 14.4499 0.155631 14.4362 0.164909C14.4225 0.174188 14.409 0.183819 14.3957 0.193802C14.3824 0.203786 14.3694 0.214109 14.3566 0.224773C14.3438 0.235437 14.3313 0.246428 14.319 0.257747C14.3067 0.269065 14.2947 0.280698 14.2829 0.292643C14.2712 0.304589 14.2597 0.316834 14.2485 0.329378C14.2374 0.341922 14.2265 0.35475 14.2159 0.367862C14.2053 0.380975 14.195 0.394356 14.1851 0.408003C14.1751 0.42165 14.1655 0.43555 14.1562 0.449703C14.1469 0.463853 14.1379 0.478237 14.1292 0.492859C14.1206 0.507478 14.1123 0.522316 14.1043 0.537369C14.0964 0.552422 14.0888 0.567672 14.0815 0.583122C14.0743 0.598572 14.0674 0.6142 14.0609 0.630009C14.0544 0.645819 14.0482 0.661791 14.0425 0.677919C14.0367 0.69405 14.0313 0.710322 14.0262 0.726734C14.0212 0.743147 14.0166 0.759681 14.0123 0.776334C14.0081 0.792987 14.0042 0.809744 14.0007 0.8266C13.9973 0.843453 13.9942 0.860391 13.9915 0.877409C13.9888 0.894425 13.9865 0.911503 13.9846 0.928637C13.9827 0.945775 13.9812 0.96295 13.9801 0.980166C13.8215 3.33962 14.694 8.12687 19.131 9.31447C20.7372 9.74537 22.2393 9.16209 23.5629 8.64709C25.2088 8.006 26.2747 7.64866 27.3802 8.36334C28.2577 8.93612 28.456 9.74012 28.7534 11.0381C28.9963 12.1416 29.274 13.3871 30.2406 14.3119C30.2521 14.3224 30.2636 14.3327 30.2751 14.3427C30.2869 14.3526 30.2986 14.3623 30.3107 14.3717C30.3228 14.3811 30.3352 14.3902 30.3476 14.399C30.3603 14.4078 30.3729 14.4163 30.3856 14.4245C30.3986 14.4327 30.4116 14.4406 30.4248 14.4481C30.4381 14.4557 30.4514 14.4629 30.4649 14.4699C30.4785 14.4768 30.492 14.4834 30.5059 14.4897C30.5198 14.4959 30.5336 14.5018 30.5475 14.5074C30.5616 14.513 30.5758 14.5183 30.5899 14.5232C30.6044 14.5281 30.6188 14.5327 30.6333 14.5369C30.6477 14.5412 30.6621 14.545 30.6769 14.5486C30.6913 14.5521 30.7061 14.5552 30.7208 14.5581C30.7356 14.5609 30.7503 14.5633 30.7653 14.5654C30.7804 14.5675 30.7951 14.5693 30.8101 14.5707C30.8252 14.5721 30.8399 14.5731 30.855 14.5737C30.87 14.5744 30.885 14.5747 30.9001 14.5747C30.9175 14.5746 30.9348 14.5741 30.9522 14.5731C30.9696 14.5721 30.9867 14.5706 31.0041 14.5687C31.0215 14.5667 31.0386 14.5642 31.0557 14.5613C31.0731 14.5584 31.0902 14.555 31.107 14.5511C31.1238 14.5472 31.1409 14.5429 31.1577 14.538C31.1745 14.5332 31.191 14.5279 31.2075 14.5222C31.2241 14.5164 31.2406 14.5102 31.2568 14.5036C31.273 14.4969 31.2889 14.4898 31.3048 14.4822C31.3208 14.4747 31.3364 14.4667 31.3517 14.4582C31.3673 14.4498 31.3824 14.4409 31.3974 14.4317C31.4124 14.4224 31.4275 14.4127 31.4419 14.4026C31.4564 14.3925 31.4708 14.382 31.4847 14.3711C31.4985 14.3602 31.5124 14.3489 31.5259 14.3372C31.5392 14.3256 31.5525 14.3135 31.5654 14.3011C31.5781 14.2887 31.5908 14.276 31.6029 14.2629C31.6153 14.2498 31.6271 14.2363 31.6386 14.2226C31.6495 14.2098 31.6598 14.1968 31.6698 14.1835C31.6801 14.1702 31.6899 14.1566 31.6993 14.1428C31.7087 14.129 31.7179 14.1149 31.7267 14.1006C31.7356 14.0863 31.7441 14.0718 31.7524 14.0571C31.7606 14.0424 31.7686 14.0275 31.7759 14.0123C31.7833 13.9972 31.7904 13.9819 31.7972 13.9664C31.804 13.9509 31.8104 13.9352 31.8166 13.9194C31.8228 13.9035 31.8284 13.8876 31.8337 13.8714C31.839 13.8553 31.844 13.839 31.8485 13.8227C31.8529 13.8062 31.8573 13.7898 31.8611 13.7732C31.865 13.7566 31.8682 13.7399 31.8715 13.7231C31.8744 13.7063 31.8771 13.6895 31.8794 13.6726C31.8815 13.6557 31.8836 13.6387 31.885 13.6217C31.8865 13.6046 31.8877 13.5876 31.8883 13.5705C31.8892 13.5534 31.8894 13.5364 31.8894 13.5193C31.8892 13.5022 31.8889 13.4851 31.888 13.4681C31.8871 13.451 31.8856 13.434 31.8841 13.417C31.8827 13.4 31.8806 13.383 31.8779 13.3661C31.8756 13.3492 31.8729 13.3324 31.8697 13.3157C31.8665 13.2989 31.8629 13.2822 31.8588 13.2657C31.855 13.2491 31.8505 13.2327 31.8458 13.2163C31.8411 13.2 31.8361 13.1838 31.8305 13.1677C31.8252 13.1516 31.8193 13.1357 31.8131 13.1199C31.8069 13.1042 31.8001 13.0885 31.7933 13.0731C31.7866 13.0577 31.7792 13.0424 31.7715 13.0274C31.7642 13.0123 31.7562 12.9975 31.7476 12.9828C31.7394 12.9682 31.7308 12.9537 31.7217 12.9395C31.7129 12.9253 31.7037 12.9114 31.694 12.8977C31.6843 12.8839 31.6745 12.8705 31.6642 12.8572C31.6539 12.844 31.6436 12.8311 31.6327 12.8184C31.6218 12.8058 31.6108 12.7934 31.5994 12.7813C31.5879 12.7692 31.5764 12.7574 31.5643 12.7459Z"   fill="#00BFFF" >
</path>
</svg>
