<svg xmlns="http://www.w3.org/2000/svg" xmlns:xlink="http://www.w3.org/1999/xlink" width="39.62890625" height="15.41015625" viewBox="0 0 39.62890625 15.41015625" fill="none">
<g >
<path     fill="#000000"  d="M16.8945 14.2969Q17.9297 14.2969 18.5547 14.0625Q18.7305 13.9844 19.5312 13.8086Q20 13.7305 20.4688 13.6133Q20.7812 13.5547 20.957 13.2617L20.7812 13.0273Q20.5469 12.6367 20.1074 12.6367Q19.668 12.6367 19.248 12.5781Q18.8281 12.5195 18.3984 12.4609L17.3633 12.2852Q15.2539 12.1094 15.0781 12.1094Q15.0781 11.9922 15.1367 11.8945Q15.3125 11.543 15.332 11.1523L15.332 10.7812Q15.3711 10.293 15.3711 9.82422Q15.3711 9.49219 15.5469 9.41406Q16.0352 9.12109 16.6211 9.10156Q17.0508 9.08203 17.3633 8.78906L17.2461 8.63281Q16.9727 8.20312 16.8848 8.17383Q16.7969 8.14453 16.6406 8.14453Q16.4648 8.14453 15.4297 8.39844Q15.4297 8.33984 15.4102 8.28125Q15.3906 8.22266 15.3906 8.14453Q15.4102 7.98828 15.4492 7.79297Q15.4883 7.59766 15.4883 7.36328L15.4883 7.12891Q15.4883 6.875 15.6152 6.71875Q15.7422 6.5625 16.1133 6.44531Q16.4062 6.34766 16.6699 6.20117Q16.9336 6.05469 16.9336 5.9375Q16.9336 5.82031 16.6992 5.64453Q16.6797 5.625 16.6602 5.61523Q16.6406 5.60547 16.6211 5.56641Q16.4453 5.41016 16.377 5.36133Q16.3086 5.3125 16.25 5.3125Q16.0938 5.3125 15.7422 5.48828L15.625 5.50781Q15.4883 5.50781 15.4297 5.29297Q15.2344 4.6875 14.6875 4.60938Q14.2969 4.92188 14.2969 5.33203Q14.2969 5.54688 14.3945 5.78125L14.4531 6.01562Q14.4531 6.11328 14.3652 6.16211Q14.2773 6.21094 14.2383 6.25Q14.0234 6.40625 13.3984 6.60156L12.9883 6.71875Q13.0273 6.58203 13.0859 6.50391L13.3008 6.15234Q13.6133 5.64453 13.9453 5.15625Q13.9844 5.13672 14.0039 5.09766Q14.2773 4.62891 14.6484 4.51172Q15.2734 4.29688 15.8984 4.02344Q16.9141 3.55469 16.9141 3.26172Q16.9141 3.10547 16.7578 2.94922Q16.582 2.87109 16.5039 2.69531Q16.3672 2.38281 15.9961 2.38281L15.4102 2.48047L15.2344 2.48047Q15.293 1.95312 15.4102 1.50391Q15.4492 1.32812 15.4492 1.17188Q15.4492 0.664062 15.0195 0.3125Q14.9219 0.234375 14.8633 0.146484Q14.8047 0.0585938 14.7266 0.0292969Q14.6484 0 14.5312 0Q14.3359 0.0195312 14.1895 0.126953Q14.043 0.234375 13.9062 0.371094Q13.4766 0.742188 13.4766 1.25Q13.4766 1.44531 13.5352 1.64062L13.8281 2.46094Q13.8867 2.63672 13.8867 2.79297Q13.8867 3.28125 13.3789 3.4375Q13.3008 3.4375 13.1055 3.53516Q12.6758 3.75 12.1875 3.75L11.875 3.73047Q11.7773 3.73047 11.6992 3.75Q11.3281 3.84766 11.2305 4.19922L11.2109 4.35547Q11.2109 4.58984 11.4453 4.72656Q11.5039 4.76562 11.543 4.81445Q11.582 4.86328 11.6211 4.90234Q11.9727 5.21484 12.3242 5.21484Q12.4414 5.21484 12.5879 5.16602Q12.7344 5.11719 12.9102 5.11719L13.0859 5.13672Q13.0664 5.17578 13.0566 5.22461Q13.0469 5.27344 12.7734 5.72266Q12.5 6.26953 11.8945 6.875Q11.7188 7.10938 11.4844 7.26562Q11.1523 7.42188 11.1523 7.79297L11.1523 7.87109Q10.9961 7.73438 10.8398 7.73438Q10.6836 7.73438 10.4297 7.87109Q10.1172 8.06641 9.78516 8.06641Q9.49219 8.06641 9.17969 7.91016Q8.28125 7.38281 7.98828 7.36328Q7.79297 7.36328 7.79297 7.51953Q7.79297 7.63672 7.92969 7.73438Q7.92969 7.75391 7.94922 7.75391L8.57422 8.41797L8.125 9.14062L7.98828 9.39453Q7.79297 9.72656 7.55859 10.0391Q6.97266 10.7227 6.34766 11.4062L6.11328 11.6602Q5.85938 11.9336 5.50781 12.0508Q5.41016 11.8945 5.41016 11.7969Q5.41016 11.6602 5.44922 11.6211Q5.54688 11.1914 5.58594 10.7812Q5.625 10.3711 5.91797 10.1562L6.13281 10.0195Q6.60156 9.66797 7.16797 9.49219Q7.42188 9.43359 7.65625 9.31641Q7.8125 9.25781 7.8125 9.12109L7.79297 9.02344Q7.61719 8.75 7.34375 8.53516Q7.26562 8.47656 7.1875 8.47656Q7.08984 8.47656 6.85547 8.61328L5.91797 9.08203Q5.85938 8.78906 5.76172 8.59375L5.15625 8.32031Q5.39062 8.16406 5.52734 8.07617Q5.66406 7.98828 6.07422 7.91016Q6.15234 7.89062 6.23047 7.83203Q6.99219 7.40234 7.30469 7.1875Q7.07031 6.60156 6.62109 6.60156Q6.46484 6.60156 6.26953 6.67969Q6.21094 6.69922 6.01562 6.69922Q6.60156 6.17188 7.25586 5.73242Q7.91016 5.29297 8.45703 4.74609Q8.41797 4.25781 7.87109 4.08203Q7.77344 4.04297 7.69531 4.04297Q7.46094 4.04297 7.24609 4.29688Q6.875 4.66797 6.21094 4.84375L6.38672 4.57031Q6.67969 4.12109 6.85547 3.67188Q6.91406 3.45703 7.03125 3.26172Q7.34375 2.75391 7.34375 2.30469Q7.34375 2.20703 7.32422 2.05078Q7.30469 1.89453 7.05078 1.69922Q6.99219 1.66016 6.96289 1.60156Q6.93359 1.54297 6.875 1.50391Q6.81641 1.46484 6.77734 1.42578Q6.48438 1.15234 5.97656 1.15234Q5.54688 1.15234 4.74609 1.50391L4.72656 1.50391Q4.88281 1.58203 5.00977 1.5918Q5.13672 1.60156 5.21484 1.64062Q5.85938 1.75781 5.85938 2.05078Q5.85938 2.14844 5.56641 2.79297Q5.50781 2.89062 5.45898 2.99805Q5.41016 3.10547 5.33203 3.22266Q5.25391 3.33984 5.19531 3.47656Q5.09766 3.76953 4.92188 4.02344Q4.82422 4.17969 4.74609 4.35547Q4.51172 4.84375 4.19922 5.29297Q4.08203 5.52734 3.65234 6.11328L3.65234 6.13281L3.45703 6.38672Q3.18359 6.77734 2.89062 7.14844Q2.5 7.59766 2.10938 8.00781L1.85547 8.28125L1.83594 8.28125Q1.73828 8.37891 1.66016 8.41797Q1.17188 8.53516 0.878906 8.94531L0.351562 9.47266Q0 9.78516 0 9.98047Q0 10.0391 0.078125 10.1172L0.644531 10.6055Q1.13281 10.5469 1.62109 10.0586Q1.79688 9.94141 2.57812 9.16016L3.30078 8.41797Q3.47656 8.24219 3.67188 8.04688Q3.86719 7.85156 3.92578 7.85156L4.04297 7.85156Q4.04297 7.73438 4.21875 7.5Q4.27734 7.46094 4.31641 7.40234Q4.35547 7.34375 4.76562 6.83594L4.82422 6.75781Q5.15625 6.50391 5.35156 6.15234Q5.50781 5.87891 5.72266 5.64453Q5.80078 5.68359 5.85938 5.68359Q5.9375 5.68359 6.03516 5.66406Q6.13281 5.64453 6.25 5.64453Q6.36719 5.66406 6.46484 5.76172L6.28906 5.95703Q6.09375 6.17188 5.87891 6.30859Q5.48828 6.58203 5.15625 6.93359Q4.96094 7.12891 4.7168 7.34375Q4.47266 7.55859 4.02344 7.85156L3.82812 8.10547Q4.14062 8.51562 4.53125 8.51562Q4.74609 8.51562 5 8.37891Q4.74609 8.63281 4.74609 8.82812Q4.74609 8.94531 4.78516 9.07227Q4.82422 9.19922 4.82422 9.31641Q4.82422 9.84375 4.43359 10.0977Q3.86719 10.4492 3.26172 10.7812Q3.18359 10.8203 3.125 10.8594Q3.06641 10.8984 2.99805 10.8984Q2.92969 10.8984 2.85156 10.918L3.16406 10.4688Q2.96875 10.5469 2.83203 10.6641Q2.51953 10.8984 2.51953 11.1523Q2.51953 11.3867 2.8125 11.6211Q2.89062 11.6992 3.02734 11.6992Q3.39844 11.6211 3.75 11.4844L4.41406 11.1719Q4.375 11.6992 4.23828 12.1484L4.16016 12.5781L4.14062 12.8906Q4.14062 13.125 4.28711 13.2227Q4.43359 13.3203 4.55078 13.4082Q4.66797 13.4961 4.80469 13.5742Q4.94141 13.6523 5.19531 13.6523Q5.68359 13.6523 6.03516 13.3789Q6.89453 12.6562 7.44141 11.6797Q7.51953 11.543 7.65625 11.3965Q7.79297 11.25 7.85156 11.0449Q7.91016 10.8398 7.99805 10.6445Q8.08594 10.4492 8.14453 10.2734Q8.30078 9.86328 8.53516 9.6875Q8.51562 9.66797 8.51562 9.63867Q8.51562 9.60938 8.51562 9.57031L8.51562 9.55078Q8.71094 8.96484 8.82812 8.76953L9.16016 9.04297L8.51562 9.6875Q8.4375 9.86328 8.4375 10.0195Q8.4375 10.4102 8.84766 10.6641Q9.04297 10.8203 9.21875 11.0352L9.49219 11.4453Q9.49219 11.4844 9.45312 11.4844Q9.10156 11.7383 8.73047 11.9727L7.75391 12.6367Q7.42188 12.8125 7.38281 13.0469Q7.51953 13.2812 7.77344 13.2812Q7.96875 13.2812 8.53516 13.0273Q8.63281 12.9688 8.75 12.9297Q9.47266 12.5781 10.1953 12.5781L10.7812 12.5781Q11.4453 12.5781 11.9727 12.9102L12.0703 12.9688Q13.5156 13.7695 15.4102 14.082Q16.2891 14.2969 16.8945 14.2969ZM14.1992 11.9727L14.043 11.9531Q13.6133 11.9531 13.1836 11.875L11.7188 11.7578Q11.3672 11.7578 11.1719 11.4062Q10.9375 10.9375 10.4297 10.8203Q9.90234 10.7812 9.49219 10.4102Q9.35547 10.2734 9.35547 10.1953Q9.35547 10.1172 9.43359 10Q9.51172 9.88281 9.60938 9.82422Q10.5664 9.375 11.0352 9.13086Q11.5039 8.88672 11.6406 8.57422L11.6602 8.47656Q11.6406 8.4375 11.6211 8.41797Q11.6016 8.39844 11.6016 8.32031Q11.3281 8.28125 11.2109 7.94922Q11.5234 8.10547 11.6016 8.33984Q12.4414 8.22266 13.2031 7.8125Q14.1016 7.32422 14.2188 7.32422L14.375 7.32422L14.3359 7.63672Q14.2578 7.96875 14.2383 8.30078L14.2383 8.33984Q14.2383 8.84766 13.6914 8.97461Q13.1445 9.10156 12.6172 9.31641Q12.0117 9.57031 11.3672 9.70703Q10.9375 9.78516 10.9375 10.0781Q10.9375 10.2148 11.0352 10.3906Q11.3477 10.9766 11.6797 10.9766Q11.7773 10.9766 11.8945 10.9375Q12.8711 10.6641 13.7695 10.1953L14.043 10.0977Q14.043 10.6836 13.9844 10.957Q13.9453 11.0938 13.9453 11.2305Q13.9453 11.6211 14.1992 11.9727ZM14.0234 1.95312Q13.75 1.69922 13.75 1.42578Q13.75 1.32812 13.7793 1.21094Q13.8086 1.09375 13.8672 1.03516Q13.9258 0.976562 14.1406 0.917969Q14.1797 1.23047 14.1797 1.42578Q14.1797 1.69922 14.0234 1.95312ZM9.53125 6.77734L9.62891 6.75781Q10.0586 6.60156 10.4492 6.36719Q10.5664 6.28906 10.5664 6.17188Q10.5664 6.09375 10.4883 6.00586Q10.4102 5.91797 10.2539 5.72266Q10.1367 5.46875 9.84375 5.46875Q9.58984 5.46875 9.02344 5.66406Q8.53516 5.83984 8.00781 5.85938Q7.96875 5.87891 7.96875 5.88867Q7.96875 5.89844 7.94922 5.89844Q8.00781 6.01562 8.125 6.05469Q8.24219 6.09375 8.60352 6.09375Q8.96484 6.09375 9.19922 6.15234Q9.35547 6.19141 9.49219 6.34766Q9.47266 6.36719 9.45312 6.41602Q9.43359 6.46484 9.41406 6.52344Q9.39453 6.58203 9.39453 6.62109Q9.39453 6.77734 9.53125 6.77734ZM25.957 15.4102Q26.2695 15.3711 26.4062 15.1562Q26.6211 14.7852 26.6211 14.375L26.6016 14.1797Q26.582 13.7109 26.5723 13.2031Q26.5625 12.6953 26.543 12.4805Q26.5039 12.0117 26.5039 11.543L26.5234 10.9375Q26.5625 10.7227 26.7188 10.6641L27.4609 10.4102L29.7266 9.70703L30.5469 9.49219Q30.0977 10.1172 29.6094 10.6641Q29.4727 10.8984 29.2578 11.0352Q29.1016 11.1328 29.0625 11.3086L29.375 11.6016L29.5312 11.5625Q29.8242 11.4648 30.2539 11.4648Q30.625 11.5234 31.0352 11.543L31.4258 11.582L31.25 11.8359Q31.0156 11.9531 30.6055 12.2266Q30.3516 12.3828 30.0781 12.4219Q29.4922 12.5 28.9648 12.7539L28.5547 12.9688Q29.2188 13.1445 29.8047 13.1445L30.2344 13.1445L30.4688 13.125Q30.6055 13.125 30.7227 13.1445Q30.9961 13.1445 31.2109 13.0273Q31.3086 12.9688 31.4453 12.9199Q31.582 12.8711 31.7188 12.7734Q32.2266 12.4805 32.4805 12.2266Q32.5781 12.1094 32.6953 12.1094Q32.8711 12.1094 33.1641 12.3047L33.3984 12.4219Q34.0625 12.7539 34.4727 13.3984L34.4727 13.418Q34.668 13.75 34.9414 14.0234Q35.0391 14.1016 35.1172 14.209Q35.1953 14.3164 35.3027 14.4043Q35.4102 14.4922 35.5469 14.5117Q35.6445 14.6484 35.8203 14.6484Q35.918 14.6484 36.0156 14.6094Q36.0352 14.5898 36.0547 14.541Q36.0742 14.4922 36.1133 14.4336Q36.1523 14.375 36.2207 14.3457Q36.2891 14.3164 36.3379 14.209Q36.3867 14.1016 36.3867 13.9844Q36.3867 13.6719 35.2148 12.3633Q35.0781 12.2656 34.9512 12.0801Q34.8242 11.8945 34.6289 11.7773L34.4531 11.6797Q34.1016 11.4453 33.5352 11.3477L33.4375 11.3281Q33.4961 11.1719 33.6328 10.9961Q33.8867 10.7031 34.082 10.3516Q34.1602 10.1758 34.2578 10.0195Q34.4531 9.72656 34.6094 9.39453Q34.8242 8.92578 34.9609 8.92578Q35.0977 8.92578 35.2539 8.88672Q35.4102 8.84766 35.5469 8.84766L35.7812 8.86719Q36.0352 8.82812 36.3184 8.82812Q36.6016 8.82812 36.7773 8.78906L37.0703 8.78906Q37.3438 8.78906 37.6172 8.84766Q37.7734 8.84766 37.9102 8.87695Q38.0469 8.90625 38.1543 9.00391Q38.2617 9.10156 38.3984 9.14062Q38.5352 9.17969 38.6621 9.17969Q38.7891 9.17969 38.8281 9.18945Q38.8672 9.19922 38.9355 9.21875Q39.0039 9.23828 39.082 9.23828Q39.1602 9.23828 39.2188 9.12109Q39.2188 9.10156 39.3262 9.0918Q39.4336 9.08203 39.4824 9.02344Q39.5312 8.96484 39.5605 8.90625Q39.5898 8.84766 39.6289 8.82812Q39.5508 8.69141 39.2969 8.47656Q38.9844 8.18359 38.75 7.8125Q38.6523 7.63672 38.4863 7.58789Q38.3203 7.53906 38.1445 7.53906L37.1289 7.63672L34.5312 7.85156Q34.4922 7.85156 34.4336 7.85156Q34.375 7.85156 34.2773 7.67578Q34.2773 7.63672 34.2188 7.56836Q34.1602 7.5 34.0625 7.5Q33.7305 7.5 33.6523 7.77344L33.6523 7.79297Q33.6328 7.89062 33.584 7.98828Q33.5352 8.08594 32.8906 8.125L32.6562 8.16406Q32.7734 7.57812 32.7734 7.42188Q32.7734 7.28516 32.7344 7.13867Q32.6953 6.99219 32.4805 6.88477Q32.2656 6.77734 32.207 6.50391Q32.4219 6.42578 32.8516 6.34766L34.6289 6.17188Q34.8438 6.13281 35.332 6.13281L35.4688 6.11328Q35.6641 6.11328 35.8594 6.21094Q35.8984 6.23047 35.957 6.23047Q36.0156 6.23047 36.0352 6.21094Q36.4258 6.01562 36.6211 5.78125Q36.5039 5.72266 36.3867 5.60547Q36.3867 5.58594 36.3672 5.58594Q36.2695 5.50781 36.2109 5.39062Q36.0547 5.09766 35.7422 5.09766L35.5273 5.11719Q33.5156 5.41016 33.3984 5.41016L33.1445 5.39062Q33.1641 5.37109 33.1836 5.33203Q33.2031 5.29297 33.2422 5.29297Q33.4766 5.15625 33.6914 4.96094Q33.9062 4.76562 34.1797 4.64844Q34.3359 4.57031 34.4238 4.45312Q34.5117 4.33594 34.5703 4.17969L34.668 4.00391L34.6289 3.90625Q34.4922 3.69141 34.3359 3.55469Q34.2383 3.49609 34.1797 3.41797Q34.043 3.18359 33.7891 3.18359Q33.6914 3.18359 33.623 3.20312Q33.5547 3.22266 33.4863 3.25195Q33.418 3.28125 33.3398 3.28125Q32.8906 3.33984 32.4805 3.57422L31.6406 4.00391Q30.7031 4.51172 30.6055 4.51172Q30.4688 4.51172 30.3125 4.35547L29.9023 4.00391Q29.7852 4.12109 29.7852 4.17969Q29.8242 4.84375 29.8633 4.89258Q29.9023 4.94141 30.1367 5.17578Q30.2344 5.25391 30.3027 5.32227Q30.3711 5.39062 30.4492 5.41016L30.5859 5.41016L30.7812 5.3125Q30.9766 5.25391 31.1328 5.11719Q31.2891 4.98047 31.4355 4.88281Q31.582 4.78516 31.6797 4.6875Q33.0664 3.57422 33.2422 3.57422Q33.3398 3.57422 33.418 3.67188Q33.4961 3.76953 33.4961 3.84766L32.8711 4.66797Q32.3242 5.41016 31.4941 5.78125Q30.6641 6.15234 29.7852 6.40625Q29.2969 6.54297 28.8281 6.71875Q28.5938 6.79688 28.3594 6.83594L28.1445 6.875L28.125 6.83594Q28.3594 6.60156 28.584 6.35742Q28.8086 6.11328 29.0625 5.87891Q28.0078 6.42578 26.9922 7.01172Q26.8945 7.07031 26.8359 7.07031Q26.7188 7.07031 26.6992 6.875Q26.6992 6.38672 26.7188 6.34766L26.7383 5.97656Q26.7383 5.80078 26.8945 5.72266L27.3828 5.42969Q27.6562 5.19531 27.6562 4.98047Q27.6562 4.90234 27.5781 4.80469Q27.5 4.70703 27.3047 4.51172L26.8164 4.64844L26.8164 4.57031Q26.875 4.29688 26.875 4.00391Q26.875 3.78906 26.9141 3.55469L26.9336 3.30078L26.9336 2.98828Q26.9336 2.71484 27.0312 2.1875L27.1289 1.64062L27.1484 1.44531Q27.1484 1.34766 27.1289 1.2207Q27.1094 1.09375 26.9336 0.957031Q26.6602 0.722656 26.4062 0.46875L26.2305 0.449219Q26.1523 0.449219 26.0645 0.498047Q25.9766 0.546875 25.8984 0.625L25.5859 0.957031Q25.3711 1.11328 25.1465 1.31836Q24.9219 1.52344 24.8828 1.77734Q25.1562 1.36719 25.6641 1.07422L25.6641 1.21094L25.6836 1.30859Q25.6836 1.36719 25.6641 1.40625L25.5664 2.12891Q25.5664 2.34375 25.5859 2.53906L25.5859 2.75391Q25.625 2.98828 25.625 3.55469Q25.5859 5.27344 25.5078 5.35156Q25.2539 5.50781 23.5547 6.01562L23.0664 6.15234Q22.7344 6.26953 22.4023 6.34766Q22.3047 6.36719 22.0312 6.36719Q21.9336 6.34766 21.8164 6.2207Q21.6992 6.09375 21.5625 6.09375Q21.2891 6.09375 21.1523 6.32812Q21.1133 6.38672 21.0547 6.5625Q21.1328 6.71875 21.8555 7.44141Q22.0117 7.61719 22.207 7.61719Q22.3242 7.61719 22.3438 7.59766Q22.5586 7.59766 22.7441 7.51953Q22.9297 7.44141 23.1055 7.39258Q23.2812 7.34375 23.457 7.26562Q23.8672 7.16797 24.2188 6.91406Q24.3359 6.83594 24.5312 6.81641L24.6875 6.77734Q24.8242 6.73828 24.9414 6.66016Q25.1367 6.52344 25.3906 6.48438L25.4102 6.48438L25.4297 6.5625Q25.4297 6.62109 25.4102 6.66016Q25.4102 6.83594 25.3906 6.99219Q25.332 7.36328 25.3125 7.76367Q25.293 8.16406 24.9414 8.37891Q24.5898 8.59375 24.2383 8.80859Q23.7695 9.08203 23.3203 9.39453Q22.6367 9.86328 21.9141 10.2734Q21.543 10.5078 21.0938 10.5469Q20.8203 10.5664 20.6055 10.7129Q20.3906 10.8594 20.3906 10.9961Q20.3906 11.1914 21.0547 11.7578Q21.2305 11.9336 21.3477 11.9336Q21.5039 11.8945 21.6602 11.8945Q21.9531 11.8945 22.168 11.7578Q22.6562 11.4453 22.8906 11.4453Q22.9492 11.4453 23.0859 11.6016Q23.9258 12.4219 24.5117 13.8477Q24.6289 14.2383 24.9414 14.5508L25.0391 14.6289Q25.3125 14.8242 25.5078 15.1172Q25.7617 15.4102 25.957 15.4102ZM26.5625 9.94141L26.5625 9.82422Q26.5625 9.78516 26.5723 9.73633Q26.582 9.6875 26.6992 9.66797Q26.6797 9.64844 26.6504 9.63867Q26.6211 9.62891 26.5918 9.59961Q26.5625 9.57031 26.5625 9.23828Q26.5625 8.88672 26.6406 8.58398Q26.7188 8.28125 26.9141 8.07617Q27.1094 7.87109 27.9102 7.07031Q27.9102 7.03125 28.0078 7.03125L27.9102 7.22656L28.2812 7.57812Q28.3008 7.61719 28.418 7.61719L28.4766 7.61719Q29.1406 7.53906 29.4531 7.42188Q29.5117 7.38281 29.5898 7.36328L29.5898 7.20703Q29.668 7.30469 29.7461 7.30469Q29.8242 7.30469 29.9219 7.26562L30.7422 7.01172Q30.7617 6.99219 30.791 6.98242Q30.8203 6.97266 30.8398 6.93359Q31.0156 6.71875 31.4062 6.71875Q31.582 6.77734 31.7578 6.875Q31.7969 6.99219 31.7969 7.10938Q31.7969 7.30469 31.6992 7.5L31.582 7.75391Q31.4648 8.04688 31.3086 8.33984Q31.2109 8.49609 31.0938 8.53516Q30.0391 8.78906 29.0234 9.14062Q27.0312 9.84375 26.7188 9.92188L26.5625 9.94141ZM25.0977 13.2617Q25.0195 13.2227 24.8828 13.1934Q24.7461 13.1641 24.6973 13.0469Q24.6484 12.9297 24.541 12.8613Q24.4336 12.793 24.4336 12.6953L23.418 11.543Q23.2422 11.4062 23.2031 11.1914Q23.3984 10.8789 23.7305 10.7227Q23.9453 10.6055 24.1406 10.4297Q24.2188 10.3906 24.2773 10.332Q24.8828 9.88281 25.0781 9.70703Q25.1172 9.70703 25.1367 9.69727Q25.1562 9.6875 25.1953 9.66797L25.2148 9.78516Q25.2148 10.1758 25.1953 10.3418Q25.1758 10.5078 25.1758 10.6836L25.1953 11.0352L25.1953 11.3477Q25.1953 11.5039 25.2539 11.6406L25.2539 11.6992Q25.1562 11.7773 25.1562 11.875L25.1953 12.2656Q25.1953 12.5586 25.1465 12.8906Q25.0977 13.2227 25.0977 13.2617ZM32.0703 11.0547L31.9141 11.0547L30.6445 10.9375L30.625 10.8398Q30.625 10.8008 30.6445 10.7812Q30.6641 10.7617 30.6641 10.7422Q30.7617 10.5859 30.8984 10.5078Q31.1523 10.3516 31.3281 10.1172Q31.4453 9.98047 31.582 9.86328Q31.8555 9.58984 32.0508 9.25781L32.0508 9.23828Q32.1094 9.14062 32.1484 9.14062Q32.6172 9.02344 33.0859 9.02344Q33.1055 9.02344 33.125 9.04297Q33.1445 9.0625 33.1836 9.0625L33.125 9.27734Q32.6953 10.1367 32.1875 10.957Q32.1289 11.0352 32.0703 11.0547ZM29.8633 3.76953Q29.9609 3.76953 30.0586 3.74023Q30.1562 3.71094 30.2734 3.70117Q30.3906 3.69141 30.4688 3.69141Q30.8594 3.57422 31.0352 3.47656Q31.0547 3.45703 31.084 3.44727Q31.1133 3.4375 31.1523 3.39844Q31.1914 3.35938 31.25 3.35938L31.3086 3.35938Q31.4844 3.35938 31.6211 3.26172Q31.6992 3.22266 31.7969 3.20312Q32.4414 3.00781 32.6953 2.87109Q33.2031 2.63672 33.7891 2.57812Q34.1992 2.57812 34.3945 2.22656Q34.2578 2.14844 34.1211 1.95312Q33.9844 1.75781 33.7891 1.75781Q33.7109 1.75781 33.6328 1.79688L33.5547 1.75781Q33.75 1.67969 33.75 1.44531Q33.75 1.15234 33.4961 1.01562Q33.1836 0.820312 32.998 0.488281Q32.8125 0.15625 32.4414 0.15625Q31.9531 0.15625 31.3086 0.214844L31.25 0.214844Q31.0156 0.214844 30.918 0.371094Q32.5195 0.449219 32.7148 2.05078L32.5195 2.10938Q32.0117 2.22656 31.9043 2.28516Q31.7969 2.34375 31.6992 2.36328Q31.3867 2.38281 30.9766 2.51953Q30.1758 2.75391 29.6875 2.75391Q29.5312 2.75391 29.375 2.65625Q29.3164 2.61719 29.2773 2.61719Q29.1602 2.61719 28.9844 2.83203Q28.9453 2.85156 28.9062 2.91016L28.9258 2.92969Q28.9258 3.02734 29.5117 3.61328Q29.668 3.73047 29.8633 3.76953Z">
</path>
</g>
</svg>
