<svg xmlns="http://www.w3.org/2000/svg" xmlns:xlink="http://www.w3.org/1999/xlink" width="32" height="32" viewBox="0 0 32 32" fill="none">
<g  clip-path="url(#clip-path-F1WbmGTfCAKkQjA0SIXrv)">
<path     fill="#00BFFF"  d="M6.63062 3.05176e-05L25.3694 3.05176e-05C29.0256 3.05176e-05 32 2.97453 32 6.63066L32 25.3694C32 29.0257 29.0255 32 25.3694 32L6.63062 32C2.9745 32 0 29.0255 0 25.3694L0 6.63066C0 2.97453 2.9745 3.05176e-05 6.63062 3.05176e-05ZM25.3694 30.2703C28.0718 30.2703 30.2703 28.0718 30.2703 25.3694L30.2703 6.63066C30.2703 3.92828 28.0718 1.72975 25.3694 1.72975L6.63062 1.72975C3.92812 1.72975 1.72972 3.92816 1.72972 6.63066L1.72972 25.3694C1.72972 28.0718 3.92825 30.2703 6.63062 30.2703L25.3694 30.2703ZM20.6746 16.5991L20.6746 7.26128C20.6746 4.78653 18.5852 2.76128 16.0363 2.76128C13.4874 2.76128 11.398 4.78647 11.398 7.26128L11.398 16.808C10.048 18.0385 9.19634 19.7806 9.19634 21.7258C9.19634 25.4527 12.3115 28.4758 16.1537 28.4758C19.9958 28.4758 23.1111 25.4535 23.1111 21.7258C23.1111 19.6718 22.1623 17.8361 20.6746 16.5991ZM16.1537 27.0982C13.0975 27.0982 10.612 24.6876 10.612 21.7222C10.612 20.2287 11.2352 18.8361 12.367 17.808L12.8137 17.4031L12.8137 7.25769C12.8137 5.53294 14.2604 4.13166 16.0364 4.13166C17.8129 4.13166 19.2589 5.53366 19.2589 7.25769L19.2589 17.2287L19.7546 17.6401C20.9873 18.6653 21.6955 20.1523 21.6955 21.7222C21.6955 24.6876 19.2099 27.0982 16.1537 27.0982M18.8319 18.6847L17.8433 17.8613L17.8433 7.25769C17.8433 6.30812 17.0149 5.50484 16.0358 5.50484C15.056 5.50484 14.2274 6.30812 14.2274 7.25769L14.2274 7.793L15.4047 7.793L15.4047 8.63087L14.2297 8.63087L14.2297 9.98537L15.4069 9.98537L15.4069 10.824L14.2297 10.824L14.2297 12.1784L15.4069 12.1784L15.4069 13.017L14.2297 13.017L14.2297 14.3729L15.4069 14.3729L15.4069 15.2115L14.2297 15.2115L14.2297 17.996L13.3356 18.8087C12.4918 19.5781 12.0279 20.6127 12.0279 21.7236C12.0279 23.9332 13.876 25.7265 16.154 25.7265C18.432 25.7265 20.2798 23.9291 20.2798 21.7237C20.2798 20.5544 19.7509 19.447 18.8317 18.6848M16.1536 24.8108C14.3985 24.8108 12.9706 23.4247 12.9706 21.7222C12.9706 20.8678 13.3294 20.0673 13.9814 19.4759L15.1716 18.3909L15.1716 16.7159L16.8993 16.7159L16.8993 18.2835L18.2169 19.3779C18.928 19.9701 19.3357 20.8245 19.3357 21.723C19.3364 23.4247 17.9085 24.8108 16.1534 24.8108">
</path>
</g>
<defs>
<clipPath id="clip-path-F1WbmGTfCAKkQjA0SIXrv">
<path d="M0 32L32 32L32 0L0 0L0 32Z" fill="white"/>
</clipPath>
</defs>
</svg>
