<svg xmlns="http://www.w3.org/2000/svg" xmlns:xlink="http://www.w3.org/1999/xlink" width="36.97265625" height="16.89453125" viewBox="0 0 36.97265625 16.89453125" fill="none">
<g >
<path     fill="#000000"  d="M11.4453 16.4062Q11.582 16.4062 11.7578 16.3281Q12.1875 16.1328 12.1875 15.6836Q12.1875 15.625 12.1582 15.5664Q12.1289 15.5078 12.1191 15.4199Q12.1094 15.332 12.1094 15.293Q12.1094 15.0781 12.3047 14.9023L12.5586 14.6484Q13.0078 14.2773 13.3789 13.8086Q13.8281 13.2227 14.2188 12.6172Q14.4531 12.2461 14.4531 11.8359Q14.4531 11.4258 14.3164 11.2891Q13.8867 10.957 13.5938 10.5078Q13.4766 10.332 13.3008 10.332Q13.2422 10.332 13.1641 10.3711Q12.9492 10.4688 12.7148 10.5078Q11.9727 10.7227 11.2109 11.2305L9.94141 12.0117Q9.72656 12.1484 9.41406 12.1875L9.84375 11.4453Q10.2734 10.7422 10.4492 10.3516Q10.625 9.96094 10.9961 9.84375L11.4844 9.6875Q13.4766 9.10156 14.5898 8.94531L14.8047 8.90625Q15 8.88672 15.1758 8.88672Q15.3516 8.88672 15.5469 8.84766L15.6836 8.84766Q15.9375 8.84766 16.0547 8.71094Q16.1719 8.57422 16.2695 8.41797L16.3672 8.30078Q16.3477 8.28125 16.3281 8.24219Q16.3086 8.20312 16.2695 8.18359Q15.8398 7.83203 15.5078 7.34375Q15.332 7.07031 15.0195 7.07031Q14.9219 7.07031 14.8047 7.10938Q14.4141 7.26562 14.0039 7.38281Q13.3789 7.53906 12.5 7.53906Q12.3633 7.96875 11.9141 7.98828Q11.8359 7.98828 11.7383 8.04688Q11.6406 8.10547 11.5723 8.10547Q11.5039 8.10547 11.4453 8.125L11.9531 6.54297L12.7734 6.21094Q13.0859 6.09375 13.3398 5.91797Q13.5352 5.80078 13.5352 5.66406Q13.5352 5.54688 13.3496 5.39062Q13.1641 5.23438 12.9883 5.01953Q12.8125 4.80469 12.6172 4.80469Q12.5391 4.80469 12.4609 4.83398Q12.3828 4.86328 12.2461 4.86328Q12.2266 4.82422 12.2266 4.76562Q12.2266 4.51172 12.2656 4.27734L12.2852 3.84766Q12.3242 3.63281 12.3242 3.4375Q12.3242 2.73438 11.9336 2.10938Q11.8555 1.95312 11.7188 1.85547Q11.4258 1.66016 11.25 1.34766Q11.0938 1.19141 11.0742 1.15234L10.6445 1.36719L10.3906 2.42188Q10.8594 2.61719 10.8594 3.08594Q10.8594 3.33984 10.8789 3.51562L10.8984 3.67188Q10.8984 3.86719 10.8203 4.08203L10.8203 4.12109Q10.8398 4.12109 10.8398 4.14062Q10.8398 4.60938 10.8203 4.88281Q10.8203 4.92188 10.7812 4.96094Q10.7422 5 10.7422 5.00977Q10.7422 5.01953 10.7031 5.05859Q10.6641 5.09766 10.6641 5.11719L10.6836 5.23438Q10.6836 5.44922 10.4102 5.44922Q10.2734 5.44922 10.2344 5.47852Q10.1953 5.50781 10.1562 5.50781Q10.0195 5.56641 9.78516 5.56641L9.66797 5.54688Q9.47266 5.54688 9.31641 5.66406Q9.16016 5.625 9.02344 5.625Q8.76953 5.625 8.33984 5.80078Q8.24219 5.85938 8.125 5.89844Q8.10547 5.95703 8.10547 6.03516Q8.10547 6.26953 8.30078 6.44531Q8.49609 6.62109 8.69141 6.81641Q9.02344 7.1875 9.57031 7.22656Q9.84375 7.22656 10.0391 7.14844Q10.1172 7.10938 10.2148 7.10938Q10.293 7.10938 10.3711 7.22656Q10.1562 7.65625 10.1465 7.67578Q10.1367 7.69531 10.1367 7.91016Q10.1367 8.71094 9.31641 8.88672Q8.94531 8.94531 8.63281 9.19922Q8.47656 9.31641 8.28125 9.39453Q8.20312 9.41406 8.14453 9.45312L7.65625 9.64844L7.53906 9.62891L7.40234 9.62891Q7.22656 9.62891 6.62109 10.0391Q6.5625 10.0586 6.52344 10.0977Q6.40625 10.1758 6.34766 10.293L6.79688 10.7227L6.50391 10.8008Q5.91797 10.9375 5.80078 10.9375Q5.64453 10.9375 5.64453 10.8008Q5.68359 10.2734 6.01562 10.0977Q6.25 9.98047 6.46484 9.76562Q6.62109 9.62891 6.79688 9.51172Q7.10938 9.29688 7.12891 8.98438Q7.12891 8.65234 6.85547 8.4375Q6.64062 8.28125 6.49414 8.07617Q6.34766 7.87109 6.15234 7.77344Q5.72266 7.51953 5.37109 7.20703Q5.29297 7.14844 5.24414 7.06055Q5.19531 6.97266 5.17578 6.875L5.15625 6.875L5.13672 6.75781Q5.13672 6.60156 5.36133 6.48438Q5.58594 6.36719 5.82031 6.25Q6.15234 6.11328 6.46484 5.95703Q7.34375 5.50781 7.34375 5.3125Q7.34375 5.17578 6.79688 4.70703Q6.73828 4.66797 6.69922 4.60938L6.58203 4.60938Q6.54297 4.62891 6.34766 4.62891L6.07422 4.62891Q5.97656 4.62891 5.87891 4.55078Q5.87891 4.51172 5.89844 4.44336Q5.91797 4.375 5.91797 4.19922Q5.91797 4.02344 5.94727 3.88672Q5.97656 3.75 5.97656 3.63281Q5.97656 2.94922 5.54688 2.57812Q5.25391 2.34375 5.05859 2.03125Q4.92188 1.85547 4.74609 1.85547Q4.57031 1.85547 4.44336 2.00195Q4.31641 2.14844 4.29688 2.26562L4.16016 4.23828Q4.0625 4.96094 3.94531 5.37109Q3.90625 5.56641 3.71094 5.625L3.63281 5.64453Q3.16406 5.78125 3.02734 5.83984Q2.77344 5.97656 2.30469 6.01562Q2.14844 6.01562 1.99219 6.05469Q1.75781 6.05469 1.52344 6.11328Q1.36719 6.17188 1.25 6.32812Q1.25 6.75781 1.5625 7.01172Q1.64062 7.07031 1.68945 7.14844Q1.73828 7.22656 1.79688 7.27539Q1.85547 7.32422 1.91406 7.38281Q2.26562 7.77344 2.55859 7.77344Q2.69531 7.77344 2.85156 7.69531Q3.00781 7.61719 3.20312 7.57812Q3.20312 7.73438 3.18359 7.8125L2.98828 8.22266Q2.94922 8.41797 2.83203 8.57422Q2.71484 8.73047 2.61719 8.98438L2.48047 9.29688L1.64062 10.7031L1.50391 11.1523Q1.62109 11.2305 1.71875 11.3281L2.14844 11.6992Q2.28516 11.8164 2.44141 11.8164Q2.55859 11.8164 2.75391 11.7188L3.08594 11.582Q3.53516 11.4648 3.86719 11.1523Q3.94531 11.0742 4.0625 11.0742Q4.29688 11.0742 4.29688 11.3086L4.27734 11.4258Q4.19922 11.6406 4.04297 11.748Q3.88672 11.8555 3.69141 11.9238Q3.49609 11.9922 3.28125 12.0508Q2.98828 12.1094 2.73438 12.2461Q2.14844 12.5195 1.54297 12.6367L1.21094 12.7148Q0.957031 12.793 0.732422 12.8418Q0.507812 12.8906 0.3125 12.9395Q0.117188 12.9883 0.0390625 13.1641Q0 13.2422 0 13.3203Q0 13.5156 0.507812 13.9453Q0.664062 14.082 0.820312 14.1211Q1.36719 14.1211 1.62109 14.1016Q2.1875 14.0039 2.44141 13.9258L2.65625 13.9062Q3.08594 13.9062 3.4375 14.375Q3.61328 14.5898 3.80859 14.7852Q4.66797 15.6055 4.90234 15.6055Q4.98047 15.6055 5.13672 15.5273Q5.46875 15.3516 5.46875 13.9453Q5.46875 13.6523 5.44922 13.3789Q5.44922 12.7148 5.9375 12.3828Q6.05469 12.3047 6.13281 12.207L7.08984 11.1914Q7.20703 11.0547 7.34375 10.9961Q8.02734 10.918 8.67188 10.6641L9.0625 10.5664L8.88672 10.8984Q8.67188 11.2305 8.49609 11.5625Q8.41797 11.7188 8.31055 11.9238Q8.20312 12.1289 8.06641 12.3535Q7.92969 12.5781 7.92969 12.7148L7.92969 12.832Q7.94922 12.9102 8.16406 13.0859L8.24219 13.1641Q8.37891 13.2617 8.49609 13.3984Q8.67188 13.5938 8.88672 13.5938Q8.98438 13.5938 9.11133 13.5547Q9.23828 13.5156 9.35547 13.4375Q9.47266 13.3594 9.51172 13.2031L9.62891 13.2227Q9.88281 13.2227 10 12.9883Q10.0195 12.9688 10.0195 12.9297Q10.0781 12.8125 10.1172 12.8125Q10.2539 12.793 10.4492 12.6367Q10.5469 12.5391 10.6641 12.4805Q10.8789 12.4023 11.0547 12.2656Q11.3477 12.0703 11.6992 12.0117Q11.7188 12.0117 11.8555 11.875L11.9336 11.8164Q11.9531 11.8164 11.9531 11.8359L12.0508 11.8359Q12.1484 11.8359 12.2363 11.7773Q12.3242 11.7188 12.3828 11.6992Q12.6172 11.582 12.7539 11.582Q12.8516 11.7188 12.8516 11.8359Q12.8516 11.9336 12.793 12.0312Q12.6172 12.3438 12.5 12.6562Q12.1094 13.4961 11.4258 14.0625Q11.3477 14.1211 11.2891 14.1211Q11.2109 14.1211 11.1523 14.043Q10.9766 13.8672 10.8789 13.7012Q10.7812 13.5352 10.625 13.5352L10.5078 13.5547Q10.0586 13.6328 10.0586 14.2578Q10.0586 14.5117 10.2148 14.9219L10.2734 15.0391Q10.4688 15.5078 10.7812 15.9375Q11.0547 16.4062 11.4453 16.4062ZM3.53516 10.0586Q3.53516 9.86328 3.52539 9.80469Q3.51562 9.74609 3.51562 9.70703Q3.51562 9.60938 3.59375 9.49219Q4.27734 8.33984 4.28711 8.32031Q4.29688 8.30078 4.45312 8.06641Q4.6875 8.37891 4.6875 8.67188Q4.6875 8.69141 4.66797 8.85742Q4.64844 9.02344 4.53125 9.33594Q4.41406 9.64844 4.14062 9.80469Q3.86719 9.96094 3.53516 10.0586ZM4.10156 14.3945L4.0625 14.3945Q4.00391 14.3945 3.93555 14.3359Q3.86719 14.2773 3.76953 14.2188Q3.49609 14.043 3.26172 13.6914L4.14062 13.3789Q4.27734 13.6133 4.27734 13.8281Q4.25781 14.0625 4.17969 14.2773Q4.16016 14.3555 4.10156 14.3945ZM28.4961 14.668Q28.5547 14.6094 28.6133 14.5898Q28.8867 14.375 28.916 14.3652Q28.9453 14.3555 28.9453 14.3359Q29.0234 14.043 29.043 13.7695Q29.0234 13.5547 29.0039 13.3789Q28.9844 13.2031 28.9746 13.0469Q28.9648 12.8906 28.9648 12.7539L28.9648 12.4609Q29.0039 12.2266 29.0039 11.9922L28.9844 11.6406L28.9648 11.4844Q28.9648 11.4062 29.0039 11.3281Q29.043 11.25 29.043 11.1914Q29.043 11.0352 29.0039 10.918L28.9844 10.8789L28.9648 10.6836Q28.9648 10.6055 29.043 10.5273Q28.9648 10.4297 28.9648 10.3516Q28.9648 10.2539 29.1211 10.1562Q28.9453 10.0781 28.9453 10Q28.9453 9.96094 28.9844 9.90234Q29.0234 9.84375 29.0234 9.76562Q29.0234 9.64844 29.0039 9.60938Q28.9844 9.57031 28.9844 9.53125L28.9844 9.41406Q29.5117 9.0625 29.6875 8.98438Q30.0586 8.80859 30.2734 8.37891L30.1172 8.49609Q29.8633 8.71094 29.5703 8.71094L29.2773 8.69141L29.3945 8.61328Q29.5508 8.49609 29.7266 8.41797Q29.8438 8.41797 29.9121 8.33008Q29.9805 8.24219 30.0488 8.21289Q30.1172 8.18359 30.1855 8.13477Q30.2539 8.08594 30.3516 8.02734Q30.5469 7.85156 30.7812 7.75391Q30.8789 7.71484 30.9473 7.64648Q31.0156 7.57812 31.123 7.54883Q31.2305 7.51953 31.6602 7.1875Q32.2656 6.81641 32.2656 6.34766Q32.2656 6.11328 32.0703 5.89844Q31.7969 5.625 31.6602 5.46875Q31.5234 5.3125 31.3867 5.15625Q30.1953 5.17578 29.2383 5.83984L29.2188 5.76172Q29.2188 5.56641 29.2383 5.44922Q29.2578 5.21484 29.2676 4.95117Q29.2773 4.6875 29.3945 4.43359L30.1953 4.29688L30.332 4.25781L30.7227 4.19922Q31.0742 4.17969 31.3672 3.98438Q31.3867 3.96484 31.4062 3.95508Q31.4258 3.94531 31.4551 3.92578Q31.4844 3.90625 31.4844 3.88672Q31.5234 3.75 31.6406 3.63281L31.7188 3.53516Q31.6602 3.4375 31.582 3.35938Q30.957 2.53906 30.8984 2.53906Q30.8203 2.46094 30.7422 2.46094Q30.6836 2.46094 30.6445 2.48047Q29.9414 2.77344 29.707 2.89062L29.5117 2.98828Q29.5117 2.03125 29.7852 1.11328Q29.8242 0.976562 29.8242 0.898438Q29.8242 0.78125 29.6094 0.615234Q29.3945 0.449219 29.2188 0.195312Q29.1016 0 28.9648 0Q28.8281 0 28.5547 0.195312Q28.3984 0.3125 28.2227 0.390625Q27.8516 0.566406 27.6367 0.898438Q27.5781 0.976562 27.5195 1.05469Q27.4609 1.13281 27.4609 1.23047Q27.4609 1.36719 27.5781 1.48438Q27.5977 1.26953 27.7344 1.15234Q27.9297 0.957031 28.1055 0.957031Q28.2812 0.957031 28.2812 1.13281L28.2422 1.38672Q28.2031 1.93359 28.2031 3.37891Q28.1641 3.45703 28.0957 3.4668Q28.0273 3.47656 27.9688 3.49609Q27.9102 3.51562 27.832 3.53516Q27.5586 3.61328 26.6992 3.92578Q25.6641 4.35547 25.2148 4.35547Q25.0391 4.35547 24.8633 4.31641L24.7852 4.31641Q24.6875 4.31641 24.5898 4.33594Q24.4922 4.35547 24.375 4.375L24.5703 4.57031Q24.7656 4.82422 24.9609 5.01953Q25.0586 5.11719 25.1465 5.11719Q25.2344 5.11719 25.2734 5.13672Q25.4492 5.17578 25.6055 5.17578Q25.7422 5.17578 25.8398 5.15625Q25.9375 5.13672 25.9961 5.13672Q26.2695 5.05859 26.5527 4.98047Q26.8359 4.90234 27.0898 4.78516L27.4609 4.64844Q27.6367 4.53125 27.793 4.51172Q27.9492 4.49219 28.0664 4.45312L28.1055 4.45312Q28.1055 4.47266 28.125 4.47266L28.125 4.74609Q28.125 5.27344 28.0664 5.82031Q28.0273 6.11328 28.0078 6.42578L26.9336 6.99219L26.6016 7.22656L26.4844 7.24609Q26.3281 7.24609 26.3281 6.93359Q26.3281 6.71875 26.5625 6.36719Q26.6211 6.30859 26.6602 6.23047L26.4648 6.32812Q25.8789 6.50391 25.6641 7.28516Q25.3906 7.96875 25.3906 8.20312L25.3711 8.37891Q25.3711 8.65234 25.5859 8.82812Q25.7227 8.92578 25.8496 9.02344Q25.9766 9.12109 26.0938 9.19922Q26.2109 9.27734 26.2695 9.27734Q26.3867 9.27734 26.4258 9.0625L26.6211 9.02344L26.6406 8.84766Q26.6406 8.61328 26.6992 8.39844L26.6992 8.20312Q26.6992 7.94922 26.9531 7.8125L27.5977 7.42188L27.8711 7.24609Q27.9492 7.34375 27.9492 7.44141L27.9297 7.53906Q27.8906 7.67578 27.8906 7.89062Q27.8516 8.47656 27.8516 8.71094Q27.2656 9.12109 26.5625 9.53125L26.3086 9.6875Q26.1523 9.74609 26.1523 9.88281L26.1523 9.96094Q26.1523 10.0195 26.2598 10.0977Q26.3672 10.1758 26.5039 10.3125Q26.6406 10.4492 26.7578 10.4492L26.8555 10.4297L27.5391 10.1562L27.832 10.0195Q27.8125 10.0781 27.8027 10.1367Q27.793 10.1953 27.7637 10.2539Q27.7344 10.3125 27.666 10.4102Q27.5977 10.5078 27.5391 10.625Q27.4805 10.8203 27.2852 10.8789Q26.543 11.1719 26.2891 11.3086Q26.0352 11.4453 25.7617 11.4453Q25.5859 11.4453 25.4297 11.3867L25.293 11.3672Q25.1172 11.3672 25 11.5137Q24.8828 11.6602 24.7656 11.7773Q24.6094 11.9922 24.4336 12.1875Q24.375 12.2656 24.375 12.3242Q24.375 12.4023 24.4336 12.4609L25.2344 13.1641Q25.3125 13.2422 25.4297 13.2422Q25.6445 13.2422 25.9766 12.9883L26.0156 12.9688Q26.3672 12.6758 26.4355 12.6172Q26.5039 12.5586 26.582 12.5586Q26.6406 12.5781 26.7188 12.6758Q26.9141 12.8516 27.1777 13.3203Q27.4414 13.7891 27.8906 14.1211Q27.9883 14.1992 28.0566 14.2773Q28.125 14.3555 28.1836 14.3945L28.4961 14.668ZM27.6758 12.9102L27.6367 12.9102Q27.6172 12.9102 27.5488 12.9102Q27.4805 12.9102 26.9141 12.2656Q26.875 12.2461 26.875 12.1875Q26.875 12.0898 27.3633 11.4453Q27.5977 11.5039 27.8125 11.582Q27.8125 12.2852 27.793 12.7344Q27.793 12.8711 27.6758 12.9102ZM29.1016 7.69531L29.1602 6.64062L29.3555 6.5625Q29.7656 6.34766 30.2539 6.30859L30.2734 6.44531L30.1562 6.64062Q30 6.89453 29.7852 7.10938Q29.6875 7.1875 29.6094 7.30469Q29.4141 7.57812 29.1016 7.69531ZM25.4297 11.7383Q25.293 11.7383 25.2734 11.6797Q25.2539 11.6211 25.2539 11.582Q25.2734 11.5234 25.3223 11.4844Q25.3711 11.4453 25.4102 11.4453L25.6641 11.4648L25.8008 11.5039Q25.7422 11.543 25.6738 11.6113Q25.6055 11.6797 25.5469 11.709Q25.4883 11.7383 25.4297 11.7383ZM32.8516 16.8945Q33.4375 16.8945 33.7891 16.8359Q33.9453 16.7969 34.1016 16.7969Q34.2578 16.7969 34.4141 16.8359L34.707 16.8164Q34.9805 16.7969 35.2539 16.7383Q35.8594 16.6211 36.4844 16.6211L36.8945 16.6211L36.9727 16.6016L36.6992 16.4062Q35.6445 15.7617 34.4922 15.332Q34.1211 15.2148 33.6523 15.2148L33.5352 15.2148Q33.418 15.2148 33.3203 15.1953Q32.832 15.0586 32.3242 15.0586L31.6211 15.0195Q31.1328 14.9609 30.6641 14.9609Q30.0586 14.9414 29.4531 14.8633L28.9844 14.8047Q28.3789 14.7266 27.7734 14.5703L27.4609 14.4727Q26.9922 14.3945 26.543 14.2383L25.9766 14.082Q25.6055 13.9844 25.2148 13.9062Q25.0781 13.8867 24.9609 13.8477L24.9219 13.8477Q24.6484 13.8086 24.6094 13.6133Q24.5898 13.5742 24.4727 13.457L24.1992 13.1836Q24.1016 13.0078 23.9258 12.9688Q23.6523 12.9688 23.4473 12.9004Q23.2422 12.832 23.0664 12.7734Q22.5977 12.6367 22.1875 12.4023Q21.3086 11.7969 21.3086 11.25Q21.3086 11.1133 21.3477 10.9766Q21.4648 10.1758 22.1289 9.70703Q22.3438 9.55078 22.5 9.33594Q22.5781 9.21875 22.5781 9.14062Q22.5781 9.04297 22.4023 8.91602Q22.2266 8.78906 22.1289 8.60352Q22.0312 8.41797 21.8945 8.41797Q21.7969 8.41797 21.6797 8.49609L21.2695 8.73047L20.0781 9.17969L19.4922 9.43359Q19.707 9.53125 19.9219 9.53125L20.1367 9.51172Q20.4883 9.49219 20.8594 9.43359Q20.8594 9.64844 20.7812 9.80469Q20.7031 9.96094 20.6836 10.1367Q20.5664 10.6055 20.5664 10.8398Q20.5664 10.957 20.5859 11.0742Q20.6055 11.1914 20.6152 11.2891Q20.625 11.3867 20.6836 11.5039Q20.7422 11.6211 20.7422 11.6602L20.7422 11.7188Q20.7422 11.7578 20.8398 11.8164Q20.8594 11.8555 20.8984 11.875Q21.0742 12.1094 21.3281 12.3633Q21.8555 12.8906 21.9629 12.959Q22.0703 13.0273 22.0898 13.1445Q22.1094 13.2617 22.168 13.3203Q22.168 13.3594 22.1484 13.3789Q22.0117 13.418 21.875 13.4375Q21.7383 13.457 20.6836 13.7305Q19.9414 13.8867 19.2188 14.1602Q19.1992 14.1602 19.1992 14.1797Q19.0234 14.2578 18.8184 14.2676Q18.6133 14.2773 18.4375 14.5508Q18.3984 14.5898 18.3984 14.6484Q18.3984 14.707 18.5059 14.7754Q18.6133 14.8438 18.7012 14.9512Q18.7891 15.0586 18.9062 15.0586Q19.0234 15.0586 19.6484 14.8047Q21.0938 14.1992 22.4609 14.1992Q22.6367 14.1992 22.793 14.2188L23.418 14.2188Q23.5938 14.2188 23.7695 14.2871Q23.9453 14.3555 24.1211 14.3555L24.2578 14.3359L24.3359 14.3945L24.4727 14.4531Q25.0781 14.6484 25.6641 14.9023L25.7617 14.9414Q25.9766 15 26.1133 15.1367Q26.3672 15.3711 26.6797 15.5078L26.9141 15.625Q27.3242 15.8398 27.7344 15.9961Q28.2422 16.2305 28.291 16.2793Q28.3398 16.3281 28.3984 16.3281Q28.6914 16.3477 28.9258 16.4551Q29.1602 16.5625 29.4141 16.6016L30.0977 16.6992Q30.5273 16.7773 30.918 16.7773Q31.1914 16.7773 31.3281 16.7969Q31.8359 16.875 31.9336 16.875L32.6953 16.875L32.8516 16.8945ZM34.1211 12.4219L34.2383 12.3047Q34.4727 12.1094 34.668 11.9141L34.6484 11.8555L34.5703 11.6992L34.043 10.957Q33.8086 10.6055 33.457 10.6055L33.3203 10.625Q32.9492 10.6641 32.5781 10.6641Q32.3242 10.6641 32.0898 10.6836L30.7617 10.6836L29.6094 10.8203L29.4336 10.8203Q29.4531 10.8594 29.4727 10.8691Q29.4922 10.8789 29.8633 10.9082Q30.2344 10.9375 30.5859 11.0645Q30.9375 11.1914 31.3281 11.2891Q31.3477 11.3086 31.3867 11.3086Q31.6797 11.4062 31.6797 11.582Q31.6797 11.6992 31.5625 11.8555L31.4648 11.9922L32.0898 11.9922Q33.0469 11.9922 33.9258 12.3828L34.1211 12.4219ZM22.5 6.36719Q23.0859 6.36719 23.1836 6.15234Q23.2812 5.9375 23.2812 5.78125Q23.2812 5.66406 23.125 5.54688L23.1055 5.54688Q22.832 5.35156 22.6367 5.05859Q22.5195 4.86328 22.3438 4.86328Q22.207 4.86328 21.582 5.09766L21.3672 5.19531L21.1914 5.17578Q21.1523 5.19531 21.1133 5.22461Q21.0742 5.25391 21.0156 5.25391L20.2344 5.23438L19.9805 5.23438Q20.0195 5.33203 20.0586 5.35156Q20.5078 5.60547 20.9766 5.76172Q21.2891 5.85938 21.6016 5.99609L21.6406 6.01562L21.6797 5.99609Q21.7188 5.97656 21.7773 5.97656Q21.9727 5.97656 22.168 6.21094Q22.2266 6.26953 22.2852 6.31836Q22.3438 6.36719 22.5 6.36719Z">
</path>
</g>
</svg>
